<svg xmlns="http://www.w3.org/2000/svg" xml:space="preserve" fill-rule="evenodd" stroke-linecap="round" stroke-linejoin="round" stroke-miterlimit="1.5" clip-rule="evenodd" viewBox="0 0 1000 292">
  <path fill="none" d="M0 0h1000v291.1H0z"/>
  <path fill="#d96226" fill-rule="nonzero" d="M621.8 103.4a40.2 40.2 0 0 0-5.5 1.8l-8 2.8a3983.3 3983.3 0 0 1-6 2l-2.2 1-.8.2a4 4 0 0 1-1.8-.4 4.6 4.6 0 0 1-2.3-2.7c-.2-.6-.3-1.2-.3-1.9 0-1.3.4-2.3 1.1-3.1a8 8 0 0 1 2.7-1.8c1-.4 2-.6 3.2-.8a155 155 0 0 0 3.3-.4 39.4 39.4 0 0 0 2-.7l.9-.2a163.5 163.5 0 0 1 11-4c1.5-.5 2.8-.7 3.8-.7 1.2 0 2.2.2 3.1.6a6.9 6.9 0 0 1 4.3 6.7v1.4l-.4 1.7c-1 3.6-2.5 7-4.5 10a44.6 44.6 0 0 1-15.9 15.2 54 54 0 0 1-10 4.8 23 23 0 0 1-4.4 1.3 30.2 30.2 0 0 1-4.7.7 36 36 0 0 1-5.4-.4 8.2 8.2 0 0 1-2.6-.9 26 26 0 0 1-5-3 19 19 0 0 1-7.5-15.4c0-2.4.4-4.8 1.1-7.4a64.5 64.5 0 0 1 14-23 80.4 80.4 0 0 1 18-14.9 49.8 49.8 0 0 1 10.1-4.5c1.7-.5 3.4-.7 5-.7a13.7 13.7 0 0 1 7.5 2.2c1 .7 1.9 1.5 2.5 2.5a6 6 0 0 1 1 3.3c0 .6 0 1.2-.2 1.8l-.4 1.4c-.2.6-.5 1.1-.8 1.5l.1-.1c0 .4-.3.6-.6.7a4.6 4.6 0 0 1-3.4-.6l-2-1.6-1.7-1.6a3 3 0 0 0-2-.7h-1.3c-2.5.6-5.2 1.6-8 3A62 62 0 0 0 592 91.3a64 64 0 0 0-6.8 8.2 44 44 0 0 0-4.8 8.6 21.7 21.7 0 0 0-1.7 8.4c0 2.1.5 4 1.5 5.6 1 1.5 2.4 3 4.3 4.6 1 .6 2 1.2 3.3 1.6 1.1.5 2.3.7 3.4.7 1.2 0 2.5-.2 3.8-.7a32 32 0 0 0 8.2-3.9 323 323 0 0 0 3.6-2.2 35 35 0 0 0 8.7-8c2.3-3 4.3-6.1 5.8-9.4l.2-.5.1-.4.1-.4Zm15.7 28.1c1.8-7.3 3.7-14.6 5.7-21.8a1001.5 1001.5 0 0 0 7.5-29.8 21.9 21.9 0 0 0-.1-6.9c0-.7 0-1.5.3-2.3a10 10 0 0 1 2-4.4c1-1 2.3-1.5 4-1.5a29.9 29.9 0 0 1 4.2.7 25.5 25.5 0 0 0 4.8.9l2-.1a86.9 86.9 0 0 1 16 0l4 1a16.6 16.6 0 0 1 7 4.5 11 11 0 0 1 2 3.9 12.6 12.6 0 0 1 .6 3.8c0 2-.5 3.9-1.5 5.8a24.3 24.3 0 0 1-4.6 6 44.3 44.3 0 0 1-10.2 7.5 191.7 191.7 0 0 1-7.4 3.9l-2.1 1.2a110.3 110.3 0 0 1 6.9 3.9 29.6 29.6 0 0 1 7.4 7.4 66.8 66.8 0 0 1 9 16.8c0 .7-.1 1.4-.4 2l-1.1 1.9c-.5.5-1 1-1.7 1.3-.6.4-1.3.5-2 .5-1.2 0-2.2-.4-2.9-1.2a17 17 0 0 1-2.1-3.3 81 81 0 0 1-2.2-4.6 39.5 39.5 0 0 0-11-14.8 22.8 22.8 0 0 0-4.9-3c-1.7-.6-3.4-1-5-1h-.8c-1 0-1.9 0-2.7.3l-2.3.4c-1-.3-1.7-1-2.2-1.7a6 6 0 0 1-.7-2.7v-.7l-3.8 15.2a596.8 596.8 0 0 1-4.3 15.3c-.5.8-1 1.4-1.7 1.9a4 4 0 0 1-2.3.7c-1.4 0-2.4-.4-3-1.3-.5-.8-.8-1.8-.8-3a10.1 10.1 0 0 1 .4-2.7Zm23.8-54.4a1237.7 1237.7 0 0 1-2 7l-1.5 5-1.6 5.3-1.5 5.2c-.5 1.6-1 3.1-1.3 4.5.6-.9 1.6-1.6 2.9-2.3 1.3-.6 2.8-1.3 4.4-1.8a69.2 69.2 0 0 0 10.4-4.8 106 106 0 0 0 11.5-7.2 24 24 0 0 0 4-4c1-1.2 1.5-2.5 1.5-3.7 0-1.2-.5-2.2-1.3-2.8a8.5 8.5 0 0 0-3.2-1.6 56.3 56.3 0 0 0-15.3-.4c-2.3.2-4.7.8-7 1.6Zm49.5 37.3a94 94 0 0 1 4.7-15.8l2.4-6.3 1.9-6.3.6-2.3.3-2.2a450.2 450.2 0 0 1 .8-5.5c.2-1 .5-1.8.8-2.5.4-.8.9-1.4 1.5-1.8.5-.5 1.3-.7 2.2-.7a4.9 4.9 0 0 1 4.2 1.9l1 2 .2 2.3a17 17 0 0 1-.5 4c-.3 1.4-.9 3-1.7 5a2458 2458 0 0 0-5.6 14 88.2 88.2 0 0 0-3.9 14.2 37.4 37.4 0 0 0-.2 9.2c.3 1.2.7 2.2 1.2 3.1.6.9 1.4 1.6 2.4 2.1s2.2.8 3.8.8l3.6-.3a29.6 29.6 0 0 0 11.6-5.8 59 59 0 0 0 6.3-6 62.5 62.5 0 0 0 9.7-15.7 92.9 92.9 0 0 0 6.8-20.4 40.4 40.4 0 0 0 .6-6.8l.3-4.3c0-1.2.4-2.4 1-3.3.7-1 1.6-1.4 3-1.4.8 0 1.5.3 2 1 .7.6 1.1 1.4 1.5 2.3a15.1 15.1 0 0 1 1.2 5.9 62 62 0 0 1-1.7 10.6 129.6 129.6 0 0 1-8 22 63.5 63.5 0 0 1-25.4 27.9c-2 1.1-4 2-6 2.7a21.7 21.7 0 0 1-13.8-.2c-2.3-.8-4-2-5.5-3.4a14.1 14.1 0 0 1-3.3-5.3c-.7-2-1-4.3-1-6.7 0-1.2 0-2.5.3-3.9l.7-4Zm114.5 1.6c0 2.3-.6 4.7-2 7.2a21.6 21.6 0 0 1-6.6 6.8 46.2 46.2 0 0 1-7.8 4.4 88.4 88.4 0 0 1-10.2 4.1 52.1 52.1 0 0 1-10 1.9c-.7 0-1.3 0-1.8-.2-.6-.1-1-.3-1.5-.6s-1-.7-1.3-1.2c-.5-.5-1-1.2-1.4-2a8.3 8.3 0 0 1-5 1.8h-1.4a1 1 0 0 1-.7-.3 3.2 3.2 0 0 1-1.2-2.4c0-1.6.2-3.2.7-4.7l1.6-4.5a513.3 513.3 0 0 0 10.2-35l1.4-5.5V85l-.3-3.6.2-.8a20.8 20.8 0 0 1 1.7-4c.4-.7.9-1.2 1.4-1.7.5-.4 1-.6 1.6-.6l2.1.1a25 25 0 0 0 3.3 0c.3 0 .7 0 1.1-.2a50.6 50.6 0 0 0 4.9-1.5 89 89 0 0 1 9.4-2.7 41.4 41.4 0 0 1 8-.8c1.7 0 3.4.2 5 .5s3 .9 4.3 1.6a10 10 0 0 1 3 2.8 7.8 7.8 0 0 1 1 4.3c0 2.9-.7 5.4-2.2 7.7a24.7 24.7 0 0 1-6.5 6.4c-2.8 2-6.1 3.8-10 5.5-4 1.6-8.3 3.3-13 5 3.8.5 7 1.2 9.8 2 2.8.8 5 1.7 6.9 2.8 1.8 1 3.2 2.2 4 3.6a8.3 8.3 0 0 1 1.3 4.6Zm-16.5-4.4a173.3 173.3 0 0 0-12.3-2.1 167.4 167.4 0 0 1-5.4-1.1 229 229 0 0 0-3.2 11.4l-2.8 10.9 3.2.3 2 .2h1a54.8 54.8 0 0 0 21.2-8 13 13 0 0 0 3.1-3.8c.4-.7.6-1.5.6-2.3 0-1.3-.7-2.4-2-3.3-1.4-1-3.2-1.7-5.4-2.2Zm-15.3-11.2a93.9 93.9 0 0 0 12-4.6 225.6 225.6 0 0 0 12.9-6.2 16.3 16.3 0 0 0 4.3-3.4c.6-.7 1-1.4 1.5-2.2a5 5 0 0 0 .5-2.2l-.3-1.5-1-1.3c-.6-.4-1.2-.7-2-.9a11 11 0 0 0-3-.3 53.2 53.2 0 0 0-16.5 4.1 8.2 8.2 0 0 0-3 2.1l-.3 1.1a122.6 122.6 0 0 1-3.1 8.9 628.6 628.6 0 0 1-2 6.4ZM836 134c0-1 0-2.3.4-3.5 1.1-4.4 2.4-8.7 3.9-12.9a233.1 233.1 0 0 0 7-23A374 374 0 0 1 851 82a72.4 72.4 0 0 1 3-7c.4-1 1-1.9 1.5-2.7.5-.7 1.1-1.4 1.7-1.9.6-.5 1.2-.7 1.9-.7 1.3 0 2.3.2 3 .6.7.5 1.2.8 1.3 1.2l.5 2 1.8-.3a151.8 151.8 0 0 0 12-2.9 87.4 87.4 0 0 1 10-1.6 52.7 52.7 0 0 1 8.1 0 7 7 0 0 1 2.2.7c.6.3 1 .6 1.2 1 .2.3.3.7.3 1.1l-.3 1.3c-.2.4-.6.8-1 1.2a7 7 0 0 1-2 1 56 56 0 0 1-8.4 1.5 680.6 680.6 0 0 0-5.7 1l-1.3.4a128 128 0 0 1-6 1.7 841.7 841.7 0 0 1-9.3 2.8c-2 .7-3.6 1.7-4.7 3a15.1 15.1 0 0 0-3.2 5.8 109.2 109.2 0 0 0-2.9 8 92.7 92.7 0 0 0-1.6 5.5c0 .2 0 .3.2.3l3-.6a204 204 0 0 0 12-3.7 477.6 477.6 0 0 1 12.5-3.7c1.7-.4 2.9-.7 3.6-.7 1.2 0 2 .2 2.3.6.4.4.6.8.6 1.2a4 4 0 0 1-1.2 3 11.6 11.6 0 0 1-5.3 3.2 117.5 117.5 0 0 1-9.2 3l-7.8 3-7.6 3a29.5 29.5 0 0 1-6.6 1.9 115.4 115.4 0 0 0-3.4 14c0 .6.1 1 .3 1.3.1.2.3.4.6.5l.6.2h.6A51.8 51.8 0 0 0 870 124c1.3-.8 2.6-1.4 4-1.9a12.2 12.2 0 0 1 5.3-.7c.4 0 .8.2 1.2.4l1 .7c.2.3.3.6.2 1-.1 1-.6 2-1.4 2.8-.8 1-1.8 1.8-3 2.6a88.8 88.8 0 0 1-26.2 10.2c-2.9.5-5.4.8-7.6.8a10 10 0 0 1-5.7-1.4c-1.3-.9-2-2.4-2-4.5Zm61-2.5 5.8-21.8a995.8 995.8 0 0 0 7.5-29.8 21.9 21.9 0 0 0-.2-6.9l.3-2.3a10 10 0 0 1 2-4.4c1-1 2.3-1.5 4.1-1.5a29.7 29.7 0 0 1 4.2.7 25.6 25.6 0 0 0 4.8.9l1.9-.1a86.9 86.9 0 0 1 16 0l4 1c1.4.5 2.7 1 3.9 1.8 1.2.7 2.2 1.6 3.1 2.7 1 1 1.6 2.4 2 3.9a12.6 12.6 0 0 1 .6 3.8c0 2-.5 3.9-1.5 5.8a24.2 24.2 0 0 1-4.6 6 44.2 44.2 0 0 1-10.2 7.5 191.7 191.7 0 0 1-7.3 3.9l-2.1 1.2a110.3 110.3 0 0 1 6.8 3.9 29.6 29.6 0 0 1 7.4 7.4 66.8 66.8 0 0 1 9 16.8c0 .7 0 1.4-.3 2-.3.7-.7 1.3-1.2 1.9-.4.5-1 1-1.6 1.3a4 4 0 0 1-2.1.5c-1.2 0-2.1-.4-2.8-1.2-.8-.9-1.5-2-2.2-3.3-.7-1.4-1.4-2.9-2-4.6a39.5 39.5 0 0 0-11.1-14.8 22.8 22.8 0 0 0-5-3c-1.6-.6-3.3-1-5-1h-.7c-1 0-2 0-2.7.3l-2.3.4c-1-.3-1.8-1-2.2-1.7a5 5 0 0 1-.7-2.7v-.7l-3.9 15.2a596.8 596.8 0 0 1-4.2 15.3c-.5.8-1 1.4-1.8 1.9a4 4 0 0 1-2.2.7c-1.5 0-2.4-.4-3-1.3-.5-.8-.8-1.8-.8-3a10 10 0 0 1 .3-2.7Zm24-54.4a2156.3 2156.3 0 0 1-2.1 7l-1.5 5-1.5 5.3-1.5 5.2c-.5 1.6-1 3.1-1.3 4.5.6-.9 1.6-1.6 2.9-2.3 1.3-.6 2.7-1.3 4.3-1.8a69 69 0 0 0 10.5-4.8 105.3 105.3 0 0 0 11.5-7.2 24 24 0 0 0 4-4c1-1.2 1.4-2.5 1.4-3.7 0-1.2-.4-2.2-1.2-2.8a8.5 8.5 0 0 0-3.2-1.6 56.4 56.4 0 0 0-15.3-.4c-2.4.2-4.7.8-7 1.6Zm73-7.2a16 16 0 0 1-2 6 868.2 868.2 0 0 0-11.4 29.5c-.6 2-1.2 4.3-1.7 7-.4 2-1.9 3-4.4 3-3.2 0-4.8-1.5-4.8-4.6 0-3.4 2-9.7 6-19.1 4-9.4 7-15.9 9.1-19.4 2.2-3.4 4.2-5.2 6.2-5.2s3 1 3 2.8Zm-16.1 60a8 8 0 0 1-2.6 5.7 8.3 8.3 0 0 1-5.9 2.4c-1.7 0-3-.6-4.3-1.7a5.8 5.8 0 0 1-1.7-4.3 8 8 0 0 1 2.7-5.9 8.5 8.5 0 0 1 5.9-2.5c1.7 0 3 .6 4.2 1.8a6.2 6.2 0 0 1 1.7 4.4ZM637.3 223a141.2 141.2 0 0 1 1.7-8.6v-.2a6.1 6.1 0 0 1 .2-1.5c0-.3.2-.5.3-.7l.5-.2.6.1.4.4.1.5v1.4a32.7 32.7 0 0 1 1.6-1.6l1-.6a3 3 0 0 1 1.9-.2l.5.1c.2 0 .4.2.5.3l.7.7c.2.3.3.6.3 1v.4a1.6 1.6 0 0 1-.6.7l-.4.2h-.5l-.5-.3-.2-.2-.2-.3-.1-.2-.1-.2a1.5 1.5 0 0 0-.3 0c-.4 0-.8.2-1.2.4l-1.1 1-1 1-.7 1a121.1 121.1 0 0 1-1.2 4.7v1.1c0 .3 0 .5-.2.7l-.4.4-.6.1c-.3 0-.6 0-.7-.2-.2-.3-.3-.5-.3-.8v-.5Zm11-4.5a9.8 9.8 0 0 1 1.6-3.5 13.8 13.8 0 0 1 4.2-3.9l.9-.2c.3-.4.7-.6 1.3-.7.6 0 1.2.1 1.6.4.5.3.9.7 1.2 1.3a13.3 13.3 0 0 1 .4 1 5 5 0 0 1 .2 1.4c0 .7 0 1.4-.3 2-.2.8-.5 1.5-.9 2.2a12.6 12.6 0 0 1-3.3 3.7 6.1 6.1 0 0 1-5 1.2c-.5-.1-.9-.3-1.2-.6-.3-.3-.6-.7-.7-1.1-.2-.4-.3-1-.3-1.5l.3-1.7Zm2 0a4.4 4.4 0 0 0 0 1v.8a1.4 1.4 0 0 0 1 1h.9c.6 0 1.2-.2 1.8-.6l1.4-1.3a8.7 8.7 0 0 0 2-4.9l-.1-.6a7.1 7.1 0 0 0-.5-1l-.2-.4-.3.3-.3.3-.6.2-1 .2-.9.5a7.4 7.4 0 0 0-1.6 1.7 10.1 10.1 0 0 0-1.5 2.8Zm12.3-.5a101.2 101.2 0 0 1 1.2-4.8l.8-2.5a187.2 187.2 0 0 0 1.4-5.8l.1-1a18.2 18.2 0 0 0 .2-.6l.3-.2.3-.1h.7l.4.4.2.5.1.6a4.4 4.4 0 0 1-.2 1.3 64.5 64.5 0 0 1-1.9 7.2 13.1 13.1 0 0 1 2.3-1.9l1.3-.6a5 5 0 0 1 1.3-.3l1.2.1.8.5.5.8.2 1a5 5 0 0 1-.2 1.1 9.7 9.7 0 0 1-2.3 4.4l-1.6 1.6a20.7 20.7 0 0 1-3 1.8l-1 .3h-.9l-.4-.4a2.5 2.5 0 0 1-.4.6l-.3.2-.5.1c-.4 0-.8 0-1-.2-.2-.3-.3-.6-.3-1a3.1 3.1 0 0 1 .1-.9l.6-2.2Zm8-5.8c-.4 0-.8.2-1.3.5l-1.4.8a19.4 19.4 0 0 0-2.5 2 50.7 50.7 0 0 1-.9 3.1l-.2 1.1v.8a3.3 3.3 0 0 1 1-.5l.4-.1.5-.2a11 11 0 0 0 3.3-2.4 7.6 7.6 0 0 0 2-4.4c0-.2 0-.4-.2-.5l-.7-.2Zm5.8 4.7a102.6 102.6 0 0 1 1.3-4.8l.7-2.5a187.2 187.2 0 0 0 1.4-5.9l.2-1v-.3l.2-.2.2-.3h1.1l.4.3.2.6v.6a4.4 4.4 0 0 1-.1 1.3 64.5 64.5 0 0 1-2 7.1 13.3 13.3 0 0 1 2.3-1.8l1.3-.6a5 5 0 0 1 1.3-.3l1.2.1a2 2 0 0 1 1.3 1.3c.2.3.2.6.2 1a5 5 0 0 1-.1 1.1 9.8 9.8 0 0 1-2.3 4.4 20.5 20.5 0 0 1-4.6 3.4l-1.1.2h-.8c-.2 0-.3-.2-.5-.3l-.1.3-.3.3-.3.2-.4.1c-.5 0-.8 0-1-.3-.2-.2-.3-.5-.3-1a3.1 3.1 0 0 1 .1-.8l.5-2.2Zm8.1-5.8c-.4 0-.8.2-1.3.4l-1.4.9a19.4 19.4 0 0 0-2.5 2 46.6 46.6 0 0 1-1 3.1l-.1 1.1-.1.5v.2a3.1 3.1 0 0 1 1-.4l.4-.2c.2 0 .4 0 .5-.2a11 11 0 0 0 3.4-2.4 7.6 7.6 0 0 0 2-4.3l-.2-.5c-.2-.2-.4-.2-.7-.2Zm5.1 6.6a136.3 136.3 0 0 1 2.8-9l.5-.2h.5l.3.1.3.2v.5l-.3 1.4a750.2 750.2 0 0 1-2.8 9.8l-.4.1a1.2 1.2 0 0 1-1-.4 1.3 1.3 0 0 1-.3-.8v-.2l.4-1.5Zm3.3-13.3.2-.7c.1-.3.3-.5.6-.7a3.1 3.1 0 0 1 1-.4h.2l.2.2.2.3c.3 0 .4 0 .5.2v1.1l-.3.5-.5.4a3 3 0 0 1-1.2.4h-.4l-.4-.4-.2-.3v-.6Zm12.3 3.9-1 .3-1 .7a15.9 15.9 0 0 0-2.3 1.9 14.6 14.6 0 0 1-1 .8l-.4.8a18.9 18.9 0 0 0-1.2 4.4 19 19 0 0 1-.5 1.8l-.3.2a1 1 0 0 1-.3.1h-.2c-.3.1-.6 0-.8 0-.2-.2-.3-.5-.3-1a5.4 5.4 0 0 1 .1-.8 64.3 64.3 0 0 1 3.4-10.4c0-.2.2-.3.4-.4l.7-.2.8.1c.2.1.3.3.3.6v.4l-.6 1.3a39.3 39.3 0 0 1 2.3-1.7l1.2-.7a4 4 0 0 1 1.2-.3c.8 0 1.4.1 1.9.5s.7 1 .7 2a7 7 0 0 1-.3 1.8 30.8 30.8 0 0 1-1.6 4.6 48.2 48.2 0 0 0-1.4 3.7 1 1 0 0 1-.3.2 2 2 0 0 1-.6.1l-.7-.1-.2-.6.1-.9a12 12 0 0 1 .8-2.5 38.5 38.5 0 0 1 1.5-3.8l.3-1v-1l-.1-.6c-.1-.2-.3-.3-.6-.2Zm6 15.7a.7.7 0 0 1-.6-.4l-.1-.3v-.3l.2-.7.4-.4c.1-.2.3-.3.6-.4l1-.3.6-.2.6-.3a8.6 8.6 0 0 0 2.4-4 42.9 42.9 0 0 0 .6-2.5 38.1 38.1 0 0 1-2 1.8l-1.1.6-1.2.3c-.2 0-.4 0-.7-.2a3.1 3.1 0 0 1-1.4-1.1c-.2-.3-.3-.6-.3-1l.1-.6a70.2 70.2 0 0 1 .8-2.3 11.5 11.5 0 0 1 2-3l1.3-1.3a5 5 0 0 1 1.7-1 5.4 5.4 0 0 1 3.2-.5l.6.4c.2 0 .3.3.5.5v.2l.1.2v.5a52.6 52.6 0 0 1-1.2 6.6 27 27 0 0 1-1.4 4.2l-1 2-1.5 1.7a7.7 7.7 0 0 1-4.2 1.8Zm1.3-10.5a6.2 6.2 0 0 0-.1.6v.5c.1.1.3.2.4.1l1-.3c.4-.3.8-.5 1.1-.9a12.2 12.2 0 0 0 1.9-2.1 25.4 25.4 0 0 0 1.1-2.2l.2-.8v-.4a2 2 0 0 1-.2-.5h-.1a1 1 0 0 0-.7.3l-.9.6a12.3 12.3 0 0 0-1.7 1.6 19 19 0 0 0-1.2 1.6l-.5.9-.3 1Zm27.1-12.9.2-.7.3-.7.5-.5c.2-.2.5-.3.8-.3.3 0 .5 0 .8.2l.6.4.6.8.7 1.6a80 80 0 0 1 1.5 4.6 46.8 46.8 0 0 0 2.8 6.1l.3.4.2.1.1-.2.1-.4.1-.6.2-.4a53.2 53.2 0 0 0 3.4-11.8 34.4 34.4 0 0 0 .6-4l.2-.4.3-.2a2.3 2.3 0 0 1 1 .1l.4.8.2 1.2-.1 1.2a30.1 30.1 0 0 1-1 4.7 68.6 68.6 0 0 1-4.2 11.7l-.7.7c-.3.1-.5.3-.9.3h-.6a1 1 0 0 1-.5-.3 13 13 0 0 1-1.9-2.6 26 26 0 0 1-2.5-6.3l-1-3.2-.2-1-.1-.2h-.1s-.2 0-.2.2a10 10 0 0 0-.5 1.4v.4l-.4 1c0 .4-.2.8-.4 1.4a141.2 141.2 0 0 1-2 6.8l-.4 1a162 162 0 0 1-.9 2.4 1 1 0 0 1-.6.3l-.4-.1-.3-.3-.2-.4a1 1 0 0 1-.1-.4v-.3l.2-.8.4-1.3 3.7-12.4Zm22.5 12.9v-.9c.2-.3.2-.7.2-1.3a21.4 21.4 0 0 0-2 1.7l-1 .7-1 .4h-.8l-.6-.3-1-1c-.2-.3-.3-.7-.3-1.2l.1-.7c0-.2 0-.5.2-.8a12 12 0 0 1 4.5-7 4 4 0 0 1 1.4-.6 7.1 7.1 0 0 1 2.6-.3 6.5 6.5 0 0 1 .9-.1h.6c.2 0 .3.1.4.3l.2.3.1.5-.1.6-.2.6-1.7 6.8a92 92 0 0 0-.2 1.9l-.1.2-.2.4-.3.3a1 1 0 0 1-.5.1 3 3 0 0 1-.6 0h-.4l-.2-.3v-.3Zm-4.2-3.5a5.3 5.3 0 0 0-.2 1.2l.1.6c.1.2.2.3.5.3s.7-.2 1-.4l.8-.6a18.1 18.1 0 0 0 3.1-3.6 5.6 5.6 0 0 0 .7-2.2l.1-.9v-.3l-.4-.1-1.2.3-1.2.8-1.1 1a10.5 10.5 0 0 0-2.2 4Zm16-3c-.2 0-.4 0-.6.2a6.6 6.6 0 0 0-1.3.7l-.5.3-1.1 4.6c0 .2-.2.3-.3.5a1 1 0 0 1-.5.1c-.5 0-.8 0-1-.2a1 1 0 0 1-.2-.7v-.3l.1-.5v-.2a29.5 29.5 0 0 1 .9-3.1c0-.4.2-.8.3-1.1 0-.4.2-.9.4-1.5a1091.2 1091.2 0 0 0 1.3-4.7l.7-2.5.6-2 .3-1.4c0-.1.2-.3.4-.3l.5-.2h.5c.2 0 .3 0 .4.2l.4.2.1.4v.4a197.1 197.1 0 0 0-3 9.6 15.5 15.5 0 0 0 1.6-1.3 43 43 0 0 0 2.6-2.4l.5-.6.4-.5.2-.3.6-.5.5-.2a1.3 1.3 0 0 1 1 .2l.2.3v.7a3.5 3.5 0 0 1-.7 1.1 42 42 0 0 1-3.6 3.2c.5.2 1 .6 1.3 1 .4.5.6 1 .8 1.6l.5 1.9a16.8 16.8 0 0 1 0 2.4l-.1.5a1.1 1.1 0 0 1-.6.5l-.5.1a1 1 0 0 1-1-.6l-.1-.4a23.3 23.3 0 0 0-.2-2.6l-.3-1.1a3 3 0 0 0-1-1.4.7.7 0 0 0-.4-.1h-.1Zm13.3 4.5v-1l.2-1.2a22 22 0 0 0-2 1.7l-1 .7-1 .3h-.8l-.6-.3c-.4-.3-.8-.6-1-1-.2-.3-.3-.7-.3-1.2v-.6l.3-.8a12 12 0 0 1 4.5-7 4 4 0 0 1 1.4-.7 7 7 0 0 1 1.3-.2h1.3a6.8 6.8 0 0 1 .9-.2h.6l.4.3.2.4.1.4-.1.7-.2.6-1.7 6.7a122.5 122.5 0 0 0-.2 2l-.1.2-.2.3c0 .2-.2.2-.3.3a1 1 0 0 1-.5.2 3 3 0 0 1-.6 0l-.4-.1-.2-.2v-.3ZM783 208a5.3 5.3 0 0 0-.2 1.2l.1.6c.1.1.2.2.5.2s.7-.1 1-.3l.8-.6a18.8 18.8 0 0 0 3-3.7 5.5 5.5 0 0 0 .8-2.1l.1-.9v-.3c-.1-.1-.2-.2-.4-.1l-1.2.3-1.2.7a8.2 8.2 0 0 0-2 2.3 10 10 0 0 0-1.3 2.7Zm12.4-.6.3-2.2.5-2.2a3 3 0 0 1-1.3-.3c-.2 0-.3-.2-.5-.3a.7.7 0 0 1-.1-.5v-.3c0-.1 0-.2.2-.3l.2-.4.3-.1 1.7-.1c.2 0 .3-.1.4-.3l.1-.4.3-1.3.3-1a28 28 0 0 0 .2-1v-.8a2.3 2.3 0 0 1 .1-.7c0-.2.1-.3.3-.5l.6-.2h.6l.3.4.3.5a2.2 2.2 0 0 1 0 1.1l-1 3.6c.5 0 1-.2 1.3-.3l1-.3a27 27 0 0 0 2.6-.7h.8l.3.2v.9l-.3.5c-.2 0-.3.2-.5.3l-.5.2a12.5 12.5 0 0 0-1.2.4 57 57 0 0 0-4 1.2 21 21 0 0 0-1 4.6v.6l.2.5.5.4h.6c.5 0 .9-.2 1.3-.4a7 7 0 0 0 1.3-1l1-1.4a51.5 51.5 0 0 0 1.4-1.6h.4l.2.2v.4c0 .6-.3 1-.6 1.6a139.8 139.8 0 0 1-1.2 2.3 7 7 0 0 1-1.2 1l-.6.5-1 .5-1.1.2c-.6 0-1 0-1.5-.2-.4-.2-.8-.4-1-.7-.4-.3-.6-.7-.7-1.1l-.3-1.5Zm12.1-1.9a9.8 9.8 0 0 1 1.6-3.5 14 14 0 0 1 4.2-3.9l.8-.2c.4-.4.8-.6 1.4-.6.6 0 1.2 0 1.6.3.5.3.9.7 1.1 1.3a13.3 13.3 0 0 1 .5 1 5 5 0 0 1 .2 1.4l-.3 2.1c-.2.7-.5 1.4-1 2a12.7 12.7 0 0 1-3.2 3.8 6 6 0 0 1-5 1.2c-.5-.1-1-.3-1.2-.6a2 2 0 0 1-.7-1c-.2-.5-.3-1-.3-1.6l.2-1.7Zm2 0a4.5 4.5 0 0 0 0 1v.8a1.4 1.4 0 0 0 1 1h.9c.6 0 1.2-.2 1.7-.6.6-.3 1-.8 1.5-1.3a8.8 8.8 0 0 0 2-4.8l-.1-.6a7 7 0 0 0-.6-1l-.2-.5-.2.3-.3.3-.6.2-1 .3a4 4 0 0 0-1 .5 7.3 7.3 0 0 0-1.5 1.6 10.2 10.2 0 0 0-1.5 2.8Zm11.5 2.9a149.2 149.2 0 0 1 1.5-5.3l.6-2.3a81.9 81.9 0 0 0 1.4-4.5l.3-.2h1c.1 0 .3 0 .4.2l.2.3v.4l-.1.9-.4 1a21.5 21.5 0 0 1 2.5-1.9 9 9 0 0 1 1.4-.6l1.5-.3h.6l.7.4.4.5.2.9a76.2 76.2 0 0 1 2.3-1.6l1.2-.6a4.2 4.2 0 0 1 2.6-.2c.4.2.7.3.9.6l.4.8.2 1-.1 1.3a21.7 21.7 0 0 1-1.1 4 72.5 72.5 0 0 1-2 4.7 1 1 0 0 1-.6.2c-.5 0-.8 0-1-.2-.2-.1-.3-.3-.3-.7v-.6l.3-.5a127 127 0 0 1 1-2.5 150.9 150.9 0 0 1 1.2-4.1l.2-1v-.5l-.2-.3-.3-.2a1 1 0 0 0-.4 0c-.3 0-.6 0-1 .3a8.2 8.2 0 0 0-2 1.5 9 9 0 0 0-1 1l-.5.4-.5.4-.1.3-.3.7-.3.9-.5 1.6v.3a9.9 9.9 0 0 0-.3 1.4l-.1.7-.2.8c0 .2-.2.4-.4.6l-.8.2h-.4l-.4-.3-.2-.5-.1-.5a49.4 49.4 0 0 1 1.6-5.5 37.6 37.6 0 0 0 .7-2.8l-.1-.5-.5-.2-1 .3-1.1.8-1.3 1.2-1.7 1.8-.3.7a53.9 53.9 0 0 0-1.7 6.3 1 1 0 0 1-.7.3c-.3 0-.7 0-1-.2a1 1 0 0 1-.3-.8v-.3Zm22.3-3.3a153.8 153.8 0 0 1 2.9-9l.5-.1h.8l.2.3.1.3v.1l-.4 1.5a731.4 731.4 0 0 1-2.8 9.8l-.3.1a1.2 1.2 0 0 1-1-.4 1.3 1.3 0 0 1-.4-.8v-.2l.4-1.6Zm3.3-13.3.3-.6c0-.3.3-.5.5-.8a3 3 0 0 1 1-.3h.2l.2.2.3.3.4.1v1.2l-.3.5-.5.4a3 3 0 0 1-1.1.4h-.5l-.4-.5-.1-.2v-.7Zm16 13.5.1-.5a37.5 37.5 0 0 0 .7-2l.5-2a313.7 313.7 0 0 1 2-6.7 190.6 190.6 0 0 0 1-4.1h-.6a.8.8 0 0 1-.5-.6V188l.4-.5.5-.3.4-.1.4-.2c.2 0 .3-.1.3-.2l.2-.6.3-.6.4-.4.6-.2h.5l.4.4.3.5.2.4a26.3 26.3 0 0 1 3.7.1c.6 0 1.3.2 1.9.4l1.7.7c.5.4 1 .8 1.3 1.3.3.4.5 1 .5 1.7l-.1 1-.1.5c-.1.3-.2.7-.5 1l-.7.9a13 13 0 0 1-2.5 1.9 20.6 20.6 0 0 1-5.7 2.4l-3 1h-.4c-.2 0-.3.1-.3.2a26 26 0 0 0-.7 2.9l-.3 1.2a32.3 32.3 0 0 1-.5 2 4 4 0 0 1-.4.6l-.5.5c-.2.2-.4.2-.7.3l-.4-.1a.9.9 0 0 1-.2-.3l-.2-.4v-.7Zm5-9.8-.1.6a7 7 0 0 0-.1.4v.1h.3a28.8 28.8 0 0 0 8.7-3.7c.4-.3.8-.6 1-1a1.6 1.6 0 0 0 .4-1.6 3 3 0 0 0-.2-.4c-.2-.4-.5-.7-1-.9l-1.2-.4-1.4-.1a20.7 20.7 0 0 0-3.6.4l-.5.2v.1l-.1.2-.3.7a45 45 0 0 0-1.9 5.5Zm15.8-7.7a26 26 0 0 1 .3-1.9l.4-.7c.1-.2.3-.3.6-.3h.4l.5.2c.2 0 .3.1.4.3l.1.4v.5l-3.2 12.8a24.6 24.6 0 0 0-.5 2.6v1.3l-.3.8c0 .3-.2.5-.4.7a1 1 0 0 1-.6.3 1.1 1.1 0 0 1-1-.4l-.3-.5v-1a13 13 0 0 1 .3-1.8l3.3-13.2Zm9 15.1v-.9l.1-1.3a21.4 21.4 0 0 0-2 1.7l-1 .7-1 .4h-.8l-.5-.3-1-1-.3-1.2v-.7l.2-.8a12 12 0 0 1 4.6-7 4 4 0 0 1 1.3-.6 7.1 7.1 0 0 1 2.7-.3 6.5 6.5 0 0 1 .8-.2l.7.1.4.2.2.4v1.1l-.3.6-1.6 6.8a92 92 0 0 0-.3 1.8v.3l-.2.4-.4.3a1 1 0 0 1-.5.1 3 3 0 0 1-.6 0l-.3-.1-.2-.2v-.3Zm-4.3-3.5a5.6 5.6 0 0 0-.1 1.2v.6c.1.2.3.3.5.2.4 0 .7-.1 1-.3l.9-.6a18.1 18.1 0 0 0 3-3.6 5.6 5.6 0 0 0 .8-2.2v-1.2l-.3-.1-1.3.3-1.2.8-1 1a10.5 10.5 0 0 0-2.3 4Zm9.6 2.3.3-.6a6.3 6.3 0 0 1 1-1.1l.5-.4a744.6 744.6 0 0 0 6-6.5l-1 .1-1 .1-1 .1a26.5 26.5 0 0 1-1.2.1 1 1 0 0 1-.7-.5 1.1 1.1 0 0 1 0-1.1l.6-.4a8 8 0 0 0 .9 0l1.6-.2a73.4 73.4 0 0 0 4.8-1h.4l.3.2.2.2a4.6 4.6 0 0 1 .4.5v.2c0 .2 0 .3-.2.5 0 .2-.2.3-.3.5l-.4.3a12.9 12.9 0 0 0-1.3 1.1 130.9 130.9 0 0 0-1.4 1.4l-.5.5-.1.1a54 54 0 0 0-3.5 3.7l-.9 1-.6.7h.4c.3 0 .6 0 .9-.2l1-.2 3.4-.7.6-.3.6-.2.4-.1a3.9 3.9 0 0 0 .8-.4h.2l.3-.1h.5l.2.3.2.3.1.5a2 2 0 0 1-.4.8l-.3.3-.4.1h-.2l-1.8.5a218.2 218.2 0 0 1-6.9 1.5h-.8a3 3 0 0 1-.8-.2l-.7-.4a1 1 0 0 1-.2-.7v-.3Zm20.3-.9.2-.9v-1.3a21.4 21.4 0 0 0-2 1.7l-1 .7-1 .4h-.7l-.6-.3-1-1-.3-1.2v-.7l.3-.8a12 12 0 0 1 4.5-7 4 4 0 0 1 1.4-.6 7 7 0 0 1 2.6-.3 6.5 6.5 0 0 1 .9-.1h.6l.4.2.2.4v1.1l-.2.6-1.7 6.8a92 92 0 0 0-.2 1.8l-.1.3-.2.4-.3.3a1 1 0 0 1-.5.1 3 3 0 0 1-.6 0h-.4l-.2-.3v-.3Zm-4.1-3.5a5.3 5.3 0 0 0-.2 1.2l.1.6c0 .2.2.3.5.2l1-.3.8-.6a18.1 18.1 0 0 0 3-3.6 5.6 5.6 0 0 0 .8-2.2v-1.2l-.3-.1-1.2.3-1.2.8-1.1 1a10.5 10.5 0 0 0-2.2 4Z"/>
  <path fill="none" stroke="#d96226" stroke-width="4" d="M102 243.2c155.4 0 310.5-12.7 465.9-12.7 28 0 55.4 3.1 83.2 4.3 22.7 1 45.6.2 68.3.2 17.5 0 35 .7 52.5.7h18l4.5.1c1.5.3 5-1 4.5.5l-18.8 1.4c-17.4 1.2-35 1.3-52.5 1.7-46.5 1-93 3.3-139.5 5.8-50.6 2.6-101 8-151.5 10.5-57.8 2.8-115.5 4.2-173.3 6.1-27.2 1-54.7-.7-81.8 1.4m746.7-79.9c1 2.6 2.8 6.1 3.7 9.1.2.5 1.3 4.7 1.5 4.7 1 .2 2.3-1.8 2.8-2.7 1.5-2.9 1.4-6.3 2.1-9.4.2-.7 1.8-3.5 1.7-3.7-.9-1.7-6.4-.5-7.6-.4-1.7.2-3.5.2-5 .7M936 203c-1.7.1-3.4.4-4.6 2-2 2.6-.3 4.6 2.7 4.4 1.9-.2 5-2 5-4 .2-1.7-3.4-1.7-4.3-1.4"/>
</svg>
