<svg xmlns="http://www.w3.org/2000/svg" xml:space="preserve" fill-rule="evenodd" stroke-linecap="round" stroke-linejoin="round" stroke-miterlimit="1.5" clip-rule="evenodd" viewBox="0 0 1000 399">
  <path fill="none" d="M0 0h1000v398.2H0z"/>
  <path fill="#d96226" fill-rule="nonzero" d="M39 50.9c0 .7-.6 2.3-1.9 4.8-2.6 5.3-5 11.6-6.9 19.2-.5 2-2 3-4.6 3-3 0-4.6-1.4-4.6-4 0-2.2 1.8-7 5.5-14.7 3.7-7.5 6.6-11.3 8.8-11.3 2.5 0 3.7 1 3.7 3Zm21.1 0c0 .8-.6 2.4-1.8 4.8-2.7 5.3-5 11.6-7 19.2-.4 2-2 3-4.5 3-3.1 0-4.7-1.4-4.7-4 0-2.2 1.9-7 5.5-14.7 3.7-7.5 6.7-11.3 8.9-11.3 2.4 0 3.6 1 3.6 3ZM863 62c0 .7-.7 2.3-2 4.8a103 103 0 0 0-6.9 19.2c-.4 2-2 3-4.6 3-3 0-4.6-1.4-4.6-4 0-2.2 1.9-7 5.5-14.7 3.7-7.5 6.7-11.3 8.8-11.3 2.5 0 3.7 1 3.7 3Zm21 0c0 .8-.6 2.4-1.8 4.8-2.6 5.3-5 11.6-6.9 19.2-.5 2-2 3-4.6 3-3.1 0-4.6-1.4-4.6-4 0-2.2 1.8-7 5.5-14.7 3.6-7.5 6.6-11.3 8.8-11.3 2.4 0 3.6 1 3.6 3ZM301.2 197.3l.1-1.1.1-1.6-1 .9a19.2 19.2 0 0 1-2.7 1.7l-1.2.3a2.8 2.8 0 0 1-1.6-.6c-.6-.5-1-.9-1.2-1.3a3 3 0 0 1-.4-1.6v-.8l.3-.9a13 13 0 0 1 5.6-7.9c.5-.3 1-.6 1.6-.7a8.4 8.4 0 0 1 3.2.1 8.1 8.1 0 0 1 1.1-.1l.8.1.5.4.2.5.1.5v.8a1 1 0 0 0-.3.7l-2 8a136.9 136.9 0 0 0-.5 2.7l-.2.4-.4.3-.6.1h-.8l-.4-.3a.6.6 0 0 1-.2-.3v-.3Zm-5.1-4.8a5.8 5.8 0 0 0-.2 1.4l.1.7c0 .2.3.4.5.4.5 0 .9-.1 1.3-.3l1-.6a18.8 18.8 0 0 0 3.8-4 6 6 0 0 0 .9-2.6V186l-.4-.2-1.5.3-1.5.7a11.1 11.1 0 0 0-4 5.6Zm19.5-1.6a2 2 0 0 0-.7.1 7 7 0 0 0-1.5.7l-.6.3-1.4 5.5c-.1.3-.2.4-.4.5l-.6.2c-.6 0-1-.2-1.1-.4-.3-.2-.4-.5-.4-.9v-.4l.2-.5v-.3a33 33 0 0 1 1-3.8l.4-1.3.5-1.7a2378.4 2378.4 0 0 0 3.6-12.6c0-.1.2-.3.4-.3l.7-.2.6.1c.2 0 .4.2.5.3.2 0 .3.2.4.3l.2.6-.1.4a218.2 218.2 0 0 0-3.5 11.3 15.8 15.8 0 0 0 2-1.3 45 45 0 0 0 5-4.7c.3-.2.6-.2.8-.2a1.7 1.7 0 0 1 1 .4l.4.4.1.4-.1.5a3.8 3.8 0 0 1-.9 1.2 44.8 44.8 0 0 1-4.3 3.4c.6.3 1.1.8 1.6 1.5l1 2 .5 2.3a21 21 0 0 1 0 3l-.1.5a1.2 1.2 0 0 1-.8.7 1.8 1.8 0 0 1-1.2 0l-.4-.4-.3-.5v-.5a28.4 28.4 0 0 0-.3-3.2c0-.5-.2-1-.3-1.4a4.2 4.2 0 0 0-1.2-1.8.9.9 0 0 0-.6-.2h-.1Zm9.2 5h.4l.3.2h.4l1.6-.1a13 13 0 0 0 3-.9c.4-.2.7-.4.7-.6v-.3c0-.2 0-.4-.2-.6l-.6-.4a8 8 0 0 0-.9-.5l-1.3-.5a5.6 5.6 0 0 1-1.6-1l-.5-.7a4.5 4.5 0 0 1-.5-1.8c0-.3 0-.6.2-.9l.7-1a8.3 8.3 0 0 1 2.3-1.7 15.4 15.4 0 0 1 1.8-1l.9-.2 1-.1h1l1 .3.7.5c.2.3.3.6.3 1a2.8 2.8 0 0 1-.5 1.4l-.3.2c-.3 0-.5 0-.6-.2a3 3 0 0 1-.5-.3l-.3-.3a.9.9 0 0 0-.5-.2c-.3 0-.6 0-.9.2a6.7 6.7 0 0 0-2 .8 8 8 0 0 0-.8.5l-.6.6-.2.6c0 .2 0 .3.2.4l.4.3.8.4.9.4a50.1 50.1 0 0 1 2.9 1.7 1.8 1.8 0 0 1 .5 1.3v.4a6.4 6.4 0 0 1-.8 2l-.3.4a5 5 0 0 1-1.4 1 12.6 12.6 0 0 1-3.5 1.3 7 7 0 0 1-1.6.2c-.3 0-.5 0-.8-.2-.3 0-.6-.2-.9-.4l-.6-.5a1 1 0 0 1-.3-.7l.1-.3a1.5 1.5 0 0 1 .6-.6l.3-.1Zm12.5-2.9c0-.4.1-.8.4-1.1.2-.3.5-.5 1-.6a12.7 12.7 0 0 1 2.5-3.5 9.8 9.8 0 0 1 3.3-2 5.5 5.5 0 0 1 3.5 0c.5 0 .9.3 1.1.6.3.2.5.5.7.9l.2 1.1-.1 1c-.2.6-.4 1.1-.8 1.5a6 6 0 0 1-1.4 1.1c-.6.3-1.1.6-1.8.8a18.2 18.2 0 0 1-5.2.9l-.2.7v.8c0 .6.1 1 .6 1.4.5.3 1.2.5 2 .6.5 0 1 0 1.4-.2a7.9 7.9 0 0 0 2.4-.9l1-.5c.3-.3.7-.5 1-.6l.9-.3c.3 0 .4.1.5.2l.1.5a3.7 3.7 0 0 1 0 .4 2.5 2.5 0 0 1-1 1.5 10.2 10.2 0 0 1-7.7 2 6.9 6.9 0 0 1-2.2-.6 3.5 3.5 0 0 1-1.6-1.8l-.2-1.5c0-.5 0-1 .2-1.7a.7.7 0 0 1-.4-.2.7.7 0 0 1-.2-.5Zm9.7-4v-.3c0-.2 0-.5-.2-.6l-.8-.2c-.4 0-.9 0-1.3.3a7.6 7.6 0 0 0-3 3 14.9 14.9 0 0 0 3.7-.7 4 4 0 0 0 1-.7c.4-.2.5-.5.6-.8Zm10.8-9.5a30.9 30.9 0 0 1 .4-2.2c.1-.4.3-.7.5-.9.2-.2.4-.3.7-.3l.6.1c.2 0 .4.2.5.3.2 0 .4.2.5.4a.8.8 0 0 1 .1.8v.3l-4 15.3a27.6 27.6 0 0 0-.5 3.1v.4l-.1 1-.2 1-.5.8a1 1 0 0 1-.8.3c-.3 0-.5 0-.7-.2l-.5-.5a2.1 2.1 0 0 1-.4-1.2v-.6a15.1 15.1 0 0 1 .4-2.2l4-15.7Zm18.9 17.7a174.6 174.6 0 0 1 3-10.4 1.5 1.5 0 0 1 1.1-.3h.5l.5.2.3.3.1.4v.2l-.4 1.7a879.6 879.6 0 0 1-3.2 11.4l-.3.2-.4.1c-.3 0-.5 0-.7-.2a1.9 1.9 0 0 1-.8-1l-.2-.5v-.3l.5-1.8Zm4-15.8.4-.8c0-.3.3-.5.7-.8a3.3 3.3 0 0 1 1-.3l.4.1.3.2.3.4c.2 0 .4.1.5.3l.1.6v.4l-.1.3c0 .2-.2.4-.4.6l-.6.5a3.2 3.2 0 0 1-1.3.3 1 1 0 0 1-.6-.1l-.5-.5a1 1 0 0 1-.2-.4v-.2a1.7 1.7 0 0 1 0-.6Zm4.5 16.2h.4l.3.2h.4l1.6-.1a13 13 0 0 0 3-.9c.4-.2.6-.4.7-.6v-.3c0-.2 0-.4-.2-.5l-.7-.5-.8-.4-1.4-.6a5.9 5.9 0 0 1-1.5-1l-.6-.7a4.6 4.6 0 0 1-.5-1.8l.3-.9.7-1a8.2 8.2 0 0 1 2.3-1.7 15.4 15.4 0 0 1 1.8-1l.9-.2 1-.1h1l1 .3.7.5c.2.3.3.6.3 1a2.8 2.8 0 0 1-.5 1.4l-.4.2c-.2 0-.4 0-.5-.2a3 3 0 0 1-.5-.3l-.4-.3a.9.9 0 0 0-.4-.1h-.9a6.5 6.5 0 0 0-2 .9l-.8.6-.6.5-.2.6c0 .2 0 .3.2.4l.4.3.8.4a156.7 156.7 0 0 0 3.2 1.6l.6.5a1.8 1.8 0 0 1 .5 1.3v.4a6.4 6.4 0 0 1-.8 2.1l-.3.3a5 5 0 0 1-1.4 1 12.3 12.3 0 0 1-5.1 1.5c-.3 0-.5 0-.8-.2-.3 0-.6-.2-.9-.4l-.6-.5a1 1 0 0 1-.3-.7l.1-.3a1.5 1.5 0 0 1 .6-.6l.3-.1Zm35.8 3.1v-1.1c.2-.4.2-1 .2-1.6l-1.1.9a19.1 19.1 0 0 1-2.6 1.7c-.5.2-.9.3-1.3.2a2.8 2.8 0 0 1-1.6-.5c-.5-.5-1-.9-1.2-1.3a3 3 0 0 1-.3-1.6v-.8l.2-1a13 13 0 0 1 5.6-7.8c.6-.4 1.1-.6 1.7-.7a8.3 8.3 0 0 1 3.2 0 8.1 8.1 0 0 1 1 0l.8.1a1.3 1.3 0 0 1 .8.9v1.3l-.3.7-2 8a138 138 0 0 0-.3 2.3l-.1.4-.3.3c0 .2-.2.3-.4.4h-1.3l-.5-.2a.5.5 0 0 1-.2-.3v-.3Zm-5.2-4.8a6.4 6.4 0 0 0-.2 1.4c0 .2 0 .5.2.7 0 .2.2.4.5.4l1.2-.3 1-.6a19.3 19.3 0 0 0 3.8-4 6 6 0 0 0 1-2.6v-1.5l-.4-.2-1.6.3-1.5.7-1.3 1.1a11.1 11.1 0 0 0-2.7 4.6Zm27.2 11.7a138.2 138.2 0 0 0 2.1-9.5l1.2-5.5a16.5 16.5 0 0 0 .3-3.8l.2-.8.4-.5.8-.1c.4 0 .8 0 1 .2.3.1.5.3.6.5.2.2.2.5.3.7v.9c.3-.3.8-.5 1.2-.7a10.4 10.4 0 0 1 3-.7h1.5c.7 0 1.4.1 2 .4a4.3 4.3 0 0 1 2.2 2.6 5.7 5.7 0 0 1 0 3.8 7 7 0 0 1-1 1.7c-.4.6-.9 1-1.4 1.5a13.1 13.1 0 0 1-3.6 2.3 26.4 26.4 0 0 1-3 1.2 4.5 4.5 0 0 1-2.3-.1l-1.2-.5a28.2 28.2 0 0 0-1 4.6 98.7 98.7 0 0 1-.8 3l-.5.2a2.8 2.8 0 0 1-1 0c-.7 0-1-.2-1-.8v-.6Zm4.8-8.8a12.2 12.2 0 0 1 1.7.4h.7a6.2 6.2 0 0 0 1.4-.5l.6-.3a18.7 18.7 0 0 0 3.2-2c.5-.5 1-1 1.2-1.6a3.9 3.9 0 0 0 .4-2.8 2 2 0 0 0-.3-.6l-.6-.5a2 2 0 0 0-.8-.2 6.8 6.8 0 0 0-2 .3 6 6 0 0 0-1.8 1 5 5 0 0 1-1 .5 2 2 0 0 1-1.1.3l-1.6 6Zm22 3.2.1-1 .1-1.6-1 .9a19.2 19.2 0 0 1-2.7 1.6l-1.2.3a2.8 2.8 0 0 1-1.6-.5c-.6-.5-1-1-1.2-1.4a3 3 0 0 1-.4-1.5v-.8l.3-1a13 13 0 0 1 5.6-7.8c.5-.4 1-.6 1.6-.7a8.3 8.3 0 0 1 3.3 0 8.1 8.1 0 0 1 1 0l.8.1.5.4.3.4v1.4a1 1 0 0 0-.3.7l-2 8a136.9 136.9 0 0 0-.5 2.6l-.2.4-.4.4h-1.4l-.4-.2a.5.5 0 0 1-.2-.3v-.4Zm-5.1-4.8a5.8 5.8 0 0 0-.2 1.5l.1.7c0 .2.3.3.5.3.5 0 .9 0 1.3-.2l1-.7a18.8 18.8 0 0 0 3.8-4 6 6 0 0 0 .9-2.5v-1.5l-.4-.2c-.5 0-1 0-1.5.3-.5.1-1 .4-1.5.7l-1.4 1.1a11 11 0 0 0-2.6 4.5Zm13-.3a14.4 14.4 0 0 1 2.3-5 14 14 0 0 1 1.9-2.1c.7-.7 1.5-1.2 2.3-1.6l.9-.3a4.4 4.4 0 0 1 1.9 0l.8.4.5.5.1.9v.7l-.4.7-.5.5-.8.1-.6-.1a5.2 5.2 0 0 1-.8-.5l-.3-.1a5 5 0 0 0-1.2.7 8 8 0 0 0-1.9 2.1 15 15 0 0 0-1.6 3.6 7.9 7.9 0 0 0-.3 1.7v.6l.3.5c0 .2.2.3.3.4l.6.1h1a7.4 7.4 0 0 0 2.1-.9 34.3 34.3 0 0 0 2.6-1.5h.8c.2.1.3.3.3.4l-.1.5-.6 1a5.2 5.2 0 0 1-1.8 1.5 16.7 16.7 0 0 1-3 1.2l-1.7.3a3.3 3.3 0 0 1-1-.3 4 4 0 0 1-1.8-1.5 4 4 0 0 1-.6-2.1 7.9 7.9 0 0 1 .3-2.4Zm20-.9a2 2 0 0 0-.7.2 7.1 7.1 0 0 0-1.5.7l-.6.3-1.4 5.5c0 .2-.2.4-.4.5l-.6.1c-.6 0-1 0-1.1-.3-.2-.2-.3-.5-.3-.9v-1l.2-.2a32.3 32.3 0 0 1 1-3.8c0-.5.2-.9.3-1.3l.5-1.7a1890.5 1890.5 0 0 0 3.6-12.6c0-.2.2-.3.4-.4l.7-.1h.6l.5.3.4.4.2.5-.1.5a219.5 219.5 0 0 0-3.5 11.3 15 15 0 0 0 2-1.4 44.9 44.9 0 0 0 5-4.7l.8-.2a1.7 1.7 0 0 1 1.1.5l.3.3.1.4v.5a4 4 0 0 1-1 1.3 41.9 41.9 0 0 1-4.3 3.3c.6.4 1.2.9 1.6 1.5l1 2 .5 2.4a21 21 0 0 1 0 3l-.1.5a1.2 1.2 0 0 1-.8.6 1.8 1.8 0 0 1-1.2 0l-.4-.4-.2-.4-.1-.5a28.4 28.4 0 0 0-.3-3.2l-.3-1.5a4.2 4.2 0 0 0-1.2-1.7.9.9 0 0 0-.6-.3Zm16.3 7.3c0-.3 0-.7.2-1v-1.6l-1 .8a19.1 19.1 0 0 1-2.7 1.7l-1.2.3a2.9 2.9 0 0 1-1.6-.6c-.6-.4-1-.9-1.2-1.3a3 3 0 0 1-.4-1.5l.1-.8.2-1a13 13 0 0 1 5.6-7.9c.5-.3 1-.5 1.6-.6a8.3 8.3 0 0 1 3.3 0 7.6 7.6 0 0 1 1 0h.8l.5.4.3.5v1.3l-.3.7-2 8.1a134.7 134.7 0 0 0-.4 2.2v.4l-.3.4-.4.3-.6.1h-.8l-.4-.2a.5.5 0 0 1-.2-.3v-.4Zm-5.1-4.8a6.4 6.4 0 0 0-.2 1.4l.1.8c.1.2.3.3.6.3.4 0 .8 0 1.2-.2l1-.7a19.3 19.3 0 0 0 3.8-4 6 6 0 0 0 .9-2.6v-1.4c0-.2-.2-.2-.4-.2-.5 0-1 0-1.5.2s-1 .4-1.5.8l-1.3 1a11 11 0 0 0-2.7 4.6Zm13.9 12.8h-.3a.9.9 0 0 1-.3-.2l-.2-.3-.1-.4v-.4l.3-.8c0-.2.2-.4.4-.5l.7-.4 1.2-.2.9-.2.6-.3a9 9 0 0 0 3-4.5 51.1 51.1 0 0 0 .8-3 40.8 40.8 0 0 1-2.5 1.9l-1.4.6a4 4 0 0 1-1.4.2l-.9-.3a4.4 4.4 0 0 1-1.7-1.6c-.2-.4-.3-.7-.3-1.1v-.8a58 58 0 0 1 1-2.8 12 12 0 0 1 2.5-3.3l1.6-1.4c.7-.6 1.4-1 2-1.2a6.3 6.3 0 0 1 3.1-.2c.3 0 .6 0 .9.2l.7.5.6.7.1.3v.8a60.8 60.8 0 0 1-1.5 8 30.1 30.1 0 0 1-1.6 5l-1.3 2.2a8 8 0 0 1-6.9 3.5Zm1.5-12.7a8 8 0 0 0-.1.8l.1.5c0 .2.2.3.5.3s.7 0 1.2-.3c.4-.3.9-.5 1.3-.9a12.4 12.4 0 0 0 2.3-2.4 36 36 0 0 0 1.4-2.5l.2-1v-.4l-.2-.6h-.2a2 2 0 0 0-.8.2 12.3 12.3 0 0 0-3.1 2.4 19.1 19.1 0 0 0-1.5 1.7c-.3.3-.5.7-.6 1l-.5 1.2Zm12.4.1c0-.5.1-.9.4-1.2.2-.3.5-.5 1-.6a12.6 12.6 0 0 1 2.5-3.4l1.5-1.2 1.8-.9a5.5 5.5 0 0 1 3.5 0c.5.1.9.3 1.1.6l.7 1 .2 1.1-.1 1c-.2.6-.4 1-.8 1.5a6 6 0 0 1-1.4 1c-.6.4-1.1.6-1.8.8a18 18 0 0 1-5.1 1l-.3.6v.8c0 .6.1 1.1.6 1.5a4 4 0 0 0 2 .5l1.4-.1a7.9 7.9 0 0 0 2.4-1l1-.5 1-.6.9-.2c.3 0 .4 0 .5.2l.1.4a3.7 3.7 0 0 1 0 .4 2.5 2.5 0 0 1-1 1.5 10.2 10.2 0 0 1-7.7 2 6.8 6.8 0 0 1-2.2-.6 3.5 3.5 0 0 1-1.8-3.3c0-.5 0-1 .2-1.6a.7.7 0 0 1-.4-.2l-.2-.5Zm9.7-4v-.3c0-.3 0-.5-.2-.7l-.8-.2a3 3 0 0 0-1.3.3 7.6 7.6 0 0 0-3 3 15 15 0 0 0 3.7-.6l1-.7c.4-.3.5-.5.6-.8Zm21.9 4.9a10.8 10.8 0 0 1 2-4 14.5 14.5 0 0 1 5.2-4.3l1-.1a2 2 0 0 1 1.6-.6c.8 0 1.5.2 2 .6.6.5 1 1 1.4 1.7a23.1 23.1 0 0 1 .6 1.4 6.7 6.7 0 0 1 .2 1.7c0 .8-.1 1.6-.4 2.5a13.2 13.2 0 0 1-5 6.6 6.5 6.5 0 0 1-4.2 1.1c-.8 0-1.5-.1-2-.3a3.8 3.8 0 0 1-2.3-2.4 4 4 0 0 1-.4-1.8l.3-2.1Zm2.6.3a5 5 0 0 0-.2 1.2l.1 1a2 2 0 0 0 1.2 1.3l1 .2c.9 0 1.6-.2 2.3-.6a7 7 0 0 0 1.8-1.4 9.2 9.2 0 0 0 2.4-5.6l-.1-.8a9.4 9.4 0 0 0-.7-1.3l-.2-.6-.3.4-.4.3-.8.2-1.2.1-1 .5-1.1.8a11 11 0 0 0-2.8 4.3Zm25.1-6.3a3 3 0 0 0-1.2.2l-1.3.7a16.6 16.6 0 0 0-2.7 2l-.7.5-.6.4-.4 1a19.5 19.5 0 0 0-1.3 3.9l-.1.6a21.6 21.6 0 0 1-.5 2.3l-.2.4a1.2 1.2 0 0 1-1 .4c-.4 0-.7 0-1-.3-.2-.2-.3-.5-.3-1v-1.1a72.6 72.6 0 0 1 4.3-12.3c0-.2.2-.3.4-.4.3-.2.6-.2.9-.2.4 0 .7.1 1 .3.2.2.3.4.3.8v.4l-.8 1.6a42.7 42.7 0 0 1 2.8-1.9 9 9 0 0 1 1.5-.6c.5-.2 1-.2 1.5-.2 1 0 1.8.3 2.3.8.6.6.9 1.4.9 2.5a33.7 33.7 0 0 1-2.3 7.6 53.8 53.8 0 0 0-1.3 3.9l-.4.4c-.1.2-.3.2-.5.3h-.6c-.4 0-.7 0-.9-.2l-.2-.7.1-1a13.7 13.7 0 0 1 1-3 43 43 0 0 1 1.8-4.5l.3-1.2.2-1.1c0-.4-.1-.6-.3-.9 0-.2-.4-.4-.7-.4Zm33 1a3 3 0 0 0-1.1.2c-.5.1-.9.4-1.3.6a16.8 16.8 0 0 0-2.7 2 16.7 16.7 0 0 1-1.3 1l-.5.8a19.5 19.5 0 0 0-1.2 4l-.2.6a25.4 25.4 0 0 1-.4 2.3c0 .2-.2.4-.3.5l-.3.2-.4.1a2 2 0 0 1-.3 0c-.3 0-.7 0-1-.2-.2-.2-.3-.6-.3-1.1v-.5l.1-.5a75.7 75.7 0 0 1 4.2-12.4c0-.2.2-.3.5-.4l.8-.2c.4 0 .8.2 1 .3.3.2.4.5.4.8v.2l-.1.2-.7 1.6a42.7 42.7 0 0 1 2.8-1.8 9 9 0 0 1 1.5-.7l1.5-.2c1 0 1.7.3 2.3.9.6.5.8 1.4.8 2.5 0 .6 0 1.3-.3 2.1a33.3 33.3 0 0 1-2 5.5 53.8 53.8 0 0 0-1.3 3.8c0 .2-.2.4-.3.5l-.5.2h-.7c-.4 0-.6 0-.8-.2-.2-.1-.2-.4-.2-.7l.1-1a34.1 34.1 0 0 1 2.2-6 24.4 24.4 0 0 0 .9-2.7l.1-1.1c0-.3 0-.6-.2-.9-.1-.2-.4-.3-.8-.3Zm5.2 18.4a137.5 137.5 0 0 0 2.1-9.4l1.2-5.6a16.9 16.9 0 0 0 .3-3.8l.2-.8.4-.5.8-.1c.4 0 .8 0 1 .2l.6.5.3.8v.8l1.2-.6a10.3 10.3 0 0 1 3-.7l1.5-.1c.7 0 1.4.2 2 .4a4.2 4.2 0 0 1 2.2 2.7 5.7 5.7 0 0 1 0 3.7 7 7 0 0 1-1 1.8l-1.4 1.4a13.1 13.1 0 0 1-3.6 2.3 26.5 26.5 0 0 1-3 1.2 4.5 4.5 0 0 1-2.3-.1l-1.2-.5a27.6 27.6 0 0 0-1 4.6 99 99 0 0 1-.8 3l-.5.2a2.9 2.9 0 0 1-1 .1c-.7 0-1-.3-1-1v-.4Zm4.8-8.7a10.6 10.6 0 0 1 1.4.3h.9a6.2 6.2 0 0 0 1.5-.5l.6-.3a18.7 18.7 0 0 0 3.2-2c.5-.5.9-1 1.2-1.6a3.9 3.9 0 0 0 .4-2.7 2 2 0 0 0-.3-.7l-.6-.4a2 2 0 0 0-.8-.2 6.6 6.6 0 0 0-2 .2 6 6 0 0 0-1.8 1 5 5 0 0 1-1 .5 2 2 0 0 1-1.1.3l-1.6 6Zm14.5 2.6a179.1 179.1 0 0 1 1.7-6.3l.8-2.7a94.5 94.5 0 0 0 1.3-5.1 1.8 1.8 0 0 1 .8-.4l.4-.1.8.1.4.3.3.4v.6l-.1 1-.4 1.2a23.3 23.3 0 0 1 3-2l1.7-.5 1.8-.2c.3 0 .5 0 .8.2a2.3 2.3 0 0 1 1.3 1.1c.2.3.3.7.3 1.1a67.8 67.8 0 0 1 2.8-1.6l1.5-.5c.5-.2 1-.2 1.4-.2a4 4 0 0 1 1.7.3c.5.2.8.4 1.1.8.3.3.5.6.6 1l.1 1.3-.1 1.5a24.5 24.5 0 0 1-1.3 4.9 80 80 0 0 1-2 4.8l-.5.5a1 1 0 0 1-.7.3c-.6 0-1-.2-1.3-.4-.2-.2-.3-.5-.3-.9v-.3l.1-.4.3-.7a97.1 97.1 0 0 1 1.3-2.8 290.4 290.4 0 0 1 1.4-5l.2-1.2v-.5l-.2-.4a1 1 0 0 0-.3-.3l-.6-.1a3 3 0 0 0-1 .2 8.9 8.9 0 0 0-2.8 1.6l-1 1-.7.6-.6.3-.1.4-.3.9-.4 1-.6 1.9-.1.3a10.9 10.9 0 0 0-.4 1.8 27.8 27.8 0 0 0-.3 1.7c0 .3-.3.5-.5.7l-1 .2c-.1 0-.3 0-.5-.2-.2 0-.3-.2-.4-.4a2.1 2.1 0 0 1-.4-1.2 54.5 54.5 0 0 1 2-6.5 42.4 42.4 0 0 0 .8-3.3c0-.3 0-.5-.2-.7 0-.1-.2-.2-.5-.2a3 3 0 0 0-1.3.2 6 6 0 0 0-1.3.8l-1.6 1.3-2.1 2-.3.8a67 67 0 0 0-2.2 7.5 1 1 0 0 1-.7.3c-.5 0-.9-.2-1.2-.4a1.3 1.3 0 0 1-.4-1.2v-.2Zm43.7-2.9a116 116 0 0 1 2.4-8.6 198.5 198.5 0 0 0 1.7-7l.2-1.2v-.3l.2-.3.3-.3h.5l.8.1.5.5.3.7v.7a5.4 5.4 0 0 1-.2 1.6l-1.1 4.2c-.5 1.4-.9 2.8-1.2 4.3a13.8 13.8 0 0 1 2.8-2l1.5-.5c.6-.2 1.1-.2 1.6-.2.6 0 1.1.1 1.5.3.4.2.8.4 1 .7.3.3.5.6.6 1 .2.4.2.8.2 1.3a6 6 0 0 1-.1 1.3 10.6 10.6 0 0 1-2.8 5l-2 1.8a21.5 21.5 0 0 1-3.7 1.8l-1.3.2c-.4 0-.8 0-1-.2-.2 0-.4-.2-.6-.4 0 .1 0 .2-.2.3l-.2.3a1.3 1.3 0 0 1-1 .3c-.5 0-1-.1-1.2-.4-.2-.3-.4-.7-.4-1.2a3.7 3.7 0 0 1 .2-1l.7-2.7Zm9.8-5.9c-.5 0-1 0-1.6.3l-1.7.9a20.3 20.3 0 0 0-3.1 2.2 58.2 58.2 0 0 1-1 3.6c-.2.4-.2.9-.3 1.3l-.1.6v.3a3.5 3.5 0 0 1 1.2-.4l.5-.1.7-.2c1.6-.6 3-1.5 4-2.5a8.2 8.2 0 0 0 2.5-5c0-.4-.1-.6-.3-.7-.1-.2-.4-.3-.8-.3Zm8.5 6.8c0-.9 0-1.8.3-2.7l.6-2.7a4 4 0 0 1-1.6-.4l-.6-.5a1 1 0 0 1-.2-.6v-.4l.3-.4.3-.3.4-.2h2c.3 0 .4 0 .5-.2l.1-.5.4-1.5.3-1.1a26.5 26.5 0 0 0 .3-1.2v-1.4l.1-.5.4-.6.7-.2a1.4 1.4 0 0 1 1.2.6l.3.7a2.8 2.8 0 0 1 0 1.4l-1.1 4.3a61.7 61.7 0 0 0 6-1h.4l.5.2.3.2.1.5-.1.6-.4.5a2 2 0 0 1-.5.3l-.6.2-.7.1-.8.2a94.5 94.5 0 0 0-5 1 24.1 24.1 0 0 0-1.2 5.4v.8l.3.7.6.5.8.1c.5 0 1 0 1.6-.4.5-.2 1-.6 1.5-1 .5-.5 1-1 1.3-1.5a52.8 52.8 0 0 0 1.7-1.8 1 1 0 0 1 .5.2l.2.2v.4c-.1.7-.4 1.3-.7 2a137.3 137.3 0 0 1-1.6 2.5 7.4 7.4 0 0 1-1.4 1.1l-.7.5-1.3.5h-1.3c-.7 0-1.3 0-1.8-.3a4 4 0 0 1-1.3-1c-.4-.5-.7-1-.8-1.5l-.3-1.8Zm16.5-8.5.6-.8c.3-.2.6-.2.9-.2l.7.1a1.4 1.4 0 0 1 .8 1v1.6l-.2.8-.5 3a19 19 0 0 1-.2.9 19.6 19.6 0 0 0-.1 3.1v.7l.3.4c0 .2.2.2.3.2l.4-.2a7.2 7.2 0 0 0 1.2-1.1 26.8 26.8 0 0 0 2.3-3 39.3 39.3 0 0 0 2-3.6l.4-1 .6-.6c.2-.2.6-.3 1-.3.3 0 .6.1.8.3.3.2.5.5.6.8a16.2 16.2 0 0 1-.3 2.4 54.4 54.4 0 0 0-.2 2.4c0 .6 0 1.2.2 1.7 0 .5.3 1 .7 1.3l1.2-1.6a44.3 44.3 0 0 0 3.2-6.2v-.3l.3-1a4.5 4.5 0 0 1 1.4-1.5c.3-.2.5-.2.7-.2.4 0 .8.1 1 .3.2.3.4.6.4 1l-.1.5-.2.5-5.3 9-.3.8a64.4 64.4 0 0 1-1 1.6l-.7.6-.8.1c-.4 0-.8-.1-1-.3l-.9-.9-.5-1-.4-1.1-.6-2.5-.3.3a49.8 49.8 0 0 0-3.4 4 6.2 6.2 0 0 1-2 1.6h-.4a3 3 0 0 1-1.7-.5c-.4-.3-.8-.7-1-1.3a6 6 0 0 1-.6-1.7 11.9 11.9 0 0 1 0-3.6 44.5 44.5 0 0 1 .6-5.4v-.4a12.6 12.6 0 0 1 .1-.7Zm43.6 4c0 .7-.3 1.3-.8 1.8-.6.5-1.2.7-1.9.7a2 2 0 0 1-1.4-.6 2 2 0 0 1-.5-1.4c0-.7.3-1.3.8-1.8a3 3 0 0 1 2-.8c.5 0 1 .3 1.3.6.3.4.5 1 .5 1.5Zm11.6.3c0 .7-.3 1.3-.9 1.8-.5.5-1.1.8-1.8.8a2 2 0 0 1-1.4-.7c-.4-.3-.6-.8-.6-1.3 0-.7.3-1.4.9-1.9.6-.5 1.2-.8 1.9-.7.5 0 1 .2 1.3.6.4.4.6.8.6 1.4Zm11.5.3a2.6 2.6 0 0 1-2.7 2.5 2 2 0 0 1-1.4-.5 2 2 0 0 1-.5-1.4c0-.7.3-1.3.8-1.8.6-.6 1.2-.8 2-.8.5 0 1 .2 1.3.6.3.4.5.9.5 1.4Z"/>
  <path fill="none" stroke="#d96226" stroke-width="7.6" d="M105.9 360c37.6-4.7 77.3-1.4 115-1.4 63.7 0 127-1.3 190.5-2.7 22.1-.5 46.4 7 68.3 2.7"/>
  <path fill="#d96226" fill-rule="nonzero" d="m492.7 369 .3-.7a88.6 88.6 0 0 0 1-3l.7-3a454.8 454.8 0 0 1 2-7.3 476.1 476.1 0 0 1 2.6-8.6v-.2h-1.1a1.1 1.1 0 0 1-.7-.8l-.1-.6c0-.6 0-1 .2-1.4l.5-.8.7-.4c.2-.2.5-.2.7-.3l.6-.2.4-.4.3-.9.4-.8.6-.7c.3-.2.6-.3 1-.3l.7.1.5.5.4.7.3.6a38 38 0 0 1 5.5 0c1 0 1.9.2 2.8.4 1 .3 1.8.7 2.6 1.1.7.5 1.3 1 1.8 1.8.5.7.7 1.5.7 2.5l-.1 1.5-.1.7c-.1.5-.4 1-.7 1.5l-1 1.3a19.8 19.8 0 0 1-3.7 3 31.3 31.3 0 0 1-8.5 3.9c-1.5.4-3 1-4.5 1.3l-.5.2c-.3 0-.5.2-.5.4a39.5 39.5 0 0 0-1.4 6 46.6 46.6 0 0 1-.8 2.9l-.6 1-.7.8-1 .4c-.2 0-.4 0-.6-.2l-.4-.4-.2-.6v-1Zm7.5-14.6-.2.8a8.4 8.4 0 0 0-.2.6v.2h.5a44 44 0 0 0 12.8-5.8c.7-.5 1.3-1 1.7-1.5a2.4 2.4 0 0 0 .5-2.4l-.3-.6c-.4-.6-.8-1-1.4-1.3a6 6 0 0 0-1.8-.6h-2.1a31.4 31.4 0 0 0-5.4.7c-.3 0-.6.2-.7.3l-.1.2-.1.2a256 256 0 0 0-3.2 9.2Zm18.2 10.8a205.7 205.7 0 0 1 2.4-12.3v-.6a9.1 9.1 0 0 1 .2-2.3l.5-1c.2-.2.4-.3.8-.3h.9l.5.6.2.8v2a55.8 55.8 0 0 1 2.4-2.4l1.4-.9a4.4 4.4 0 0 1 2.2-.5l.6.1.8.2c.3 0 .5.2.8.3l1 1c.3.5.4 1 .4 1.5v.6l-.4.6-.4.5-.6.2h-.8a2 2 0 0 1-.7-.4l-.3-.3a6 6 0 0 1-.5-.7l-.2-.2a1.7 1.7 0 0 0-.4 0 4 4 0 0 0-1.8.7l-1.6 1.3-1.4 1.7c-.4.5-.8 1-1 1.5a185.7 185.7 0 0 1-1.8 7v1.6c0 .4-.2.7-.3 1a2.1 2.1 0 0 1-1.5.8c-.5.1-.9 0-1.1-.3-.3-.3-.4-.7-.4-1.2v-.6Zm16.1-7a15 15 0 0 1 2.4-5.3 21.4 21.4 0 0 1 6.3-5.9 5 5 0 0 1 1.2-.3c.5-.6 1.1-1 2-1 1-.1 1.7 0 2.4.4.7.5 1.2 1 1.7 1.9a18.7 18.7 0 0 1 .6 1.5 7.3 7.3 0 0 1 .3 2c0 1-.1 2-.5 3.1a19.4 19.4 0 0 1-6.1 8.8 9.3 9.3 0 0 1-5 2c-1 .2-1.8.2-2.5 0a4 4 0 0 1-1.7-1c-.5-.3-.9-.9-1-1.5a5 5 0 0 1-.4-2.2c0-.7 0-1.6.3-2.5Zm3.1-.1a6.7 6.7 0 0 0-.2 1.6c0 .4 0 .7.2 1a2 2 0 0 0 1.4 1.4c.3.1.8.2 1.3.1 1 0 1.8-.4 2.6-1s1.6-1.2 2.2-2a13.5 13.5 0 0 0 3-7.2l-.3-.9c0-.3-.2-.6-.4-.9a19.4 19.4 0 0 1-.6-1.3l-.4.5c0 .2-.2.3-.5.4a14 14 0 0 1-2.4.8 6 6 0 0 0-1.3.8 11.4 11.4 0 0 0-2.4 2.5 15.6 15.6 0 0 0-2.2 4.2Zm17.1-2.2a19.6 19.6 0 0 1 2.7-6.4c.7-1 1.4-2 2.3-2.9.8-1 1.7-1.7 2.7-2.3l1.1-.5a5.7 5.7 0 0 1 2.3-.3c.4 0 .7.1 1 .3l.6.6.2 1a3.4 3.4 0 0 1-.5 1.7l-.7.7a2 2 0 0 1-1 .3h-.7a5.4 5.4 0 0 1-1-.5h-.3c-.5.2-1 .5-1.4 1a11.6 11.6 0 0 0-2.3 2.8 21.2 21.2 0 0 0-2 4.6 10.8 10.8 0 0 0-.3 2.2v.7l.3.6.4.3h.7c.5 0 1 0 1.3-.2a10.5 10.5 0 0 0 2.5-1.3 48.7 48.7 0 0 0 3.1-2.3l.5-.1h.5c.2.1.3.3.3.5l-.1.6a4 4 0 0 1-.7 1.3 7.6 7.6 0 0 1-2.2 2.1 24.5 24.5 0 0 1-3.6 2l-2 .5a4 4 0 0 1-1.3 0 4 4 0 0 1-2.2-1.6c-.4-.7-.7-1.5-.7-2.5a9.8 9.8 0 0 1 .5-3Zm16.6 3.5a194.9 194.9 0 0 1 2.4-12.2v-.7a9.1 9.1 0 0 1 .3-2.2c0-.5.2-.8.4-1l.8-.4c.4 0 .7 0 .9.2.2 0 .4.2.5.5l.3.7v2a53.5 53.5 0 0 1 2.3-2.3l1.4-1a4.4 4.4 0 0 1 2.2-.4h.6l.8.2.8.4c.4.3.8.6 1 1 .3.5.5 1 .5 1.4l-.1.6-.4.7c0 .2-.2.3-.4.5l-.6.2h-.8a2 2 0 0 1-.7-.4l-.3-.3a6.8 6.8 0 0 1-.5-.7 1 1 0 0 0-.2-.2 2 2 0 0 0-.4 0 4 4 0 0 0-1.8.6l-1.6 1.4-1.4 1.6-1 1.6a184 184 0 0 1-1.8 7v1.5c0 .4-.1.8-.3 1a2.1 2.1 0 0 1-1.5.8c-.5.2-.9 0-1.1-.3-.3-.3-.4-.7-.4-1.1v-.7Zm25-1.6c0-.3 0-.8.2-1.3l.1-1.9a34.3 34.3 0 0 0-3 2.6c-.5.4-1 .8-1.5 1-.6.4-1 .6-1.5.6h-1l-1-.4c-.6-.4-1-.9-1.4-1.4-.3-.5-.4-1-.4-1.8v-1l.3-1.1a19.6 19.6 0 0 1 6.7-10.4 6 6 0 0 1 2-1.2 10.7 10.7 0 0 1 4-.4 10.8 10.8 0 0 1 1.2-.3h1l.6.4.3.5v1.7l-.4.8-2.4 10.1a174 174 0 0 0-.5 3.2c0 .2-.2.3-.3.5a2 2 0 0 1-.5.5l-.7.2h-1l-.5-.1a.5.5 0 0 1-.2-.3v-.5Zm-6.2-5a8 8 0 0 0-.2 1.8l.1.9c.1.3.3.4.7.3.5 0 1-.2 1.4-.5.5-.3 1-.6 1.3-1a29 29 0 0 0 4.6-5.4 8.5 8.5 0 0 0 1.1-4.5v-.5c-.1-.2-.3-.2-.5-.2-.6 0-1.2.3-1.8.6-.7.3-1.3.6-1.8 1.1a12.5 12.5 0 0 0-3 3.5 15.3 15.3 0 0 0-1.9 4Zm16.2 1.4h.3a114.3 114.3 0 0 1 1 .1 17.6 17.6 0 0 0 5.6-2c.5-.2.8-.5.9-.8v-.4c0-.2 0-.4-.3-.6l-.8-.4-1-.4-1.6-.5a5.9 5.9 0 0 1-1.9-.9l-.7-.7-.4-1a4.8 4.8 0 0 1-.2-1.1l.3-1.2c.2-.4.5-.9 1-1.3a12.3 12.3 0 0 1 2.6-2.4 24.1 24.1 0 0 1 2.2-1.5l1-.4 1.2-.3h2.5l.9.6c.2.2.3.5.3 1a3.6 3.6 0 0 1-.5 1.8c-.2.2-.3.3-.5.3h-.7a3 3 0 0 1-.5-.4c-.2 0-.3-.2-.5-.3a1 1 0 0 0-.6 0 4 4 0 0 0-1 .2 9.2 9.2 0 0 0-2.3 1.3 11.7 11.7 0 0 0-1.8 1.6l-.3.7.2.5.6.3 1 .4a115.2 115.2 0 0 0 3.8 1.4c.3 0 .5.2.7.4l.5.6.1 1v.4a7.8 7.8 0 0 1-1.2 3.1 18 18 0 0 1-6 3.6 9 9 0 0 1-2 .5h-1a4 4 0 0 1-1-.4l-.7-.6a1 1 0 0 1-.3-.7v-.4a2.2 2.2 0 0 1 .7-.9l.4-.2Zm18.1-4.4c0-1 0-2.1.3-3.3l.8-3.3a4.6 4.6 0 0 1-2-.3l-.6-.5a1 1 0 0 1-.3-.7l.1-.4.2-.6.4-.4c.1-.2.3-.3.5-.3l2.5-.2c.2 0 .4-.2.5-.4l.2-.6.5-2 .3-1.3a39 39 0 0 0 .3-1.5v-1.3a3.5 3.5 0 0 1 .2-1c0-.3.2-.5.4-.8.2-.2.5-.4.9-.4l.9.1.5.5.4.7v1.7L630 339a88 88 0 0 0 1.8-.5l1.6-.5a40.4 40.4 0 0 0 3.8-1.2h1.2l.4.3.1.6-.1.8-.5.6-.6.5a4 4 0 0 1-.8.3 19.4 19.4 0 0 0-1.8.6 103.8 103.8 0 0 0-6 2 31.5 31.5 0 0 0-1.4 6.8v1l.4.7c.1.2.3.4.6.5h1c.6 0 1.3-.3 2-.7l1.7-1.6a81.4 81.4 0 0 0 3-4l.7-.4a1.2 1.2 0 0 1 .6.1l.2.2.1.4v.2a218.9 218.9 0 0 1-2.8 5.8 10.7 10.7 0 0 1-1.7 1.6l-.9.7c-.4.3-1 .6-1.5.7l-1.6.4c-.9 0-1.6 0-2.2-.2a4 4 0 0 1-1.6-1c-.4-.5-.8-1-1-1.7-.2-.6-.3-1.3-.3-2.1Zm17.6.5a215.2 215.2 0 0 1 2.3-9.1 203.2 203.2 0 0 0 1-3.6l.3-.4a2.2 2.2 0 0 1 1.3-.6h.6c.2 0 .4 0 .5.2.2 0 .3.1.4.3l.1.4v.2l-.5 2.1a1222.4 1222.4 0 0 1-3.9 14.4l-.3.3a1 1 0 0 1-.4.1 1.7 1.7 0 0 1-1.5-.5 1.8 1.8 0 0 1-.6-1.3v-.3l.6-2.2Zm4.8-19.8.3-1c.2-.4.5-.8.9-1.1a4.6 4.6 0 0 1 1.3-.6l.4.1.4.2.3.4c.3 0 .5 0 .6.3l.2.7v.5l-.2.4c0 .3-.2.5-.4.8l-.7.6a4.5 4.5 0 0 1-1.7.7h-.6l-.6-.7a1 1 0 0 1-.3-.4 1.6 1.6 0 0 1 0-.6l.1-.3Zm18.2 5.4a4 4 0 0 0-1.5.5 24.5 24.5 0 0 0-4.8 3.9 22.7 22.7 0 0 1-1.5 1.2l-.6 1.2a27.2 27.2 0 0 0-1.8 6.6 29 29 0 0 1-.7 2.6l-.4.4-.5.2h-.3c-.5 0-.9 0-1.2-.2-.3-.2-.4-.6-.4-1.2v-.6l.1-.6a96.8 96.8 0 0 1 5-15.7l.7-.6 1-.3c.5 0 .9 0 1.2.2.3.2.4.5.4.9v.2l-.1.3-.9 2a59.2 59.2 0 0 1 3.4-2.7l1.8-1a6 6 0 0 1 1.8-.5c1.2-.1 2.2.1 2.8.7.7.5 1 1.5 1 2.8 0 .8 0 1.7-.3 2.7a46.4 46.4 0 0 1-2.4 7 74.5 74.5 0 0 0-1.6 4.8l-.4.6-.6.3-.8.2-1-.1c-.2-.2-.3-.5-.3-.9 0-.3 0-.7.2-1.3a18.2 18.2 0 0 1 1-3.7 58.8 58.8 0 0 1 2.2-5.6 17.4 17.4 0 0 0 .6-3c0-.4 0-.7-.2-1-.2-.2-.5-.3-1-.3Zm17 12.6v-1.3c.2-.5.2-1.1.2-1.9a34.3 34.3 0 0 0-3 2.6l-1.5 1.1-1.5.6-1-.1c-.4 0-.7-.2-1-.4-.6-.4-1-.9-1.4-1.4a3 3 0 0 1-.4-1.7v-1l.3-1.2a19.6 19.6 0 0 1 6.7-10.4 6 6 0 0 1 2-1.1 10.7 10.7 0 0 1 4-.5 10.5 10.5 0 0 1 1.2-.3h1l.6.4.3.5v1.7c-.2.2-.3.5-.4.9l-2.4 10a144.1 144.1 0 0 0-.5 3.2c0 .2-.2.4-.3.5a2 2 0 0 1-.5.5l-.7.2h-1l-.5-.1a.6.6 0 0 1-.2-.3v-.5Zm-6.3-5a8 8 0 0 0-.2 1.8l.1 1c.1.2.3.3.7.2.5 0 1-.2 1.5-.5a28.8 28.8 0 0 0 5.8-6.5 8.5 8.5 0 0 0 1.1-4.4v-.5l-.5-.2-1.8.6c-.7.3-1.3.7-1.8 1.1a12.5 12.5 0 0 0-3 3.5 15.1 15.1 0 0 0-1.9 4Zm18.4-1.3a86.7 86.7 0 0 1 1.1-6.6 4.6 4.6 0 0 1-1.9-.3c-.3 0-.5-.2-.7-.4a1 1 0 0 1-.2-.8v-.4l.3-.5c0-.2.2-.4.3-.5l.5-.2 2.5-.3c.3 0 .4-.1.5-.4l.2-.6.5-2 .4-1.3a44 44 0 0 0 .3-1.5v-1.6l.1-.7.5-.7c.2-.3.5-.4.8-.5.4 0 .7 0 .9.2.2 0 .4.2.6.4l.3.8.1.8v.9l-1.4 5.3a84 84 0 0 0 1.8-.5l1.5-.5a40.5 40.5 0 0 0 3.9-1.2h1.1l.4.4.2.5c0 .3 0 .6-.2.8l-.5.6-.6.5a4 4 0 0 1-.7.3 20.2 20.2 0 0 0-1.8.6 110.9 110.9 0 0 0-6 2 32.7 32.7 0 0 0-1.5 6.8l.1 1c0 .3.2.5.3.7l.6.5h1c.7 0 1.3-.2 2-.7l1.8-1.5 1.6-2 1.5-2c.1-.3.3-.4.5-.5h.3l.3.2c.1 0 .2 0 .3.2v.5c-.1.8-.5 1.6-.9 2.5a203.5 203.5 0 0 1-1.8 3.3 10.7 10.7 0 0 1-1.7 1.6l-1 .7-1.5.8c-.5.2-1 .3-1.6.3-.8.1-1.5 0-2.2-.2a4 4 0 0 1-1.6-1l-1-1.6c-.2-.7-.3-1.4-.3-2.2Zm17.8-3.2a15 15 0 0 1 2.4-5.3 21.4 21.4 0 0 1 6.2-5.9 5 5 0 0 1 1.2-.4c.5-.5 1.2-.9 2-1 1 0 1.8 0 2.5.5.6.4 1.2 1 1.6 1.8a20.9 20.9 0 0 1 .7 1.6 7.2 7.2 0 0 1 .3 2c0 1-.2 2-.5 3-.3 1.1-.7 2.2-1.3 3.2a19.4 19.4 0 0 1-4.8 5.7 9.3 9.3 0 0 1-5 2 7 7 0 0 1-2.5 0 3.9 3.9 0 0 1-2.8-2.5c-.3-.7-.4-1.4-.4-2.2 0-.8.1-1.6.4-2.5Zm3-.1a6.5 6.5 0 0 0-.1 1.5l.1 1.2a2 2 0 0 0 1.4 1.3h1.3a4 4 0 0 0 2.7-1c.8-.5 1.5-1.2 2.2-2a13.4 13.4 0 0 0 2.9-7.1c0-.4 0-.7-.2-1a10.1 10.1 0 0 0-.8-1.4c0-.3-.2-.5-.3-.7 0 .2-.2.4-.3.5l-.5.4-1 .4-1.4.4a6 6 0 0 0-1.3.8 11.4 11.4 0 0 0-2.4 2.5 15.5 15.5 0 0 0-2.2 4.2Zm17.4 3.1a192.5 192.5 0 0 1 2.5-12.3v-.6a9.1 9.1 0 0 1 .2-2.3l.5-1c.2-.2.4-.3.8-.3h.9l.5.6.2.8v2a53.5 53.5 0 0 1 2.4-2.4l1.4-.9a4.4 4.4 0 0 1 2.2-.5l.6.1.8.2c.3 0 .5.2.8.3l1 1c.3.5.4 1 .4 1.5v.6l-.4.6-.4.5-.6.2h-.8a2 2 0 0 1-.8-.4l-.2-.3a7.2 7.2 0 0 1-.5-.7l-.2-.2a2 2 0 0 0-.4 0 4 4 0 0 0-1.8.7l-1.6 1.3-1.4 1.7c-.4.5-.8 1-1 1.5a184 184 0 0 1-1.8 7v1.6l-.3 1a2.1 2.1 0 0 1-1.5.8c-.5.1-.9 0-1.2-.3a2.5 2.5 0 0 1-.3-1.8Zm27.4-27.2c0 .5-.2 1.3-.7 2.4a107 107 0 0 0-5 14.6c-.2.8-.8 1.3-1.8 1.4-1.2.1-1.8-.4-1.8-1.6a72.6 72.6 0 0 1 5.8-15.5c.8-1.4 1.6-2.2 2.4-2.3.8 0 1.1.3 1.1 1Zm-6.2 23.8c0 .8-.3 1.6-1 2.3a4 4 0 0 1-2.2 1.2 2 2 0 0 1-2.4-2.1c0-.9.4-1.6 1-2.4.8-.7 1.5-1.1 2.4-1.2a2 2 0 0 1 1.6.5c.4.4.6 1 .6 1.7Z"/>
</svg>
