<svg xmlns="http://www.w3.org/2000/svg" xml:space="preserve" fill-rule="evenodd" stroke-linejoin="round" stroke-miterlimit="2" clip-rule="evenodd" viewBox="0 0 1000 238">
  <path fill="none" d="M0 0h1000v237.6H0z"/>
  <path fill="#d96226" fill-rule="nonzero" d="M39 50.9c0 .7-.6 2.3-1.9 4.8-2.6 5.3-5 11.6-6.9 19.2-.5 2-2 3-4.6 3-3 0-4.6-1.4-4.6-4 0-2.2 1.8-7 5.5-14.7 3.7-7.5 6.6-11.3 8.8-11.3 2.5 0 3.7 1 3.7 3Zm21.1 0c0 .8-.6 2.4-1.8 4.8-2.7 5.3-5 11.6-7 19.2-.4 2-2 3-4.5 3-3.1 0-4.7-1.4-4.7-4 0-2.2 1.9-7 5.5-14.7 3.7-7.5 6.7-11.3 8.9-11.3 2.4 0 3.6 1 3.6 3ZM863 62c0 .7-.7 2.3-2 4.8a103 103 0 0 0-6.9 19.2c-.4 2-2 3-4.6 3-3 0-4.6-1.4-4.6-4 0-2.2 1.9-7 5.5-14.7 3.7-7.5 6.7-11.3 8.8-11.3 2.5 0 3.7 1 3.7 3Zm21 0c0 .8-.6 2.4-1.8 4.8-2.6 5.3-5 11.6-6.9 19.2-.5 2-2 3-4.6 3-3.1 0-4.6-1.4-4.6-4 0-2.2 1.8-7 5.5-14.7 3.6-7.5 6.6-11.3 8.8-11.3 2.4 0 3.6 1 3.6 3ZM304.7 185.4a3 3 0 0 0-1.2.2l-1.3.6a16.8 16.8 0 0 0-2.7 2l-.6.6-.6.3-.5 1a19.5 19.5 0 0 0-1.3 4v.5a21.6 21.6 0 0 1-.6 2.3c0 .2 0 .4-.2.5a1.2 1.2 0 0 1-1 .4c-.4 0-.7-.1-1-.3-.2-.2-.3-.6-.3-1.1v-.5l.1-.5a72.6 72.6 0 0 1 4.2-12.4c0-.1.2-.3.5-.4.2-.1.5-.2.8-.1.4 0 .7 0 1 .2.2.2.4.5.4.8v.2l-.2.2-.6 1.6a41.1 41.1 0 0 1 2.8-1.8 9 9 0 0 1 1.5-.7l1.4-.2c1 0 1.8.3 2.4.9.5.5.8 1.4.8 2.5l-.3 2.1a33.7 33.7 0 0 1-2 5.5 54 54 0 0 0-1.3 3.8l-.4.5-.4.2h-.7c-.4 0-.7 0-.8-.2-.2-.1-.3-.4-.3-.7 0-.3 0-.6.2-1a13.6 13.6 0 0 1 .9-3 43 43 0 0 1 1.8-4.4l.4-1.3v-1.1l-.1-.8c-.2-.3-.4-.4-.8-.4Zm5.2 18.5a149.3 149.3 0 0 0 2-9.5l1.3-5.6a16.5 16.5 0 0 0 .3-3.8c0-.3 0-.6.2-.8 0-.2.2-.3.4-.4.2-.2.4-.2.7-.2l1.1.2c.3.2.5.3.6.6l.2.7v.8l1.3-.6a10.4 10.4 0 0 1 3-.7h1.5c.7 0 1.4 0 2 .4a4.3 4.3 0 0 1 2.1 2.6 5.7 5.7 0 0 1 0 3.7 7 7 0 0 1-1 1.8 13 13 0 0 1-5 3.7 26.6 26.6 0 0 1-3 1.2 4.6 4.6 0 0 1-2.3 0l-1.1-.6a28.5 28.5 0 0 0-1 4.7 106 106 0 0 1-.9 2.9l-.4.2a2.8 2.8 0 0 1-1 .1c-.7 0-1.1-.3-1.1-1v-.4Zm4.8-8.8a11.7 11.7 0 0 1 1.7.3h.6a6.5 6.5 0 0 0 1.5-.5l.6-.2a18.8 18.8 0 0 0 3.2-2.1c.5-.5.9-1 1.2-1.6a3.9 3.9 0 0 0 .4-2.7 2 2 0 0 0-.4-.7l-.5-.4a2 2 0 0 0-.8-.2 6.6 6.6 0 0 0-2 .2 6 6 0 0 0-1.8 1 5 5 0 0 1-1 .5 2 2 0 0 1-1.1.3l-1.6 6Zm14.5 2.6a169.3 169.3 0 0 1 3.3-11.7l.1-1c0-.4 0-.8.2-1.1 0-.1 0-.2.2-.3a1.8 1.8 0 0 1 .8-.4h1.1l.5.3.3.4v.6l-.1 1-.5 1.2a22 22 0 0 1 3.1-2l1.7-.5 1.7-.2c.3 0 .6 0 .9.2a2.3 2.3 0 0 1 1.3 1.2l.3 1a72.4 72.4 0 0 1 2.8-1.6l1.5-.5c.5-.2 1-.2 1.4-.2a4 4 0 0 1 1.7.3c.5.2.8.5 1 .8.3.3.5.6.6 1l.2 1.3-.1 1.5a24.8 24.8 0 0 1-1.4 4.9 78.6 78.6 0 0 1-1.9 4.8l-.5.6a1 1 0 0 1-.7.2c-.6 0-1-.2-1.3-.4-.2-.2-.3-.5-.3-.9v-.7l.4-.7a127.4 127.4 0 0 1 1.3-2.8 201.6 201.6 0 0 1 1.4-5l.2-1.2v-.5l-.2-.4a1 1 0 0 0-.4-.3h-.5a3 3 0 0 0-1.1.1l-1.3.7a11.7 11.7 0 0 0-3.1 2.5l-.6.4-.2.4a136 136 0 0 0-.6 1.8l-.6 1.9-.2.3a11.8 11.8 0 0 0-.3 1.8 27.3 27.3 0 0 0-.3 1.7l-.5.7c-.2.2-.5.2-1 .2-.2 0-.3 0-.5-.2-.2 0-.3-.2-.5-.4a2.1 2.1 0 0 1-.4-1.2 54.7 54.7 0 0 1 2-6.5 42.5 42.5 0 0 0 .9-3.3c0-.3 0-.5-.2-.6 0-.2-.3-.3-.5-.3-.5 0-.9 0-1.3.2a6 6 0 0 0-1.4.8l-1.6 1.3a88 88 0 0 0-2 2l-.4.8a60.7 60.7 0 0 0-2 7.5 1 1 0 0 1-.9.3c-.4 0-.8-.2-1.1-.4a1.3 1.3 0 0 1-.5-1.2v-.2Zm42.8-.6c0-.6.3-1.3.5-2l.7-2.5a514.5 514.5 0 0 0 1.8-6 1.5 1.5 0 0 1 1-.2h.6l.4.2.3.3.1.4v.2l-.4 1.6a831.9 831.9 0 0 1-3.5 11.7h-.4l-.7-.1a1.9 1.9 0 0 1-.8-1l-.2-.5v-.3l.5-1.8Zm4-15.8.3-.8c0-.3.3-.6.7-.8a3.4 3.4 0 0 1 1-.4c.2 0 .3 0 .4.2l.3.2.3.4c.2 0 .4 0 .5.2l.1.6v.5l-.1.3c0 .2-.2.4-.4.6-.1.2-.4.3-.6.4a3.2 3.2 0 0 1-1.3.4 1 1 0 0 1-.6-.1 2.3 2.3 0 0 1-.7-1 1.3 1.3 0 0 1 0-.5v-.2Zm27 18.8c0-.3 0-.6.2-1v-1.6l-1 .9a19.1 19.1 0 0 1-2.7 1.7c-.4.2-.8.2-1.2.2a2.8 2.8 0 0 1-1.6-.5c-.6-.5-1-1-1.2-1.3a3 3 0 0 1-.4-1.6l.1-.8.2-1a13 13 0 0 1 5.6-7.8c.5-.4 1.1-.6 1.6-.7a8.3 8.3 0 0 1 3.3 0 8.2 8.2 0 0 1 1 0l.8.1.5.4.3.5v1.3c-.2.2-.2.5-.3.7l-2 8a111.6 111.6 0 0 0-.4 2.3v.3l-.3.4-.4.4h-1.4l-.4-.2a.5.5 0 0 1-.2-.3v-.4Zm-5.1-4.8a6.4 6.4 0 0 0-.2 1.5l.1.7c.1.2.3.3.6.4l1.2-.3 1-.6a19.1 19.1 0 0 0 3.8-4 6 6 0 0 0 .9-2.6v-1.5l-.4-.2c-.5 0-1 0-1.5.3l-1.5.7a11 11 0 0 0-4 5.6Zm19.5-1.5a2 2 0 0 0-.7 0 7.3 7.3 0 0 0-1.5.8l-.6.3-1.4 5.5c0 .2-.2.4-.4.5l-.6.2c-.5 0-1-.2-1.1-.4-.2-.2-.3-.5-.3-.9v-.4l.1-.5v-.3a34.8 34.8 0 0 1 1-3.8 98.6 98.6 0 0 1 1.7-5.6 834.7 834.7 0 0 0 2.8-10l.4-.4h1.3l.5.2.4.4.2.5-.1.5a223.6 223.6 0 0 0-3.5 11.3 14.4 14.4 0 0 0 2-1.4 43.6 43.6 0 0 0 3-2.6l.6-.6.5-.5.4-.4.6-.5c.2-.2.5-.2.7-.2a1.7 1.7 0 0 1 1.1.4c.2 0 .3.2.3.4l.1.4v.4a3.7 3.7 0 0 1-1 1.3 42 42 0 0 1-4.3 3.4c.6.3 1.2.8 1.6 1.4l1 2 .5 2.4a21 21 0 0 1 0 3l-.1.5a1.2 1.2 0 0 1-.7.7 1.8 1.8 0 0 1-1.3-.1 1.3 1.3 0 0 1-.6-.8l-.1-.5a28.4 28.4 0 0 0-.2-3.2l-.4-1.5a4.2 4.2 0 0 0-1.2-1.7 1 1 0 0 0-.5-.2h-.2Zm9.2 5h.2a29.6 29.6 0 0 1 1 .2l1.6-.1a13 13 0 0 0 3-.9c.4-.2.6-.4.6-.6v-.4c0-.1 0-.3-.2-.5l-.6-.4-.9-.5-1.3-.6a5.9 5.9 0 0 1-1.5-.9c-.3-.2-.5-.4-.6-.7a4.3 4.3 0 0 1-.5-1.8c0-.3 0-.6.2-1l.8-1a8.2 8.2 0 0 1 2.2-1.6 16.4 16.4 0 0 1 1.8-1l.9-.2 1-.1h1l1 .3.7.5c.2.2.3.5.3 1a2.8 2.8 0 0 1-.4 1.4l-.4.2-.6-.2a3 3 0 0 1-.4-.3l-.4-.3a.9.9 0 0 0-.5-.2l-.8.1a6.5 6.5 0 0 0-2 .9l-.8.5-.6.6-.3.6c0 .1 0 .3.2.4l.4.3.8.4.9.4a54.3 54.3 0 0 1 3 1.7 1.8 1.8 0 0 1 .4 1.3v.4a5.4 5.4 0 0 1-.5 1.5l-.3.6-.2.3-1.5 1a12.5 12.5 0 0 1-3.5 1.3 7 7 0 0 1-1.6.2c-.2 0-.5 0-.8-.2-.3 0-.6-.2-.8-.4l-.7-.6a1 1 0 0 1-.2-.6v-.3a1.6 1.6 0 0 1 .6-.6c.1-.1.2-.2.3-.1Zm12.5-2.9c0-.5.2-.8.4-1.1.2-.3.6-.5 1-.6a12.2 12.2 0 0 1 1.4-2.2 15 15 0 0 1 2.7-2.5l1.7-.9a5.5 5.5 0 0 1 3.6 0l1 .6c.4.3.6.6.7 1 .2.3.2.7.2 1.1l-.1 1c-.1.6-.4 1-.8 1.5a6 6 0 0 1-1.4 1.1l-1.7.8a18 18 0 0 1-5.2.9l-.3.7v.8c0 .6.2 1 .6 1.4a4 4 0 0 0 2 .5h1.4a7.9 7.9 0 0 0 2.4-1l1-.6 1-.5 1-.3.4.2.1.4a3.7 3.7 0 0 1 0 .5 2.5 2.5 0 0 1-1 1.4 10.2 10.2 0 0 1-7.7 2.1 6.9 6.9 0 0 1-2.1-.6 3.5 3.5 0 0 1-1.6-1.8c-.2-.5-.3-1-.3-1.6 0-.4 0-1 .2-1.6a.7.7 0 0 1-.4-.2l-.2-.5Zm9.8-4v-.3c0-.3-.1-.5-.3-.6-.2-.2-.5-.2-.8-.2-.4 0-.9 0-1.3.3a7.6 7.6 0 0 0-3 3 15 15 0 0 0 3.7-.7l1.1-.7c.3-.2.5-.5.6-.8Zm10.8-9.5a30.5 30.5 0 0 1 .3-2.2l.5-.9c.2-.2.4-.3.7-.3h.6l.6.4.4.4a.8.8 0 0 1 .2.8l-.1.3-3.9 15.3a28.3 28.3 0 0 0-.6 3.1v1.4l-.3 1-.5.8a1 1 0 0 1-.8.3c-.2 0-.5 0-.7-.2l-.5-.5a2.1 2.1 0 0 1-.4-1.2v-.6a16.4 16.4 0 0 1 .5-2.2l4-15.7Z"/>
</svg>
