<svg xmlns="http://www.w3.org/2000/svg" xml:space="preserve" fill-rule="evenodd" stroke-linecap="round" stroke-linejoin="round" stroke-miterlimit="1.5" clip-rule="evenodd" viewBox="0 0 1000 829">
  <path fill="none" d="M0 0h1000v828.4H0z"/>
  <path fill="#d96226" fill-rule="nonzero" d="M573 221.4h1.3a13 13 0 0 0 3.7-1.2 11 11 0 0 0 1.5-.8c.5-.4.7-.6.8-.9v-.4c0-.2 0-.3-.3-.5l-.7-.4-1-.3-1.5-.4-.9-.3-.8-.5-.6-.6a2 2 0 0 1-.5-1 1 1 0 0 1 0-.5l-.2-.5c0-.3.2-.6.4-1 .2-.5.4-1 .8-1.3.3-.5.7-.9 1.2-1.3l1.3-1 1-.9 1-.6 1-.5a6 6 0 0 1 1.2-.3l1-.1h1.2l.8.5c.3.2.4.5.4 1v.4c-.1.3-.1.5-.3.7l-.2.6-.5.3h-.6l-.5-.4-.4-.2a1 1 0 0 0-.6 0c-.3 0-.6 0-1 .2l-1 .6-1.1.7-1 .8c-.3.3-.5.5-.6.8l-.3.7c0 .1 0 .3.2.4l.4.3 1 .3 1 .2 1 .3c.3 0 .5.2.8.3.3 0 .6.2.8.3l.6.4.5.6v1.8l-.2.6-.3.7a11.2 11.2 0 0 1-.6 1.1 19.7 19.7 0 0 1-3.5 2.7l-2 .9a8 8 0 0 1-1.9.5h-1l-.9-.3-.7-.5c-.1-.2-.3-.4-.3-.7l.2-.4.2-.4.4-.4.3-.1Zm14.2-5.8c0-.5.1-1 .4-1.3.3-.4.6-.7 1-.9l.6-1.1a26.5 26.5 0 0 1 2.4-3.3 16.1 16.1 0 0 1 3.6-3 6.8 6.8 0 0 1 4-.8c.6.1 1 .3 1.3.5.3.3.6.6.7 1l.3 1.2c0 .4 0 .8-.2 1.2-.1.7-.4 1.3-.9 1.8-.4.6-1 1-1.5 1.5a13.4 13.4 0 0 1-4.1 2.2l-2 .6-1.8.5-.2.8-.1 1c0 .6.2 1.1.7 1.4.6.3 1.3.4 2.3.2.5 0 1-.2 1.5-.4l1.5-.7 1.3-.8 1-.8 1.2-.9c.4-.2.7-.4 1-.4l.6.1.1.5v.4c0 .4-.2.7-.3 1l-.7.9a15.1 15.1 0 0 1-7.8 3.8h-1a8 8 0 0 1-1.2 0l-1.2-.2-1-.6a4 4 0 0 1-.8-1.1c-.2-.5-.3-1-.3-1.7 0-.6 0-1.2.2-1.9l-.4-.1a.8.8 0 0 1-.2-.6Zm11-6.5v-.3c0-.3-.2-.5-.4-.6a1 1 0 0 0-.8-.1c-.5 0-1 .3-1.5.6a9.5 9.5 0 0 0-2.6 2.7l-.8 1.3a16.3 16.3 0 0 0 4.1-1.5c.6-.3 1-.7 1.3-1 .3-.3.5-.7.6-1Zm19.3-5.6c-.4 0-.8.2-1.3.5a14.5 14.5 0 0 0-3 2.3l-1.5 1.5-.7.8-.7.4a23.6 23.6 0 0 0-1 2.7l-.6 1.6-.4 1.6-.1.7-.1.8-.2.9-.2 1-.3.6a1.4 1.4 0 0 1-.8.5l-.3.1c-.5 0-.8 0-1.1-.2-.3-.1-.4-.5-.4-1.1v-.5l.1-.6a67.3 67.3 0 0 1 2.2-8l.8-2 .8-2.3 1-2.5c0-.2.2-.4.5-.6a3 3 0 0 1 1-.3h1c.3.3.4.5.4.9v.2l-.1.3-.8 1.9 1.5-1.4 1.7-1.2a5 5 0 0 1 1.7-1c.6-.3 1.1-.5 1.7-.6 1-.1 2 0 2.6.5.6.5 1 1.4 1 2.7 0 .7-.2 1.5-.4 2.5l-1 3-1.2 3.5a77.4 77.4 0 0 0-1.6 4.6l-.3.6-.6.3c-.2.2-.4.2-.7.3l-1-.1-.2-.8.1-1.3a23.5 23.5 0 0 1 1-3.5l.8-2 .7-1.7.6-1.6.4-1.5.2-1.3c0-.4-.1-.7-.3-.9-.1-.3-.5-.3-.9-.3Zm7.2 7.3a18.8 18.8 0 0 1 1.5-4 16.1 16.1 0 0 1 4.6-5.2 16.4 16.4 0 0 1 3.2-2 6.9 6.9 0 0 1 2.7-.5l.8.2 1-3.4 1.8-7.7.6-.9c.2-.2.5-.4.8-.4h.7l.6.1.4.4.2.8-3.5 14.5a6 6 0 0 0-.4 1.7l-.2 2.1-.2 2.2v1.9a9.4 9.4 0 0 1-.5 2.7 1.4 1.4 0 0 1-.8.9 4 4 0 0 1-.7.1c-.4.1-.6.1-.8 0a1 1 0 0 1-.5-.2l-.1-.4v-1c-.1-.2-.1-.4-.3-.5l-.5.4-.7.6-.8.5-.5.4-.9.6a12.4 12.4 0 0 1-3.6 1.5h-1.5c-.5-.1-1-.3-1.3-.6-.4-.3-.7-.8-1-1.2a5 5 0 0 1-.3-2v-.7l.2-1Zm3-.6-.1 1v1c.1.2.2.5.4.6l.6.5h1c.3 0 .5 0 .8-.2l.8-.4.7-.5.6-.5a4 4 0 0 0 1.2-1l1-1c.4-.4.6-.8.9-1.3l.5-1.4.3-1.3.3-1.2c0-.4 0-.7.2-1.1l.1-1.3-.2-.2h-.4c-.5 0-1 .2-1.6.4a16.1 16.1 0 0 0-3.5 2.3l-1.5 1.6c-.5.6-1 1.2-1.3 2-.3.6-.6 1.2-.8 2Zm34.7-2.2h.5l.3.1h.5a13 13 0 0 0 3.7-1.2 11 11 0 0 0 1.5-.9c.5-.3.7-.6.8-.8v-.4c0-.2 0-.4-.3-.5l-.7-.4c-.3-.1-.6-.3-1-.3l-1.5-.4-.9-.3-.8-.5c-.3-.2-.5-.4-.6-.7a2 2 0 0 1-.5-1 1 1 0 0 1 0-.4l-.2-.5c0-.3.1-.7.4-1 .2-.5.4-1 .8-1.3.3-.5.7-.9 1.2-1.3l1.3-1.1 1-.8 1-.7 1-.5a6 6 0 0 1 1.2-.2l1-.2 1.2.1c.3.1.6.2.8.5.3.2.4.5.4.9v.5l-.3.7-.2.6-.5.2h-.6c-.2 0-.3-.2-.5-.3l-.4-.3a1 1 0 0 0-.6 0l-1 .3c-.3 0-.6.3-1 .5l-1.1.8-1 .8-.7.8-.2.6c0 .2 0 .4.2.5l.4.3 1 .2 1 .3 1 .3.8.2.8.4c.3.1.5.2.6.4l.5.6v1.8l-.2.6-.3.7a11.2 11.2 0 0 1-.6 1c-.4.6-1 1-1.6 1.5l-2 1.2-2 1a8 8 0 0 1-1.8.5h-1l-.9-.3-.7-.5a1 1 0 0 1-.3-.7l.1-.4.3-.4.4-.4.3-.2Zm14.6-5.7a17.7 17.7 0 0 1 2.3-5 20 20 0 0 1 5.8-5.8l1.1-.4a3 3 0 0 1 1.8-1c1-.1 1.7 0 2.3.4.7.3 1.2.9 1.6 1.6l.4.7.2.7.2.9a9.1 9.1 0 0 1-.4 4 15.7 15.7 0 0 1-3.1 5.8c-.8.9-1.7 1.8-2.6 2.5a8.7 8.7 0 0 1-7 2.2 4 4 0 0 1-1.6-.8c-.5-.4-.8-.8-1-1.4a6 6 0 0 1-.3-2c0-.8 0-1.6.3-2.4Zm3-.3-.3.9v.6l.1 1c.1.4.3.6.5.9l.9.4h1.2a6 6 0 0 0 2.5-1 13.8 13.8 0 0 0 4.4-6.6l.2-1.3.1-1c0-.2 0-.5-.2-.8l-.4-.8-.3-.5-.3-.6-.2.4-.6.4a29 29 0 0 1-2.3.8l-1 .8a13.3 13.3 0 0 0-3.2 3.9 9.2 9.2 0 0 0-1.2 2.5Zm15.8 3 1-4 1-3.5.8-3.2 1-3.2v-1.2l.2-1.2.3-.5.4-.3a3 3 0 0 1 1-.4h.8l.5.2c.2.1.3.3.3.5v.5l-.1 1.3-.5 1.3a22.7 22.7 0 0 1 5.4-3.7c.6-.2 1.3-.5 2-.6h.9l.9.4.6.7c.1.3.3.7.3 1.2l1.5-1.2c.6-.5 1.1-.9 1.7-1.2l1.6-1 1.6-.4h2c.5.1.9.4 1.2.7.3.2.5.6.6 1 .2.5.2 1 .2 1.5s0 1-.2 1.7c0 .6-.2 1.2-.3 1.7a49.8 49.8 0 0 1-2.5 7.9l-.4 1c0 .3-.3.6-.4 1l-.6.7-.8.4-1.4-.1c-.3-.3-.4-.6-.4-1v-.4l.1-.5.3-.8.5-1.1.6-1.2a19.3 19.3 0 0 0 1-3l.5-2 .5-2 .2-1.4v-.6l-.2-.4-.4-.2h-.6a2 2 0 0 0-1.2.4 13.8 13.8 0 0 0-4.3 3.7l-.7.8-.7.5-.2.5-.3 1-.4 1.2-.7 2.2-.1.4-.2 1-.2 1-.1 1c0 .4-.2.8-.3 1.1 0 .3-.3.6-.6.8-.2.3-.5.4-1 .5h-.6l-.5-.4-.4-.6a2 2 0 0 1-.1-.7l.8-2.9.7-2.5.8-2.4.7-2.7.1-.6v-.6l-.1-.7c-.1-.2-.3-.2-.6-.2l-1.4.5-1.5 1.1-1.9 1.9-2.3 2.6-.4 1-.4 1.6-.5 1.5-.2 1-.3 1.2-.1 1-.1.7-.3 1c0 .3-.3.6-.5.9-.2.3-.5.4-.8.5-.6 0-1 0-1.4-.3-.3-.2-.5-.5-.5-1v-.4Zm30.5-10.1c0-.5.2-1 .4-1.4.3-.4.7-.6 1.1-.8l.6-1.2a26.5 26.5 0 0 1 2.3-3.3 16.1 16.1 0 0 1 3.7-3 6.8 6.8 0 0 1 4-.7l1.3.5c.3.2.5.5.7 1 .2.3.2.7.2 1.2l-.1 1.1a5 5 0 0 1-1 1.9l-1.5 1.5a13.4 13.4 0 0 1-4 2.1l-2.1.7-1.7.4-.3.9-.1 1c0 .6.3 1 .8 1.4.5.3 1.3.3 2.3.2.5 0 1-.2 1.5-.4l1.4-.7 1.3-.8 1-.9 1.3-.8 1-.5c.3 0 .5 0 .6.2v.9l-.3 1-.7.9c-1.2 1-2.4 2-3.7 2.5-1.3.6-2.7 1-4 1.3h-1.1a8 8 0 0 1-1.2 0l-1.2-.3a2 2 0 0 1-1-.6 4 4 0 0 1-.8-1c-.2-.5-.3-1-.3-1.7 0-.6 0-1.2.2-2h-.4a.8.8 0 0 1-.2-.6Zm11-6.5v-.3c0-.3-.1-.5-.3-.6-.3-.2-.6-.2-.9-.2l-1.5.6a9.5 9.5 0 0 0-2.5 2.7l-.8 1.4a16.3 16.3 0 0 0 4.1-1.6c.5-.3 1-.6 1.3-1 .3-.3.5-.6.6-1Zm9.5 4.7c0-1 0-2 .3-3l.7-3.2h-1a3 3 0 0 1-.8-.2 2 2 0 0 1-.6-.4 1 1 0 0 1-.3-.7l.1-.4.2-.5c0-.2.2-.3.3-.4l.5-.3 2.4-.3c.2 0 .3-.2.4-.4l.2-.6a34.9 34.9 0 0 1 1-4v-2l.2-.7.4-.7.8-.4h.8l.6.5.3.6.1.9v.7l-1.4 5.1 1.7-.6 1.5-.4 1.4-.6c.4 0 .7-.2 1-.3l.7-.3.5-.1h1.1l.3.2.2.5-.2.8-.5.6-.5.5-.7.3-.7.3-1 .3-1.1.5-1.1.4-1.4.6a9.4 9.4 0 0 1-1.6.5l-.5.1a64 64 0 0 0-.5 2l-.5 2a14 14 0 0 0-.2 3.3l.3.7.6.4h.9c.6 0 1.2-.3 1.8-.7a14.1 14.1 0 0 0 3.3-3.5 141.4 141.4 0 0 0 1.8-2.3h.6l.2.3.1.3v.2l-.9 2.3-1.2 2.3a6 6 0 0 1-.5.9l-.8.8-.8.8-.8.6c-.5.4-1 .6-1.5.8l-1.5.4c-.7.1-1.4 0-2-.1-.6-.2-1.1-.5-1.5-.9-.4-.4-.7-1-1-1.5a6 6 0 0 1-.2-2Zm28.5 2.2c-.8 0-1.2 0-1.5-.3-.3-.3-.4-.7-.4-1.2v-1l.3-1 .6-2 .6-1.9.6-2 .5-1.9v-.2l-.1-.4h-.4c-.2 0-.5 0-.8.2l-.8.5a26.9 26.9 0 0 0-3.7 3.7l-1.3 2c-.5.7-1 1.4-1.4 2.3l-1 2-.4 1.4-.6.7a2 2 0 0 1-1 .4c-.5.1-.8 0-1-.3-.2-.2-.2-.5-.2-1l.1-1.1 5.8-23.8c0-.2 0-.3.2-.5 0-.2.1-.4.3-.5l.5-.4c.2-.2.4-.2.7-.3h1.1c.2 0 .3 0 .4.2l.2.4v.3l-.1.5c-.7 2.6-1.4 5.3-2 8.2l-2.3 8.6a30 30 0 0 1 4.7-5 12.3 12.3 0 0 1 5.2-2.5c.6 0 1 .1 1.4.4.3.3.4.8.4 1.4v.8l-.5 1.6-.6 1.6-.5 1.7-.5 1.8-.4 2-.2 1.7a4.1 4.1 0 0 1-.5 1.9c-.1.2-.3.5-.6.6l-.8.4Zm7.6-5.3.6-2.5.8-3 .8-3.1.8-3.2.1-.2.3-.4.5-.4.7-.2h1.1l.4.4v.7l-.4 1.8-1.7 6.5a352.7 352.7 0 0 0-1.7 6.8l-.3.3-.3.3-.4.2h-.8l-.6-.5c-.1-.1-.3-.3-.3-.5l-.1-.6v-.3l.5-2.1Zm4.5-18.7.4-1c.1-.3.4-.7.8-1l.6-.4.6-.2h.4l.3.3.4.3c.2 0 .4 0 .5.2l.1.7v.9l-.5.7-.7.6-.8.5-.7.2h-.6a2 2 0 0 1-.6-.6.8.8 0 0 1-.2-.3v-.9Zm17 4.4c-.4 0-.8.2-1.3.4a14.5 14.5 0 0 0-3 2.4l-1.5 1.5-.8.7-.6.5a23.6 23.6 0 0 0-1 2.7c-.3.5-.4 1-.6 1.6l-.4 1.5-.1.8c0 .2 0 .5-.2.7l-.1 1-.3 1-.2.5a1.4 1.4 0 0 1-.8.6h-.4c-.4.1-.7 0-1-.1-.3-.2-.5-.6-.5-1.2v-.5l.2-.6a67.3 67.3 0 0 1 2.2-7.9l.8-2.1.8-2.2 1-2.6c0-.2.2-.4.5-.6a3 3 0 0 1 1-.3l1 .1c.3.2.4.5.4.8v.2l-.1.3-.8 2 1.5-1.4 1.7-1.3 1.7-1c.5-.3 1.1-.5 1.7-.5 1-.2 2 0 2.6.5.6.5 1 1.3 1 2.6 0 .7-.2 1.5-.5 2.5l-.9 3.1-1.2 3.5a77.4 77.4 0 0 0-1.6 4.5c0 .3-.2.5-.3.6l-.6.4-.7.2h-1c-.1-.2-.3-.5-.3-.9l.2-1.2a23.5 23.5 0 0 1 1-3.5l.8-2 .7-1.8.6-1.6.4-1.5.1-1.3c0-.3 0-.6-.2-.8-.1-.3-.5-.4-.9-.3Zm8.3 21h-.3l-.3-.1a1 1 0 0 1-.4-.8l.1-.4c0-.4.2-.7.3-1l.5-.6c.1-.2.4-.4.8-.6l1.3-.5 1-.4.7-.4a12.8 12.8 0 0 0 3.3-5.7l.6-2 .2-.7c0-.2 0-.5.2-.8a59.8 59.8 0 0 1-2.9 2.6l-1.5 1a5 5 0 0 1-1.6.5c-.3 0-.6 0-1-.2a3 3 0 0 1-1-.6c-.4-.2-.7-.5-1-.9a2 2 0 0 1-.3-1.2l.1-.9.2-.9.8-2.3a21.4 21.4 0 0 1 4.7-6.3c.7-.7 1.5-1.3 2.3-1.7.7-.4 1.6-.6 2.4-.7l1-.2 1 .1.9.4.6.7.1.3v1l-.2 1.4-.3 1.8-.4 2.1-.4 2c0 .7-.2 1.3-.3 1.9a26.3 26.3 0 0 1-5.3 11.2 11.2 11.2 0 0 1-5.9 3Zm1.8-14.6-.1.4v1.1c.2.2.4.2.6.2.4 0 .8-.3 1.3-.6l1.6-1.3 1.5-1.6a10 10 0 0 0 1.5-2.4l.6-1a9.7 9.7 0 0 0 .8-2.3l-.1-.6-.2-.6h-.2c-.3 0-.6.1-1 .4l-1.1.9-1.2 1.1-1.2 1.3-1 1.3-.7 1-.6 1.2-.5 1.5Zm43.8.8c-.7.1-1.2 0-1.5-.2-.2-.3-.4-.7-.4-1.3l.1-1 .3-1c0-.6.3-1.3.5-2l.6-1.8.6-2 .5-2v-.2l-.1-.3c0-.1-.2-.2-.4-.1-.2 0-.5 0-.8.2l-.7.5a26.9 26.9 0 0 0-3.7 3.7l-1.4 2-1.4 2.3-.9 2-.5 1.4-.6.8a2 2 0 0 1-1 .4c-.4 0-.8 0-1-.3l-.2-1 .1-1.2 5.8-23.8.2-.5c0-.2.2-.3.3-.5l.5-.4.7-.2.6-.1h.5c.2 0 .4 0 .5.2l.1.4v.3l-.1.5-2 8.2-2.2 8.6a30 30 0 0 1 4.6-5 12.3 12.3 0 0 1 5.2-2.4c.6-.1 1 0 1.4.3.3.4.5.8.5 1.4l-.1.8-.5 1.7-.6 1.6-.5 1.6-.5 1.8-.4 2.1-.1 1.6a4.1 4.1 0 0 1-.5 1.9l-.6.7-.9.3Zm7.4-8.8c0-.5.1-1 .4-1.3l1-1 .6-1a26.5 26.5 0 0 1 2.4-3.3 16.1 16.1 0 0 1 3.7-3 6.8 6.8 0 0 1 4-.8c.5.1 1 .3 1.2.5.4.3.6.6.8 1l.2 1.2-.1 1.1c-.2.7-.5 1.4-1 1.9-.4.6-.9 1-1.5 1.5a13.4 13.4 0 0 1-4.1 2.1l-2 .7-1.7.5-.3.8-.1 1c0 .6.3 1.1.8 1.4.5.3 1.3.4 2.2.2.6 0 1-.2 1.6-.4l1.4-.7 1.3-.8 1-.8 1.3-.9c.3-.3.7-.4 1-.5.3 0 .5 0 .5.2l.1.5v.4l-.3 1-.7.9c-1.2 1-2.4 2-3.7 2.6-1.3.5-2.7 1-4.1 1.2h-1a8 8 0 0 1-1.2 0l-1.2-.2-1-.7a4 4 0 0 1-.8-1c-.2-.5-.3-1-.3-1.7 0-.6 0-1.2.2-1.9-.1 0-.3 0-.4-.2a.8.8 0 0 1-.2-.5Zm11-6.5v-.3c0-.3-.1-.5-.3-.6-.3-.2-.6-.2-1-.1-.4 0-1 .3-1.4.6a9.5 9.5 0 0 0-2.6 2.7l-.7 1.3a16.3 16.3 0 0 0 4-1.5c.6-.3 1-.7 1.3-1 .4-.3.6-.7.7-1Zm7.3 8.7.5-2.8.6-3 .6-3 .5-2.8v-1.6l.3-1 .4-1 .8-.4.8.1.5.5.2.7v1.9l1-1.2 1.2-1.2 1.3-.9 1.5-.4h1.2l.7.1.7.3c.4.2.7.5 1 1 .2.3.4.8.4 1.2l-.1.6-.3.6-.4.5-.6.2h-.7c-.3 0-.5-.2-.7-.3l-.3-.3-.2-.3-.2-.3-.2-.2h-.4c-.6 0-1.1.3-1.7.7a11.3 11.3 0 0 0-2.8 3l-1 1.4-.8 3.1-.8 3.5v1.4l-.2 1-.6.6-.8.3c-.5 0-.9 0-1.2-.3a2 2 0 0 1-.3-1v-.7Zm14.7-7.1c0-.5.1-1 .4-1.4l1-.8.6-1.1a26.5 26.5 0 0 1 2.4-3.3 16.1 16.1 0 0 1 3.6-3 6.8 6.8 0 0 1 4-.8c.6.1 1 .3 1.3.5.3.2.6.6.7 1 .2.3.3.7.3 1.2 0 .4 0 .8-.2 1.1-.1.7-.4 1.3-.9 1.9l-1.5 1.5a13.4 13.4 0 0 1-4.1 2.1l-2 .7-1.8.5-.2.8-.1 1c0 .6.2 1 .7 1.4.6.3 1.3.3 2.3.2.5 0 1-.2 1.5-.4l1.5-.7 1.3-.8 1-.9 1.2-.8 1-.5c.3 0 .5 0 .6.2l.1.4v.5c0 .3-.2.6-.4 1l-.6.9c-1.3 1-2.5 2-3.8 2.5-1.3.6-2.6 1-4 1.3h-1a8 8 0 0 1-1.2 0l-1.2-.2c-.4-.2-.8-.4-1-.7a4 4 0 0 1-.8-1c-.2-.5-.3-1-.3-1.7 0-.6 0-1.2.2-2-.2.1-.3 0-.4 0a.8.8 0 0 1-.2-.6Zm11-6.5v-.3c0-.3-.2-.5-.4-.6-.2-.2-.5-.2-.8-.2-.5.1-1 .3-1.5.7a9.5 9.5 0 0 0-2.6 2.7l-.8 1.3a16.3 16.3 0 0 0 4.1-1.6c.6-.3 1-.6 1.3-1 .3-.3.5-.6.6-1Zm14.3 1.9c-.2 0-.4 0-.6-.2l-.5-.7-.3-1v-1c0-.5 0-.9.2-1.2.2-.4.5-.7 1-1 0-.2.2-.3.5-.5l2-1.5 1.2-.9 1.7-1.3a30 30 0 0 0 2.3-2.2l1-1.4c.3-.5.5-.9.5-1.3 0-.2 0-.4-.2-.7l-.3-.4a.8.8 0 0 0-.4-.4c-.1 0-.3-.1-.4 0a14.9 14.9 0 0 0-5 1.6 42.5 42.5 0 0 0-4.6 3.1l-.3.3a4 4 0 0 1-.5.3l-.5.4-.5.2h-.5l-.5-.2c-.2 0-.3-.2-.5-.3a1 1 0 0 1-.1-.6c0-.2 0-.4.2-.7l.8-.9 1-.9 1.1-.8 1-.7.8-.5a53 53 0 0 1 4-1.8c1.2-.6 2.5-1 3.8-1.1l1.7.1 1.5.8c.5.4.8.8 1.1 1.4a3.6 3.6 0 0 1 0 3.2c-.1.5-.4 1-.8 1.6a27.3 27.3 0 0 1-4.2 4.1l-1.3 1-1.2 1-1.1.9-1 .7-.5.7-.1.7v1l-.1.4-.4.4c-.3.1-.5.3-1 .3Zm1.5 5c0 .4 0 .7-.3 1.1a2 2 0 0 1-.6 1 4 4 0 0 1-1 .9l-1.1.4h-1l-.6-.4-.5-.7a2 2 0 0 1-.1-.8c0-.4 0-.8.3-1.1.1-.5.3-.8.7-1.2l1-.7a3 3 0 0 1 1-.5h1l.6.5.5.6.1.9ZM607.8 254l.1-1.1c.2-.5.2-1 .2-1.8l-1.3 1.2-1.4 1.3c-.5.4-1 .8-1.5 1-.5.4-1 .6-1.4.6a3 3 0 0 1-1 0 2 2 0 0 1-.8-.3c-.6-.4-1.1-.8-1.4-1.2-.2-.5-.4-1-.4-1.7v-.9c.2-.3.2-.7.3-1 .5-2 1.2-3.8 2.3-5.5 1.1-1.7 2.4-3.2 4-4.6a5 5 0 0 1 1.9-1l1.8-.6h1.8l.7-.3.5-.1h.9c.2 0 .4.2.5.3l.4.5v.6l-.1.9-.3.9-2.3 9.5a121.5 121.5 0 0 1-.5 3l-.2.4-.4.5-.7.2-.9.1-.5-.1-.2-.3v-.4Zm-5.8-4.3-.1.7v1.8c.1.2.3.3.7.3.4-.1.9-.3 1.3-.6a3 3 0 0 0 1.2-1l1.6-1.5a37.2 37.2 0 0 0 2.6-3.7 9.7 9.7 0 0 0 1-3.1l.2-1.2c0-.1 0-.3-.2-.4 0-.2-.1-.2-.3-.2l-1.8.6a10.1 10.1 0 0 0-3.2 2.7 14.3 14.3 0 0 0-2.3 3.7l-.7 2Zm26.7 10.1c-.5 0-.9 0-1.1-.3-.2-.2-.4-.5-.4-.8 0-.5.2-.9.5-1.3l1-1 1.2-1c.4-.2.8-.5 1-.8a12.1 12.1 0 0 0 2.4-3.4l1-2.7 1-3 .7-3.2.6-3 .1-.8v-.7l.2-1.5.4-1 .6-.4.8-.2c.7-.1 1.2 0 1.4.2.3.3.4.8.4 1.4l-.1 1.5-.5 2.4-.7 3a71.1 71.1 0 0 1-3.6 9.8l-.4.7-.5.7-.5.7-.4.6-1.4 1.7a9.4 9.4 0 0 1-2.4 2l-1.3.4Zm9-29.9c0-.4.2-.8.4-1.1a5.7 5.7 0 0 1 1.5-1.4l.7-.3h.8l.5.4.3.5v.6c0 .4 0 .8-.2 1.2a3 3 0 0 1-.9 1.3 4 4 0 0 1-.4.3l-.6.2c-.6 0-1 0-1.5-.3-.3-.3-.5-.7-.5-1.4Zm5.9 13a17.7 17.7 0 0 1 2.3-5 20 20 0 0 1 5.8-5.8l1-.4a3.8 3.8 0 0 1 4.2-.7c.7.4 1.2 1 1.6 1.7l.4.7.2.7.2.9a9.1 9.1 0 0 1-.4 3.9 15.7 15.7 0 0 1-3.2 5.8c-.7 1-1.6 1.9-2.5 2.6a8.7 8.7 0 0 1-7 2.2 4 4 0 0 1-1.7-.8l-1-1.4a6 6 0 0 1-.2-2c0-.8 0-1.6.3-2.4Zm2.9-.3-.2.8v.7l.1 1c.1.4.3.6.5.9l.8.4h1.3c.9-.1 1.7-.5 2.4-1a13.8 13.8 0 0 0 4.4-6.6l.3-1.3.1-1c0-.3 0-.5-.2-.8l-.4-.8-.3-.6-.3-.6c0 .2-.2.4-.3.5l-.5.4-.8.4-1.4.4-1.2.8-1.2 1.1a13.3 13.3 0 0 0-2 2.7 9.2 9.2 0 0 0-1.1 2.6Zm16.8-1.7.9-3.2.9-3.6 1-3.5.8-3.4.7-2.8.4-2 .2-1.5.1-.3.2-.4.3-.4.6-.2h.8l.6.5c.2.2.3.5.3.7l.1.9v1l-.2.8-1.3 5-1.4 5a16 16 0 0 1 5-3.6c.5-.3 1.1-.5 1.8-.6.6-.1 1.2 0 1.6 0 .5.1.9.4 1.2.6l.7 1 .2 1.5v.7l-.2.8a16.2 16.2 0 0 1-5.5 8.6 28.7 28.7 0 0 1-4 2.8l-1.5.5h-1.2c-.2 0-.4-.2-.6-.4l-.2.4-.3.4-.5.4-.6.2c-.6 0-1 0-1.4-.3-.3-.3-.4-.8-.4-1.3v-.6l.2-.6.7-3.1Zm11.2-8.8a5 5 0 0 0-1.8.7l-2 1.3-1.9 1.6-1.6 1.5-.4 1.5-.4 1.4-.4 1.4-.3 1.6v1a4.6 4.6 0 0 1 1.3-.7l.6-.3.7-.3c1.8-1 3.4-2.2 4.6-3.6a11 11 0 0 0 2.5-5l.2-.6v-.6c0-.3 0-.6-.2-.8h-1Zm24.7 2.5a17.7 17.7 0 0 1 2.3-5 20 20 0 0 1 5.8-5.8l1-.4c.6-.5 1.2-.9 2-1 .9-.1 1.6 0 2.2.4.7.3 1.2.9 1.6 1.6l.4.7.2.7.2.9a9.1 9.1 0 0 1-.4 4 15.7 15.7 0 0 1-3.2 5.8c-.7.9-1.6 1.8-2.5 2.5a8.7 8.7 0 0 1-7 2.2 4 4 0 0 1-1.6-.8c-.5-.4-.8-.8-1-1.4a6 6 0 0 1-.3-2c0-.8 0-1.6.3-2.4Zm2.9-.3-.2.9v.6l.1 1c.1.4.3.6.5.9l.8.4h1.3c.9-.1 1.7-.5 2.4-1a13.8 13.8 0 0 0 4.4-6.6l.3-1.3.1-1c0-.2 0-.5-.2-.8l-.4-.8c0-.2-.2-.3-.3-.5l-.3-.6c0 .2-.2.3-.3.4l-.5.4-.8.4-1.4.5c-.4.1-.8.4-1.2.7l-1.2 1.1a13.3 13.3 0 0 0-2 2.8 9.2 9.2 0 0 0-1.1 2.5Zm19.2 5.2h-.8a.7.7 0 0 1-.6-.4l-.4-.6-.1-.8v-.6l.3-.9.1-.7.2-1 .3-1.3.2-1.3.1-1.1v-1.2c0-.2 0-.3-.3-.3l-.8-.1a1 1 0 0 1-.7-.3c-.2-.1-.3-.3-.3-.7 0-.4 0-.7.2-1l.6-.7.9-.3 1-.2c.2 0 .3-.2.4-.4 0-.2 0-.4.2-.6a66 66 0 0 0 1-3.8l.7-2 .9-1.8a22.8 22.8 0 0 1 3.6-4.1l2.1-1.5c.8-.3 1.6-.6 2.5-.7a5 5 0 0 1 2.5.1c.7.3 1.2.7 1.6 1.4l.2.4v1.5a4 4 0 0 1-.4.7l-.5.5-.7.3h-.7l-.4-.5c-.1-.1-.3-.3-.3-.6l-.2-.5-.3-.5h-.6l-.8.1-.8.5-2 1.5c-.6.5-1.2 1.2-1.7 2s-1 1.7-1.4 2.8c-.5 1.1-.9 2.4-1.2 4v.1c.4 0 .7 0 1-.2l2-.5 1-.3h1.4l.4.3v1c0 .3 0 .5-.2.7 0 .2-.2.4-.3.5a1 1 0 0 1-.5.4l-1 .3a21 21 0 0 0-2.8.8l-1.8.7-.4 2.4-.3 2.3-.3 2.4-.4 2.3-.2.5-.3.5-.5.4-.5.1Zm14.1-2.1h-.8l-.5-.4-.4-.6-.1-.8v-.6l.2-.9.2-.7.2-1 .2-1.3.2-1.3.2-1.1v-1.2c0-.2-.1-.3-.4-.3l-.7-.1a1 1 0 0 1-.7-.3c-.2-.1-.3-.4-.3-.7 0-.4 0-.7.2-1 .1-.3.3-.5.6-.7l.8-.3 1-.2c.2 0 .3-.2.4-.4l.2-.6a66 66 0 0 0 1-3.8l.7-2a22.8 22.8 0 0 1 4.5-6l2.2-1.4c.8-.3 1.6-.6 2.4-.7a5 5 0 0 1 2.6.1 4 4 0 0 1 1.6 1.3l.2.5v1.5a4 4 0 0 1-.4.7l-.6.5-.6.3h-.7l-.5-.5-.3-.6c0-.2 0-.4-.2-.5 0-.2-.2-.3-.3-.5h-.5l-.8.1-.8.4c-.8.5-1.4 1-2 1.6-.6.5-1.2 1.2-1.7 2s-1 1.7-1.4 2.8c-.5 1-.9 2.4-1.3 4v.1h.1c.4 0 .7 0 1-.2l2-.5 1-.3h1.3c.2 0 .3.1.4.3l.2.5-.1.5-.2.7-.3.5a1 1 0 0 1-.5.4c-.4 0-.7.2-1 .3a21 21 0 0 0-2.8.8l-1.8.7-.5 2.4-.3 2.3-.3 2.4c0 .8-.2 1.5-.4 2.3 0 .2 0 .4-.2.5 0 .2-.1.3-.3.5 0 .1-.2.3-.4.3l-.5.2Zm10.7-9.9a2.5 2.5 0 0 1 1.4-2.2l.7-1.1a26.5 26.5 0 0 1 2.3-3.3 16.1 16.1 0 0 1 3.7-3 6.8 6.8 0 0 1 4-.7c.5 0 1 .2 1.2.4.4.3.6.6.8 1l.2 1.2-.1 1.2a4 4 0 0 1-1 1.8c-.4.6-.9 1-1.5 1.5a13.4 13.4 0 0 1-4 2.2l-2.1.6-1.7.5-.3.8-.1 1c0 .6.3 1.1.8 1.4.5.3 1.3.4 2.2.2.6 0 1-.2 1.6-.4l1.4-.6 1.3-.9c.4-.2.8-.5 1-.8l1.3-.9c.4-.2.7-.4 1-.4l.5.1.1.5v.4c0 .4-.1.7-.3 1l-.7 1c-1.2 1-2.4 1.9-3.7 2.5-1.3.6-2.7 1-4.1 1.2h-1a8 8 0 0 1-1.2 0c-.4 0-.8 0-1.2-.2l-1-.6a4 4 0 0 1-.8-1.1c-.2-.5-.3-1-.3-1.7 0-.6 0-1.2.2-1.9l-.4-.1a.8.8 0 0 1-.2-.6Zm11-6.4v-.4c0-.3-.1-.5-.3-.6-.3-.1-.6-.2-.9-.1-.5 0-1 .3-1.5.6a9.5 9.5 0 0 0-2.6 2.7l-.7 1.3a16.3 16.3 0 0 0 4-1.5c.6-.3 1-.7 1.3-1 .4-.3.6-.7.7-1Zm7.3 8.6.5-2.7.6-3 .6-3.1.5-2.7v-.6l.1-1.1.2-1 .4-1c.2-.2.4-.3.8-.3.3-.1.6 0 .8 0l.5.5.2.7v1.9l1-1.2 1.2-1.1 1.4-1 1.4-.4h1.2c.2 0 .4 0 .7.2.2 0 .5 0 .7.2l1 1c.3.4.4.8.4 1.3l-.1.5-.3.6-.4.5-.6.3h-.7l-.7-.4-.3-.2-.2-.4-.2-.3-.2-.2h-.4c-.6.1-1.1.4-1.7.7a11.3 11.3 0 0 0-2.8 3l-1 1.4-.8 3.1-.8 3.5v1.5l-.2 1-.6.5c-.2.2-.5.3-.8.3-.5.1-.9 0-1.1-.3-.3-.3-.4-.6-.4-1v-.7Z"/>
  <path fill="none" stroke="#d96226" stroke-width="4" d="M629.4 154c-3.6 3.3-7.2 6.7-11 9.7-1.8 1.4-4.7 2.5-5.7 4.7-.5 1.2 3.4 2.6 3.7 2.8a46.8 46.8 0 0 0 12 2.8c.7 0 2.4.7 2.9.4l-1-1a38.4 38.4 0 0 0-13.5-4.5c-.3 0-3.1-.3-3.2-.7 0-.4 1.3-1.1 1.5-1.2l6-2.4 25.3-8.6c17.3-5.8 35.7-9.7 53.6-13.3a513 513 0 0 1 65.2-9.9 281 281 0 0 1 36.7-.5c12.2.9 24.6 3.9 36.4 7a78 78 0 0 1 19.3 7.5M99.2 508.1c5.3-31.8 66.6-128.3 85.2-152.5 4-5.3 33.3-41.5 38.9-40.8 17 2.3-.4 107.4-2 121.6-.5 3-5.8 24.6.7 23.6 27.8-4.4 119.2-144 171.8-140.4 20.5 1.5-3.7 128.7-4.5 133.3l-6 33c-.4 2.9-3.7 9.8-.9 8.8 13.3-4.5 32-44.7 37.4-53.5 7.3-11.7 88.1-109.6 125-105.7 28.1 2.9 12.6 93.3 10 109.9-1 5.9-9.6 34 2 32 42.6-7.5 125-144.7 170.5-141.6 5.9.4 6.4 13.7 6.7 18.3 2.1 29.4-7.5 63.8-16.2 91.6-3.2 9.9-5.5 19.8-7.9 29.8-.3 1.4-2.2 3.9-.8 4.4 7.5 2.7 25.2-28 35-43.3 15.6-23.9 62.2-95 95.3-93.2 2 0 7.1 4.2 7.3 6.9 1 14.2 2 28.4 2.7 42.7.7 13.2-15.5 64.2-10.9 72.1 3.4 5.8 18.4-14.7 19.5-16.4M432.4 27.6c4.8-13.6 39.7-18.6 45-3C481.8 37 466.6 46.2 456 47c-2.1.2-5 .7-7.2 0-1.1-.4-1.6-2.7-2.8-2.3-1.5.5.2 3.2.4 4.8.6 4.5.3 9.2.3 13.7m-2.2 17.5c.8 5.5 10-1.3 4.3-2.3-1.1-.1-2.4-.3-3.5.1"/>
  <path fill="#d96226" fill-rule="nonzero" d="M276.7 787.3a165.1 165.1 0 0 0 2.4-11l1.3-6.4a19.5 19.5 0 0 0 .4-4.3c0-.4 0-.7.2-.9l.5-.6.8-.2 1.2.1.7.6.2.8v.9l1.5-.8a12.8 12.8 0 0 1 3.4-1.1l1.6-.2a5 5 0 0 1 2.2.3 4.2 4.2 0 0 1 2.5 2.7 6.8 6.8 0 0 1 0 4.3l-1 2-1.6 1.8a16.6 16.6 0 0 1-4 3 33 33 0 0 1-3.6 1.5 5.3 5.3 0 0 1-3.8-.3 33.8 33.8 0 0 0-1.2 5.4 94.3 94.3 0 0 1-1 3.4l-.4.2a3.4 3.4 0 0 1-1 .3c-1 0-1.4-.3-1.4-1l.1-.5Zm5.4-10.5a13.6 13.6 0 0 1 2 .3c.1 0 .4 0 .7-.2a7.5 7.5 0 0 0 1.6-.6l.7-.4a23.8 23.8 0 0 0 3.6-2.6 8 8 0 0 0 1.4-2c.3-.6.5-1.3.5-2.1l-.1-1a2 2 0 0 0-.4-.6l-.6-.5-1-.1a7.8 7.8 0 0 0-2.1.4 7.5 7.5 0 0 0-2 1.3l-1.2.7a3 3 0 0 1-1.3.5l-1.8 7Zm24.9 1.5V777c.2-.5.2-1.1.2-1.8a29 29 0 0 0-2.7 2.2l-1.5 1c-.5.3-1 .4-1.4.5a3 3 0 0 1-1-.1l-.8-.4-1.3-1.4c-.3-.5-.5-1-.5-1.7l.1-.9.3-1a16.1 16.1 0 0 1 6.3-9.5c.6-.5 1.2-.8 1.8-1a9.7 9.7 0 0 1 3.7-.2 9.4 9.4 0 0 1 1.1-.2h1l.5.4.3.5v1.6c-.2.2-.2.5-.3.8l-2.3 9.3a134.2 134.2 0 0 0-.4 2.5l-.1.4c0 .2-.1.3-.3.5l-.4.4-.7.2h-.9l-.5-.2a.5.5 0 0 1-.2-.3v-.4Zm-5.8-5a7.4 7.4 0 0 0-.3 1.7c0 .3 0 .6.2.8 0 .3.3.4.6.3.5 0 1-.1 1.4-.4l1.2-.8a24.5 24.5 0 0 0 4.2-5 7.5 7.5 0 0 0 1-2.9v-1.6c0-.2-.2-.2-.4-.2a5 5 0 0 0-1.7.4l-1.7 1-1.5 1.4a14.2 14.2 0 0 0-3 5.4Zm15.1 2.1h.2a13.2 13.2 0 0 1 .6.1h.4l1.9-.3a15.6 15.6 0 0 0 3.4-1.2c.4-.3.7-.6.7-.8v-.4c0-.2 0-.4-.2-.5l-.7-.5-1-.4-1.5-.5a5.9 5.9 0 0 1-1.7-1l-.7-.7a4.6 4.6 0 0 1-.6-2l.3-1 .8-1.2a10.7 10.7 0 0 1 2.6-2.1 21.1 21.1 0 0 1 2-1.3 7 7 0 0 1 1-.4l1.1-.2h1.1c.5 0 .8 0 1.2.2.3 0 .6.2.8.5.2.2.4.5.4 1a3.2 3.2 0 0 1-.6 1.6c0 .2-.2.3-.4.3l-.7-.1a3 3 0 0 1-.4-.3l-.5-.3a1 1 0 0 0-.5-.2l-1 .2a8 8 0 0 0-2.1 1.2 10 10 0 0 0-1.7 1.4l-.3.6.2.5.5.3.9.4a189.3 189.3 0 0 0 3.7 1.5l.6.4a1.8 1.8 0 0 1 .6 1.4v.5a7.9 7.9 0 0 1-1 2.5l-.2.4-1.6 1.2a15.8 15.8 0 0 1-4 1.9l-1.8.3a4 4 0 0 1-1.9-.5l-.7-.5a1 1 0 0 1-.3-.7l.1-.4a2 2 0 0 1 .6-.8l.4-.1Zm14.7-.9h.3a15.3 15.3 0 0 1 .6.1h.5c.5 0 1.1 0 1.8-.2a15.6 15.6 0 0 0 3.4-1.3c.5-.3.7-.6.8-.8v-.4c0-.2 0-.4-.3-.5l-.7-.5-1-.4-1.5-.5a6 6 0 0 1-1.7-1c-.3-.1-.5-.4-.7-.7a4.6 4.6 0 0 1-.6-2c0-.3.1-.6.4-1 .2-.4.4-.8.8-1.2a10.7 10.7 0 0 1 2.5-2.1 21.1 21.1 0 0 1 2-1.3 7 7 0 0 1 1-.4l1.1-.2h1.2c.4 0 .8 0 1 .2.4 0 .7.2 1 .5.2.2.3.5.3 1a3.2 3.2 0 0 1-.5 1.7l-.5.2-.6-.1a3 3 0 0 1-.5-.3l-.4-.3a1 1 0 0 0-.6-.2l-1 .3a8.1 8.1 0 0 0-2.1 1 10 10 0 0 0-1.7 1.5c-.2.3-.2.5-.2.7 0 .2 0 .3.2.4 0 .2.2.3.4.3l1 .4a227.7 227.7 0 0 0 3.6 1.5c.3.1.5.3.6.5a1.8 1.8 0 0 1 .6 1.4v.4a7.9 7.9 0 0 1-1 2.5l-.2.4-1.6 1.2a16 16 0 0 1-4 1.9l-1.8.3a4 4 0 0 1-1.9-.5l-.7-.5a1 1 0 0 1-.3-.7l.1-.4a2 2 0 0 1 .6-.8l.4-.1Zm14.5-1 .6-2.4.8-2.8a544.4 544.4 0 0 0 2-6.8 2 2 0 0 1 1.2-.5h.6l.5.2.3.3.2.4v.3l-.6 1.8a1027 1027 0 0 1-3.6 13.3l-.3.2-.4.2c-.3 0-.6 0-.8-.2a1.9 1.9 0 0 1-1-1v-.9l.5-2Zm4.5-18.2.3-1 .8-1a4.1 4.1 0 0 1 1.3-.4h.4c0 .2.2.2.3.3l.3.4c.3 0 .5 0 .6.3l.1.6v.5l-.1.4-.4.7-.7.6a4 4 0 0 1-1.5.5l-.7-.1-.5-.6a1 1 0 0 1-.2-.4v-.8Zm10.2 21.2a2.9 2.9 0 0 1-.3 0h-.7a1.6 1.6 0 0 1-.8-1.4l-.6-2.5a148 148 0 0 1-2.2-11l.1-1 .3-.8.5-.6.7-.2c.4 0 .8 0 1 .3.4.2.6.4.7.8a24.6 24.6 0 0 1 .5 2.8 34 34 0 0 0 .6 4.5l.4 2.3.3 1.9 1.9-2.5a644.3 644.3 0 0 1 4-6.3 28.8 28.8 0 0 0 1.9-4 2.4 2.4 0 0 1 1-.7l.6-.2c.6 0 1 0 1.1.3.2.3.3.6.3 1 0 .6 0 1.1-.3 1.6a8 8 0 0 1-1 1.7l-8.1 12-.5 1-.5.5a2.5 2.5 0 0 1-1 .5Zm11.7-8.1c0-.5 0-.9.4-1.3a2 2 0 0 1 1-.7 16.5 16.5 0 0 1 6.6-6.9 6.5 6.5 0 0 1 4-.3c.5 0 1 .3 1.3.6.3.2.6.6.7 1 .2.3.3.8.3 1.2 0 .4 0 .8-.2 1.2a5.6 5.6 0 0 1-2.5 3.1l-2 1a22.2 22.2 0 0 1-5.8 1.6l-.3.8v.9c0 .7.2 1.2.7 1.5.6.4 1.3.5 2.3.4.5 0 1 0 1.5-.2a9.6 9.6 0 0 0 2.7-1.3l1.1-.7 1.2-.8 1-.4c.3 0 .5 0 .6.2l.1.5a4 4 0 0 1 0 .5c0 .3-.2.6-.4.9l-.6.8a12.9 12.9 0 0 1-8.9 3.1 7.4 7.4 0 0 1-2.3-.5 3.5 3.5 0 0 1-1.9-1.9l-.2-1.7c0-.5 0-1.1.2-1.8-.2 0-.3 0-.4-.2-.2-.1-.2-.3-.2-.6Zm11-5.4v-.4c0-.3-.2-.5-.4-.6-.2-.2-.5-.2-.8-.2-.6 0-1 .2-1.6.5l-1.4 1a9.8 9.8 0 0 0-2 2.7 17.7 17.7 0 0 0 4.2-1.2c.5-.3 1-.5 1.3-.9.3-.3.5-.6.6-1Zm32.9 8.8.1-1.3.2-1.7a29 29 0 0 0-2.8 2.2l-1.5 1c-.5.3-1 .4-1.4.4h-1l-.8-.4-1.3-1.4a3 3 0 0 1-.4-1.7v-.9l.3-1a16.1 16.1 0 0 1 6.3-9.5 5 5 0 0 1 1.9-1 9.7 9.7 0 0 1 3.6-.2 9.8 9.8 0 0 1 1.2-.2h.9l.5.4c.2.1.3.3.3.5l.1.6-.1 1-.3.8-2.3 9.3a167 167 0 0 0-.3 2.5l-.2.4-.2.5-.5.4-.6.2h-.9l-.5-.2a.5.5 0 0 1-.2-.3v-.4Zm-5.8-5a7.4 7.4 0 0 0-.2 1.7l.1.8c.1.2.3.4.6.3.5 0 1-.1 1.4-.4l1.2-.8a24.5 24.5 0 0 0 4.2-5 7.5 7.5 0 0 0 1-2.9l.1-1.2v-.4c-.1-.2-.3-.2-.5-.2a5 5 0 0 0-1.7.4l-1.7 1-1.5 1.4a14.3 14.3 0 0 0-3 5.4Zm15.7 13.2h-.3l-.4-.3a1 1 0 0 1-.4-.8l.1-.4.3-.9.5-.6c.2-.2.4-.4.8-.5l1.3-.4c.4 0 .7-.2 1-.3l.8-.4a11.5 11.5 0 0 0 3.2-5.3 58.4 58.4 0 0 0 1-3.5 54.1 54.1 0 0 1-2.9 2.3l-1.5.9-1.5.4c-.4 0-.7-.1-1-.3a4.4 4.4 0 0 1-2-1.6c-.2-.4-.4-.8-.4-1.3l.1-.9.2-.9a15.4 15.4 0 0 1 3.7-6.3l1.8-1.7a7.4 7.4 0 0 1 6.7-2l.9.5.7.8v.3l.1.3v.6a91.6 91.6 0 0 1-3.5 14.9l-1.5 2.7c-.6.9-1.3 1.6-2 2.3a9.3 9.3 0 0 1-5.8 2.4Zm1.7-14.5a9.4 9.4 0 0 0-.1.8l.1.7.5.2a3 3 0 0 0 1.4-.5l1.5-1.1a16.1 16.1 0 0 0 2.6-2.9 34.6 34.6 0 0 0 1.5-3l.3-1v-.6c-.2-.2-.2-.4-.3-.7h-.2l-1 .3a16.4 16.4 0 0 0-3.5 3 25.4 25.4 0 0 0-1.6 2.2l-.7 1.2c-.2.4-.4.8-.5 1.4Zm14.6 3.7a161 161 0 0 1 1.8-8.7 94 94 0 0 0 .4-3v-.3a8.4 8.4 0 0 1 .3-2l.4-1c.2-.2.4-.2.8-.3.3 0 .6 0 .8.2l.5.5.2.7v1.9a47.8 47.8 0 0 1 2.3-2.1l1.3-.8a4 4 0 0 1 2.6-.2c.2 0 .5 0 .7.2.3 0 .5.2.7.3l1 1c.3.5.4.9.4 1.4l-.1.5-.3.6-.4.4a1 1 0 0 1-.6.2h-.7a2 2 0 0 1-.7-.4l-.3-.3a6.7 6.7 0 0 1-.4-.7 1 1 0 0 0-.2-.2 1.8 1.8 0 0 0-.3 0c-.6 0-1.2.2-1.7.5l-1.5 1.2c-.5.5-1 1-1.3 1.5l-1 1.4a159.6 159.6 0 0 1-1.7 6.4v1.5l-.2 1-.6.4c-.2.2-.5.3-.8.3-.5 0-.9-.1-1.1-.4-.3-.3-.4-.7-.4-1.1l.1-.6Zm14.7-5.8c0-.5.1-1 .4-1.3a2 2 0 0 1 1-.8 16 16 0 0 1 3-4.2 12.6 12.6 0 0 1 3.6-2.6 6.5 6.5 0 0 1 4-.4c.6.1 1 .3 1.3.6.3.3.6.6.7 1 .2.4.3.8.3 1.3 0 .3 0 .7-.2 1-.1.8-.4 1.3-.9 1.9-.4.5-1 1-1.5 1.3a21.6 21.6 0 0 1-7.8 2.6c-.2.2-.3.5-.3.8l-.1 1c0 .6.2 1.1.8 1.4.5.4 1.2.5 2.2.5l1.6-.3a9.7 9.7 0 0 0 2.7-1.3l1-.7 1.2-.8 1-.3c.3 0 .5 0 .6.2l.1.4a4 4 0 0 1 0 .5c0 .3-.2.6-.4 1l-.6.8a12.9 12.9 0 0 1-8.8 3 7.4 7.4 0 0 1-2.4-.4 3.5 3.5 0 0 1-1.8-2c-.2-.4-.3-1-.3-1.6 0-.6 0-1.2.2-1.9-.2 0-.3 0-.4-.2-.2-.1-.2-.3-.2-.5Zm11-5.5v-.3c0-.3-.2-.6-.4-.7-.2-.2-.5-.2-.8-.2a3 3 0 0 0-1.5.5l-1.4 1a9.7 9.7 0 0 0-2 2.7 17.7 17.7 0 0 0 4.1-1.2c.6-.2 1-.5 1.3-.8.3-.3.5-.7.6-1Zm7.3 8h.6l.3.1h.4c.6 0 1.2 0 1.9-.2a15.6 15.6 0 0 0 3.4-1.3c.4-.3.7-.6.7-.8v-.4c0-.2 0-.4-.2-.5l-.8-.5-.9-.4-1.5-.5a5.8 5.8 0 0 1-1.7-1c-.3-.1-.5-.4-.7-.7a4.8 4.8 0 0 1-.6-2l.3-1 .8-1.2a10.6 10.6 0 0 1 2.6-2.1 20 20 0 0 1 2-1.3l1-.4 1.1-.2h1.1c.4 0 .8 0 1.2.2.3 0 .6.2.8.5.2.2.3.5.3 1a3.3 3.3 0 0 1-.5 1.7l-.4.2-.7-.1a3 3 0 0 1-.4-.3l-.5-.3a1 1 0 0 0-.5-.2l-1 .2a8 8 0 0 0-2.2 1.2 10.2 10.2 0 0 0-1.6 1.4l-.3.7c0 .2 0 .3.2.4.1.2.3.3.5.3l.9.4a189.3 189.3 0 0 0 3.7 1.5l.6.4a1.8 1.8 0 0 1 .5 1.5v.4a6.8 6.8 0 0 1-.9 2.5l-.2.4-1.6 1.2a15.8 15.8 0 0 1-4 1.9l-1.8.3a4 4 0 0 1-1.9-.5l-.7-.5a1 1 0 0 1-.3-.7l.1-.4a2 2 0 0 1 .6-.8l.3-.1Zm14.9-.9h.5l.3.1h.5c.5 0 1.1 0 1.8-.2a15.6 15.6 0 0 0 3.4-1.3c.4-.3.7-.5.7-.8v-.4c0-.2 0-.3-.2-.5l-.7-.5-1-.4-1.5-.5a5.8 5.8 0 0 1-1.7-1c-.3-.1-.5-.4-.7-.7a4.8 4.8 0 0 1-.6-2l.3-1 .9-1.2a10.6 10.6 0 0 1 2.5-2.1 20 20 0 0 1 2-1.3l1-.4 1.1-.2h1.2c.4 0 .7 0 1 .2.4 0 .7.3 1 .5.2.2.3.6.3 1a3.3 3.3 0 0 1-.6 1.7l-.4.2-.6-.1a3 3 0 0 1-.5-.3l-.5-.3a1 1 0 0 0-.5-.1c-.3 0-.6 0-1 .2a8.2 8.2 0 0 0-2.1 1 10.2 10.2 0 0 0-1.7 1.5l-.3.7.2.4a9 9 0 0 0 1.4.7 189.3 189.3 0 0 0 3.7 1.5l.6.5a1.8 1.8 0 0 1 .6 1.4v.4a6.7 6.7 0 0 1-.6 1.9l-.3.6-.3.4-1.6 1.2a15.8 15.8 0 0 1-4 1.9l-1.8.3a4 4 0 0 1-1.9-.5l-.7-.5a1 1 0 0 1-.3-.7l.1-.4a2 2 0 0 1 .6-.7l.4-.2Zm14.3-1 .7-2.3.8-3a567.6 567.6 0 0 0 2-6.7 2 2 0 0 1 1.2-.5h.6l.5.2.3.3.1.4v.2l-.5 2a990.2 990.2 0 0 1-3.6 13.2l-.3.3h-.4c-.3.1-.6 0-.8 0a1.9 1.9 0 0 1-1-1l-.1-.7v-.3l.5-2Zm4.6-18.2.3-1 .8-1a4 4 0 0 1 1.3-.4h.3l.4.3.3.4c.3 0 .5.1.6.3l.1.6v.5l-.1.4-.4.7-.7.6a4 4 0 0 1-1.6.5h-.6l-.5-.6a1 1 0 0 1-.3-.4 1.5 1.5 0 0 1 0-.6l.1-.3ZM519 767a2 2 0 0 1-.3 0h-.7a1.6 1.6 0 0 1-.8-.9v-.5l-.7-2.5a148 148 0 0 1-2-11v-1c0-.3.2-.6.3-.8l.5-.6.7-.2c.4 0 .8 0 1 .3.3.2.6.5.7.8a24.6 24.6 0 0 1 .5 2.8 34 34 0 0 0 .6 4.6 107.7 107.7 0 0 0 .7 4 1566.8 1566.8 0 0 1 5.9-8.7 28.8 28.8 0 0 0 1.9-4 2.4 2.4 0 0 1 1-.7l.6-.2c.5 0 1 0 1.1.3.2.3.3.6.3 1 0 .6-.1 1.1-.3 1.6a8 8 0 0 1-1 1.7l-8.1 12-.5 1-.6.5a2.4 2.4 0 0 1-.8.5Zm11.6-8c0-.6.2-1 .4-1.4a2 2 0 0 1 1.1-.7 15.1 15.1 0 0 1 1.6-2.6 19.4 19.4 0 0 1 3-3c.6-.6 1.3-1 2-1.2a6.6 6.6 0 0 1 4-.4c.5 0 1 .3 1.3.6.3.2.5.6.7 1 .2.3.3.8.3 1.2l-.2 1.2c-.2.6-.5 1.2-1 1.7-.4.5-.9 1-1.5 1.4l-2 1a21.6 21.6 0 0 1-5.8 1.6l-.3.8v1c0 .6.2 1 .7 1.4.6.4 1.3.5 2.2.4.6 0 1.1 0 1.6-.2a9.7 9.7 0 0 0 2.7-1.3l1.1-.7 1.2-.8 1-.3.6.1v.5a4.8 4.8 0 0 1 0 .5l-.3 1-.7.7a12.9 12.9 0 0 1-8.8 3.1 7.4 7.4 0 0 1-2.4-.5c-.4-.1-.7-.4-1-.7l-.8-1.1c-.2-.5-.3-1-.3-1.7l.3-1.9c-.2 0-.3 0-.5-.2l-.2-.6Zm11-5.5v-.3c0-.4 0-.6-.3-.7-.3-.2-.5-.2-.9-.2a3 3 0 0 0-1.5.5l-1.4 1a9.7 9.7 0 0 0-2 2.7 17.8 17.8 0 0 0 4.2-1.2l1.3-.8.6-1Zm27 4.5.3-3 .7-3.1a4.3 4.3 0 0 1-1.8-.4l-.6-.5a1 1 0 0 1-.2-.7v-.4l.2-.5.4-.4.5-.2 2.3-.1c.2 0 .4-.1.5-.3l.2-.6.4-1.8.3-1.3a34.3 34.3 0 0 0 .3-1.3v-1.2a3.3 3.3 0 0 1 .2-1l.4-.7c.1-.2.4-.3.8-.3l.8.1.5.5c.2.2.3.4.3.7a3 3 0 0 1 0 1.6l-1.2 5 1.7-.5c.5 0 1-.2 1.4-.3a36.6 36.6 0 0 0 3.6-1h.6l.5.1.4.3.1.5c0 .3 0 .5-.2.7 0 .3-.2.5-.4.6l-.6.4c-.2.2-.4.2-.7.3a18.2 18.2 0 0 0-1.7.5 104.3 104.3 0 0 0-5.6 1.6 29.5 29.5 0 0 0-1.3 6.3v.9l.4.7.5.4 1 .2c.6 0 1.2-.3 1.8-.7.6-.3 1.1-.8 1.7-1.3l1.5-1.8a69.1 69.1 0 0 0 1.9-2.2 1 1 0 0 1 .5.1l.3.2v.6c-.1.7-.4 1.4-.8 2.2a185.4 185.4 0 0 1-1.8 3 9.5 9.5 0 0 1-1.6 1.5l-.8.6c-.4.3-1 .5-1.4.6a8 8 0 0 1-1.6.3c-.7 0-1.4 0-2-.3a4 4 0 0 1-1.5-1 5 5 0 0 1-.9-1.6c-.2-.6-.3-1.3-.3-2Zm16.6-2.3a13.3 13.3 0 0 1 2.3-4.8 18.6 18.6 0 0 1 5.8-5.2l1.1-.3c.5-.5 1-.8 1.9-.8.9 0 1.6 0 2.3.5.6.4 1.1 1 1.5 1.8a18.7 18.7 0 0 1 .6 1.5 7 7 0 0 1 .3 1.9c0 1-.1 1.9-.4 2.8a17 17 0 0 1-5.7 8 8.2 8.2 0 0 1-7 1.5 3.9 3.9 0 0 1-2.6-2.4 6 6 0 0 1-.4-2.1c0-.7 0-1.5.3-2.4Zm2.9 0a6 6 0 0 0-.2 1.5c0 .4 0 .8.2 1a2 2 0 0 0 1.3 1.4l1.2.2a5 5 0 0 0 2.5-.9 9 9 0 0 0 2-1.8 11.8 11.8 0 0 0 2.7-6.6l-.1-.8a10 10 0 0 0-.8-1.4c0-.3-.2-.5-.3-.7 0 .2-.2.4-.3.5l-.4.3c-.2.2-.5.3-.9.4l-1.4.3-1.2.6-1.1 1a14.2 14.2 0 0 0-3.2 5Zm28.3-9.5c-.4 0-.8.2-1.3.4l-1.5.9a21.3 21.3 0 0 0-3 2.5 20.2 20.2 0 0 1-1.5 1.1l-.5 1.1a24 24 0 0 0-1.5 5.3 32.5 32.5 0 0 1-.8 3.2 1.6 1.6 0 0 1-.9.5h-.3c-.4 0-.8 0-1-.2-.3-.2-.5-.6-.5-1.2v-.5l.2-.6a90.6 90.6 0 0 1 4.7-14.4c0-.2.2-.4.5-.5a2 2 0 0 1 1-.3c.4 0 .8 0 1 .2a1 1 0 0 1 .5 1l-.1.4-.8 1.8a55.2 55.2 0 0 1 3.2-2.3c.5-.4 1.1-.7 1.7-.9l1.6-.4c1.2 0 2 .2 2.7.8.6.5 1 1.4 1 2.7a41.5 41.5 0 0 1-2.5 8.9 66.2 66.2 0 0 0-1.7 4.4c0 .2-.2.4-.4.5-.1.2-.3.3-.5.3l-.8.2c-.4 0-.7 0-.9-.2-.2-.2-.3-.5-.3-.8 0-.4 0-.8.2-1.2a16.3 16.3 0 0 1 1-3.4 53.2 53.2 0 0 1 2-5.3l.5-1.4.1-1.3c0-.3 0-.6-.2-.9-.2-.3-.5-.4-.9-.4Zm7.1 7.2c0-.5.2-1 .4-1.3a2 2 0 0 1 1.1-.8 15.4 15.4 0 0 1 1.6-2.5 19.2 19.2 0 0 1 3-3.1 10 10 0 0 1 2-1.2 6.5 6.5 0 0 1 4-.4c.5.1 1 .3 1.3.6l.7 1c.2.4.2.8.2 1.3l-.1 1.1a4 4 0 0 1-1 1.8c-.4.5-.9 1-1.5 1.4l-2 1a22.2 22.2 0 0 1-5.8 1.5l-.3.8v1c0 .6.2 1.1.7 1.5.5.3 1.3.5 2.2.4a9.7 9.7 0 0 0 4.3-1.5c.4-.3.8-.5 1-.8l1.3-.7c.4-.3.7-.4 1-.4.3 0 .5 0 .6.2v.4a4 4 0 0 1 0 .5l-.3 1-.7.8a12.9 12.9 0 0 1-8.8 3.1 7.4 7.4 0 0 1-2.4-.5 3.5 3.5 0 0 1-1.8-1.9c-.2-.5-.3-1-.3-1.7l.3-1.8-.5-.2-.2-.6Zm11-5.5v-.3a1 1 0 0 0-.3-.7l-.9-.2a3 3 0 0 0-1.5.5l-1.4 1.1a9.7 9.7 0 0 0-2 2.7 17.7 17.7 0 0 0 4.2-1.2l1.3-.9c.3-.3.5-.6.6-1ZM649 751c-.3.1-.5 0-.7-.2l-.5-.7-.3-1v-1c0-.5 0-1 .2-1.3.1-.3.5-.6 1-1l.5-.3 2-1.3 1.1-.8 1.8-1.2a30.2 30.2 0 0 0 2.3-2l1-1.2c.3-.5.4-1 .4-1.4v-.6a2 2 0 0 0-.4-.5l-.4-.4a.8.8 0 0 0-.5-.1 17.3 17.3 0 0 0-7.3 2.5l-2.3 1.4-.3.3a4.7 4.7 0 0 1-1.4.7h-.5a2 2 0 0 1-.5-.2l-.5-.4a.9.9 0 0 1-.2-.6l.3-.7.8-.8a12.6 12.6 0 0 1 2.1-1.5 24.7 24.7 0 0 1 5.7-2.5c1.3-.5 2.6-.7 4-.8.5 0 1 0 1.6.3a5.2 5.2 0 0 1 2.6 2.4c.3.5.4 1.1.4 1.7 0 .5 0 1-.3 1.5a12.9 12.9 0 0 1-2.2 2.8 28 28 0 0 1-4.2 3.4 32.9 32.9 0 0 1-2.3 1.6l-1 .7-.5.6-.1.7a26.5 26.5 0 0 0-.2 1.4c0 .2-.2.3-.4.4l-.9.2Zm1.4 5.2c0 .4 0 .7-.3 1.1a3.4 3.4 0 0 1-1.6 1.7 3 3 0 0 1-1.2.3l-.8-.1a2 2 0 0 1-1.3-2c0-.3 0-.7.2-1.1a3.7 3.7 0 0 1 1.7-1.7l1.2-.4a2 2 0 0 1 2 1.3v.9Zm-30.8 38.2-.6.1c-.3 0-.5.2-.8.4a9.8 9.8 0 0 0-1.5 1.2 9.4 9.4 0 0 1-.7.5l-.3.5a11.8 11.8 0 0 0-.8 3 12.4 12.4 0 0 1-.2 1l-.1.2-.3.1h-.2l-.1.1c-.2 0-.4 0-.5-.2-.2 0-.3-.3-.3-.6v-.2l.1-.3a41 41 0 0 1 2.6-7.3l.5-.1.6.1.2.5v.2l-.5 1a25.4 25.4 0 0 1 1.6-1.2l.9-.3.8-.2c.5 0 1 .2 1.3.5.3.3.5.7.5 1.3 0 .4 0 .8-.2 1.3a19.5 19.5 0 0 1-1.1 3 31.1 31.1 0 0 0-1 2.5l-.2.2h-.4l-.5-.1-.1-.4v-.6a7.7 7.7 0 0 1 .6-1.7 25.9 25.9 0 0 1 1-2.5l.2-.7v-1.1c-.1-.2-.3-.2-.5-.2Zm3.8 3.8a6.3 6.3 0 0 1 1.1-2.4 8.5 8.5 0 0 1 3-2.4l.5-.1c.2-.3.5-.4 1-.4.4 0 .8.1 1 .4.4.2.6.5.8.9a10.4 10.4 0 0 1 .4.7 3.5 3.5 0 0 1 0 1l-.1 1.4-.7 1.4a7.8 7.8 0 0 1-2.2 2.4 3.8 3.8 0 0 1-2.3.7l-1.2-.1c-.3-.2-.6-.3-.8-.6l-.5-.7a3 3 0 0 1-.2-1c0-.4 0-.8.2-1.2Zm1.4 0a3 3 0 0 0 0 .8v.5a1 1 0 0 0 .7.7l.6.1c.4 0 .8 0 1.2-.3l1-.8a5.4 5.4 0 0 0 1.4-3.3v-.4a5.4 5.4 0 0 0-.5-.7 4 4 0 0 1 0-.3l-.2.2-.3.1-.4.2h-.7l-.6.4-.6.4a6.5 6.5 0 0 0-1.3 1.9l-.3.6Zm13.3-8.9-.3 1a44.3 44.3 0 0 0-2.4 6.6c0 .4-.3.6-.8.6-.6 0-.9-.3-.9-.9a30 30 0 0 1 2.7-7c.4-.5.8-.8 1.2-.8.3 0 .5.2.5.5Zm-2.9 10.8c0 .4-.1.7-.5 1-.3.3-.6.5-1 .5a1 1 0 0 1-.8-.4 1 1 0 0 1-.3-.7c0-.4.2-.8.5-1 .3-.4.7-.5 1-.5.4 0 .6 0 .8.3.2.2.3.5.3.8ZM552.7 98.4c0-1.1 0-2.4.4-3.8.2-1.4.7-2.8 1.4-4a51.9 51.9 0 0 1 10.2-14 19 19 0 0 1 3.4-2.7 261 261 0 0 1 4.5-2.5 17 17 0 0 1 2.4-1c.8-.2 1.6-.4 2.4-.4a6.1 6.1 0 0 1 5.6 3.8c.2.8.4 1.6.4 2.4v1.4l-.4.8c-.2.2-.3.3-.6.3h-.7c-.5 0-.8 0-1-.2-.3-.2-.5-.4-.6-.7-.2-.2-.3-.5-.3-.8a6 6 0 0 0-.3-.9l-.4-.7a.9.9 0 0 0-.7-.2 7 7 0 0 0-2.5.5c-1 .3-1.8.8-2.8 1.4a29.5 29.5 0 0 0-5.5 4.2 49.2 49.2 0 0 0-6.3 7.3 23.7 23.7 0 0 0-2.8 6.3 18 18 0 0 0-.3 3.4c0 1 .1 1.8.4 2.5l.8 1.7c.4.6.8 1 1.4 1.2a4 4 0 0 0 2 .4 21.1 21.1 0 0 0 8.5-1.7l3.7-1.9 3.8-2.3h.7l.8.2a2.6 2.6 0 0 1 1.2 1.3l.2.8a3 3 0 0 1-.8 2 10 10 0 0 1-1.9 1.7l-2.6 1.6a36.9 36.9 0 0 1-12.2 3.6h-2.9c-.7 0-1.3 0-1.9-.3a8 8 0 0 1-3.5-2.5c-1.1-1.4-2-2.7-2.5-4-.5-1.2-.7-2.6-.7-4.2Zm48.3 11.1c0-.6 0-1.3.2-2l.2-3-2.2 1.7a37.6 37.6 0 0 1-4.8 3.3c-.9.4-1.6.6-2.3.6-.6 0-1.2-.1-1.7-.3a4 4 0 0 1-1.3-.7c-1-.8-1.8-1.6-2.3-2.4-.4-.8-.6-1.8-.6-2.8v-1.5l.5-1.8a25 25 0 0 1 10.4-15c1-.8 2-1.2 3.1-1.4a15.7 15.7 0 0 1 6 0 14.9 14.9 0 0 1 2-.3c.6 0 1 0 1.5.2l.9.6.5 1 .2 1a358.7 358.7 0 0 0-.7 2.8l-3.9 15.1a250.6 250.6 0 0 0-.5 4.2l-.2.7-.5.7-.7.7-1.1.2h-1.5l-.8-.4a1 1 0 0 1-.4-.5v-.7Zm-9.7-8.8a11.8 11.8 0 0 0-.4 2.7c0 .5.1 1 .3 1.4.1.4.5.6 1 .6a5 5 0 0 0 2.3-.5l2-1.3a37.6 37.6 0 0 0 7-7.7A11.7 11.7 0 0 0 605 91c.2-.7.2-1.3.2-2 0-.2 0-.4-.2-.7 0-.2-.3-.3-.6-.3a8 8 0 0 0-2.9.5 16.7 16.7 0 0 0-5.3 3.6 21.6 21.6 0 0 0-5 8.7Zm33-27.4a60.4 60.4 0 0 1 .7-4.2 5 5 0 0 1 .8-1.7c.4-.4.8-.6 1.4-.6.3 0 .7 0 1 .2.4 0 .8.2 1.1.4.4.2.6.5.9.8.2.3.3.6.3 1v.4l-.2.6-7.3 29a52.8 52.8 0 0 0-1.1 5.8v.7l-.1 1.9-.5 1.9c-.2.6-.5 1-.9 1.4a2 2 0 0 1-1.4.6c-.6 0-1 0-1.4-.3a3 3 0 0 1-1-.9l-.5-1a4 4 0 0 1-.2-1.2l.1-1.1a29.7 29.7 0 0 1 .8-4.2l7.5-29.5Zm14.9 0a58.1 58.1 0 0 1 .7-4.2 5 5 0 0 1 .9-1.7c.4-.4.8-.6 1.4-.6.3 0 .6 0 1 .2.4 0 .7.2 1 .4l1 .8c.2.3.3.6.3 1l-.1.4-.1.6-7.3 29a53.6 53.6 0 0 0-1.2 5.8v2.6l-.5 1.9c-.2.6-.5 1-.9 1.4a2 2 0 0 1-1.5.6c-.5 0-1 0-1.3-.3a3 3 0 0 1-1-.9l-.5-1a4 4 0 0 1-.2-1.2V107a31 31 0 0 1 .9-4.2l7.4-29.5Zm39.6 28.4c0-1.6.1-3.3.5-5l1.2-5a7.3 7.3 0 0 1-3-.8c-.4-.2-.8-.5-1-.8-.3-.4-.4-.7-.4-1.2v-.7l.4-.7.6-.7c.2-.2.5-.3.8-.3h3.8c.4 0 .7-.1.8-.5l.3-.9a67.1 67.1 0 0 1 1.8-7.2v-2a5.5 5.5 0 0 1 .3-1.6c0-.4.3-.7.6-1 .3-.4.8-.6 1.4-.6.5 0 1 .2 1.3.4.4.2.7.5.9.8l.5 1.2a5.2 5.2 0 0 1 0 2.6l-2 8a122.6 122.6 0 0 0 11-2.1h1l.9.3.6.5.2.8c0 .5 0 .9-.3 1.2l-.7 1-1 .6-1 .4a29 29 0 0 0-2.9.6 158.2 158.2 0 0 0-8.7 2h-.7a45.4 45.4 0 0 0-2.1 10.4l.1 1.4.5 1.3c.2.3.6.6 1 .8.3.2.8.3 1.4.3 1 0 2-.3 3-.8 1-.6 2-1.3 2.9-2.2.9-.8 1.7-1.8 2.5-2.8l2.3-2.9c.2-.3.5-.5.9-.5a2 2 0 0 1 .9.3l.3.3c.2.2.2.4.2.6v.3a16 16 0 0 1-1.5 3.6 282 282 0 0 1-2.9 4.9 14.2 14.2 0 0 1-2.6 2.2c-.5.3-1 .6-1.3 1-.8.4-1.6.7-2.5.9l-2.5.2a8 8 0 0 1-3.3-.7c-1-.4-1.8-1-2.5-1.8a8 8 0 0 1-1.5-2.7c-.4-1-.5-2.2-.5-3.4Zm27.5-2a21 21 0 0 1 3.7-7.8 28.3 28.3 0 0 1 9.7-8 4 4 0 0 1 1.8-.4 4 4 0 0 1 3-1.2c1.6 0 2.9.3 4 1 1 .9 1.8 1.9 2.5 3.2a36 36 0 0 1 1 2.5 12.2 12.2 0 0 1 .5 3.2 21.2 21.2 0 0 1-2.8 9.2 25.8 25.8 0 0 1-7.5 8 12.6 12.6 0 0 1-7.7 2.4c-1.5 0-2.8-.2-3.9-.5a7 7 0 0 1-4.4-4.3 12.3 12.3 0 0 1 .1-7.3Zm4.8.3a9.5 9.5 0 0 0-.3 2.4c0 .7 0 1.2.2 1.8a3.5 3.5 0 0 0 2.2 2.3c.5.2 1.2.4 2 .4a8 8 0 0 0 4.1-1.2c1.3-.7 2.4-1.6 3.4-2.7a18 18 0 0 0 4.5-10.7c0-.5 0-1-.3-1.4a17.6 17.6 0 0 0-1.2-2.5l-.5-1-.5.7c-.1.2-.4.4-.7.5l-1.5.5-2.3.3a8 8 0 0 0-2 1l-1.9 1.6a21.5 21.5 0 0 0-5.2 8Zm69.4 9.5c0-.6 0-1.3.2-2l.2-3-2.1 1.7a37.3 37.3 0 0 1-5 3.3 4.6 4.6 0 0 1-3.9.3 4 4 0 0 1-1.3-.7 8 8 0 0 1-2.2-2.4c-.5-.8-.7-1.8-.7-2.8l.1-1.5.4-1.8a25 25 0 0 1 10.5-15c1-.8 2-1.2 3-1.4a15.7 15.7 0 0 1 6 0 15 15 0 0 1 2-.3c.6 0 1.1 0 1.5.2l1 .6.4 1 .2 1c0 .5 0 1-.2 1.4l-.5 1.4-3.8 15.1a250.6 250.6 0 0 0-.6 4.2l-.2.7c0 .3-.2.5-.4.7l-.7.7-1.2.2h-1.4l-.8-.4a1 1 0 0 1-.4-.5l-.1-.7Zm-9.6-8.8a11.9 11.9 0 0 0-.4 2.7c0 .5 0 1 .2 1.4.2.4.5.6 1 .6a5 5 0 0 0 2.3-.5l2-1.3a37.1 37.1 0 0 0 7-7.7 11.7 11.7 0 0 0 1.7-4.9l.1-2-.1-.7c-.1-.2-.4-.3-.7-.3a8 8 0 0 0-2.9.5 16.6 16.6 0 0 0-5.3 3.6 21.6 21.6 0 0 0-5 8.7Zm24.4-1.3a27.7 27.7 0 0 1 4.3-9.3c1-1.5 2.1-2.9 3.4-4.2a18 18 0 0 1 4.3-3.1 8.4 8.4 0 0 1 5.3-.6c.5 0 1 .3 1.4.5l1 1c.2.5.3 1 .3 1.6 0 .5 0 1-.2 1.4a4 4 0 0 1-.6 1.3l-1 1c-.4.1-.9.3-1.4.3a3 3 0 0 1-1.2-.3 9.4 9.4 0 0 1-1.5-.8l-.6-.2c-.8.3-1.5.8-2.2 1.3a15.4 15.4 0 0 0-3.5 4.1 29 29 0 0 0-3 6.8 15 15 0 0 0-.6 3.3l.1 1c0 .4.2.7.4 1 .2.3.4.5.7.6.3.2.6.3 1 .3a8 8 0 0 0 2-.3 14.2 14.2 0 0 0 3.9-1.6 62.9 62.9 0 0 0 4.8-3l.8-.1c.3 0 .5 0 .8.2.3.1.4.4.4.7 0 .3 0 .6-.2.9-.3.7-.6 1.4-1.1 2a10.2 10.2 0 0 1-3.4 2.8 33.8 33.8 0 0 1-5.5 2.5c-1.3.3-2.3.4-3.1.4a6.4 6.4 0 0 1-2-.3 7.3 7.3 0 0 1-3.4-2.7c-.7-1.1-1-2.5-1-4a14.8 14.8 0 0 1 .6-4.5Zm29.3 2.3c0-1.6.2-3.3.5-5l1.2-5a7.3 7.3 0 0 1-3-.8l-1-.8c-.3-.4-.4-.7-.4-1.2l.1-.7.3-.7.6-.7c.2-.2.5-.3.8-.3h3.9c.3 0 .6-.1.7-.5l.3-.9.8-2.9.5-2a54 54 0 0 0 .5-2.3v-2a5.5 5.5 0 0 1 .3-1.6c.1-.4.3-.7.6-1 .3-.4.8-.6 1.4-.6.5 0 1 .2 1.3.4l1 .8.4 1.2a5.2 5.2 0 0 1 0 2.6l-2 8a123.6 123.6 0 0 0 11.1-2.1h1l.8.3.6.5c.2.2.2.5.2.8 0 .5 0 .9-.2 1.2l-.8 1-1 .6-1 .4a29.3 29.3 0 0 0-2.9.6 158.2 158.2 0 0 0-8.6 2h-.7a46 46 0 0 0-2.2 10.4l.1 1.4.5 1.3 1 .8c.4.2.9.3 1.5.3 1 0 2-.3 3-.8a26.4 26.4 0 0 0 5.4-5l2.2-2.9c.2-.3.5-.5.9-.5a2 2 0 0 1 .9.3l.4.3.1.6v.3a16 16 0 0 1-1.4 3.6 282 282 0 0 1-3 4.9 14.2 14.2 0 0 1-2.6 2.2l-1.3 1a7 7 0 0 1-2.4.9l-2.5.2a8 8 0 0 1-3.4-.7c-1-.4-1.8-1-2.5-1.8a8 8 0 0 1-1.5-2.7c-.3-1-.5-2.2-.5-3.4Zm27.1 3.7 1-3.9a799.8 799.8 0 0 0 4.2-15.2l.6-.5a3 3 0 0 1 2-.7l.9.1c.3 0 .6.2.8.3.3.1.4.3.6.5l.2.8v.4l-.8 3a1640.4 1640.4 0 0 1-6 21.6l-.5.4c-.2.2-.5.2-.7.2-.5 0-1 0-1.4-.3a3.4 3.4 0 0 1-1.6-1.8 3 3 0 0 1-.2-1v-.3l.1-.2.8-3.4Zm7.6-29.8.5-1.5c.3-.5.7-1 1.4-1.5a6.3 6.3 0 0 1 2-.7c.3 0 .4 0 .7.2l.5.4.5.6c.5 0 .8.3 1 .6l.2 1v.9l-.2.6c-.1.4-.4.8-.7 1.1a5 5 0 0 1-1.1.9 6.3 6.3 0 0 1-2.6.7 2 2 0 0 1-1-.2 4 4 0 0 1-1-1l-.3-.6a2.4 2.4 0 0 1 0-1l.1-.5Zm7.8 24.1a20.8 20.8 0 0 1 3.8-7.8 28.2 28.2 0 0 1 9.6-8c.6-.3 1.3-.4 1.9-.4a4 4 0 0 1 3-1.2c1.6 0 2.8.3 3.9 1 1 .9 1.9 1.9 2.5 3.2a37.9 37.9 0 0 1 1 2.5 12 12 0 0 1 .5 3.2c0 1.5-.2 3-.7 4.7-.5 1.5-1.2 3-2 4.6a25.8 25.8 0 0 1-7.5 8 12.6 12.6 0 0 1-7.7 2.3c-1.5 0-2.8-.2-4-.5-1-.4-2-1-2.6-1.7a7 7 0 0 1-1.7-2.7c-.3-1-.5-2.1-.5-3.4 0-1.2.2-2.5.5-3.8Zm4.8.3a9.5 9.5 0 0 0-.3 2.4c0 .7 0 1.2.3 1.8a3.5 3.5 0 0 0 2.1 2.3c.6.2 1.3.4 2 .4a8 8 0 0 0 4.2-1.2 14 14 0 0 0 3.3-2.7 18 18 0 0 0 4.6-10.7c0-.5-.1-1-.3-1.4a17.9 17.9 0 0 0-1.2-2.5 14 14 0 0 1-.5-1l-.5.7c-.2.2-.4.4-.8.5l-1.4.5-2.4.3a8 8 0 0 0-1.9 1c-.7.4-1.3 1-2 1.6a21.5 21.5 0 0 0-5.2 8Zm46.9-13c-.6 0-1.4.2-2.1.5-.8.3-1.6.8-2.4 1.3a32.7 32.7 0 0 0-5.1 4 31 31 0 0 1-2.4 1.6l-.9 1.8a38 38 0 0 0-2.6 8.6 47.8 47.8 0 0 1-.8 4.3 2 2 0 0 1-.5.9 2.4 2.4 0 0 1-1.3.7h-.5a3 3 0 0 1-1.8-.5c-.5-.3-.7-1-.7-2v-.8l.2-1a144 144 0 0 1 3.7-12.5 376.5 376.5 0 0 1 4.1-10.9c.1-.3.4-.6 1-.8a3.8 3.8 0 0 1 3.3.2c.5.3.7.8.7 1.4v.3l-.2.5-1.3 3a80.6 80.6 0 0 1 5.3-3.6c1-.5 1.8-1 2.8-1.3a9 9 0 0 1 2.8-.4 6 6 0 0 1 4.3 1.4c1 1 1.6 2.6 1.6 4.6 0 1.2-.2 2.6-.6 4.1a64.9 64.9 0 0 1-3.6 10.4 104 104 0 0 0-2.6 7.1l-.7 1-.8.4-1.3.1c-.7 0-1.2-.1-1.5-.4-.3-.3-.5-.7-.5-1.3l.3-2a26.4 26.4 0 0 1 1.7-5.5 81.2 81.2 0 0 1 2.4-6 48.2 48.2 0 0 0 1.6-4.8l.3-2.1a3 3 0 0 0-.4-1.6c-.3-.4-.7-.7-1.5-.7Zm30-16.8c0 .8-.4 2-1.2 3.7a524.9 524.9 0 0 0-6.8 17.6c-.4 1.1-.7 2.5-1 4-.3 1.3-1.2 2-2.7 2-1.9 0-2.8-1-2.8-2.9a99.2 99.2 0 0 1 9-23c1.3-2 2.5-3 3.7-3 1.2 0 1.8.5 1.8 1.6ZM939 106c0 1.3-.5 2.5-1.5 3.5a5 5 0 0 1-3.5 1.4c-1 0-1.9-.3-2.6-1-.7-.7-1-1.6-1-2.6 0-1.3.5-2.5 1.6-3.5a5 5 0 0 1 3.5-1.5c1 0 1.9.4 2.5 1a4 4 0 0 1 1 2.7Zm31.4-35.8c0 .8-.4 2-1.2 3.7a515.1 515.1 0 0 0-6.8 17.6c-.4 1.1-.7 2.5-1 4-.3 1.3-1.2 2-2.6 2-2 0-3-1-3-2.9a99.3 99.3 0 0 1 9-23c1.4-2 2.6-3 3.8-3 1.2 0 1.8.5 1.8 1.6Zm-9.6 35.8a5 5 0 0 1-1.6 3.5 5 5 0 0 1-3.5 1.4c-1 0-1.9-.3-2.6-1-.7-.7-1-1.6-1-2.6 0-1.3.5-2.5 1.6-3.5a5 5 0 0 1 3.5-1.5c1 0 1.9.4 2.6 1 .6.8 1 1.7 1 2.7ZM992 70.2c0 .8-.4 2-1.2 3.7a519.2 519.2 0 0 0-6.8 17.6 30 30 0 0 0-1 4c-.3 1.3-1.1 2-2.6 2-2 0-2.9-1-2.9-2.9a99.3 99.3 0 0 1 9-23c1.3-2 2.5-3 3.7-3 1.2 0 1.8.5 1.8 1.6Zm-9.6 35.8c0 1.3-.5 2.5-1.6 3.5a5 5 0 0 1-3.5 1.4c-1 0-1.8-.3-2.5-1a3.3 3.3 0 0 1-1.1-2.6c0-1.3.5-2.5 1.6-3.5a5 5 0 0 1 3.6-1.5c1 0 1.8.4 2.5 1 .6.8 1 1.7 1 2.7Z"/>
  <path fill="none" stroke="#d96226" stroke-width="7.6" d="M545.4 104c-6.7 1-10.8 7.5-15.4 11.7-10.2 9.7-23 18.3-30.4 30.5-.5.9 2-.4 3-.7l6.5-2.9c6-2.6 12.2-4.3 18.6-6m-28.5 9.6c-1-9.7-1-19.5-1-29.3"/>
  <path fill="none" stroke="#d96226" stroke-width="4" d="M655.4 816c-.3-6.7-5.8-16.2 5.3-20.3 3.9-1.4 5 .3 4.1 3.8a6.3 6.3 0 0 1-2.2 3.6 5 5 0 0 1-1.3.6c-.2.1-.9.4-.8.2.5-.8 3.1-1.5 3.9-1.7 3.5-1.2 9.6-3 9.6 1.5 0 2.2-2 4.3-4 5.8a53.7 53.7 0 0 1-8.7 5.8c-1.6.9-3.8 1.4-5.3 2.4m-.2-614.9c5 0 10-1.8 14.8-2.8 15.4-3.2 30.9-6.5 46.4-8.7 37.1-5.3 75.4-6.8 111.9-15.7"/>
</svg>
