<svg xmlns="http://www.w3.org/2000/svg" xml:space="preserve" fill-rule="evenodd" stroke-linecap="round" stroke-linejoin="round" stroke-miterlimit="1.5" clip-rule="evenodd" viewBox="0 0 1000 193">
  <path fill="none" d="M0 0h1000v192.9H0z"/>
  <path fill="none" stroke="#d96226" stroke-width="4" d="M155.8 154.6c2 4.2 6.2 17 9 19.6 2.3 2 7.4-.7 9.5-1.8 6.8-3.4 15.5-9.6 23.2-10.3 1.1-.1-2 1-2.9 1.6-1.7 1-3.7 1.7-5.6 2.4-5.2 1.8-10.4 3.7-15.7 5.4-2.2.7-5.1 2.6-6.2-.2-1.4-3.6 1.5-8.5 3.6-11 6.4-7.6 20.8-6.8 29.6-6.8 22.3 0 45 5.7 67.3 7.3 25 1.8 50 1.4 75 1.4 23.1 0 46.2.5 69.1-2.4 18-2.4 38.5-3.3 55.2-10.8a214 214 0 0 0 48.5-32.3"/>
  <path fill="#d96226" fill-rule="nonzero" d="M533.6 101c0-.6 0-1.4.2-2.2a9 9 0 0 1 .9-2.5 30.6 30.6 0 0 1 8.3-9.9 169.4 169.4 0 0 1 2.7-1.5l1.5-.6a5 5 0 0 1 1.4-.2l1.5.3a3.8 3.8 0 0 1 2.2 4.2l-.2.5-.4.2h-.4a1 1 0 0 1-.6-.2c-.2 0-.3-.2-.4-.3a2 2 0 0 1-.2-.6l-.2-.5-.2-.4a.5.5 0 0 0-.4-.1c-.5 0-1 0-1.6.3l-1.6.8a18 18 0 0 0-3.4 2.5 29.2 29.2 0 0 0-3.9 4.4 14 14 0 0 0-1.6 3.7 9 9 0 0 0-.3 2c0 .6.1 1.1.3 1.5l.5 1.1c.2.3.5.6.8.7l1.2.2a13.2 13.2 0 0 0 5.2-1l2.3-1.1 2.3-1.4h.5c.1 0 .3 0 .4.2a1.6 1.6 0 0 1 .8.7v.5c0 .4 0 .7-.4 1.1a6 6 0 0 1-1.2 1c-.4.4-1 .7-1.6 1a23 23 0 0 1-7.4 2.2h-1.7c-.5 0-.9 0-1.2-.2a5 5 0 0 1-2.1-1.5 8.5 8.5 0 0 1-1.6-2.3c-.3-.8-.4-1.6-.4-2.6Zm26.1-15a33.3 33.3 0 0 1 .4-2.5l.5-1c.3-.2.5-.3.9-.3h.6l.7.3.5.5.2.6v.3l-.1.3-4.5 17.3a31.2 31.2 0 0 0-.7 3.5v1.5c0 .4-.2.8-.3 1.1a2 2 0 0 1-.6 1c-.2.1-.5.3-.8.3a1.7 1.7 0 0 1-1.5-.7l-.3-.7-.1-.7v-.6a17 17 0 0 1 .5-2.5l4.6-17.6Zm3.8 19.2.7-2.3.8-2.8a483.1 483.1 0 0 0 2-6.6 1.8 1.8 0 0 1 1.2-.4h.6l.5.2.4.4.1.4v.2l-.5 1.9a1023.2 1023.2 0 0 1-3.7 12.8l-.3.3-.4.1c-.3 0-.6 0-.8-.2a2 2 0 0 1-1-1l-.1-.7v-.3l.5-2Zm4.7-17.8.3-.9c.1-.3.4-.6.8-.9a4 4 0 0 1 1.3-.4l.3.1.3.3.4.4c.3 0 .5 0 .6.3v1.5l-.5.6a3 3 0 0 1-.6.6 3.9 3.9 0 0 1-1.6.4l-.6-.1-.6-.6-.2-.4a1.5 1.5 0 0 1 0-.6v-.3Zm4.6 14.2a16.1 16.1 0 0 1 2.6-5.5c.6-1 1.3-1.8 2.1-2.5a11 11 0 0 1 2.6-1.9 5.1 5.1 0 0 1 3.2-.4l1 .4.5.6.2 1-.1.8-.4.7a1.7 1.7 0 0 1-1.5.7h-.7a5.8 5.8 0 0 1-1-.6l-.3-.1-1.3.8a9.3 9.3 0 0 0-2.2 2.5 17.3 17.3 0 0 0-1.8 4 9 9 0 0 0-.3 2v.6l.3.6c0 .1.2.3.4.3l.6.2c.4 0 .9 0 1.3-.2a8.7 8.7 0 0 0 2.3-1 38.6 38.6 0 0 0 3-1.7h.9c.2.1.2.3.2.5v.5l-.7 1.2a6.1 6.1 0 0 1-2.1 1.7 21.5 21.5 0 0 1-3.4 1.4 8 8 0 0 1-1.9.3 4 4 0 0 1-1.2-.2 4.2 4.2 0 0 1-2.7-4 8.7 8.7 0 0 1 .4-2.7Zm22.8-1.6-.8.2a8.5 8.5 0 0 0-1.8.9l-.7.3-1.6 6.2c0 .3-.2.4-.4.6l-.7.2c-.6 0-1-.2-1.3-.4-.2-.3-.3-.6-.3-1v-.5l.1-.6.1-.3a38.6 38.6 0 0 1 1.1-4.2l.4-1.5.6-1.9a1237.7 1237.7 0 0 0 4-14.2l.6-.4.8-.1h.6c.3 0 .5.2.7.3l.4.4.2.6-.1.5a249 249 0 0 0-4 12.7 17.6 17.6 0 0 0 2.2-1.6 55 55 0 0 0 5.9-5.3c.3-.2.5-.3.8-.3a2 2 0 0 1 1.2.4l.4.4.1.5-.1.5a4.3 4.3 0 0 1-1 1.5 49.4 49.4 0 0 1-5 3.8 6 6 0 0 1 1.9 1.6l1.1 2.3c.3.8.5 1.7.6 2.6a22.8 22.8 0 0 1 0 3.3c0 .2 0 .4-.2.6a1.4 1.4 0 0 1-.8.7 2.2 2.2 0 0 1-1.4 0 1.4 1.4 0 0 1-.7-.9l-.1-.5a30.4 30.4 0 0 0-.3-3.6l-.4-1.6a4.5 4.5 0 0 0-1.3-2 1 1 0 0 0-.7-.2h-.1Zm39.9 9.3c-.7 0-1.2-.1-1.5-.4-.3-.3-.4-.8-.4-1.3v-1l.3-1a29.5 29.5 0 0 1 1.2-3.6 112.6 112.6 0 0 0 1.1-3.9l-.1-.4-.4-.1-.8.1-.8.4a20.8 20.8 0 0 0-3.7 3L629 103a61.6 61.6 0 0 0-2.3 4l-.5 1.2-.6.7-1 .2c-.5 0-.8-.1-1-.4-.2-.3-.3-.6-.3-1s0-.7.2-1.2l5.8-22.7.2-.4a1.8 1.8 0 0 1 .8-.8l.7-.2a7.6 7.6 0 0 1 1.2.2l.4.2.2.5v.2l-.2.5a683.4 683.4 0 0 1-4.2 16 25 25 0 0 1 4.6-4.2c.9-.6 1.7-1 2.6-1.3.9-.2 1.8-.4 2.7-.4.6 0 1 .2 1.4.6.3.3.5.8.5 1.4l-.1.8a23 23 0 0 1-1 3 139.1 139.1 0 0 0-1 3.3 14.3 14.3 0 0 0-.6 3.6c0 .3 0 .6-.2 1 0 .3-.2.5-.3.8l-.6.5c-.3.2-.6.2-.9.2Zm7.5-7.6c0-.5.1-.9.4-1.2a2 2 0 0 1 1-.7 14.3 14.3 0 0 1 1.7-2.4 17.5 17.5 0 0 1 3-3l2-1a6.5 6.5 0 0 1 4.1-.1c.5.1 1 .4 1.3.6l.7 1c.2.5.2.9.2 1.3l-.1 1.2c-.2.6-.5 1.2-1 1.6-.4.5-1 1-1.5 1.3l-2 1a21.3 21.3 0 0 1-6 1l-.2.9-.1.9c0 .6.3 1.2.8 1.5a4 4 0 0 0 2.3.6c.5 0 1 0 1.5-.2a9.4 9.4 0 0 0 2.8-1l1-.7c.5-.3.9-.6 1.3-.7l1-.3c.3 0 .5 0 .6.2v.4a3.8 3.8 0 0 1 0 .5l-.3 1-.7.7a12.1 12.1 0 0 1-10 2.4l-1.3-.5c-.4-.2-.8-.4-1-.8-.4-.3-.6-.7-.8-1.2a4 4 0 0 1-.3-1.7c0-.5 0-1.1.2-1.8a.8.8 0 0 1-.4-.2c-.2-.1-.2-.3-.2-.6Zm11-4.7v-.3c0-.4 0-.6-.3-.7-.2-.2-.5-.3-.8-.3-.5 0-1 .2-1.6.4a8.9 8.9 0 0 0-3.4 3.5 17.8 17.8 0 0 0 4.2-1c.6-.1 1-.4 1.3-.7.3-.3.6-.6.6-1Zm7.5 9.6a177.8 177.8 0 0 1 2.3-11.1v-.6a8.1 8.1 0 0 1 .2-2l.4-1 .8-.1c.4 0 .6 0 .8.2.2 0 .4.3.5.5l.3.7v1.9a40.4 40.4 0 0 1 2.2-2 7 7 0 0 1 1.3-.7 4 4 0 0 1 2.7 0c.2 0 .5 0 .7.2.3 0 .5.2.8.4l1 1 .3 1.4v.5l-.4.6-.4.4a1 1 0 0 1-.5.1l-.8-.1c-.3 0-.5-.2-.7-.4l-.3-.3a7 7 0 0 1-.2-.4l-.2-.3-.2-.2a2 2 0 0 0-.4 0c-.6 0-1.1 0-1.7.4l-1.5 1-1.3 1.5-1 1.3a151.8 151.8 0 0 1-1.7 6.2v1.5l-.2 1-.6.4-.8.2c-.5 0-.9-.2-1.1-.5-.3-.3-.4-.7-.4-1.1v-.6Zm14.8-4.9c0-.5.1-.9.4-1.2a2 2 0 0 1 1.1-.7 14.7 14.7 0 0 1 3-4 11.7 11.7 0 0 1 3.7-2.4 6.5 6.5 0 0 1 4-.1c.5.1 1 .4 1.3.6l.7 1 .3 1.3c0 .4 0 .8-.2 1.2-.1.6-.4 1.2-.9 1.6-.4.5-1 1-1.6 1.3l-2 1a21.4 21.4 0 0 1-5.9 1l-.3.9v.9c0 .6.2 1.2.7 1.5a4 4 0 0 0 2.3.6c.5 0 1 0 1.6-.2a9.4 9.4 0 0 0 2.7-1l1.1-.7c.4-.3.8-.6 1.2-.7l1-.3c.3 0 .5 0 .6.2l.1.4a3.8 3.8 0 0 1 0 .5 2.8 2.8 0 0 1-1 1.7 12.1 12.1 0 0 1-10.1 2.4l-1.3-.5a3.8 3.8 0 0 1-1.8-2 4 4 0 0 1-.3-1.7c0-.5 0-1.1.2-1.8a.8.8 0 0 1-.4-.2l-.2-.6Zm11-4.7.1-.2v-.1c0-.4-.1-.6-.3-.7l-.9-.3c-.5 0-1 .2-1.5.4a9 9 0 0 0-3.4 3.5 17.8 17.8 0 0 0 4.2-1c.5-.1 1-.4 1.3-.7.3-.3.5-.6.6-1Z"/>
</svg>
