<svg xmlns="http://www.w3.org/2000/svg" xml:space="preserve" fill-rule="evenodd" stroke-linecap="round" stroke-linejoin="round" stroke-miterlimit="1.5" clip-rule="evenodd" viewBox="0 0 1000 484">
  <path fill="none" d="M0 0h1000v483.2H0z"/>
  <path fill="#d96226" fill-rule="nonzero" d="M261.7 454.7a14.4 14.4 0 0 0-2 .6l-2.9 1-1.2.4a22.8 22.8 0 0 1-1 .3l-.8.4h-.3l-.6-.1-.5-.4-.4-.6v-.6c0-.5 0-.9.3-1.1l1-.7 1.2-.3a65.2 65.2 0 0 0 2.2-.4 63.5 63.5 0 0 1 4-1.5l1.4-.2c.5 0 .8 0 1.2.2a2.5 2.5 0 0 1 1.3 1.4 2.8 2.8 0 0 1 .2 1.5l-.1.6c-.4 1.3-1 2.5-1.6 3.6a16 16 0 0 1-5.8 5.4c-1.2.7-2.4 1.2-3.7 1.7a8.7 8.7 0 0 1-1.6.5 11.1 11.1 0 0 1-1.7.2 13.6 13.6 0 0 1-2-.1 3 3 0 0 1-1-.4l-1.8-1a6.8 6.8 0 0 1-2.4-3.3 8.8 8.8 0 0 1 .1-4.9l1.2-2.8a22.8 22.8 0 0 1 3.9-5.4 28.7 28.7 0 0 1 8.4-6.2l1.9-.7 1.8-.2a5.1 5.1 0 0 1 2.7.8c.4.2.7.5 1 .9.2.3.3.7.3 1.1l-.1.7-.1.5-.3.5-.2.2a1.7 1.7 0 0 1-1.3-.2l-.6-.6-.7-.5a1 1 0 0 0-.7-.3h-.5c-1 .2-1.9.6-3 1.1a22.7 22.7 0 0 0-6 4.5 22 22 0 0 0-4.2 6c-.4 1-.7 2-.7 3 0 .8.2 1.4.6 2a7 7 0 0 0 1.6 1.6c.3.3.7.4 1.2.6l1.2.3a11.8 11.8 0 0 0 4.4-1.6l1.3-.9c1.2-.8 2.3-1.7 3.2-2.8.8-1 1.5-2.2 2-3.4l.1-.2.1-.1v-.1Zm5.2 5.6a12.3 12.3 0 0 1 2.3-4.6 17 17 0 0 1 5.9-4.9l1-.2c.6-.5 1.2-.7 2-.7.9 0 1.6.2 2.3.7.6.4 1.1 1 1.5 1.8a20 20 0 0 1 .7 1.5 7 7 0 0 1 .2 2c0 .8-.1 1.8-.4 2.7a15.5 15.5 0 0 1-5.8 7.5 7.8 7.8 0 0 1-4.7 1.5c-1 0-1.7-.2-2.4-.4-.6-.2-1.2-.6-1.6-1-.5-.4-.8-1-1-1.6a6 6 0 0 1-.4-2c0-.7.2-1.5.4-2.3Zm3 .2a5.6 5.6 0 0 0-.3 1.4c0 .4 0 .8.2 1a2.1 2.1 0 0 0 1.3 1.5l1.2.2a5 5 0 0 0 2.5-.7c.8-.4 1.5-1 2-1.6a10.6 10.6 0 0 0 2.8-6.4l-.1-.8a10.8 10.8 0 0 0-.8-1.5l-.3-.6-.3.4-.4.3-.9.3-1.4.2a5 5 0 0 0-1.2.6 13 13 0 0 0-4 4.6l-.4 1.1Zm45.9 7.3c-.8 0-1.3-.1-1.5-.4-.3-.3-.4-.8-.4-1.3v-1l.3-1a28.7 28.7 0 0 1 1.1-3.6 116 116 0 0 0 1.2-3.9l-.1-.4-.4-.1-.8.1-.8.4a20.9 20.9 0 0 0-3.7 3l-1.4 1.9a62.1 62.1 0 0 0-2.3 4l-.6 1.2-.6.7-1 .2c-.4 0-.7-.1-1-.4l-.2-1 .1-1.2 5.9-22.7c0-.1 0-.3.2-.4 0-.2.2-.3.3-.5l.5-.3.7-.2a7.6 7.6 0 0 1 1.1.2l.5.2.1.5v.2l-.1.5a639 639 0 0 1-4.3 16 25.1 25.1 0 0 1 4.7-4.2 8.6 8.6 0 0 1 5.3-1.7c.6 0 1 .2 1.4.6.3.3.5.8.5 1.4l-.1.8a23.2 23.2 0 0 1-1 3 193.8 193.8 0 0 0-1.1 3.3 14.3 14.3 0 0 0-.6 3.6l-.1 1-.4.8a1 1 0 0 1-.6.5c-.2.2-.5.2-.8.2Zm7.4-7.6c0-.5.2-.9.4-1.2a2 2 0 0 1 1.1-.7 14.1 14.1 0 0 1 1.6-2.4 18 18 0 0 1 3.1-3l2-1a6.5 6.5 0 0 1 4-.1c.6.1 1 .3 1.3.6l.8 1 .2 1.3c0 .4 0 .8-.2 1.2-.1.6-.4 1.2-.9 1.6-.4.5-1 1-1.6 1.3l-2 1a21.5 21.5 0 0 1-5.9 1l-.2.9-.1.9c0 .6.2 1.2.8 1.5a4 4 0 0 0 2.2.6c.6 0 1.1 0 1.6-.2a9.3 9.3 0 0 0 2.7-1l1.1-.7 1.2-.7 1-.3c.4 0 .5 0 .6.2l.1.4a3.8 3.8 0 0 1 0 .5l-.3 1-.7.7a12.2 12.2 0 0 1-10.1 2.3c-.4 0-.8-.2-1.2-.4a3.8 3.8 0 0 1-1.9-2 4 4 0 0 1-.3-1.7l.3-1.8a.8.8 0 0 1-.5-.2l-.2-.6Zm11.1-4.7v-.3c0-.4 0-.6-.3-.7-.2-.2-.5-.3-.9-.3-.5 0-1 .2-1.5.4a8.9 8.9 0 0 0-3.4 3.5 17.6 17.6 0 0 0 4.2-1c.5-.1 1-.4 1.3-.7.3-.3.5-.6.6-1Zm7.4 9.5a155.5 155.5 0 0 1 1.8-8.4 88 88 0 0 0 .5-2.9v-.3a8.1 8.1 0 0 1 .3-2c.1-.5.2-.8.4-1l.8-.1c.3 0 .6 0 .8.2.2 0 .4.3.5.5l.2.7v1.9a42 42 0 0 1 2.3-2 7 7 0 0 1 1.3-.7 4 4 0 0 1 2.6 0c.3 0 .5 0 .8.2l.7.4 1 1c.3.5.4 1 .4 1.4l-.1.5-.3.6-.4.4a1 1 0 0 1-.6.1l-.7-.1-.7-.4-.3-.3-.2-.4-.3-.3-.1-.2a1.7 1.7 0 0 0-.4 0c-.6 0-1.2 0-1.7.4l-1.5 1c-.5.5-1 1-1.3 1.5l-1 1.3a153.3 153.3 0 0 1-1.7 6.2v1.5c0 .4-.1.7-.3 1l-.5.4-.9.2c-.5 0-.8-.2-1-.5-.3-.3-.4-.7-.4-1.1v-.6Zm14.9-4.8c0-.5.1-.9.4-1.2a2 2 0 0 1 1-.7 14.4 14.4 0 0 1 1.7-2.4 17.7 17.7 0 0 1 3-3l2-1a6.5 6.5 0 0 1 4.1-.1c.5.1 1 .3 1.3.6l.7 1c.2.5.2.9.2 1.3l-.1 1.2c-.2.6-.5 1.2-1 1.6a7 7 0 0 1-1.5 1.3l-2 1a21.4 21.4 0 0 1-6 1l-.2.9-.1.9c0 .6.3 1.2.8 1.5a4 4 0 0 0 2.3.6c.5 0 1 0 1.5-.2a9.4 9.4 0 0 0 2.8-1l1-.7c.5-.3.9-.6 1.3-.7l1-.3c.3 0 .5 0 .6.2v.4a3.8 3.8 0 0 1 0 .5l-.3 1-.7.7a12.2 12.2 0 0 1-10 2.3c-.5 0-.9-.2-1.3-.4a3.8 3.8 0 0 1-1.8-2 4 4 0 0 1-.3-1.7c0-.5 0-1.1.2-1.8a.8.8 0 0 1-.4-.2c-.2-.1-.2-.3-.2-.6Zm11-4.7v-.3c0-.4 0-.6-.3-.7-.2-.2-.5-.3-.8-.3-.5 0-1 .2-1.6.4a8.8 8.8 0 0 0-3.4 3.5 17.6 17.6 0 0 0 4.2-1c.6-.1 1-.4 1.3-.7.3-.3.6-.6.6-1Z"/>
  <path fill="none" stroke="#d96226" stroke-width="4" d="M90.2 189c29.7 0 60-2.7 89.8-.6 21.4 1.4 43.1.5 64.6.5 22.7 0 45.3.9 68-.4"/>
  <path fill="#d96226" fill-rule="nonzero" d="M212.9 143.5c0 .3-.3.9-.7 1.8a36 36 0 0 0-2.6 7.1c-.2.8-.8 1.2-1.8 1.2-1.1 0-1.7-.5-1.7-1.5 0-.8.7-2.6 2-5.4 1.4-2.8 2.6-4.2 3.4-4.2.9 0 1.4.3 1.4 1Zm8-.1a36.8 36.8 0 0 0-3.3 8.9c-.3.7-.8 1.1-1.8 1.1-1.2 0-1.8-.4-1.8-1.4 0-.8.7-2.6 2.1-5.4 1.4-2.9 2.5-4.3 3.4-4.3.9 0 1.3.3 1.3 1Zm4.6 11.6a152.2 152.2 0 0 0 10.3 4.5c.5.1.7.5.7 1 0 .6-.1 1-.3 1.3-.3.3-.6.4-1 .4s-1-.2-2.1-.6l-3.5-1.6-4.7-2.2a62.3 62.3 0 0 1-3.7-2l-.1-.8c0-.4 0-.7.2-1a33.8 33.8 0 0 1 3.4-1.8l6-2.5a173.4 173.4 0 0 1 7.9-2.9c.3 0 .6.2.8.5l.3 1.2c0 .6-.5 1.1-1.6 1.5l-5.7 2c-2.7 1.1-5 2-6.9 3Zm19.7 13.6c-.3 0-.5 0-.8-.2-.2 0-.4-.2-.6-.4a2 2 0 0 1-.5-1.4l.1-.7.2-.8.2-.7a22 22 0 0 0 .4-2.2 68 68 0 0 0 .4-3.5c0-.2-.1-.3-.4-.4a286 286 0 0 1-1.4-.5c-.3-.2-.4-.4-.4-.8l.3-.9c.1-.3.3-.5.5-.6l1-.2 1-.1c.1 0 .3-.2.3-.4l.2-.6.5-1.7a29.6 29.6 0 0 1 2.2-5.4 19.6 19.6 0 0 1 3.6-3.7 10.7 10.7 0 0 1 4.7-1.5c1 0 1.9.1 2.6.5a4 4 0 0 1 1.6 1.5l.2.5v.5l-.1.8-.4.7c-.1.3-.3.4-.5.5-.2.2-.4.2-.7.2-.3 0-.5 0-.7-.2-.2 0-.3-.2-.4-.4l-.3-.6-.2-.6-.3-.5-.6-.2-.8.1-.8.4c-.8.3-1.4.8-2 1.2-.7.5-1.2 1-1.7 1.8-.6.7-1 1.6-1.5 2.6a24.8 24.8 0 0 0-1.3 3.9h1.2l2-.4a8.5 8.5 0 0 1 1.7 0h.6l.4.4.2.6a2.6 2.6 0 0 1-.3 1l-.3.6-.5.2-1.1.2a184 184 0 0 0-4.6.9 19.8 19.8 0 0 0-.8 4.6 110 110 0 0 1-.8 5l-.4.5-.4.3h-.5Zm14.1-17.2a1.6 1.6 0 0 1 .5-.8l.3-.2h.6a19.8 19.8 0 0 0 1 .2c.4 0 .6.1.8.3l.2.8-.1.8-1.1 3.7-.9 2.7a49 49 0 0 0-.7 3 3.8 3.8 0 0 0 .4 1.6l.5.6c.2.2.4.3.7.3.5 0 1-.2 1.5-.5l1.5-1.1a11.5 11.5 0 0 0 2.1-2.8l.5-.7.8-1.7a23.2 23.2 0 0 0 1.4-5l.4-2.3c.1-.5.3-.8.5-1l1-.2h.7a1.3 1.3 0 0 1 1 1l.1 1c0 .6 0 1.2-.2 1.9a60.2 60.2 0 0 1-1.1 5 23 23 0 0 0-.3 2.5v1.7a26.5 26.5 0 0 1 0 3.2l-.5 1c-.2.2-.6.3-1 .3h-.9l-.5-.3a1 1 0 0 1-.2-.5v-.4l-.2-3.3h-.2a95.7 95.7 0 0 0-2.8 3.4c-.6.5-1.2 1-1.8 1.3-.7.4-1.4.6-2.1.6a2 2 0 0 1-.6 0 6.5 6.5 0 0 1-2.1-1.1 4.9 4.9 0 0 1-1.4-2 6.3 6.3 0 0 1-.3-3.5 18.8 18.8 0 0 1 .8-3.3l.7-2.3.8-3 .2-.9Zm22.3-7.4a33.9 33.9 0 0 1 .4-2.6l.5-1c.2-.2.5-.3.9-.4l.6.1.6.3.6.4.2.6v.3l-.2.4-4.4 17.3a31.2 31.2 0 0 0-.7 3.5v1.5l-.3 1.2-.6.9c-.2.2-.5.3-.9.3a1.7 1.7 0 0 1-1.4-.6l-.3-.7-.1-.6v-.7a18.4 18.4 0 0 1 .5-2.5l4.6-17.7Zm9.1-.2a33.9 33.9 0 0 1 .4-2.5c.2-.4.3-.8.6-1 .2-.3.5-.4.8-.4h.6l.7.3.5.5.2.5v.3l-.1.4-4.5 17.3a31.4 31.4 0 0 0-.7 3.5v1.6c0 .4-.2.8-.3 1.1a2 2 0 0 1-.5.9c-.3.2-.6.4-1 .4a1.7 1.7 0 0 1-1.3-.7 2.3 2.3 0 0 1-.4-1.3v-.7a18.5 18.5 0 0 1 .4-2.5l4.6-17.7ZM295 163h.3a26 26 0 0 1 .5.2h.5l1.8-.2a15.5 15.5 0 0 0 3.5-1.2c.4-.2.7-.5.7-.7l.1-.4c0-.2 0-.4-.3-.5l-.7-.5-1-.5-1.5-.5a6.3 6.3 0 0 1-1.8-1l-.6-.8-.5-1a4.9 4.9 0 0 1-.1-1c0-.2 0-.6.3-1l.8-1.1a10 10 0 0 1 2.6-2 19.4 19.4 0 0 1 2-1.2l1-.4a5 5 0 0 1 1.1-.1h1.2l1.1.2c.4.2.7.3.9.6.2.2.3.5.3 1a3.2 3.2 0 0 1-.5 1.6c-.1.2-.3.2-.4.2h-.7l-.5-.4-.4-.3a1 1 0 0 0-.6-.2c-.3 0-.6 0-1 .2a8 8 0 0 0-2.1 1l-1 .7-.7.7-.3.6c0 .2 0 .3.2.5l.5.3 1 .4a128.1 128.1 0 0 0 3.6 1.6l.7.5a1.9 1.9 0 0 1 .5 1.4v.4a6.6 6.6 0 0 1-1.2 2.8l-1.6 1.2a15.3 15.3 0 0 1-4 1.7l-1.9.3a4.2 4.2 0 0 1-1.9-.6 3 3 0 0 1-.7-.6 1 1 0 0 1-.3-.7l.1-.4a1.9 1.9 0 0 1 .7-.7l.3-.1Zm17.1-2.7.3-3 .7-3a4.5 4.5 0 0 1-1.8-.4 2 2 0 0 1-.6-.5 1 1 0 0 1-.2-.7v-.4l.2-.5.4-.4.5-.1h2.3c.2 0 .4-.2.5-.4l.2-.5a39.9 39.9 0 0 1 1-4.4v-1a3.2 3.2 0 0 1 .2-1c0-.2.2-.4.4-.6l.8-.4.9.2.5.5.3.7a3 3 0 0 1 0 1.6l-1.3 4.8a78 78 0 0 0 1.7-.3l1.5-.3a36 36 0 0 0 3.7-.8h.5l.5.1.4.3.2.5-.2.8a2 2 0 0 1-.5.5c-.1.2-.3.3-.6.4l-.6.2a19 19 0 0 0-1.8.4 83.3 83.3 0 0 0-5.2 1.3h-.5a28.1 28.1 0 0 0-1.3 6.3l.1.8c0 .3.2.6.3.8.1.2.3.3.6.4.2.2.5.2.9.2a4 4 0 0 0 1.8-.5 9 9 0 0 0 1.8-1.3l1.5-1.7 1.4-1.8c.1-.2.3-.3.5-.3a1.2 1.2 0 0 1 .6.1l.2.2.1.4v.2l-.9 2.1a167.1 167.1 0 0 1-1.8 3 8.7 8.7 0 0 1-1.6 1.3l-.8.6a4 4 0 0 1-1.5.6 8 8 0 0 1-1.5.2 4 4 0 0 1-2-.4l-1.6-1a6 6 0 0 1-1.2-3.6Zm25.2 4.2.1-1.2.1-1.8a28 28 0 0 0-2.7 2.1l-1.5 1-1.4.3-1-.1-.9-.4a5 5 0 0 1-1.3-1.4 3 3 0 0 1-.4-1.7v-.9l.3-1a15.1 15.1 0 0 1 6.4-9.2c.6-.4 1.2-.7 1.8-.8a10 10 0 0 1 3.7-.1 9.6 9.6 0 0 1 1.2-.2l1 .1.5.4.3.5v1.5l-.3.8-2.4 9.1a109.2 109.2 0 0 0-.3 2.5l-.1.4-.3.5-.4.3c-.2.2-.5.2-.7.2h-1l-.4-.2a.6.6 0 0 1-.2-.3l-.1-.4Zm-5.9-5.1a7 7 0 0 0-.2 1.6l.1.8c.1.2.3.4.7.3.5 0 1 0 1.3-.3a23.7 23.7 0 0 0 5.5-5.5 7 7 0 0 0 1-2.9l.2-1.2c0-.1 0-.3-.2-.4l-.4-.2a5 5 0 0 0-1.7.4 7 7 0 0 0-1.7.9c-.5.3-1 .8-1.5 1.3a13.3 13.3 0 0 0-3 5.2Zm14.9-1.1a16.6 16.6 0 0 1 2.6-5.6c.7-1 1.4-1.8 2.2-2.6.8-.7 1.6-1.4 2.6-1.9l1-.4a5.2 5.2 0 0 1 2.2 0c.3 0 .6.2.8.3l.6.6c.2.3.2.6.2 1v.8l-.5.7a1.8 1.8 0 0 1-1.5.8l-.7-.1a5.7 5.7 0 0 1-.9-.5l-.3-.1a6 6 0 0 0-1.4.8 9.6 9.6 0 0 0-2.1 2.5 17.4 17.4 0 0 0-1.9 4.1 9.2 9.2 0 0 0-.3 2v.6l.3.6.4.3.7.2 1.2-.2a9 9 0 0 0 2.3-1 42.4 42.4 0 0 0 3-1.8l.4-.2c.2 0 .4 0 .5.2.2 0 .3.2.3.4l-.1.5c-.2.4-.4.9-.7 1.2a6.3 6.3 0 0 1-2 1.8 22 22 0 0 1-3.5 1.5 8 8 0 0 1-1.9.3 4 4 0 0 1-1.1-.2 4 4 0 0 1-2.1-1.6c-.4-.6-.7-1.4-.7-2.4a8.7 8.7 0 0 1 .4-2.6Zm22.8-2.1-.8.2a8.9 8.9 0 0 0-1.7 1c-.3 0-.5.2-.7.3l-1.6 6.2c-.1.3-.3.4-.5.6l-.6.2c-.7 0-1.1-.1-1.3-.4-.3-.2-.4-.5-.4-1v-.5l.2-.5v-.3a36.2 36.2 0 0 1 1.2-4.3 131.8 131.8 0 0 1 2.8-9.7 1177.2 1177.2 0 0 0 2.2-8l.5-.4.8-.1h.7l.6.3c.2 0 .3.2.4.4.2.1.2.3.2.5v.6a256 256 0 0 0-4 12.7 20 20 0 0 0 2.1-1.6 55.3 55.3 0 0 0 6-5.5l.7-.2a2 2 0 0 1 1.3.4c.1 0 .3.2.3.4l.2.4c0 .2 0 .4-.2.6a4.4 4.4 0 0 1-1 1.4 51.7 51.7 0 0 1-5 4 5 5 0 0 1 1.9 1.6c.5.6.9 1.4 1.1 2.2.3.8.5 1.6.6 2.6a22.7 22.7 0 0 1 0 3.3l-.1.6a1.4 1.4 0 0 1-.8.7 2.2 2.2 0 0 1-1.5 0 1.4 1.4 0 0 1-.7-.8v-.6a31.2 31.2 0 0 0-.4-3.5c0-.6-.2-1.1-.4-1.6a4.4 4.4 0 0 0-1.3-2 1 1 0 0 0-.7-.2h-.1Zm30.9-7.5a1.6 1.6 0 0 1 .4-.8l.3-.2h.6a20.4 20.4 0 0 0 1 .1c.4 0 .6.1.8.4l.2.8c0 .2 0 .5-.2.7a140.3 140.3 0 0 1-2.4 8.3l-.2 1a3.8 3.8 0 0 0 .4 1.7l.5.7.7.2c.5 0 1-.2 1.5-.5l1.5-1.1a11.3 11.3 0 0 0 2.1-2.7l.5-.8.8-1.7a23.7 23.7 0 0 0 1.4-5l.4-2.3c.1-.4.3-.7.5-.9.2-.2.5-.3 1-.3l.7.1a1.3 1.3 0 0 1 1 1l.1 1c0 .5 0 1.1-.2 1.8a59.7 59.7 0 0 1-1.1 5 22.4 22.4 0 0 0-.3 2.5v1.8a26.5 26.5 0 0 1 0 3.1l-.5 1c-.2.3-.6.4-1 .4l-.9-.1c-.2 0-.3-.2-.5-.3a1 1 0 0 1-.2-.4v-.5l-.2-3.2h-.2a95.3 95.3 0 0 0-2.8 3.4c-.6.5-1.2 1-1.8 1.3l-2.1.6-.6-.1a6.9 6.9 0 0 1-2.1-1 4.8 4.8 0 0 1-1.4-2 6.3 6.3 0 0 1-.3-3.5 18.8 18.8 0 0 1 .8-3.3l.6-2.3.9-3 .2-1Zm29.5.6c-.4 0-.9 0-1.3.3-.5.2-1 .4-1.5.8a20.4 20.4 0 0 0-3.1 2.4 19.5 19.5 0 0 1-1.5 1l-.5 1a22.6 22.6 0 0 0-1.6 5.3 26.3 26.3 0 0 1-.5 2.5c0 .3-.2.4-.3.6a1.5 1.5 0 0 1-1.1.4c-.4 0-.8 0-1.1-.2-.3-.2-.4-.6-.4-1.2v-.6l.1-.5a85.1 85.1 0 0 1 4.8-14c0-.3.2-.4.5-.6l1-.2c.5 0 .8 0 1.1.3.3.2.4.5.4.8v.2l-.1.3-.8 1.8a52.5 52.5 0 0 1 3.2-2.2 11 11 0 0 1 1.7-.8l1.7-.3c1.2 0 2 .3 2.7.8.6.6 1 1.5 1 2.8 0 .7-.2 1.5-.4 2.4a38.7 38.7 0 0 1-2.2 6.2 62.8 62.8 0 0 0-1.6 4.3l-.4.6-.5.3h-.8c-.4 0-.8 0-1-.2l-.2-.8.1-1.1a15.6 15.6 0 0 1 1.1-3.4 49.9 49.9 0 0 1 2-5l.5-1.5.1-1.2c0-.4 0-.7-.2-1-.2-.2-.5-.3-1-.3Zm7.4 10.7.6-2.2.8-2.9a512.8 512.8 0 0 0 2-6.6 1.9 1.9 0 0 1 1.3-.4h.6l.5.2.3.3.2.5v.2l-.6 1.8a1031.7 1031.7 0 0 1-3.6 13l-.3.2-.4.1-.9-.1a2 2 0 0 1-1-1v-1l.5-2Zm4.6-17.8.3-.9.8-1a4 4 0 0 1 1.3-.4c.1 0 .3 0 .4.2l.3.2.3.4c.3 0 .5 0 .6.3l.2.6-.1.5v.4l-.5.7-.7.5a4 4 0 0 1-1.5.5c-.3 0-.5 0-.7-.2l-.5-.5a1 1 0 0 1-.2-.4 1.5 1.5 0 0 1 0-.6v-.3Zm4.6 14.1a16.5 16.5 0 0 1 2.7-5.6l2-2.5c.9-.8 1.7-1.4 2.7-2a5.2 5.2 0 0 1 3.2-.4c.3 0 .6.2.9.4.2.1.4.3.5.6.2.2.3.5.3.9 0 .3 0 .5-.2.8 0 .3-.2.6-.3.8a2 2 0 0 1-.7.5c-.2.2-.5.3-.8.3-.3 0-.5 0-.7-.2a5.5 5.5 0 0 1-1-.4l-.3-.2a6 6 0 0 0-1.3.9 9.5 9.5 0 0 0-2.2 2.5 17.9 17.9 0 0 0-1.8 4 9 9 0 0 0-.4 2v.7l.3.5.4.4.7.1c.4 0 .8 0 1.2-.2a9 9 0 0 0 2.4-1 38.8 38.8 0 0 0 3-1.8l.4-.1.5.1.2.4-.1.5-.7 1.3a6.3 6.3 0 0 1-2 1.7 21.4 21.4 0 0 1-3.4 1.5 8 8 0 0 1-2 .3 4 4 0 0 1-1.1-.1 4.2 4.2 0 0 1-2.7-4 8.7 8.7 0 0 1 .3-2.7Zm15.6-.1a12.6 12.6 0 0 1 2.3-4.7 17.5 17.5 0 0 1 5.9-5l1-.2c.6-.5 1.2-.7 2-.7.9 0 1.6.2 2.3.6a5 5 0 0 1 1.5 1.8 22.4 22.4 0 0 1 .7 1.5 7 7 0 0 1 .2 2c0 .8-.1 1.7-.4 2.7-.3 1-.7 1.9-1.2 2.8a15.8 15.8 0 0 1-4.6 4.8 8 8 0 0 1-4.7 1.5 7 7 0 0 1-2.4-.3c-.6-.2-1.2-.5-1.6-1a4 4 0 0 1-1-1.5 6 6 0 0 1-.3-2c0-.7 0-1.5.3-2.3Zm3 .1a5.5 5.5 0 0 0-.3 1.5c0 .3 0 .7.2 1 0 .3.2.6.4.8l.9.6 1.2.2a5 5 0 0 0 2.5-.8c.8-.4 1.5-1 2-1.7a11 11 0 0 0 2.8-6.4l-.1-.8a10.2 10.2 0 0 0-.8-1.5l-.3-.6c0 .2-.2.3-.3.4 0 .2-.2.3-.4.4l-.9.3-1.4.2a5 5 0 0 0-1.2.6 9.4 9.4 0 0 0-2.3 2.1 12.7 12.7 0 0 0-2 3.7Zm16.3 4.3a180 180 0 0 1 2.3-11.1v-.6a8.1 8.1 0 0 1 .2-2l.5-1 .7-.2c.4 0 .7 0 .9.2l.5.5.2.7v1.9a43.6 43.6 0 0 1 2.2-2 7 7 0 0 1 1.4-.7 4 4 0 0 1 2.6-.2l.7.2.8.4 1 1c.2.5.4 1 .4 1.4l-.1.5-.3.6-.5.4a1 1 0 0 1-.5.2l-.8-.1-.7-.4-.2-.3-.3-.4-.2-.3-.1-.2h-.4c-.6 0-1.2.1-1.7.4a8 8 0 0 0-1.6 1.2l-1.3 1.4-1 1.3a157.8 157.8 0 0 1-1.6 6.3v1.4l-.3 1-.5.5-.9.2c-.5 0-.9-.2-1.1-.5-.3-.3-.4-.7-.4-1.1l.1-.6Zm27.7-12.9c-.5 0-.9.1-1.4.3l-1.4.8a20.4 20.4 0 0 0-3.1 2.4 18.7 18.7 0 0 1-1.5 1l-.5 1.1a22.6 22.6 0 0 0-1.6 5.2 26.3 26.3 0 0 1-.5 2.6c0 .2-.2.4-.3.5a1.5 1.5 0 0 1-1.1.5c-.5 0-.8-.1-1.1-.3-.3-.2-.4-.6-.4-1.2v-1.1a87.4 87.4 0 0 1 4.9-14c0-.2.2-.4.5-.5.3-.2.6-.2 1-.2s.8 0 1 .2c.4.2.5.5.5.9v.2l-.1.2-.8 1.9a52.5 52.5 0 0 1 3.2-2.3 11 11 0 0 1 1.7-.7l1.7-.4a4 4 0 0 1 2.7.9c.6.6 1 1.5 1 2.7a38.7 38.7 0 0 1-2.6 8.7 62 62 0 0 0-1.6 4.3l-.4.5-.6.3-.7.1c-.5 0-.8 0-1-.2l-.2-.8.1-1.2.4-1.5a39.5 39.5 0 0 1 2.1-5.4 28.2 28.2 0 0 0 1-3l.2-1.2c0-.3 0-.6-.3-.9-.1-.3-.4-.4-.8-.4Zm33.3-8.3-2 .8c-2 .8-3.4 1.2-4 1.2-.3 0-.6-.1-.8-.3a1 1 0 0 1-.3-.7 2 2 0 0 1 1.1-1.9c.8-.4 2.3-1 4.7-1.6 2.3-.6 3.7-.9 4.2-.9.8 0 1.1.3 1.1 1 0 .4-.2 1.1-.7 2-1.2 2-2.7 5.3-4.4 10a57.3 57.3 0 0 0-3.2 11c0 .5-.2.8-.6 1-.3.3-.7.4-1.2.4-1 0-1.6-.4-1.6-1.3a70.9 70.9 0 0 1 7.6-20.6Zm28.5 4.1a21 21 0 0 1-8 14.8 11.6 11.6 0 0 1-6.7 2.7c-2.3 0-4.2-.6-5.6-2a8.4 8.4 0 0 1-2-6.2c0-2.5.7-5 2.3-7.8 1.5-2.7 3.5-5 6-6.7a12 12 0 0 1 6.7-2.7c2.3 0 4 .6 5.3 2 1.3 1.4 2 3.4 2 5.9Zm-19 9.7c0 1.4.5 2.6 1.3 3.5.8 1 1.8 1.4 3 1.4 1.7 0 3.4-.8 5.2-2.4 1.7-1.5 3.2-3.5 4.3-5.9 1.2-2.4 1.7-4.6 1.7-6.7 0-1.5-.3-2.6-1-3.4-.6-.8-1.6-1.2-2.8-1.2-1.8 0-3.5.8-5.4 2.3a17.4 17.4 0 0 0-6.2 12.4Zm21.9 6.7a1.8 1.8 0 0 1-1.7.2l-.4-.3-.2-.5-.1-.5.1-.6.4-.4.5-.3.5-.2a27.2 27.2 0 0 0 3.4-2.6 116.7 116.7 0 0 0 3.6-3l.8-.8a15 15 0 0 0-1.6-3.5l-1-1.6a.9.9 0 0 1-.2-.5l.1-.4a1.7 1.7 0 0 1 .8-1l.6-.1c.4 0 .8 0 1 .2l.8.6.6.8a15.8 15.8 0 0 1 .7 1.3 14.1 14.1 0 0 1 .6 2.1 29.8 29.8 0 0 0 3.8-4.1l.6-.7.7-.6.8-.2c.4 0 .7.1 1 .3l.2 1c0 .3 0 .7-.2 1a2 2 0 0 1-.6.8 18.2 18.2 0 0 0-2.3 2.2 292.4 292.4 0 0 1-2.8 2.7l-.1.5v.4l.3.6a63.7 63.7 0 0 1 2 3.5l.6 1.4.3 1.4a2.3 2.3 0 0 1-.9 1.8l-.5.2-.7-.1-.5-.3c0-.2-.2-.3-.3-.5a22 22 0 0 1-.9-2.2 50 50 0 0 0-2-4.1l-2.4 1.8a2817.7 2817.7 0 0 1-5.4 4.3Zm36.2-1.9a157.4 157.4 0 0 1 1.7-8.4 92 92 0 0 0 .5-3v-.2a8.1 8.1 0 0 1 .3-2l.4-1 .8-.2.8.1c.2.2.4.3.5.6l.2.7v1.9a47.6 47.6 0 0 1 2.3-2 7 7 0 0 1 1.3-.8 4 4 0 0 1 2.7-.1l.7.2.7.4 1 1c.3.5.4 1 .4 1.4l-.1.5-.3.6-.4.4a1 1 0 0 1-.6.2c-.2 0-.4 0-.7-.2-.3 0-.5-.2-.7-.3l-.3-.3a6.3 6.3 0 0 1-.4-.7 1 1 0 0 0-.2-.2 1.5 1.5 0 0 0-.4 0c-.6 0-1.2.1-1.7.4l-1.5 1.1-1.3 1.4-1 1.4a157.8 157.8 0 0 1-1.7 6.3v1.4l-.2 1-.6.4c-.2.2-.5.2-.8.2-.5 0-1-.1-1.2-.4a2.2 2.2 0 0 1-.3-1.7Zm15.2-5a12.5 12.5 0 0 1 2.3-4.7 17.5 17.5 0 0 1 5.9-5l1.1-.2c.5-.5 1.1-.7 1.9-.7 1 0 1.7.2 2.3.6a4 4 0 0 1 1.6 1.8 20.6 20.6 0 0 1 .6 1.5 6.9 6.9 0 0 1 .3 2 12.8 12.8 0 0 1-1.7 5.6 15.8 15.8 0 0 1-4.6 4.7 8 8 0 0 1-4.7 1.5 7 7 0 0 1-2.3-.3c-.7-.2-1.2-.5-1.7-1a4 4 0 0 1-1-1.5 6 6 0 0 1-.3-2l.3-2.3Zm3 .1a5.7 5.7 0 0 0-.2 1.5l.1 1 .5.8c.2.3.5.5.8.6l1.3.2a5 5 0 0 0 2.5-.8 11 11 0 0 0 4.8-8.1c0-.3 0-.5-.2-.8a10.2 10.2 0 0 0-.7-1.5l-.3-.6-.3.4-.5.4-.9.3-1.4.2a5 5 0 0 0-1.2.6 9.3 9.3 0 0 0-2.3 2.1 12.7 12.7 0 0 0-2 3.7Zm16.1-.6a16.6 16.6 0 0 1 2.6-5.7l2-2.5c.9-.8 1.8-1.4 2.7-2l1-.3a5.3 5.3 0 0 1 2.2 0l.9.3c.2.1.4.3.5.6.2.2.3.5.3.9 0 .3 0 .6-.2.8 0 .3-.2.6-.3.8a1.8 1.8 0 0 1-1.5.8l-.7-.1a5.8 5.8 0 0 1-1-.5l-.3-.2a6 6 0 0 0-1.3.9 9.7 9.7 0 0 0-2.2 2.5 17.7 17.7 0 0 0-1.8 4 9 9 0 0 0-.4 2l.1.7.2.5.4.4.7.1c.4 0 .8 0 1.2-.2a9 9 0 0 0 2.4-1 39.8 39.8 0 0 0 3-1.8h.9l.2.5-.1.5-.7 1.2a6.3 6.3 0 0 1-2 1.7 21.4 21.4 0 0 1-3.4 1.5 8 8 0 0 1-2 .4 4 4 0 0 1-1-.2c-1-.4-1.7-1-2.2-1.6-.4-.7-.6-1.5-.6-2.4a8.9 8.9 0 0 1 .4-2.6Zm22.7-2.1c-.2 0-.5 0-.8.2a8.7 8.7 0 0 0-1.7.9l-.7.4-1.6 6.2c0 .2-.2.4-.5.5-.2.2-.4.2-.6.2-.7 0-1 0-1.3-.3-.2-.2-.4-.6-.4-1v-.5l.2-.6v-.2a39 39 0 0 1 1.2-4.3 126.7 126.7 0 0 1 1.8-6.3 794 794 0 0 0 3.3-11.4c0-.2.2-.3.5-.4l.8-.2h.6l.6.3.5.4.1.6v.5a254.6 254.6 0 0 0-4 12.8 18.4 18.4 0 0 0 2.2-1.6 53.7 53.7 0 0 0 5.9-5.5c.2-.2.5-.3.8-.3a2 2 0 0 1 1.2.4l.4.4v1a4.5 4.5 0 0 1-1 1.5 48.7 48.7 0 0 1-5 4c.7.3 1.3.9 1.8 1.5.5.7.9 1.4 1.2 2.2l.5 2.6a22.7 22.7 0 0 1 .1 3.4l-.2.6a1.4 1.4 0 0 1-.8.7l-.7.1-.7-.1a1.4 1.4 0 0 1-.8-.9v-.5a31.2 31.2 0 0 0-.3-3.6l-.5-1.6a4.4 4.4 0 0 0-1.3-1.9 1 1 0 0 0-.6-.2h-.2Zm10.4 5.1h.3a23 23 0 0 0 1 .2l2-.2a15.6 15.6 0 0 0 3.4-1.2c.4-.2.7-.5.7-.7v-.4c0-.2 0-.4-.2-.5l-.7-.5-1-.5-1.6-.5a6.3 6.3 0 0 1-1.7-1l-.7-.8-.4-1a4.8 4.8 0 0 1-.1-1c0-.2 0-.6.3-1 .2-.4.4-.8.8-1.1a10 10 0 0 1 2.6-2 19.5 19.5 0 0 1 2-1.2l1-.4a5 5 0 0 1 1.1-.1h1.2l1.1.2.9.6c.2.2.3.5.3 1a3.2 3.2 0 0 1-.5 1.6c-.1.2-.3.2-.4.3-.3 0-.5 0-.7-.2-.2 0-.4-.2-.5-.3l-.4-.3a1 1 0 0 0-.6-.2c-.3 0-.6 0-1 .2a7.8 7.8 0 0 0-2.2 1l-1 .7c-.2.2-.5.4-.6.7l-.3.6c0 .2 0 .3.2.5l.5.3.9.4a183.2 183.2 0 0 0 3.7 1.6c.3.1.5.3.6.5a2 2 0 0 1 .6 1.4v.4a6.4 6.4 0 0 1-1 2.5l-.2.3-1.6 1.2a15.3 15.3 0 0 1-4 1.7l-1.9.3c-.3 0-.6 0-1-.2-.3 0-.6-.2-.9-.4a3 3 0 0 1-.7-.6 1 1 0 0 1-.3-.7l.1-.4a1.9 1.9 0 0 1 .6-.7l.4-.1Zm17.2-2.7c0-1 0-2 .3-3l.7-3a4.5 4.5 0 0 1-1.8-.4 2 2 0 0 1-.6-.5 1 1 0 0 1-.3-.7l.1-.4.2-.5.4-.4.4-.1h2.4c.2 0 .4-.2.5-.4l.2-.5a39.9 39.9 0 0 1 1-4.4v-1.1a3.2 3.2 0 0 1 .2-1c0-.2.2-.4.4-.6l.8-.4.8.2c.3.1.4.3.6.5l.3.7a3 3 0 0 1 0 1.6l-1.3 4.8 1.7-.3 1.5-.3a38 38 0 0 0 3.6-.8h.6l.5.1.4.3.1.5-.1.8a2 2 0 0 1-.5.5c-.1.2-.3.3-.6.4l-.6.2a18.7 18.7 0 0 0-1.8.4 101.8 101.8 0 0 0-5.7 1.4 27.7 27.7 0 0 0-1.3 6.2v.8l.4.8c.1.2.3.3.6.4.2.2.5.2.9.2a4 4 0 0 0 1.8-.5 9 9 0 0 0 1.7-1.3l1.6-1.7c.5-.7 1-1.2 1.3-1.8l.6-.3a1.1 1.1 0 0 1 .5.1l.3.2v.6a6 6 0 0 1-.8 2.1 168.3 168.3 0 0 1-1.8 3 9 9 0 0 1-1.6 1.3l-.8.6-1.5.6-1.5.2a4 4 0 0 1-2-.4 4.3 4.3 0 0 1-2.5-2.7 6 6 0 0 1-.3-2Zm25.2 4.2.1-1.2.1-1.8a28 28 0 0 0-2.7 2.1l-1.5 1-1.5.3-1-.1-.8-.4a5 5 0 0 1-1.3-1.4 3 3 0 0 1-.4-1.7v-.9l.3-1a15.1 15.1 0 0 1 6.3-9.2c.7-.4 1.3-.7 2-.8a9.8 9.8 0 0 1 3.6-.1 9.7 9.7 0 0 1 1.2-.2l.9.1.6.4.3.5v1.5l-.4.8-2.3 9.1a111 111 0 0 0-.5 3l-.2.4-.5.3c-.1.2-.4.2-.7.2h-.8c-.3 0-.4-.1-.5-.2a.6.6 0 0 1-.3-.3v-.4Zm-5.9-5.1a7.3 7.3 0 0 0-.2 1.6l.1.8c.1.2.3.4.6.3.5 0 1 0 1.4-.3a23.4 23.4 0 0 0 5.5-5.5 7 7 0 0 0 1-2.9l.1-1.2v-.4l-.5-.2a5 5 0 0 0-1.7.4c-.6.2-1.2.5-1.7.9-.6.3-1 .8-1.6 1.3a13.3 13.3 0 0 0-3 5.2Zm15.2 3.8a157.4 157.4 0 0 1 1.8-8.5 91.3 91.3 0 0 0 .5-2.9v-.3a8.2 8.2 0 0 1 .2-2l.5-1 .7-.2c.4 0 .7 0 .9.2l.4.5c.2.2.2.5.3.8v1.8a43.6 43.6 0 0 1 2.2-2 7 7 0 0 1 1.4-.7 4 4 0 0 1 2.6-.1c.2 0 .5 0 .7.2.3 0 .5.2.8.4.4.2.7.6 1 1 .2.4.4.9.4 1.3l-.1.6-.3.5-.5.5a1 1 0 0 1-.5.1h-.8l-.7-.5-.2-.3a6.7 6.7 0 0 1-.5-.7l-.1-.2a1.8 1.8 0 0 0-.4 0c-.6 0-1.2.2-1.7.5l-1.6 1-1.3 1.5-1 1.3a150.2 150.2 0 0 1-1.6 6.3v1.5l-.3 1-.6.4-.8.2c-.5 0-.9-.1-1.1-.5-.3-.3-.4-.6-.4-1l.1-.7Zm34.2-22.6c0 .4-.5 1-1.5 1.7-3.6 3.2-7.1 7-10.4 11.4a146.4 146.4 0 0 0-7.8 10.7 2 2 0 0 1-1.2.3c-.4 0-.7 0-1-.3-.2-.3-.3-.6-.3-1s0-.8.3-1.1a115.6 115.6 0 0 1 19.4-22.9l1.1-.2c.4 0 .7.1 1 .4.2.2.4.6.4 1Zm11.7 10.8a139.1 139.1 0 0 0-10.8-5l-.2-.7c0-.5.1-.9.3-1.2.3-.3.6-.5 1-.5s1.1.3 2.1.7l3.5 1.6 4.7 2.2a62.5 62.5 0 0 1 3.7 2l.1.8c0 .5 0 .9-.3 1.2a8 8 0 0 1-2.2 1.1l-5.7 2.4a174.5 174.5 0 0 1-9.2 3.4c-.4 0-.6-.1-.9-.5a2 2 0 0 1-.3-1.1c0-.7.6-1.1 1.6-1.5l5.7-2 6.9-3Zm15.8-11.7c0 .2-.2.8-.7 1.8a36 36 0 0 0-2.6 7.1c-.2.7-.8 1.1-1.7 1.1-1.2 0-1.8-.4-1.8-1.4 0-.8.7-2.6 2.1-5.4 1.4-2.8 2.5-4.3 3.3-4.3 1 0 1.4.4 1.4 1.1Zm8-.1-.7 1.7c-1 2-1.9 4.4-2.6 7.2-.2.7-.8 1-1.8 1-1.1.1-1.7-.4-1.7-1.4 0-.7.7-2.6 2-5.4 1.5-2.8 2.6-4.2 3.4-4.2 1 0 1.4.3 1.4 1Zm8.3 16.5a1 1 0 0 1-.7-.3l-.5-.8-.2-1-.1-1c0-.5 0-.9.2-1.2a3 3 0 0 1 1-.9l.5-.3 2-1.3 1.2-.7 1.8-1a29 29 0 0 0 2.3-2c.4-.4.8-.8 1-1.2.3-.4.5-.8.5-1.3 0-.2 0-.4-.2-.6a2 2 0 0 0-.3-.5c0-.2-.2-.3-.4-.4a.9.9 0 0 0-.4-.2c-.9 0-1.7.2-2.5.3a17.3 17.3 0 0 0-5 1.9l-2.2 1.4c-.1 0-.2 0-.3.2a4.5 4.5 0 0 1-1.5.7l-.5-.1-.5-.2-.5-.4a.9.9 0 0 1-.2-.6l.3-.7.8-.7a12.2 12.2 0 0 1 2.1-1.5 25.6 25.6 0 0 1 5.8-2.2c1.3-.4 2.6-.6 4-.6a4 4 0 0 1 1.6.3 5.6 5.6 0 0 1 2.7 2.5c.3.6.4 1.1.4 1.7l-.3 1.5a7 7 0 0 1-1 1.4l-1.3 1.3a26.4 26.4 0 0 1-4.2 3.2 30.7 30.7 0 0 1-2.4 1.4l-1 .7c-.2.2-.4.4-.4.6l-.1.6a36 36 0 0 0-.2 1.5l-.4.3-1 .2Zm1.4 5c0 .4 0 .8-.2 1.2l-.7 1-1 .6a3 3 0 0 1-1.1.2l-.9-.1a2.1 2.1 0 0 1-1.2-1.1l-.1-.9c0-.4 0-.7.2-1.1a3.5 3.5 0 0 1 1.8-1.7l1.1-.2a2 2 0 0 1 2 1.3l.1.8Z"/>
  <path fill="none" stroke="#d96226" stroke-width="4" d="M51.5 373.3c15.2-20.6 28.5-41 46.6-59.4 6-6.2 17.8-15 27.2-14 5.5.5 4.6 11.2 4.7 14.9 0 12.8-1.8 25.9-3.2 38.6-.3 3.4-2 11 1 13.3 1.9 1.5 4.3-.1 5.8-1.5 4-3.4 7.8-9 10.6-13.4 9.7-15.3 27.9-42.1 49-42.7 6.6-.2 8 10.2 9 15 2.2 10.6 1.5 22.9 5.5 33 1.7 4.3 3.5 9.8 8.5 11.2 6.4 1.9 12.8-3.8 17-7.7 9.7-8.9 17-20.2 27-28.7 2.1-2 7.2-7.3 10.7-8.2.8-.2 10.3-3.6 13.7-2.7 10.5 2.7 14.8 18.6 18.2 27.4 2.4 6.2 4.9 17.8 13 19 6 .8 11.5-6.7 15-10.6 7-8.1 13-17.2 20.4-25.2 2.2-2.5 6.1-7.6 9.5-8.7.8-.3.5 6 .4 6.5-1 6.5-4 14-3 20.5m83.6 47.5c7.8-5.4 14.4-12.5 22.4-17.8 1.7-1.1 5.2-4.8 7.3-3.9 6.5 2.9 7.4 16 7.7 21.7v10.5c-1-5-3.8-9.1-4.3-14.3 0-.7 0-5.2-.6-5.6-.2-.1-1.9 4.3-2 4.6-1 2.8-2.5 5.4-3.7 8.2a118 118 0 0 1-13.4 22.7 88.7 88.7 0 0 1-24.2 25.3 74 74 0 0 1-37.2 8.1"/>
</svg>
