<svg xmlns="http://www.w3.org/2000/svg" xml:space="preserve" fill-rule="evenodd" stroke-linecap="round" stroke-linejoin="round" stroke-miterlimit="1.5" clip-rule="evenodd" viewBox="0 0 1000 581">
  <path fill="none" d="M0 0h1000v580.8H0z"/>
  <path fill="#d96226" fill-rule="nonzero" d="m93 386.5-.7 1.6c-1 1.8-1.7 4-2.4 6.5-.2.6-.7 1-1.6 1-1-.1-1.5-.6-1.5-1.5 0-.8.6-2.4 1.8-5 1.3-2.5 2.3-3.7 3-3.7.9 0 1.3.4 1.3 1.1Zm7.1.4c0 .3-.2.8-.6 1.6-.9 1.8-1.7 4-2.3 6.5-.2.6-.7 1-1.6.9-1 0-1.6-.5-1.6-1.5 0-.7.6-2.3 1.9-4.9 1.2-2.5 2.2-3.7 3-3.7.8 0 1.2.4 1.2 1.1Zm6 3.4.2-.9.4-.8.7-.7 1-.2c.3 0 .7.2 1 .4l.7.7c.3.2.6.5.8 1.1l.8 2a121 121 0 0 1 2 6.2 67.6 67.6 0 0 0 2.9 7l.3.6a11.4 11.4 0 0 0 .8 1.2l.2.2.1-.3a19.3 19.3 0 0 0 .5-1.8 59.6 59.6 0 0 0 4-12.7 53.8 53.8 0 0 0 1.4-7.1l.4-.2a3.1 3.1 0 0 1 1.1.4l.6 1c.2.4.3 1 .3 1.6 0 .4 0 .9-.2 1.5a36 36 0 0 1-1.3 5.8 84.2 84.2 0 0 1-5.2 14c-.3.4-.6.6-1 .8a2 2 0 0 1-1 .3 3 3 0 0 1-.8-.2c-.3 0-.5-.2-.7-.4a20 20 0 0 1-2.3-3.6 38.4 38.4 0 0 1-3.3-8.4l-1.2-4.2-.3-1.3-.1-.3-.2-.1-.2.3a12 12 0 0 0-.6 1.6l-.1.6-.4 1.1-.5 1.7-.6 2-.6 2.1a114.6 114.6 0 0 1-3 8.4c-.3.2-.5.3-.8.2l-.5-.1a2 2 0 0 1-.4-.5l-.3-.5-.1-.5v-.4l.3-1 .4-1.6 4.8-15Zm35.1 21.3a1.4 1.4 0 0 1-1.2-1l-.1-.5.1-.7a14.2 14.2 0 0 1 .8-2 252.4 252.4 0 0 1 1.2-3.4 52.6 52.6 0 0 1 .7-2.9 6.3 6.3 0 0 1-1.2.1 11.2 11.2 0 0 0-2.1.3 102 102 0 0 0-4.3.8l-2 .1c-.2 0-.4 0-.6-.2l-.6-.3a11.7 11.7 0 0 0-1.2 2.3 20.3 20.3 0 0 0-.9 3 47 47 0 0 0-.5 3 2 2 0 0 1-.8.6 1.2 1.2 0 0 1-1.2-.2 2 2 0 0 1-.5-.6l-.2-1v-.8c0-.6 0-1.3.2-2a15.6 15.6 0 0 1 1.6-4.2 35.7 35.7 0 0 1 2.5-4.3 40.4 40.4 0 0 1 3.9-5c.7-.9 1.5-1.6 2.3-2.2.8-.7 1.7-1.2 2.5-1.5a5.6 5.6 0 0 1 4.8 0c.6.4 1 .9 1.4 1.5.4.5.6 1.2.8 1.9l.2 2.3a18.3 18.3 0 0 1-.5 4.4 47 47 0 0 1-.8 3.9l-.6 2.1a28.7 28.7 0 0 0-.7 2 89.9 89.9 0 0 1-.9 2.3 32.2 32.2 0 0 1-.6 1.5c-.1.3-.3.4-.5.6-.3.1-.6.2-1 .1Zm.9-20-1.5.3a9.6 9.6 0 0 0-2.7 1.7 22.3 22.3 0 0 0-4 5l1.6.2h2a51.7 51.7 0 0 0 5.9-.7l.1-.5a16.9 16.9 0 0 0 .2-3.7l-.2-1-.5-.8c-.2-.3-.5-.4-1-.4Zm10.7 2.4a5 5 0 0 0-.1-1.2 19 19 0 0 1-.1-1.1v-.8l.3-.7.4-.4.8-.2c.4 0 .7.2 1 .4l.6.7.3 1a8 8 0 0 1 0 2.5 106.5 106.5 0 0 0-.2 13.3c.1.6.3 1 .6 1.5.2.4.5.7 1 .8a33.8 33.8 0 0 0 6.7-9 230.7 230.7 0 0 0 4-8.5 35 35 0 0 0 .8-1.8l.5-.6 1.3-.2c.4 0 .7.1.8.3.2.2.3.4.3.7v.4l-.1.4-1 2.2a192.8 192.8 0 0 0-4 7.8 65.3 65.3 0 0 1-4.4 7 51.4 51.4 0 0 1-4 4.2l-.6.3a2.3 2.3 0 0 1-1.9-.2l-.9-.7a22.3 22.3 0 0 1-1.6-3.2 13.5 13.5 0 0 1-.6-3 18.5 18.5 0 0 1 0-2v-3a1310.8 1310.8 0 0 0 .1-6.1v-.8Zm20.6 10a43.1 43.1 0 0 1 1.7-6.1 139.1 139.1 0 0 0 1.9-6.7c.2-.4.5-.7.8-.9l1.2-.2c.4.2.6.5.8.8.2.3.3.7.3 1l-.1 1a14.7 14.7 0 0 1-.8 2.4l-.5 1.4-1 2.6a67.6 67.6 0 0 0-3.2 13.4c0 .2-.2.3-.3.5a2 2 0 0 1-2 .6.6.6 0 0 1-.4-.2l-.3-.4a1.4 1.4 0 0 1 0-.9l1.9-8.3Zm25.2-.8a13.2 13.2 0 0 0-1.9.5l-2.6.8c-.4 0-.8.2-1.1.3a17.3 17.3 0 0 1-1 .2l-.6.3h-.3l-.6-.1a1.6 1.6 0 0 1-.7-1l-.1-.6c0-.4 0-.7.3-1l.9-.5a54 54 0 0 1 6.8-1.7c.5-.1.9-.2 1.2-.1.4 0 .7 0 1 .2a2.4 2.4 0 0 1 1.5 2.3 3.3 3.3 0 0 1-.2 1c-.3 1.2-.8 2.3-1.4 3.3a13.6 13.6 0 0 1-5.3 4.7c-1 .6-2.2 1-3.3 1.4a7.8 7.8 0 0 1-1.5.4 9.9 9.9 0 0 1-1.5.1 12 12 0 0 1-1.8-.2 3 3 0 0 1-.9-.4l-1.7-1a6.8 6.8 0 0 1-2.1-3.2c-.2-.6-.3-1.3-.3-2 0-.8 0-1.7.3-2.5l1.1-2.5a19.8 19.8 0 0 1 3.6-4.9 24.4 24.4 0 0 1 7.6-5.3 5 5 0 0 1 1.7-.6 6 6 0 0 1 1.7-.1 4.7 4.7 0 0 1 2.4.8l.8.9a2 2 0 0 1 .3 1.7l-.1.4-.3.5c0 .1 0 .2-.2.2h-.3c-.3 0-.6 0-.8-.2l-.6-.6-.6-.5a1 1 0 0 0-.7-.3h-.4c-.8 0-1.7.4-2.7.8a19.2 19.2 0 0 0-5.5 4c-.8.7-1.6 1.6-2.2 2.5-.7.9-1.2 1.8-1.6 2.8a7 7 0 0 0-.6 2.7c0 .7.2 1.4.5 1.9s.8 1 1.4 1.6l1.1.6a3.3 3.3 0 0 0 2.4.1 10 10 0 0 0 2.7-1.1l1.2-.7c1.1-.7 2.1-1.5 2.9-2.5.8-1 1.4-2 2-3v-.4Zm18.9 12.5a1.4 1.4 0 0 1-1.3-1v-1.2a14 14 0 0 1 .8-2 130 130 0 0 1 1.3-3.4 52.5 52.5 0 0 1 .7-2.9 6.3 6.3 0 0 1-1.3 0 11.2 11.2 0 0 0-2 .3 102 102 0 0 0-4.4.8l-2 .2-.6-.2-.6-.3a11.5 11.5 0 0 0-1.1 2.2 20.5 20.5 0 0 0-1 3 45.3 45.3 0 0 0-.4 3 2 2 0 0 1-.9.7 1.2 1.2 0 0 1-1.2-.2 2 2 0 0 1-.4-.7l-.3-.9v-.8c0-.7 0-1.3.2-2a15.3 15.3 0 0 1 1.6-4.2 35.3 35.3 0 0 1 2.5-4.3 40.8 40.8 0 0 1 3.9-5c.8-1 1.5-1.6 2.3-2.3.9-.6 1.7-1.1 2.6-1.5a5.6 5.6 0 0 1 4.7.1 5 5 0 0 1 1.5 1.4c.3.6.6 1.2.7 2 .2.7.2 1.4.2 2.3a18 18 0 0 1-.4 4.4 47 47 0 0 1-1 3.8l-.5 2.2a15 15 0 0 0-.3 1 39.4 39.4 0 0 1-1.2 3.2 35.3 35.3 0 0 1-.6 1.6l-.6.5c-.2.2-.5.2-1 .2Zm.8-20c-.5 0-1 0-1.4.3a9.4 9.4 0 0 0-2.7 1.7 22 22 0 0 0-3.4 3.7l-.1.3a3.9 3.9 0 0 0-.4.7l-.2.3 1.7.1h2a53 53 0 0 0 5.8-.6l.1-.6a17 17 0 0 0 .2-3.6c0-.4 0-.7-.2-1 0-.4-.3-.7-.5-.9-.2-.2-.5-.3-.9-.4Zm14.7 18.1a107.5 107.5 0 0 1 2.9-10.6 117.2 117.2 0 0 0 1.1-4.9l.1-1.1v-.5l-.7.1a22.7 22.7 0 0 0-4.4 1.6l-1 .5a6.8 6.8 0 0 1-1.1.3h-.5a1 1 0 0 1-.8-.4c-.3-.2-.4-.6-.4-1v-.6l.3-.5.4-.3.6-.4a34 34 0 0 1 20.2-2.6c.2 0 .4.2.6.5.2.2.3.5.3.7v.7l-.3.5a1 1 0 0 1-.4.3 63.4 63.4 0 0 0-9.5-.1v.5a17.2 17.2 0 0 1-1.5 6 208 208 0 0 0-1.7 6l-.7 3a26.6 26.6 0 0 0-.7 3.6c0 .2-.2.4-.5.5a2 2 0 0 1-1 .2c-.2 0-.4 0-.6-.2l-.5-.5a2 2 0 0 1-.2-.7v-.6Zm16.3-5.8a44 44 0 0 1 1.7-6 101.4 101.4 0 0 0 1.9-6.8c.2-.4.5-.7.8-.8.4-.2.8-.3 1.2-.2.4.2.7.4.8.7.2.4.3.7.3 1.1v1a14.9 14.9 0 0 1-.9 2.4l-.5 1.3-.9 2.6a67.6 67.6 0 0 0-3.3 13.4c0 .2-.1.4-.3.5a2 2 0 0 1-2 .7.6.6 0 0 1-.4-.2l-.3-.5a1.4 1.4 0 0 1 0-.9l1.9-8.3Zm7.7 1.5c.3-.8.5-1.6 1-2.4a22.2 22.2 0 0 1 2.8-4.9 31 31 0 0 1 6.3-6 3 3 0 0 1 1.8-.5l1 .2.7.6.3.3.3.1.3-.4.2-.2h1.4a4 4 0 0 1 2.6 1 8 8 0 0 1 1.9 2.9c.4 1 .6 2.2.6 3.4a15.1 15.1 0 0 1-3.5 9.5 16 16 0 0 1-5.1 4.2c-1 .5-2 .8-3 1-1.1.3-2.2.4-3.3.4-1 0-2-.3-2.7-.6a6.2 6.2 0 0 1-3.4-3.5 10.2 10.2 0 0 1-.1-5Zm2.8 1.2-.2 1.4c0 .6.1 1.2.3 1.6.2.5.5.9 1 1.2.3.3.7.6 1.3.8.5.1 1 .3 1.7.3.8 0 1.5 0 2.3-.2a12.6 12.6 0 0 0 6.3-4.4 15.7 15.7 0 0 0 3-6.7v-1.2c0-.6 0-1.2-.2-1.8l-.7-1.5c-.3-.5-.7-.9-1.3-1.1-.5-.3-1.1-.5-1.9-.5h-.2l-.2.4-.2.4a1.2 1.2 0 0 1-.7.5h-.6a1 1 0 0 1-.5 0l-.4-.4-.2-.2h-.5a4.8 4.8 0 0 0-1 .7 35.6 35.6 0 0 0-4.5 5.3c-.6.9-1.2 1.8-1.6 2.7-.5 1-.8 1.8-1 2.7Zm25.5-10.9.2-.9c0-.3.2-.6.4-.8.1-.3.4-.5.6-.6.3-.2.6-.3 1-.3s.7.2 1 .4l.8.7c.3.2.5.6.8 1.1l.8 2.1a120.6 120.6 0 0 1 2 6 69.5 69.5 0 0 0 2.8 7l.3.7a11 11 0 0 0 .8 1.2l.3.2v-.2l.2-.6.2-.7.2-.5a56.6 56.6 0 0 0 3.6-11.4 60 60 0 0 0 1.8-8.5l.3-.1a3 3 0 0 1 1.2.3l.6 1 .2 1.6-.1 1.5a36 36 0 0 1-1.3 5.9 84.6 84.6 0 0 1-5.3 14c-.2.3-.5.6-.9.7a2 2 0 0 1-1.1.3 3 3 0 0 1-.8-.1l-.6-.5a20 20 0 0 1-2.4-3.6 38.4 38.4 0 0 1-3.3-8.4l-1.1-4.2-.3-1.3-.2-.3-.1-.1-.3.3a10.7 10.7 0 0 0-.5 1.7l-.2.5a69.8 69.8 0 0 1-2 7 139 139 0 0 1-1.5 4.2l-.4 1.3a123.2 123.2 0 0 1-1.2 2.8 1 1 0 0 1-.7.3l-.5-.2a2 2 0 0 1-.4-.5.5.5 0 0 1-.3-.5l-.2-.5.1-.4.3-1 .4-1.6 4.8-15Zm35.1 21.4a1.4 1.4 0 0 1-1.3-1v-1.4a13.6 13.6 0 0 1 .8-2 249.2 249.2 0 0 1 1.3-3.4 86.4 86.4 0 0 1 .7-2.8 6.3 6.3 0 0 1-1.3 0 10.8 10.8 0 0 0-2 .3 82.8 82.8 0 0 0-4.4.8c-.6.1-1.3.2-2 .1-.2 0-.4 0-.6-.2l-.6-.3a11.7 11.7 0 0 0-1.1 2.3 19.6 19.6 0 0 0-1 3 40.4 40.4 0 0 0-.2 2.5l-.2.5a1.9 1.9 0 0 1-.8.7h-.5a1 1 0 0 1-.8-.2 2 2 0 0 1-.4-.7l-.3-.9v-.8c0-.7 0-1.4.2-2a15.6 15.6 0 0 1 1.6-4.3 35.7 35.7 0 0 1 2.5-4.3 40.8 40.8 0 0 1 4-5 12.8 12.8 0 0 1 4.8-3.7 5.6 5.6 0 0 1 4.8.1 4.7 4.7 0 0 1 2.1 3.4 18.3 18.3 0 0 1-.3 6.7 45.4 45.4 0 0 1-.8 3.8l-.6 2.1a16.5 16.5 0 0 0-.3 1 48 48 0 0 1-1.2 3.3 32.2 32.2 0 0 1-.6 1.6c-.2.2-.3.4-.6.5l-.9.2Zm.8-20c-.5 0-1 0-1.4.2a9.6 9.6 0 0 0-2.7 1.7 22 22 0 0 0-4 5.1h3.6a51.4 51.4 0 0 0 5.8-.6l.2-.5a15.5 15.5 0 0 0 0-4.7c-.2-.3-.3-.6-.6-.8-.2-.2-.5-.4-.9-.4Zm9.6 12.1a1413.2 1413.2 0 0 0 3.4-10.9l.3-2c.1-.5.3-1 .7-1.2.3-.3.7-.4 1.1-.4.3 0 .5 0 .7.2l.4.5.2.7a3.4 3.4 0 0 1 0 1.6 43 43 0 0 1-2 6.1 509.4 509.4 0 0 0-2 6.3l-.2 1a29.2 29.2 0 0 0-.6 2.8l.1.4.4.2 1.5-.1a23.8 23.8 0 0 0 5.5-1.7l1.4-.5a271.4 271.4 0 0 1 4-1.3l.4.1.3.3.2.3v.5a2.9 2.9 0 0 1-.2 1 2 2 0 0 1-.5.5 4 4 0 0 1-1.3.7l-.5.2-.7.2-2 .6-1.8.6-.5.2a163.2 163.2 0 0 0-4.8 1.4 5 5 0 0 1-1.2.1l-1-.1-.6-.3-.5-.5-.8-.5c-.3-.2-.5-.5-.6-.8l-.2-1v-.5a13 13 0 0 1 .5-2l.9-2.7Zm34.2 8.9V421l1.4-4.2a74.4 74.4 0 0 0 3-9.9 40 40 0 0 1 1.5-4l.5-.8.6-.6c.2-.2.4-.3.6-.2.5 0 .8 0 1 .2l.5.4.1.7h.6a47 47 0 0 0 5.7-1 19.1 19.1 0 0 1 4.3 0c.3 0 .5.2.7.3.2 0 .3.2.4.3a.8.8 0 0 1 0 .8l-.3.4-.7.3-1 .1-.6.1-1.1.1a210.3 210.3 0 0 0-2 .3h-.4a36.5 36.5 0 0 1-3.2.8 68.3 68.3 0 0 0-1.9.5 3.8 3.8 0 0 0-2.4 2.3 8.2 8.2 0 0 0-.5 1.2l-.3 1-.3.9a29 29 0 0 0-.5 1.9l1-.2a68.5 68.5 0 0 0 6.2-1.6 50.9 50.9 0 0 1 3.1-.6c.4 0 .6.1.8.3l.2.4c0 .4-.2.7-.4 1a3.6 3.6 0 0 1-1.8.9 38.8 38.8 0 0 1-3 .8l-2.6.9-2.5.9a10 10 0 0 1-2.2.5l-.3 1a35.8 35.8 0 0 0-.8 3.5v.5l.2.2h.4l1.9-.1a16.4 16.4 0 0 0 5.3-1.8l1.3-.6a4 4 0 0 1 1.8-.1l.4.1.3.3.1.3c0 .3-.2.6-.4 1l-1 .7-1.4.8a27.5 27.5 0 0 1-9.8 2.3c-.9 0-1.5-.3-2-.6-.4-.3-.6-.8-.6-1.5Zm21.6-5.9a1411 1411 0 0 0 3.3-10.9l.3-2c.2-.6.4-1 .7-1.2.3-.3.7-.5 1.1-.4.3 0 .5 0 .7.2l.4.5.3.6a3.3 3.3 0 0 1 0 1.7 43 43 0 0 1-2 6 487.7 487.7 0 0 0-2 6.3l-.3 1.1a29 29 0 0 0-.5 2.8v.4l.4.2c.5 0 1 0 1.6-.2a23.8 23.8 0 0 0 5.4-1.6l1.5-.5a271.4 271.4 0 0 1 4-1.4l.4.2.3.2.1.4v.4a2.9 2.9 0 0 1-.1 1l-.5.6a83 83 0 0 0-2.5 1l-2 .7-1.8.6-.5.1a214 214 0 0 0-4.8 1.4 5 5 0 0 1-1.3.2c-.4 0-.7 0-1-.2a.5.5 0 0 1-.5-.3c-.2 0-.4-.2-.6-.4l-.7-.6c-.3-.2-.5-.4-.6-.7-.2-.3-.2-.6-.2-1v-.6a12 12 0 0 1 .5-2l.9-2.6Zm18 8c0-.4 0-.8.2-1.2l1.2-4.2a73.6 73.6 0 0 0 3-9.9 39.8 39.8 0 0 1 1.6-4l.5-.8.6-.6c.2-.2.4-.2.6-.2.4 0 .8 0 1 .2.2.2.4.3.4.5l.2.6h.6a48.5 48.5 0 0 0 5.7-1 19 19 0 0 1 4.3 0c.3 0 .5.2.7.3.2 0 .3.2.4.3a.8.8 0 0 1 0 .8l-.4.4-.6.3-1 .1a18.4 18.4 0 0 1-1.8.2 145.6 145.6 0 0 0-1.9.3h-.4a36.5 36.5 0 0 1-3.2.8 68.3 68.3 0 0 0-1.9.5c-.6.2-1.2.5-1.5 1a4.7 4.7 0 0 0-1 1.8 29.2 29.2 0 0 0-.7 1.6l-.3 1a28.1 28.1 0 0 0-.5 1.9l1-.2a68.5 68.5 0 0 0 6.2-1.6 50.9 50.9 0 0 1 3.1-.6c.4 0 .6.1.8.3l.1.4c0 .4 0 .7-.4 1a3.6 3.6 0 0 1-1.7.9 38.8 38.8 0 0 1-3 .8l-2.6.9-2.6.9a8.8 8.8 0 0 1-1.2.3l-1 .2-.3 1a35.8 35.8 0 0 0-.8 3.5l.1.5.2.2h.2a32.5 32.5 0 0 0 2 0 16.2 16.2 0 0 0 5.4-2l1.3-.5a4 4 0 0 1 1.8-.1l.4.1.3.3.1.3c0 .4-.2.6-.5 1a5 5 0 0 1-1 .7l-1.4.8a27.2 27.2 0 0 1-9.8 2.3 3 3 0 0 1-1.8-.6c-.5-.3-.7-.8-.7-1.5Zm18.8.7a25.5 25.5 0 0 1 2-5.6 57 57 0 0 1 7.3-11.6l.7-.7a16.4 16.4 0 0 1 4.1-3.2l1-.1c.4 0 .8 0 1.1.2l1 .7.5 1a3.4 3.4 0 0 1 .1 1.6v.6l-1.9 8.8a54.6 54.6 0 0 1 4-5.4 143.9 143.9 0 0 1 1.8-2.4l.3-.3a32.7 32.7 0 0 1 3.9-3.7l1.1-.7 1.1-.2.6.2.5.5.2.7v2.2l-.3 1.3-.2 1.2-.8 4.2a10090.5 10090.5 0 0 0-2 11.3c0 .2-.1.5-.3.7a2 2 0 0 1-.5.6c-.2.2-.5.3-.8.2l-.5-.1a2.3 2.3 0 0 1-.8-1.6l3.3-15.6a11.7 11.7 0 0 0 .1-.7v-.3a9 9 0 0 1-.2-.6l-1.5 1.3a25.4 25.4 0 0 0-3.4 3.9 47.9 47.9 0 0 0-2.9 4l-1.3 2a82.2 82.2 0 0 0-3 5 16.2 16.2 0 0 1-1.4 2.4c-.3.3-.5.5-.9.5-.2 0-.4 0-.6-.2a1 1 0 0 1-.6-.7V425l.2-.7a112.2 112.2 0 0 1 2.3-8.5 162.5 162.5 0 0 0 1.6-7.9v-.6c0-.2-.2-.3-.3-.3a2 2 0 0 0-1.2.4c-.5.2-1 .6-1.4 1l-1.3 1.6a29 29 0 0 0-3.5 5.9 21.7 21.7 0 0 0-1 2 47.6 47.6 0 0 0-2 4.7l-1.4 3.8a1 1 0 0 1-.5.6c-.3.2-.5.2-.8.2-.5 0-1-.2-1.2-.5-.3-.3-.4-.7-.4-1.1v-.7Zm31.6 2v-1.2l1.4-4.2a73.9 73.9 0 0 0 3-9.9 41.9 41.9 0 0 1 1.5-4l.5-.8.6-.6.6-.3c.5 0 .8.2 1 .3l.5.4.1.7h.6a50.3 50.3 0 0 0 5.7-1 20 20 0 0 1 4.3 0l.7.2.4.4a.8.8 0 0 1 0 .8l-.4.4-.6.3-1 .1h-.6l-1.1.2a453.9 453.9 0 0 0-2 .3h-.4a42.1 42.1 0 0 1-3.2.8 57 57 0 0 0-1.9.5c-.6.2-1.1.5-1.5.9a4.7 4.7 0 0 0-1 1.8 36.9 36.9 0 0 0-.7 1.7l-.3 1a29 29 0 0 0-.5 1.8l1-.1 1.8-.5 2.2-.5a143.5 143.5 0 0 1 5.3-1.2l.8.2.2.5c0 .3-.2.7-.4 1a3.6 3.6 0 0 1-1.8.9l-1.1.3-1.2.3a104.1 104.1 0 0 0-3.3 1l-2.6 1a9.6 9.6 0 0 1-1.2.3l-1 .1-.3 1a38.3 38.3 0 0 0-.7 3.6v.4l.2.2.3.1h.1l1.9-.1a16.6 16.6 0 0 0 5.3-1.9l1.3-.5a4 4 0 0 1 1.8-.1l.4.1.3.2.1.4c0 .3-.2.6-.5 1l-1 .7-1.3.7a28 28 0 0 1-9.9 2.3 3 3 0 0 1-1.8-.5c-.5-.3-.7-.9-.7-1.6Zm24.7-16.9.3-.8c0-.4.2-.6.4-.9l.6-.6c.3-.2.6-.2 1-.2s.7.1 1 .3l.8.7c.3.2.5.6.8 1.2l.8 2a118 118 0 0 1 2 6.1 69.5 69.5 0 0 0 2.8 7l.3.6a10.6 10.6 0 0 0 .8 1.2l.2.2.2-.2a21.8 21.8 0 0 0 .4-1.8 56.6 56.6 0 0 0 3.7-11.4 60 60 0 0 0 1.7-8.4c.1-.2.3-.2.4-.2a3 3 0 0 1 1.2.3l.5 1c.2.4.3 1 .3 1.6l-.1 1.5a37 37 0 0 1-1.3 5.9 82.7 82.7 0 0 1-5.3 14l-.9.8a2 2 0 0 1-1.1.2 3 3 0 0 1-.8-.1c-.3-.1-.5-.2-.7-.5a20 20 0 0 1-2.3-3.5 38.4 38.4 0 0 1-3.3-8.5l-1.1-4.2-.4-1.2v-.3l-.3-.2-.2.4a11.2 11.2 0 0 0-.5 1.6 97.2 97.2 0 0 1-1.7 5.4 724.8 724.8 0 0 0-2 6.4l-.4 1.3a123.2 123.2 0 0 1-1.2 2.7 1 1 0 0 1-.7.3c-.2 0-.4 0-.5-.2a2 2 0 0 1-.4-.4l-.4-.6v-.9l.3-1 .4-1.5 4.7-15Zm28 18.3a109 109 0 0 1 2.8-10.6 106.2 106.2 0 0 0 1.2-4.9v-1.6l-.6.1a21.6 21.6 0 0 0-4.5 1.6 264.2 264.2 0 0 1-2 .8h-.5c-.4 0-.6-.1-.9-.4-.2-.2-.3-.6-.3-1v-.6c0-.2.2-.3.3-.5l.4-.3.6-.4a34 34 0 0 1 20.1-2.6c.3 0 .5.2.7.5l.2.7v.7l-.2.5a1 1 0 0 1-.4.3 63.4 63.4 0 0 0-9.5-.1l-.1.1v.4a16.9 16.9 0 0 1-1.4 6 197.5 197.5 0 0 0-1.7 6l-.8 3a26.5 26.5 0 0 0-.7 3.6c0 .2-.2.4-.5.5a2 2 0 0 1-1 .2c-.2 0-.4 0-.6-.2l-.4-.5a2 2 0 0 1-.3-.7v-.6Zm14-.4 1.1.5a23.1 23.1 0 0 0 2.5 1l1.4.2a7.8 7.8 0 0 0 3.6-.6 9.2 9.2 0 0 0 3-2.2 18.2 18.2 0 0 0 2-2.5l.5-.9.1-.6c0-.3 0-.5-.3-.7l-.7-.6-1-.3a8.3 8.3 0 0 0-2.1-.2 176.8 176.8 0 0 1-4-.2 5 5 0 0 1-1-.5 4.2 4.2 0 0 1-1.9-2 4 4 0 0 1-.1-.5l-.1-.6a4.4 4.4 0 0 1 .2-1.4c.1-.5.4-1 .7-1.6l1.3-1.5a18 18 0 0 1 3.3-2.7 23.6 23.6 0 0 1 3.4-2 9 9 0 0 1 5.6-.4l1 .5c.3.2.6.5.7.8a2.3 2.3 0 0 1 .2 1.7l-.2.4a.7.7 0 0 1-.6.2h-.8a9.5 9.5 0 0 1-1.4-.6l-.7-.1c-.8 0-1.6 0-2.4.3a13.2 13.2 0 0 0-4.6 2.6l-1.9 1.6a3 3 0 0 0-.6.9 2 2 0 0 0-.2.8c0 .4.2.7.5 1l1.2.4a29.8 29.8 0 0 0 2.1 0h2.2c.6 0 1.2.2 1.8.4.6.3 1.2.6 1.6 1 .5.3.9.8 1.2 1.4.3.5.4 1.1.4 1.8 0 .5 0 .9-.2 1.3l-.5 1.3a11.9 11.9 0 0 1-1.7 2.5 16.2 16.2 0 0 1-4.2 3.6c-.8.4-1.7.8-2.6 1a8.8 8.8 0 0 1-4 .1 8.5 8.5 0 0 1-2.4-1l-1-.8-.7-1-.2-1v-.6l.5-.2Zm27-17.3-.6 1.7a26 26 0 0 0-2.4 6.4c-.2.7-.7 1-1.6 1-1-.1-1.5-.6-1.5-1.5 0-.8.6-2.4 1.8-5 1.3-2.5 2.3-3.7 3-3.7.9 0 1.3.4 1.3 1.1Zm7.2.4c0 .3-.2.8-.6 1.6-.9 1.8-1.7 4-2.3 6.5-.2.6-.7 1-1.6 1-1-.1-1.6-.6-1.6-1.5 0-.8.6-2.4 1.9-5 1.2-2.5 2.2-3.7 3-3.7.8 0 1.2.4 1.2 1.1Z"/>
  <path fill="none" stroke="#d96226" stroke-width="4" d="M26 349c10.1 21.2 31.1 26.4 53 27.6 30.3 1.6 61 0 91.3-.8 32.8-1 63.9 1 96 7.8 10.3 2.2 19.4 7.7 29.3 10.4 1.8.4 1.4-3.4 2.5-4.7a23 23 0 0 1 9.2-5.6c11-4.1 23.5-4 35-4.2 28.9-.7 57.7 3 86.4 5 19.4 1.4 39.1 1.3 58.6 1.5 34.4.3 70.4-1.2 101.6-17.3 10.2-5.3 23-12.8 29.1-23M235.9 60.3c13.2 2 31 2.3 44.1 0m18.2-.6h30.3m22.7-.7c17.2 1 34.4 1.9 51.6 2"/>
  <path fill="#d96226" fill-rule="nonzero" d="M270 27.8c0 .3-.3.8-.7 1.7-.9 1.8-1.7 4-2.4 6.5-.1.7-.6 1-1.5 1-1 0-1.6-.4-1.6-1.3 0-.8.6-2.4 1.9-5 1.2-2.6 2.2-4 3-4 .8 0 1.2.4 1.2 1.1Zm7.2 0-.6 1.7a34 34 0 0 0-2.4 6.5c-.2.7-.7 1-1.6 1-1 0-1.6-.4-1.6-1.3 0-.8.7-2.4 2-5 1.2-2.6 2.2-4 3-4 .8 0 1.2.4 1.2 1.1Zm12.1 9.2c-.4 0-.8.2-1.2.4-.5.1-.9.4-1.4.7a18.2 18.2 0 0 0-2.8 2.1 16.3 16.3 0 0 1-1.3 1l-.5 1a21.3 21.3 0 0 0-1.4 4.7 24 24 0 0 1-.7 3 1.3 1.3 0 0 1-.8.3h-.3c-.4 0-.7 0-1-.3-.2-.1-.3-.5-.3-1v-1.1a76 76 0 0 1 4.4-13c0-.1.2-.3.5-.4a2.1 2.1 0 0 1 1.9.1c.3.2.4.4.4.8v.2l-.1.2-.7 1.7a46.9 46.9 0 0 1 2.9-2l1.5-.7c.5-.2 1-.3 1.6-.3 1 0 1.8.3 2.4.9.5.5.8 1.4.8 2.5 0 .7 0 1.4-.3 2.3a35.4 35.4 0 0 1-2 5.7 57.5 57.5 0 0 0-1.4 4l-.4.5-.5.2-.7.1c-.4 0-.7 0-.8-.2-.2-.2-.3-.4-.3-.8 0-.3 0-.6.2-1a14.4 14.4 0 0 1 1-3.1 47.2 47.2 0 0 1 1.8-4.7l.4-1.3.1-1.2c0-.3 0-.6-.2-.8-.1-.3-.4-.4-.8-.4Zm14.6 12.5v-1.1c.2-.4.2-1 .2-1.6l-1.2 1a21.2 21.2 0 0 1-2.7 1.7 3 3 0 0 1-1.3.3 2.9 2.9 0 0 1-1.6-.5c-.6-.4-1-.9-1.3-1.3-.2-.5-.3-1-.3-1.6v-.8l.3-1a13.9 13.9 0 0 1 5.7-8.3c.6-.4 1.2-.7 1.7-.8a8.7 8.7 0 0 1 3.4 0 9 9 0 0 1 1-.2c.4 0 .7 0 .9.2.2 0 .4.2.5.3l.3.5v1.4l-.3.7-2.1 8.4a120.9 120.9 0 0 0-.5 2.7c0 .2 0 .3-.2.4l-.4.4-.6.1a4 4 0 0 1-.8 0l-.5-.2a.6.6 0 0 1-.2-.3v-.4Zm-5.4-4.8a6.7 6.7 0 0 0-.2 1.5l.1.7c.1.3.3.4.6.4.5 0 .9-.1 1.3-.3l1-.7a21 21 0 0 0 4-4.3 6.5 6.5 0 0 0 .9-2.7v-1.5l-.4-.2-1.6.3-1.5.8-1.4 1.2a12 12 0 0 0-2.8 4.8Zm18.7 6.1a2 2 0 0 1-.3 0h-.6a1.6 1.6 0 0 1-.7-.9l-.1-.5-.6-2.3a122.3 122.3 0 0 1-1.8-11.1c0-.3.1-.5.3-.8l.4-.5.6-.2c.4 0 .8.2 1 .4.3.2.5.4.6.8a22.8 22.8 0 0 1 .4 2.6 31.2 31.2 0 0 0 .6 4.2 105.3 105.3 0 0 0 .7 3.8 1055.9 1055.9 0 0 1 5.4-7.7 24.8 24.8 0 0 0 1.4-3.2l.3-.4a2 2 0 0 1 .9-.6l.6-.1c.5 0 .8 0 1 .3.2.3.3.6.3 1 0 .5-.1 1-.3 1.4-.2.5-.4 1-.8 1.5l-7.6 10.6-.4.8a3 3 0 0 1-.5.5 2 2 0 0 1-.8.4ZM329 45a123.6 123.6 0 0 1 2.5-9.1 204.7 204.7 0 0 0 1.8-7.3l.2-1.3a43.3 43.3 0 0 0 .3-.6l.3-.3.4-.1c.4 0 .6 0 .9.2.2 0 .4.2.5.4l.3.7v.8a5.5 5.5 0 0 1-.1 1.6l-1.2 4.4c-.5 1.5-1 3-1.3 4.5a14.9 14.9 0 0 1 2.9-2 9 9 0 0 1 1.6-.7 6 6 0 0 1 1.7-.2c.6 0 1 0 1.5.2s.8.4 1 .7c.4.3.6.6.7 1l.2 1.4a6.2 6.2 0 0 1-.2 1.3 11.4 11.4 0 0 1-2.9 5.4l-2 1.8a23.3 23.3 0 0 1-3.8 2l-1.4.2-1-.1-.6-.4-.2.3-.3.3a1.4 1.4 0 0 1-1 .4c-.6 0-1-.2-1.2-.5-.3-.3-.4-.7-.4-1.2a3.8 3.8 0 0 1 .1-1l.7-2.8Zm10.2-6.5c-.5 0-1 0-1.6.3l-1.8 1a22 22 0 0 0-3.2 2.4 62 62 0 0 1-1.1 3.7l-.3 1.4v.9a3.7 3.7 0 0 1 1.2-.4l.5-.2.7-.2c1.7-.7 3-1.6 4.2-2.7a8.8 8.8 0 0 0 2.5-5.3c0-.3 0-.5-.2-.7-.2-.2-.5-.2-.9-.2Zm14.3 11 .1-1.1.1-1.6-1.1 1a21.1 21.1 0 0 1-2.7 1.7 3 3 0 0 1-1.3.3l-1-.1-.7-.4c-.5-.4-1-.9-1.2-1.3-.2-.5-.4-1-.4-1.6l.1-.8.2-1a13.9 13.9 0 0 1 5.8-8.3c.6-.4 1.1-.7 1.7-.8a8.7 8.7 0 0 1 3.3 0 9 9 0 0 1 1.1-.2c.4 0 .6 0 .8.2.3 0 .4.2.6.3l.2.5.1.6-.1.8-.3.7-2 8.4a122.6 122.6 0 0 0-.4 2.4l-.1.3-.2.4-.4.4-.7.1a4 4 0 0 1-.8 0l-.4-.2a.5.5 0 0 1-.2-.3v-.4Zm-5.3-4.8a6.7 6.7 0 0 0-.2 1.5l.1.7c0 .3.3.4.6.4l1.2-.3 1.1-.7a20.7 20.7 0 0 0 4-4.3 6.5 6.5 0 0 0 .8-2.7l.1-1v-.5l-.4-.2c-.6 0-1 .1-1.6.3l-1.6.8L351 40a12 12 0 0 0-2.7 4.8Zm13.8 3.9a154.3 154.3 0 0 1 2-10.3v-.6a7.7 7.7 0 0 1 .3-1.9c.1-.4.2-.7.4-.8.1-.2.4-.2.7-.2.3 0 .5 0 .7.2.2 0 .4.2.5.4l.2.7V38a41.2 41.2 0 0 1 2-1.9l1.2-.6a3.5 3.5 0 0 1 2.4 0l.7.1.7.4.9 1 .3 1.2v.5l-.3.6-.4.3-.5.2-.7-.1a2 2 0 0 1-.6-.4l-.3-.3a6.3 6.3 0 0 1-.4-.7 1 1 0 0 0-.1-.2 1.4 1.4 0 0 0-.4 0c-.5 0-1 .2-1.5.4l-1.4 1-1.2 1.3-1 1.2a147.6 147.6 0 0 1-1.4 5.9v1.4c0 .3-.2.5-.3.8 0 .2-.3.3-.5.4l-.7.2c-.5 0-.8-.2-1-.5-.3-.3-.4-.6-.4-1l.1-.5Zm20.7-20.8-.6 1.7c-1 1.8-1.7 4-2.4 6.5-.2.7-.7 1-1.6 1-1 0-1.6-.4-1.6-1.3 0-.8.7-2.4 2-5 1.2-2.6 2.2-4 3-4 .8 0 1.2.4 1.2 1.1Zm7.2 0-.6 1.7a34 34 0 0 0-2.4 6.5c-.1.7-.7 1-1.5 1-1.1 0-1.6-.4-1.6-1.3 0-.8.6-2.4 1.9-5 1.2-2.6 2.2-4 3-4 .8 0 1.2.4 1.2 1.1Z"/>
  <path fill="none" stroke="#d96226" stroke-width="4" d="M87.5 177.7c54.1 0 107.9 10.2 162 3.5 1.5-.2-8.1-.3-13.3-.3h-27a2673.1 2673.1 0 0 0-80 1.4l5 .3 12 .1c9.4 0 18.8-.5 28.3-.6 33-.1 66-.6 99-.6h35.2-4.4l-12.6.1c-12.9.7-25.6 1-38.4 1.6-36.5 1.7-73.2 5.8-109.7 6.4-12.3.2-25 1-37.2 2.3-4.4.4-9.2 1-13.8 1.3l-7 .5c15-.4 30.5-2.3 45.4-4 10.1-1 20.8-1 30.9-1.2 6.5-.2 13-.1 19.5-.1 8.4 0 19-1.5 27.1.9 1 .3-2 .4-3.2.6l-5.6.6c-5 .4-10.1.4-15.1.4-21.3 0-42.9.6-63.7 5-3 .7-23.6 4-24.7 6.2-.8 1.9 3.8 1.9 5.9 2.2a295 295 0 0 0 51-.9c35.4-4.7 71.5-.5 107.1-2.2l-1.9-.1h-3.8L242 201c-12.3 0-24.2 2.4-36.5 2.5"/>
  <path fill="#d96226" fill-rule="nonzero" d="m223.2 125 .6-.9.9-.2c.3 0 .6 0 .8.2a1.3 1.3 0 0 1 .8.9v1.6l-.2 1-.5 3a19 19 0 0 1-.2 1 22.8 22.8 0 0 0-.2 3.2l.1.7.2.5.4.1.4-.2a7.5 7.5 0 0 0 1.2-1.2 30 30 0 0 0 4.9-8l.6-.6c.2-.2.6-.3 1.1-.3.3 0 .5 0 .8.3.3.1.5.4.6.7a17.6 17.6 0 0 1-.3 2.5 59.5 59.5 0 0 0-.2 2.6c0 .6 0 1.2.2 1.7 0 .5.3 1 .7 1.4l1.2-1.8a46.8 46.8 0 0 0 3.4-6.5v-.3l.3-1a4.8 4.8 0 0 1 1.5-1.6l.6-.3c.5 0 .8.1 1.1.4.3.2.4.5.4 1v.4l-.3.6-5.4 9.5-.4.7a96.6 96.6 0 0 1-1 1.8l-.8.6-.8.2c-.4 0-.8-.1-1.1-.4l-.8-.8a3 3 0 0 1-.6-1.1 8 8 0 0 1-.4-1.1l-.6-2.6-.3.4a51.9 51.9 0 0 0-3.6 4.3 7 7 0 0 1-1.6 1.3l-.4.3a1 1 0 0 1-.4 0 3 3 0 0 1-1.8-.4c-.4-.4-.8-.8-1-1.3a6 6 0 0 1-.6-1.8 12.2 12.2 0 0 1-.1-3.7 44.4 44.4 0 0 1 .7-5.6v-.5a13.6 13.6 0 0 1 0-.7Zm33.2 15.2c-.7 0-1.1-.2-1.4-.5-.2-.3-.4-.7-.4-1.2l.1-.8a12.5 12.5 0 0 1 .7-2.7 306 306 0 0 0 1.6-5.3v-.3l-.4-.2c-.3 0-.5 0-.8.2-.3 0-.5.2-.7.3a19.2 19.2 0 0 0-3.3 2.9c-.5.5-1 1-1.3 1.6a57.9 57.9 0 0 0-2.1 3.7l-.5 1.2-.5.6-1 .2a1 1 0 0 1-.8-.4c-.2-.2-.3-.5-.3-1 0-.2 0-.6.2-1l5.3-21 .1-.5a1.6 1.6 0 0 1 .8-.7l.6-.1a6.6 6.6 0 0 1 1 0l.4.3c.2.1.2.3.2.4v.3l-.1.5a619.2 619.2 0 0 1-3.9 14.8 23 23 0 0 1 4.2-4c.8-.4 1.6-.8 2.4-1a5 5 0 0 1 2.4-.5c.6 0 1 .2 1.3.5.3.4.5.8.5 1.3l-.1.8a21.4 21.4 0 0 1-1 2.8 150.4 150.4 0 0 0-1 3 13.6 13.6 0 0 0-.4 3.4c0 .3 0 .6-.2.9 0 .3-.2.5-.3.7l-.5.6-.8.2Zm6.9 6.4-.4-.1c-.2 0-.3-.2-.4-.3a2 2 0 0 1-.2-.5 1.6 1.6 0 0 1 .2-1.4 1.1 1.1 0 0 1 .5-.4 33 33 0 0 1 2-.5 11.5 11.5 0 0 0 2.7-1.5 22 22 0 0 0 3-3 15.4 15.4 0 0 0 2.5-5.3 106.6 106.6 0 0 1-2.5 2.5 11.5 11.5 0 0 1-1.9 1.2c-.3.2-.5.2-.8.2-.7 0-1.3-.1-1.8-.5-.6-.3-1-.8-1.4-1.6-.2-.2-.3-.4-.3-.8l-.1-1a17.3 17.3 0 0 1 .3-3.4 48 48 0 0 1 1-5v-.2c0-.2 0-.4.2-.5a1.7 1.7 0 0 1 1.3-.8h.7c.2 0 .4.2.5.3l.4.7.1.9v.5l-.5 1a105 105 0 0 0-1.2 5.7c0 .6 0 1 .3 1.4.1.3.4.5.7.5l.5-.1.7-.4a12.4 12.4 0 0 0 4-4l1.2-2.5a31.7 31.7 0 0 0 1-3.4l.4-.2.3-.1h.4c.5 0 1 0 1.3.4.3.3.4.7.4 1.2v1a33.7 33.7 0 0 1-1.1 3.6l-.8 2.2a205.5 205.5 0 0 0-1.9 5.1 16.7 16.7 0 0 1-2.5 4l-2 1.8a29.6 29.6 0 0 1-4.8 3c-.6.2-1.3.3-2 .3Zm45-20.5-1.3.3-1.3.7a18 18 0 0 0-2.8 2.2 17.1 17.1 0 0 1-1.3 1l-.5.9a21 21 0 0 0-1.4 4.8 28.2 28.2 0 0 1-.8 2.9 1.4 1.4 0 0 1-.7.4h-.3c-.4 0-.7-.1-1-.3-.2-.2-.4-.6-.4-1.1v-.5l.1-.6A81 81 0 0 1 301 124c0-.2.2-.3.5-.4a2.1 2.1 0 0 1 1.9 0c.2.2.4.5.4.8v.2l-.2.3-.7 1.6a43.7 43.7 0 0 1 3-2l1.5-.7 1.5-.2c1 0 1.9.3 2.4.8.6.6 1 1.4 1 2.6 0 .6-.2 1.4-.4 2.2a36 36 0 0 1-2 5.7 57.5 57.5 0 0 0-1.4 4l-.4.5-.5.3h-.7c-.4 0-.7 0-.8-.2-.2-.1-.3-.4-.3-.7l.1-1.1a14.4 14.4 0 0 1 1-3 44.4 44.4 0 0 1 1.9-4.8l.3-1.3.2-1.1c0-.3 0-.6-.2-.9-.2-.2-.4-.4-.8-.4Zm6.9 7a11.5 11.5 0 0 1 2-4.3 15.6 15.6 0 0 1 5.4-4.4 4 4 0 0 1 1-.2c.5-.5 1-.7 1.7-.7.9 0 1.6.2 2.2.6.5.4 1 1 1.4 1.7a19.2 19.2 0 0 1 .6 1.4 6.6 6.6 0 0 1 .2 1.8c0 .8-.1 1.7-.4 2.6l-1.1 2.5a14.3 14.3 0 0 1-4.2 4.5 7 7 0 0 1-4.3 1.3c-.8 0-1.5-.1-2.1-.3a3.8 3.8 0 0 1-2.4-2.4 6 6 0 0 1-.3-2c0-.6 0-1.3.3-2Zm2.7.2a5.2 5.2 0 0 0-.2 1.4l.1 1a2 2 0 0 0 1.2 1.2c.3.2.7.2 1.1.2.8 0 1.6-.2 2.3-.6.7-.4 1.3-1 1.9-1.5a10 10 0 0 0 2.5-6c0-.2 0-.5-.2-.7a9.7 9.7 0 0 0-.6-1.4l-.3-.6c0 .2-.2.3-.3.4l-.4.3a11.5 11.5 0 0 1-2 .4l-1.2.6-1 .9a12 12 0 0 0-3 4.4Zm16.8 1a70 70 0 0 1 1-5.6 4 4 0 0 1-1.7-.4l-.5-.5a1 1 0 0 1-.3-.6l.1-.4.2-.4c0-.2.2-.3.3-.4l.4-.2h2.2c.2 0 .3 0 .4-.2l.2-.5.4-1.6.3-1.2a29.2 29.2 0 0 0 .3-1.2v-1.4l.1-.6c0-.2.2-.4.4-.6.1-.2.4-.3.7-.3.3 0 .6 0 .8.2l.5.5.2.6a2.9 2.9 0 0 1 0 1.5l-1.1 4.4 1.5-.2 1.4-.3a31.2 31.2 0 0 0 3.3-.7h.5l.5.2.3.3.1.4-.1.7-.4.5a2 2 0 0 1-.6.4 3 3 0 0 1-.6.2 16.7 16.7 0 0 0-1.5.3 77 77 0 0 0-5.2 1.2 25.3 25.3 0 0 0-1.2 5.7v.8c0 .3.2.5.3.7l.5.4.9.2c.5 0 1-.2 1.6-.5a8 8 0 0 0 1.6-1.1l1.4-1.6a58.2 58.2 0 0 0 1.7-1.9 1 1 0 0 1 .5.1l.3.3v.4a156.5 156.5 0 0 1-2.4 4.7 8 8 0 0 1-1.4 1.3l-.8.5a4 4 0 0 1-1.3.5l-1.4.1c-.7 0-1.3 0-1.9-.3a4 4 0 0 1-1.3-1 5.2 5.2 0 0 1-1.2-3.4Zm31-.5a12.7 12.7 0 0 1 2.6-5.1 11.8 11.8 0 0 1 3-2.5 11.7 11.7 0 0 1 3-1.3 5.7 5.7 0 0 1 2.4-.2l.8.3.9-3 1.7-6.8c0-.3.2-.5.5-.7.2-.2.4-.3.7-.3h.7c.2 0 .3.1.5.3.2 0 .3.2.4.4l.1.8-3.2 12.8-.3 1.4a69 69 0 0 0-.7 7.5c0 .2 0 .5-.2.6l-.2.5a1 1 0 0 1-.5.2h-1.4a.8.8 0 0 1-.4-.3l-.1-.4v-1l-.2-.4a20.2 20.2 0 0 1-1.9 1.1 18 18 0 0 1-2.3 1.2 8.3 8.3 0 0 1-2.3.4c-.5 0-1 0-1.4-.2a3.5 3.5 0 0 1-2-2c-.3-.5-.4-1.1-.4-1.8a6.7 6.7 0 0 1 .2-1.5Zm2.8-.2-.1 1v.8l.3.7.6.5c.3.2.6.2 1 .2l.7-.1a5.5 5.5 0 0 0 1.4-.6 17.2 17.2 0 0 0 2.6-2 5.3 5.3 0 0 0 1.2-2.2 53.7 53.7 0 0 0 .8-4.4l-.2-.2-.4-.1c-.4 0-.9 0-1.4.2a9.2 9.2 0 0 0-3.2 1.6 10.7 10.7 0 0 0-2.6 2.9 5 5 0 0 0-.7 1.7Zm15.1-.6c0-.4.2-.8.4-1 .3-.4.6-.6 1-.7a13.1 13.1 0 0 1 1.4-2.3 16.3 16.3 0 0 1 2.8-2.7l1.9-1a5.8 5.8 0 0 1 3.6 0c.5 0 .9.3 1.2.5l.7 1 .2 1.2c0 .3 0 .7-.2 1-.1.6-.4 1.1-.8 1.6l-1.4 1.2-1.8.8a19.2 19.2 0 0 1-5.4 1l-.3.8v.9c0 .6.2 1 .7 1.4.5.3 1.1.5 2 .5.5 0 1 0 1.5-.2a8.5 8.5 0 0 0 2.4-1l1-.6 1.1-.6 1-.3c.2 0 .4 0 .5.2v.4a4 4 0 0 1 0 .5 2.7 2.7 0 0 1-.9 1.5 11 11 0 0 1-9.2 2.2c-.3 0-.7-.2-1-.4a3.5 3.5 0 0 1-1.7-1.8c-.2-.4-.3-1-.3-1.6 0-.5 0-1 .2-1.7-.1 0-.3 0-.4-.2l-.2-.5Zm10.1-4.3v-.3c0-.3 0-.5-.3-.7l-.8-.2c-.4 0-.9.1-1.4.4l-1.2.9a8.2 8.2 0 0 0-1.8 2.3 15.8 15.8 0 0 0 3.8-.8l1.1-.8c.3-.2.5-.5.6-.8Zm6.8 7.7h.2a27.7 27.7 0 0 1 1 .2l1.7-.1a13.8 13.8 0 0 0 3.1-1c.4-.2.6-.5.7-.7v-.3c0-.2 0-.4-.2-.6l-.7-.4-.9-.5-1.4-.5a5.7 5.7 0 0 1-1.5-1l-.7-.7a4.5 4.5 0 0 1-.5-1.9c0-.2 0-.5.3-.9l.7-1a8.8 8.8 0 0 1 2.4-1.8 17.7 17.7 0 0 1 1.8-1.1 6 6 0 0 1 1-.3l1-.1h1l1 .2c.3.2.6.3.8.6.2.2.3.5.3.9a3 3 0 0 1-.5 1.5c0 .2-.2.2-.3.2l-.7-.1a3 3 0 0 1-.4-.3l-.4-.3a.9.9 0 0 0-.5-.2c-.3 0-.5 0-.9.2a7 7 0 0 0-2 .9l-.9.6a4 4 0 0 0-.6.6 1 1 0 0 0-.2.6l.1.4.5.3.8.4a174.7 174.7 0 0 0 3.4 1.6l.6.4a1.8 1.8 0 0 1 .5 1.4v.4a6 6 0 0 1-1.1 2.5l-1.5 1.1a13.3 13.3 0 0 1-3.6 1.5l-1.7.2-.9-.1-.8-.4-.7-.6a1 1 0 0 1-.3-.6l.1-.4a1.7 1.7 0 0 1 .6-.7h.3Zm13.2-.1.6-2.1.7-2.6a438.6 438.6 0 0 0 1.9-6.2 1.7 1.7 0 0 1 1-.3h.6l.5.2.3.3.1.4v.2l-.5 1.7a873.7 873.7 0 0 1-3.3 12l-.3.2-.4.1c-.2 0-.5 0-.7-.2a1.9 1.9 0 0 1-.9-1v-.7l.4-1.9Zm4.2-16.5.3-.8c.1-.3.4-.6.7-.9a3.5 3.5 0 0 1 1.2-.4l.3.1.3.3.3.3c.3 0 .5.2.5.3l.2.6v.5l-.2.3c0 .3-.1.5-.3.6l-.7.5a3.5 3.5 0 0 1-1.4.4 1 1 0 0 1-.5 0l-.5-.6a1 1 0 0 1-.2-.4 1.4 1.4 0 0 1 0-.5v-.3Zm5.1 26.8h-.3a.9.9 0 0 1-.3-.2l-.2-.3a1 1 0 0 1-.1-.5v-.3c0-.4.2-.7.3-.9 0-.2.2-.4.4-.5l.7-.4 1.3-.3.9-.2.7-.3a9.6 9.6 0 0 0 3-4.8 52 52 0 0 0 .8-3.1 44.1 44.1 0 0 1-2.6 2l-1.4.7-1.4.2c-.3 0-.6 0-1-.2a4.4 4.4 0 0 1-1.7-1.7c-.2-.3-.4-.7-.4-1.1l.1-.9a54.2 54.2 0 0 1 1-2.8 13 13 0 0 1 2.6-3.6l1.6-1.5c.7-.5 1.4-1 2.1-1.2a6.6 6.6 0 0 1 3.3-.4l.8.2.8.5.6.8.1.2v1a73.7 73.7 0 0 1-3.2 13.5l-1.4 2.4a8.5 8.5 0 0 1-4.2 3.3c-.8.4-1.8.5-3 .5Zm1.6-13.2a7.7 7.7 0 0 0-.2.8c0 .2 0 .4.2.6 0 .2.2.2.4.2.4 0 .8 0 1.3-.3a13.6 13.6 0 0 0 3.8-3.5 37.2 37.2 0 0 0 1.4-2.7l.2-1v-.4l-.3-.7h-.1a2 2 0 0 0-.9.3l-1 .6a13.6 13.6 0 0 0-2.2 2 20.6 20.6 0 0 0-1.6 1.8l-.6 1-.4 1.3Zm24.4-7.3-1.1.3-1.4.7a18 18 0 0 0-2.8 2.2 16.4 16.4 0 0 1-1.3 1l-.5.9a20.4 20.4 0 0 0-1.3 4.1l-.1.7a28 28 0 0 1-.5 2.4c0 .2-.1.3-.3.5l-.3.2-.4.2h-.3c-.4 0-.7-.1-1-.3-.2-.2-.4-.6-.4-1.1v-.5l.2-.6a78.6 78.6 0 0 1 4.3-12.9c0-.2.2-.3.5-.4a2.1 2.1 0 0 1 1.9 0c.2.2.4.5.4.8v.2l-.2.3-.7 1.6a44.8 44.8 0 0 1 3-2l1.5-.7 1.5-.2c1 0 1.9.3 2.4.8.6.6 1 1.4 1 2.6 0 .6-.2 1.4-.4 2.2a36.4 36.4 0 0 1-2 5.7 57.5 57.5 0 0 0-1.4 4l-.4.5-.5.3h-.7c-.4 0-.7 0-.8-.2-.2-.1-.3-.4-.3-.7 0-.3 0-.7.2-1.1l.3-1.4a37.4 37.4 0 0 1 2-5 25.8 25.8 0 0 0 .8-2.7l.2-1.1c0-.3 0-.6-.2-.9-.2-.2-.4-.4-.8-.4Zm6.6 6.9c0-.4.1-.8.4-1 .2-.4.5-.6 1-.7a13.4 13.4 0 0 1 1.4-2.3 16.1 16.1 0 0 1 2.8-2.7l1.8-1a5.8 5.8 0 0 1 3.7 0c.5 0 .9.3 1.2.5.3.3.5.6.6 1l.3 1.2c0 .3 0 .7-.2 1-.1.6-.4 1.1-.8 1.6l-1.5 1.2a19.2 19.2 0 0 1-7.2 2l-.2.6-.1.9c0 .6.3 1 .7 1.4a4 4 0 0 0 2 .5c.6 0 1 0 1.5-.2a8.5 8.5 0 0 0 2.5-1l1-.6 1.1-.6 1-.3c.2 0 .4 0 .4.2l.2.4a3.3 3.3 0 0 1 0 .5 2.7 2.7 0 0 1-1 1.5 11 11 0 0 1-9.2 2.2c-.4 0-.7-.2-1.1-.4a3.5 3.5 0 0 1-1.7-1.8l-.2-1.6c0-.5 0-1 .2-1.7-.2 0-.3 0-.4-.2l-.2-.5Zm10-4.3.1-.2v-.1a1 1 0 0 0-.3-.7l-.8-.2a3 3 0 0 0-1.4.4 5 5 0 0 0-1.3.9 8.2 8.2 0 0 0-1.8 2.3 15.8 15.8 0 0 0 3.8-.8l1.2-.8c.3-.2.5-.5.6-.8Zm6.8 8.9a154.3 154.3 0 0 1 2.1-10.3v-.5a7.7 7.7 0 0 1 .2-2l.4-.8.7-.2c.3 0 .6 0 .8.2l.4.5.2.7v1.8a39.3 39.3 0 0 1 2-2l1.3-.6a3.5 3.5 0 0 1 2.4 0c.2 0 .4 0 .6.2.3 0 .5.2.7.4.4.2.7.6.9 1 .2.4.4.8.4 1.2l-.1.5-.3.5-.4.4-.5.1-.7-.1a2 2 0 0 1-.6-.4l-.2-.2a6.9 6.9 0 0 1-.5-.7 1 1 0 0 0-.1-.2 2 2 0 0 0-.4 0c-.5 0-1 .1-1.5.4l-1.4 1-1.2 1.3-1 1.2a147.2 147.2 0 0 1-1.4 5.8v1.4l-.2.9-.5.4-.8.1c-.5 0-.8-.1-1-.4-.2-.3-.4-.6-.4-1l.1-.6Zm20.6-5.2c-.3 0-.5-.1-.6-.3l-.5-.7-.2-1-.1-.9c0-.4 0-.8.2-1.1.2-.3.5-.6.9-.8l.5-.3 1.8-1.1 1-.7 1.7-1a26 26 0 0 0 2.1-1.7l1-1.1.3-1.2v-.6a2 2 0 0 0-.3-.5l-.4-.3a.8.8 0 0 0-.5-.2l-2.2.3a15.3 15.3 0 0 0-4.5 1.6l-2 1.2-.3.2a4 4 0 0 1-1.4.6h-.4a2 2 0 0 1-.5-.3c-.2 0-.3-.2-.4-.3a.9.9 0 0 1-.2-.6l.3-.6.7-.7a10.6 10.6 0 0 1 2-1.3 22 22 0 0 1 5.2-2c1.1-.3 2.3-.5 3.5-.5.5 0 1 .2 1.6.4a5.2 5.2 0 0 1 2.4 2.3c.2.6.4 1.1.4 1.7 0 .4-.1.9-.3 1.3-.3.5-.5.9-.9 1.3l-1.2 1.2a23.6 23.6 0 0 1-3.8 2.8 27.9 27.9 0 0 1-2.2 1.4l-.8.6-.5.5v.6a28.7 28.7 0 0 0-.2 1.3c-.1.2-.2.3-.4.3l-.9.2Zm1.3 4.7c0 .4 0 .7-.2 1a2.9 2.9 0 0 1-1.5 1.5l-1.1.2a2 2 0 0 1-1.4-.6 2 2 0 0 1-.6-1.4c0-.3 0-.7.2-1a3.1 3.1 0 0 1 1.6-1.5l1-.3a1.9 1.9 0 0 1 1.4.6l.5.7.1.8Zm28.8 3.6-.7-.1-.5-.5a2 2 0 0 1-.5-1.3v-.6l.3-.8.1-.6a22.1 22.1 0 0 0 .6-3.2 18.5 18.5 0 0 0 .2-2.1 189.9 189.9 0 0 1-1.7-.9c-.2-.1-.3-.4-.3-.7 0-.3 0-.6.2-.8.1-.3.3-.5.5-.6l.8-.2h1l.3-.4.2-.5.4-1.6a26.7 26.7 0 0 1 2-5 17.6 17.6 0 0 1 3.3-3.3c.6-.4 1.3-.8 2-1a7 7 0 0 1 2.2-.4c1 0 1.8.2 2.4.5.6.3 1 .8 1.4 1.5l.2.4v1.3l-.4.6-.5.5-.6.1-.6-.1-.4-.5-.3-.5-.2-.6c0-.2-.1-.3-.3-.4 0-.1-.2-.2-.5-.2a3.8 3.8 0 0 0-1.5.3l-1.8 1.2-1.5 1.6c-.5.6-1 1.4-1.3 2.4a23.1 23.1 0 0 0-1.2 3.6h1.1l1.7-.3a7.5 7.5 0 0 1 1.6 0l.6.1.3.3.2.5a2.4 2.4 0 0 1-.2 1l-.4.5-.4.3-1 .1a113.7 113.7 0 0 0-4.1.7 18.7 18.7 0 0 0-.7 4.3 98.9 98.9 0 0 1-.9 4.7l-.2.3-.4.3a1 1 0 0 1-.5.1ZM536 125a1.4 1.4 0 0 1 .4-.7l.2-.2h.6a16.8 16.8 0 0 0 1 .2c.3 0 .5.1.6.3l.2.8-.1.7a126.8 126.8 0 0 1-2.3 7.6l-.1 1a3.6 3.6 0 0 0 .3 1.6l.5.5c.1.2.4.3.6.3.5 0 1-.1 1.4-.4l1.3-1a10.3 10.3 0 0 0 2-2.5l.4-.7.7-1.6a21.4 21.4 0 0 0 1.3-4.6l.4-2.1c0-.4.2-.7.4-.9l.9-.2h.7a1.2 1.2 0 0 1 .9 1l.1 1c0 .4 0 1-.2 1.6a54.7 54.7 0 0 1-1 4.6 21.4 21.4 0 0 0-.3 2.4v1.6a24.8 24.8 0 0 1 0 3l-.5.8c-.2.3-.5.4-1 .4-.2 0-.5 0-.7-.2a1 1 0 0 1-.4-.2.9.9 0 0 1-.2-.4v-.5l-.2-3h-.2a90.3 90.3 0 0 0-2.5 3.1c-.5.5-1 .9-1.7 1.2a4 4 0 0 1-2 .5h-.4a6 6 0 0 1-2-1c-.5-.6-1-1.2-1.2-2a6 6 0 0 1-.2-3.2 17 17 0 0 1 .7-3l.6-2.1.7-2.8.2-.9Zm20.1-6.5a31.3 31.3 0 0 1 .4-2.3l.5-1c.2-.2.5-.3.8-.3l.5.1.6.3c.2 0 .4.2.5.4l.2.5v.3l-.1.3-4 16a29 29 0 0 0-.7 3.3v1.4l-.3 1a2 2 0 0 1-.5.9 1 1 0 0 1-.8.3c-.3 0-.5 0-.8-.2l-.5-.4a2.2 2.2 0 0 1-.4-1.2v-.7a16.6 16.6 0 0 1 .5-2.3l4.1-16.4Zm8.3 0a31.3 31.3 0 0 1 .4-2.3l.5-1c.2-.2.5-.3.8-.3l.5.1.6.3c.2 0 .4.2.5.4l.2.5v.3l-.1.3-4 16a29 29 0 0 0-.7 3.3v1.4l-.3 1a2 2 0 0 1-.5.9 1 1 0 0 1-.8.3c-.3 0-.5 0-.8-.2l-.5-.4a2.2 2.2 0 0 1-.4-1.2v-.7a18 18 0 0 1 .5-2.3l4.1-16.4Zm3.9 17.9h.3a27.7 27.7 0 0 1 1 .2l1.6-.1a13.8 13.8 0 0 0 3.1-1c.4-.2.7-.5.7-.7v-.3c0-.2 0-.4-.2-.6l-.7-.4-.8-.5-1.5-.5a5.7 5.7 0 0 1-1.5-1c-.2-.2-.5-.4-.6-.7a4.5 4.5 0 0 1-.5-1.9c0-.2 0-.5.2-.9l.8-1a8.8 8.8 0 0 1 2.3-1.8 17.3 17.3 0 0 1 1.8-1.1 6 6 0 0 1 1-.3l1-.1h1l1 .2c.4.2.6.3.8.6.2.2.4.5.4.9a3 3 0 0 1-.5 1.5c-.1.2-.3.2-.4.2l-.6-.1a3 3 0 0 1-.5-.3l-.4-.3a.9.9 0 0 0-.5-.2c-.2 0-.5 0-.8.2a7 7 0 0 0-2 .9l-1 .6a4 4 0 0 0-.6.6 1 1 0 0 0-.2.6c0 .2 0 .3.2.4l.4.3.8.4a145.2 145.2 0 0 0 3.4 1.6l.6.4a1.8 1.8 0 0 1 .5 1.4v.4a6 6 0 0 1-1 2.5l-1.6 1.1a13.3 13.3 0 0 1-3.6 1.5l-1.7.2-.8-.1-.9-.4-.7-.6a1 1 0 0 1-.2-.6v-.4a1.7 1.7 0 0 1 .6-.7h.3Zm15.6-2.1c0-1 0-1.8.3-2.8l.6-2.8a4 4 0 0 1-1.6-.4c-.3-.1-.4-.3-.6-.5a1 1 0 0 1-.2-.6v-.4l.2-.4.3-.4.5-.2h2.1c.2 0 .4 0 .4-.2l.2-.5.4-1.6.3-1.2a33.9 33.9 0 0 0 .3-1.2v-1.4c0-.2 0-.4.2-.6l.3-.6c.2-.2.4-.3.8-.3.2 0 .5 0 .7.2l.5.5.3.6a2.9 2.9 0 0 1 0 1.5l-1.2 4.4 1.6-.2 1.3-.3a31.2 31.2 0 0 0 3.3-.7h.5l.5.2c.1 0 .3.1.3.3l.2.4c0 .3 0 .5-.2.7 0 .2-.2.4-.4.5a2 2 0 0 1-.5.4 3 3 0 0 1-.6.2 16.7 16.7 0 0 0-1.6.3 77 77 0 0 0-5.2 1.2 25.3 25.3 0 0 0-1.2 5.7v.8l.4.7c0 .2.3.3.5.4l.8.2c.6 0 1.1-.2 1.7-.5a8 8 0 0 0 1.5-1.1l1.5-1.6a58.2 58.2 0 0 0 1.7-1.9 1 1 0 0 1 .5.1l.2.3v.4c0 .7-.4 1.4-.7 2a156.5 156.5 0 0 1-1.6 2.7 7.8 7.8 0 0 1-1.5 1.3l-.7.5a4 4 0 0 1-1.4.5l-1.4.1c-.7 0-1.3 0-1.8-.3a4 4 0 0 1-1.4-1 5.8 5.8 0 0 1-1.1-3.4Zm22.9 4.3v-1.2c.2-.4.2-1 .2-1.6l-1.2 1a20.1 20.1 0 0 1-2.7 1.8 3 3 0 0 1-1.3.3 2.9 2.9 0 0 1-1.6-.5l-1.3-1.4c-.2-.4-.3-1-.3-1.5v-.9l.3-1a13.9 13.9 0 0 1 5.7-8.3c.6-.4 1.2-.6 1.7-.8a8.7 8.7 0 0 1 3.4 0 7.7 7.7 0 0 1 1-.1l.9.1c.2 0 .4.2.5.3l.3.5v1.4l-.3.8-2.1 8.4a163.3 163.3 0 0 0-.3 2.3l-.2.4c0 .1 0 .3-.2.4l-.4.3-.6.2a4 4 0 0 1-.8 0l-.5-.3a.5.5 0 0 1-.2-.3v-.3Zm-5.4-4.9a6.3 6.3 0 0 0-.2 1.5l.1.8c.1.2.3.3.6.3.5 0 .9 0 1.3-.3l1-.7a20.6 20.6 0 0 0 4-4.3 6.5 6.5 0 0 0 .9-2.6v-1.5c0-.2-.2-.2-.4-.2-.5 0-1 0-1.6.3-.5.2-1 .4-1.5.8a11.9 11.9 0 0 0-4.2 6Zm13.6-.7a15.2 15.2 0 0 1 2.3-5.2 15 15 0 0 1 2-2.3 10 10 0 0 1 2.3-1.7c.3-.2.6-.3 1-.3a4.6 4.6 0 0 1 2 0c.3 0 .5.1.7.3.3.1.4.3.6.5l.2.9c0 .2 0 .5-.2.8 0 .2-.1.5-.3.7l-.6.5-.7.2c-.3 0-.5 0-.7-.2a5.2 5.2 0 0 1-.8-.4l-.3-.2-1.3.8a8.5 8.5 0 0 0-2 2.3 16.3 16.3 0 0 0-1.6 3.7 8.6 8.6 0 0 0-.3 1.9v.6l.3.5.4.3.6.1h1a7.8 7.8 0 0 0 2.2-1 33.1 33.1 0 0 0 2.7-1.6l.4-.1.4.1c.2 0 .2.2.2.4v.5a4 4 0 0 1-.7 1 5.6 5.6 0 0 1-1.8 1.7 18.6 18.6 0 0 1-3.1 1.3 7 7 0 0 1-1.7.3 3.5 3.5 0 0 1-1.1-.2 4 4 0 0 1-1.9-1.5 4 4 0 0 1-.6-2.2 8.2 8.2 0 0 1 .4-2.5Zm20.7-1.5a2 2 0 0 0-.8.2 7.7 7.7 0 0 0-1.5.8 7 7 0 0 1-.7.3l-1.5 5.8c0 .2-.1.4-.4.5l-.5.1c-.6 0-1 0-1.2-.3-.2-.2-.3-.5-.3-.9v-.5l.1-.5v-.3a33.6 33.6 0 0 1 1-4l.5-1.3c0-.4.3-1 .5-1.8a2254.4 2254.4 0 0 0 3.7-13.2l.4-.3.8-.2.6.1.5.2.4.4.2.5-.1.5a238.4 238.4 0 0 0-3.6 11.8 16 16 0 0 0 2-1.4 48.7 48.7 0 0 0 4.3-4l.4-.4.6-.6c.3-.2.5-.3.8-.3a1.8 1.8 0 0 1 1.1.4l.3.4.1.4v.5a4 4 0 0 1-1 1.4 42.5 42.5 0 0 1-4.5 3.6 4 4 0 0 1 1.7 1.5l1 2 .5 2.4a21.7 21.7 0 0 1 0 3.2l-.1.5a1.3 1.3 0 0 1-.8.7 2 2 0 0 1-1.2 0l-.5-.4-.2-.5v-.5a29.5 29.5 0 0 0-.3-3.3l-.4-1.5a4.2 4.2 0 0 0-1.2-1.8 1 1 0 0 0-.6-.2h-.1Zm15.9.9-.6-.3-.4-.7-.3-1v-.9c0-.4 0-.8.2-1.1.1-.3.4-.6.8-.8l.5-.3 1.9-1.1 1-.7 1.6-1a26 26 0 0 0 2.2-1.7l1-1.1.3-1.2-.1-.6a2 2 0 0 0-.3-.5c-.1-.1-.2-.3-.4-.3a.8.8 0 0 0-.4-.2 15.2 15.2 0 0 0-6.7 1.9l-2.1 1.2-.3.2a4 4 0 0 1-1.4.6h-.4a2 2 0 0 1-.5-.3l-.4-.3a.8.8 0 0 1-.1-.6c0-.2 0-.4.2-.6l.7-.7a10.5 10.5 0 0 1 2-1.3 22 22 0 0 1 5.2-2c1.2-.3 2.4-.5 3.6-.5.5 0 1 .2 1.5.4a5.2 5.2 0 0 1 2.4 2.3c.3.6.4 1.1.4 1.7 0 .4 0 .9-.3 1.3l-.8 1.3-1.2 1.2a24.4 24.4 0 0 1-3.9 2.8 28.7 28.7 0 0 1-2.1 1.4l-.9.6-.4.5-.1.6a21 21 0 0 0-.2 1.3c0 .2-.2.3-.4.3l-.8.2Zm1.4 4.7c0 .4-.1.7-.3 1a2.9 2.9 0 0 1-1.5 1.5l-1 .2a2 2 0 0 1-1.5-.6 2 2 0 0 1-.6-1.4c0-.3.1-.7.3-1a3.1 3.1 0 0 1 1.6-1.5 1.9 1.9 0 0 1 2.4.4c.2.1.3.3.4.6l.2.8Z"/>
  <path fill="none" stroke="#d96226" stroke-width="4" d="M168 165.8c1-6.3 3-11.9 5.9-17.7 1-1.8 1.5-4 2.6-5.8a28 28 0 0 1 10.8-10c4.3-2.3 9.6-1.6 14.3-1.6 1.7 0 3.3.3 5 .4l1.6.1.9.2c-.3.5-3.2 1-3.8 1.3-3 1-5.3 3.3-8.1 4.6-.4.1.7-.5 1-.7l2.5-1.2c2-1 3.6-2.5 5.5-3.7.2-.1 3-1 3-1.2-.3-1.4-5.3-2.2-6.2-2.4-6.2-1.6-12.7-3-19.1-3.2"/>
  <path fill="#d96226" fill-rule="nonzero" d="M251.5 260.1a.8.8 0 0 1-.5-.4l-.2-.8v-1l.3-.9.6-1c.2-.2.6-.4 1.1-.5l.5-.1 2.2-.5 1.2-.2 1.8-.4a25.4 25.4 0 0 0 2.6-1c.5-.1.9-.4 1.2-.7.4-.3.7-.6.8-1v-1.1c0-.2-.2-.4-.3-.5a.8.8 0 0 0-.3-.3l-2.2-.5a15.2 15.2 0 0 0-4.8 0l-2.4.6h-.3a4.1 4.1 0 0 1-1.5.2l-.4-.2a2 2 0 0 1-.3-.4l-.3-.5v-.5c0-.2.2-.4.5-.5l.8-.5a10.8 10.8 0 0 1 2.3-.5 20.4 20.4 0 0 1 9.2.5l1.3.8a5.2 5.2 0 0 1 1.5 3c0 .6 0 1.2-.2 1.7a3 3 0 0 1-.7 1.2l-1.2 1-1.5.7a23.7 23.7 0 0 1-4.6 1.4 28.2 28.2 0 0 1-2.5.5l-1 .3-.6.4-.3.5a22.9 22.9 0 0 0-.6 1.2l-.4.2c-.2 0-.5 0-.8-.2Zm-.3 5-.6.9a2.9 2.9 0 0 1-1.9.8l-1-.1a2 2 0 0 1-1.2-1 2 2 0 0 1 0-1.5c0-.4.2-.7.5-1a3.2 3.2 0 0 1 2-.9c.3 0 .7 0 1 .2a1.9 1.9 0 0 1 1.1 1l.2.7-.1.9Zm251.5 259.3c-.6 0-1-.3-1.3-.6a2 2 0 0 1-.4-1.2v-.9a11.3 11.3 0 0 1 .8-2.5 290.2 290.2 0 0 0 1.6-5l-.1-.5-.4-.1h-.7l-.7.2a15.3 15.3 0 0 0-3.4 2.3l-1.3 1.5a46 46 0 0 0-2 3.3l-.6 1c-.1.4-.3.5-.5.7h-.9a1 1 0 0 1-.9-.5l-.2-1 .1-1 5.3-20.3.2-.4.3-.3.4-.3h.7a6.8 6.8 0 0 1 1 .3c.2 0 .3.2.4.3l.2.4v.3l-.2.4a549.4 549.4 0 0 1-3.8 14.2 18 18 0 0 1 4.2-3.2 9 9 0 0 1 2.3-.8h2.5c.5.1 1 .3 1.3.7.3.4.4.9.4 1.4v.7a18.7 18.7 0 0 1-1 2.8 121.4 121.4 0 0 0-1 2.8 12.4 12.4 0 0 0-.5 3.3l-.1.8c0 .3-.2.5-.3.7l-.6.5c-.2 0-.5.1-.8 0Zm6.8-5.9c0-.5.1-.9.4-1.1.2-.3.6-.5 1-.5a10.8 10.8 0 0 1 1.4-2l1.3-1.2a8.4 8.4 0 0 1 3.3-1.7c.7-.2 1.4-.2 2.1 0 .6 0 1.2.2 1.6.4.5.2.9.5 1.2.8a3.4 3.4 0 0 1 .8 3.3 3 3 0 0 1-1 1.4c-.3.4-.8.7-1.4 1a8 8 0 0 1-1.8.5 17.2 17.2 0 0 1-5.3.3l-.3.6v.9c0 .6.2 1.1.7 1.5a4 4 0 0 0 2 .9 6 6 0 0 0 2.8-.2 9.5 9.5 0 0 0 2.1-.8l1.1-.5a2 2 0 0 1 1-.1c.2 0 .4.1.5.3v.4a3.9 3.9 0 0 1 0 .5 2.3 2.3 0 0 1-.9 1.4 9.2 9.2 0 0 1-3.4 1.3 12 12 0 0 1-5.8-.6l-1-.6a4.4 4.4 0 0 1-1.7-2.1c-.2-.5-.3-1-.3-1.6 0-.5 0-1 .2-1.7a.9.9 0 0 1-.4-.3.8.8 0 0 1-.2-.5Zm10-2.8.1-.2v-.1c0-.3 0-.5-.3-.7-.2-.2-.5-.3-.8-.3h-1.4l-1.3.8a6.5 6.5 0 0 0-1.7 2h2c.7 0 1.3 0 1.8-.2l1.1-.5c.3-.3.5-.5.6-.8Zm17.6 14.3c-.7-.1-1.1-.3-1.4-.7a2 2 0 0 1-.3-1.2v-.8l.3-1a24.4 24.4 0 0 1 1-3.2 96.3 96.3 0 0 0 1-3.4v-.4l-.4-.2h-.7l-.7.2a15.2 15.2 0 0 0-3.4 2.4l-1.3 1.4a44.9 44.9 0 0 0-2 3.3l-.6 1.1a1 1 0 0 1-.5.6h-.9a1 1 0 0 1-.9-.5c-.2-.2-.3-.6-.3-1 0-.3 0-.6.2-1l5.3-20.2c0-.1 0-.3.2-.4l.3-.4.4-.2h.6a6.8 6.8 0 0 1 1 .2l.5.3.1.5v.2l-.1.5a549.4 549.4 0 0 1-3.9 14.2 18.2 18.2 0 0 1 4.3-3.3 9 9 0 0 1 2.3-.7c.8-.2 1.6-.2 2.5 0 .5 0 1 .3 1.2.7.3.4.5.8.5 1.4l-.1.7a18.8 18.8 0 0 1-1 2.7 128.8 128.8 0 0 0-1 2.8 12.6 12.6 0 0 0-.4 3.3l-.1.9-.4.7-.5.4-.8.1Zm30.1-18.4-.6 1.5c-1 1.7-1.7 3.7-2.4 6.2-.2.7-.7 1-1.6.8-1-.2-1.6-.7-1.6-1.7 0-.7.7-2.3 2-4.7 1.2-2.3 2.2-3.5 3-3.4.8.2 1.2.6 1.2 1.3Zm7.2 1.1c0 .3-.2.8-.6 1.6a29 29 0 0 0-2.4 6.2c-.1.6-.7.9-1.5.7-1.1-.1-1.6-.7-1.6-1.6 0-.7.6-2.3 1.8-4.7 1.3-2.4 2.3-3.5 3-3.4.9.1 1.3.6 1.3 1.2Zm3.7 24.5a1.8 1.8 0 0 1-1.2-.8 2.4 2.4 0 0 1-.5-1.4v-.6l.3-.7a225 225 0 0 1 .7-3.7 17.3 17.3 0 0 0 .2-2.1c0-.2-.2-.3-.4-.4a73 73 0 0 1-1.3-.7c-.2-.2-.3-.5-.3-.8 0-.3 0-.6.2-.8.1-.3.3-.4.5-.5h1.8c.1 0 .3 0 .3-.2l.2-.5.4-1.6a23.7 23.7 0 0 1 2-4.7l1.6-1.5c.5-.5 1.1-1 1.7-1.2a6.6 6.6 0 0 1 4.2-.7c1 .2 1.8.4 2.4.9.6.4 1 1 1.5 1.6l.1.5a2.4 2.4 0 0 1 0 1.3l-.4.6c-.1.1-.3.3-.5.3a1 1 0 0 1-.5.1c-.3 0-.6-.1-.7-.3l-.4-.5-.3-.6-.1-.6-.3-.5a.8.8 0 0 0-.5-.2h-1.5l-1.9 1a6 6 0 0 0-1.5 1.3c-.5.6-1 1.3-1.3 2.2a20 20 0 0 0-1.2 3.4h.1l1 .1h1.7a7.5 7.5 0 0 1 1.6.3l.6.2.4.4.1.5a2.3 2.3 0 0 1-.2 1l-.3.4-.5.2h-1a137.6 137.6 0 0 0-4.1 0 17.2 17.2 0 0 0-.7 4.2 93.8 93.8 0 0 1-.8 4.5l-.3.3-.4.3a1 1 0 0 1-.5 0Zm12.9-13.6.1-.4a1 1 0 0 1 .5-.4h.6a18.5 18.5 0 0 0 1 .4c.3 0 .5.2.6.4l.2.8-.1.7a112.7 112.7 0 0 1-2.3 7.3 4 4 0 0 0-.1 1 3.8 3.8 0 0 0 .3 1.5l.5.7.6.4c.5 0 1 0 1.4-.2a6 6 0 0 0 1.3-.8 13 13 0 0 0 2-2.2l.4-.7.7-1.4a18.4 18.4 0 0 0 1-3.2l.3-1.2.4-2c.1-.5.2-.7.4-.8.2-.2.5-.2.9-.1.3 0 .5 0 .7.2a1.5 1.5 0 0 1 1 1v1c0 .5 0 1-.2 1.7a50.6 50.6 0 0 1-1 4.4 20.9 20.9 0 0 0-.3 2.3v1.6a25.1 25.1 0 0 1 0 3l-.5.8c-.1.2-.5.2-1 .1-.2 0-.5 0-.6-.2-.2 0-.4-.2-.5-.3a1 1 0 0 1-.2-.5v-.4l-.2-3h-.2a69.5 69.5 0 0 0-2.5 2.6l-1.6 1c-.6.2-1.3.2-2 .1-.1 0-.3 0-.5-.2a7.2 7.2 0 0 1-1.9-1.3c-.6-.6-1-1.3-1.3-2a6.6 6.6 0 0 1-.2-3.3 15.4 15.4 0 0 1 .7-3l.6-2 .7-2.6.2-.8Zm20.2-3.3a31.8 31.8 0 0 1 .4-2.3c0-.3.2-.6.4-.8.2-.2.5-.3.8-.2.2 0 .4 0 .6.2l.6.3.4.5c.2.2.2.4.2.6v.3l-.1.3-4 15.3a26 26 0 0 0-.7 3.2v1.4c0 .4-.2.7-.3 1 0 .3-.3.6-.5.7-.2.2-.4.3-.8.2a1 1 0 0 1-.7-.3l-.6-.5a2.5 2.5 0 0 1-.4-1.3v-.6a15.5 15.5 0 0 1 .5-2.3l4.2-15.7Zm8.3 1.4a29.8 29.8 0 0 1 .3-2.3l.5-.8c.2-.2.5-.3.8-.3l.6.2.6.4.4.5c.2.1.2.3.2.5v.3l-.1.3-4 15.4a26 26 0 0 0-.7 3.1v1.4c0 .4-.2.7-.3 1-.1.4-.3.6-.5.8-.2.2-.4.2-.8.2-.3 0-.5-.2-.7-.3l-.6-.6a2.4 2.4 0 0 1-.4-1.3v-.6a16.8 16.8 0 0 1 .5-2.2l4.2-15.7Zm3.9 18.5h.2l.2.2.3.1.4.1 1.7.1a12.6 12.6 0 0 0 3.2-.5c.4-.1.6-.3.6-.6v-.3c0-.2 0-.3-.2-.5l-.6-.6-1-.6-1.3-.8a7 7 0 0 1-1.6-1.2l-.6-.8-.4-1a5 5 0 0 1-.1-1c0-.2 0-.5.2-.8l.8-1a7 7 0 0 1 2.3-1.4 13.7 13.7 0 0 1 1.9-.8 5.2 5.2 0 0 1 2 0c.2 0 .6 0 1 .2l1 .3.8.7c.2.3.3.6.3 1a2.8 2.8 0 0 1-.2 1l-.3.4-.4.2-.6-.3-.4-.4a6 6 0 0 0-.4-.3 1 1 0 0 0-.6-.3h-.8a6.2 6.2 0 0 0-2 .6l-1 .5a3 3 0 0 0-.5.5l-.3.5c0 .2 0 .4.2.5l.4.4a10.9 10.9 0 0 0 1.8 1 67.3 67.3 0 0 1 3 2.2l.4.6.1.8v.4a5.5 5.5 0 0 1-.8 2 1 1 0 0 1-.3.4 7 7 0 0 1-1.4.8 11.2 11.2 0 0 1-5.4.9l-.8-.3-.9-.6-.6-.6-.3-.7.1-.4a1.4 1.4 0 0 1 .6-.5l.3-.1Zm15.5.4a62.9 62.9 0 0 1 1-5.4 4.5 4.5 0 0 1-1.7-.7l-.6-.6-.2-.7v-.3l.3-.4c0-.2.1-.3.3-.4h.4l2.2.3c.2 0 .3 0 .4-.2l.1-.5.4-1.5.4-1.1a35.2 35.2 0 0 0 .2-1.2v-1.4c0-.2 0-.4.2-.6 0-.2.2-.4.3-.5.2-.2.4-.2.8-.2.3 0 .5.2.7.3l.5.6.3.7a3 3 0 0 1 0 1.4l-1.1 4.3h2.8a30.5 30.5 0 0 0 3.3-.2l.6.1.4.2.4.4v.4a1.3 1.3 0 0 1-.5 1.1c-.1.2-.3.2-.5.3l-.6.1h-.7l-.9.1a87.2 87.2 0 0 0-5.2.3 22.3 22.3 0 0 0-1.2 5.5l.1.9.3.7.5.5c.2.2.5.3.8.3a3 3 0 0 0 1.7-.2l1.6-.9 1.4-1.3 1.2-1.4c.1-.2.3-.3.5-.2a1.1 1.1 0 0 1 .7.4l.1.3v.2c-.2.7-.4 1.3-.8 1.9a124.7 124.7 0 0 1-1.6 2.4 6.3 6.3 0 0 1-1.5 1l-.7.4a3 3 0 0 1-1.3.3h-1.4a5 5 0 0 1-4.1-3.6c-.2-.6-.3-1.3-.3-2Zm22.9 7.9.1-1 .1-1.6-1.2.7a16.5 16.5 0 0 1-2.7 1.4 2.7 2.7 0 0 1-2.2-.2 3 3 0 0 1-.7-.5 6 6 0 0 1-1.2-1.6c-.3-.4-.4-1-.4-1.6v-.8l.3-1a11.6 11.6 0 0 1 5.8-7.4c.5-.3 1.1-.4 1.7-.4a8.7 8.7 0 0 1 3.3.5 8 8 0 0 1 1.1 0c.3 0 .6.2.8.3.2 0 .4.2.5.4l.3.5.1.6-.1.8-.3.7-2.1 8.1a116.8 116.8 0 0 0-.3 2.3l-.1.3c0 .2-.2.3-.3.4l-.4.3h-.6l-.8-.2-.5-.2a.7.7 0 0 1-.2-.4v-.4Zm-5.3-5.6a5.8 5.8 0 0 0-.3 1.4c0 .3 0 .5.2.8 0 .2.2.4.5.4h1.3a5 5 0 0 0 1.1-.6 16.4 16.4 0 0 0 2.8-2.3c.4-.4.8-.9 1-1.4a5.4 5.4 0 0 0 1-2.5l.1-1-.1-.5-.4-.2c-.5-.1-1-.1-1.6 0a6 6 0 0 0-1.5.6 9.4 9.4 0 0 0-4.2 5.3Zm13.5 1.4a13.1 13.1 0 0 1 4.3-6.8 8 8 0 0 1 2.4-1.3l.9-.2h1l1 .3.8.4.5.7.2.9-.1.8-.4.6-.5.4c-.3.1-.5.1-.8 0-.3 0-.5 0-.7-.2a6.3 6.3 0 0 1-.8-.5l-.3-.2c-.4 0-.9.3-1.2.5a6.7 6.7 0 0 0-2 2 13.3 13.3 0 0 0-1.7 3.5 7.6 7.6 0 0 0-.3 1.7v.7l.3.5c0 .2.2.3.4.4l.6.2h1a7 7 0 0 0 2.2-.5 30.2 30.2 0 0 0 2.7-1.2h.4c.2 0 .3 0 .5.2l.2.4-.1.5-.6 1-.9.7c-.3.3-.7.4-1 .6a15.7 15.7 0 0 1-3.1.8 7 7 0 0 1-1.7 0 3.9 3.9 0 0 1-1-.3 5 5 0 0 1-2-1.9c-.4-.6-.6-1.4-.6-2.3a8 8 0 0 1 .4-2.4Zm20.7 1.9a2 2 0 0 0-.7 0 6.6 6.6 0 0 0-1.6.5 6 6 0 0 1-.7.3l-1.4 5.5c0 .2-.2.4-.4.4-.2.1-.4.2-.6.1-.6 0-1-.2-1.2-.5-.2-.3-.3-.6-.3-1v-.4l.1-.5v-.3a30.5 30.5 0 0 1 1.1-3.8 101 101 0 0 1 1.7-5.6 670.7 670.7 0 0 0 3-10l.4-.3h.7a2.8 2.8 0 0 1 1.1.5l.4.4c.2.2.2.4.2.6v.5a205 205 0 0 0-3.7 11.2 12.7 12.7 0 0 0 2-1.2 38.8 38.8 0 0 0 3.2-2.2l.6-.6a29.4 29.4 0 0 0 1.6-1.3h.7l.6.1.5.4c.2.1.3.3.3.4l.2.4c0 .2 0 .4-.2.5a3.3 3.3 0 0 1-.9 1.2 36.8 36.8 0 0 1-4.5 2.9c.7.5 1.2 1 1.7 1.8a12.8 12.8 0 0 1 1.6 4.7 22.3 22.3 0 0 1 0 3.1l-.2.5a1 1 0 0 1-.7.6h-.7l-.6-.3a1.6 1.6 0 0 1-.7-.9v-.5a29.9 29.9 0 0 0-.3-3.3l-.4-1.6a5.1 5.1 0 0 0-1.2-2 1 1 0 0 0-.6-.3h-.1Zm16.1-12.1c0 .3-.2.8-.6 1.6-1 1.6-1.7 3.7-2.4 6.2-.2.6-.7.9-1.6.7-1-.2-1.6-.7-1.6-1.6 0-.7.7-2.3 2-4.7 1.2-2.4 2.2-3.5 3-3.4.8.1 1.2.5 1.2 1.2Zm7.2 1.2c0 .3-.2.8-.6 1.5a29 29 0 0 0-2.4 6.2c-.1.7-.7 1-1.5.8-1.1-.2-1.6-.7-1.6-1.6 0-.8.6-2.3 1.9-4.7 1.2-2.4 2.2-3.6 3-3.4.8.1 1.2.5 1.2 1.2Z"/>
  <path fill="none" stroke="#d96226" stroke-width="4" d="M536.4 525.5c30.5 4.1 61-1 91.4-2.4l-3.2.3-7 .5c-6.3.5-12.5.7-18.8 1l-69.4 3c-6.7.3-13.5 1-20.1 1.8l-9.5 1.1c-1.5.2-5.7-.2-4.5.7 3.6 3 26 0 29.7-.1 33.6-1.5 67.6-4.5 100.9-8.5 13.8-1.7 27.7-2.4 41.6-3.4 5-.4 10-.3 15-.7l4.5-.1h1.2c-34.4 5.6-69.3 5.5-104 9-12 1.2-24.3 1-36.5 2-4.1.3-14 1.1-14 1.4.2.6 5 .5 6.5.6 7.2.3 14.3-.6 21.4-1.3 22.3-2.2 44.5-5.4 66.8-7.6 8.7-.9 23.1-.8 31.5-4.3.7-.4-.5-.7-7-1-5-.2-10 0-15 .3-14.2.7-28.5 1-42.4 3.9-1.8.4-11 1.3-10.9 4.3.3 7.9 11 10 17.4 11 18.8 2.5 37.6 3.6 56.6 3.7h27.8c-3.1 5.4-24.6 5-30.3 12.6"/>
  <path fill="#d96226" fill-rule="nonzero" d="M194.8 466c0 .4-.1.6-.4.8a2 2 0 0 1-1.1.4c-.6 0-1.3-.5-2.2-1.4a14 14 0 0 1-3-8.5c0-3.3.9-6.4 2.5-9.3a24 24 0 0 1 6.3-7.5c2.5-2.1 4.6-3.2 6.3-3.2.3 0 .6 0 .8.2.2.2.3.4.3.7 0 .3-.1.6-.3.8l-1 .6c-1.3.3-2.9 1.4-4.7 3a22 22 0 0 0-7 14.7 11.4 11.4 0 0 0 2.6 7.2c.6.6 1 1.1 1 1.6Zm10.2-11.4a12.4 12.4 0 0 1 2.5-5 11.8 11.8 0 0 1 3-2.5 11.6 11.6 0 0 1 2.8-1.3 5.5 5.5 0 0 1 2.3-.1l.8.2c0-.4.4-1.3.8-3 .5-1.5 1-3.7 1.7-6.5 0-.3.2-.5.4-.7.2-.2.5-.3.8-.3h.6l.5.2.4.5.1.7-3 12.4-.4 1.5a62.4 62.4 0 0 0-.6 7.2l-.2.6c0 .2-.2.3-.3.4a1 1 0 0 1-.4.3h-.7a2 2 0 0 1-.7 0 .8.8 0 0 1-.3-.3l-.2-.4v-.9l-.2-.5-.5.4-.7.4a46.2 46.2 0 0 1-2.8 1.5 8.1 8.1 0 0 1-2.2.5l-1.4-.2a3.3 3.3 0 0 1-2-2 4 4 0 0 1-.3-1.7 6.3 6.3 0 0 1 .2-1.4Zm2.7-.2-.2.9.1.8c0 .3.2.5.3.7.1.2.3.4.6.5l.9.1h.6a5.5 5.5 0 0 0 1.4-.7 15.6 15.6 0 0 0 2.5-2 5.2 5.2 0 0 0 1.2-2.1 64.2 64.2 0 0 0 .8-4.3l-.2-.2h-.4c-.4 0-.8 0-1.3.2a9 9 0 0 0-3.1 1.6 10.5 10.5 0 0 0-2.5 2.8c-.4.5-.6 1-.7 1.7Zm15-.7a11.4 11.4 0 0 1 2-4.2 15.6 15.6 0 0 1 5.2-4.4l1-.2a2 2 0 0 1 1.6-.7c.8 0 1.5.2 2 .6.6.4 1 1 1.4 1.6a18.5 18.5 0 0 1 .6 1.4 6.2 6.2 0 0 1 .2 1.7 13 13 0 0 1-1.4 5 14.2 14.2 0 0 1-4 4.3 6.9 6.9 0 0 1-4.2 1.3c-.8 0-1.5 0-2-.2-.7-.2-1.2-.5-1.5-1-.4-.3-.7-.8-1-1.3l-.2-1.8.3-2.1Zm2.6.1a5.2 5.2 0 0 0-.2 1.3l.1 1a1.9 1.9 0 0 0 1.2 1.2l1 .2c.9 0 1.6-.3 2.3-.7.7-.4 1.3-.9 1.8-1.5a9.8 9.8 0 0 0 2.4-5.7l-.1-.8a9.7 9.7 0 0 0-.7-1.3l-.2-.6-.3.4-.4.3-.8.3-1.3.2-1 .5a11.7 11.7 0 0 0-3.8 5.2Zm40.7-7.5c-.4 0-.8 0-1.2.2l-1.3.7a18.1 18.1 0 0 0-2.7 2.2 16.8 16.8 0 0 1-1.3 1 20.6 20.6 0 0 0-1.9 5.6 22.4 22.4 0 0 1-.7 2.7l-.3.3-.4.1h-.2c-.4 0-.8 0-1-.2-.3-.2-.4-.6-.4-1.1v-.5l.1-.5a77.7 77.7 0 0 1 4.2-12.6c0-.1.2-.3.5-.4l.9-.2c.4 0 .7 0 1 .2.2.2.3.5.3.8v.2l-.1.2-.7 1.6a46.4 46.4 0 0 1 2.8-2l1.5-.6 1.5-.3c1 0 1.8.2 2.3.8.6.5.9 1.3.9 2.4a35.2 35.2 0 0 1-2.3 7.8 56.4 56.4 0 0 0-1.4 3.8c0 .2-.2.4-.3.5l-.5.3h-.6l-.9-.1-.2-.8.1-1a14.2 14.2 0 0 1 1-3 46.2 46.2 0 0 1 1.7-4.6l.4-1.2.1-1.1c0-.4 0-.6-.2-.9-.1-.2-.4-.3-.8-.3Zm6.7 6.7a11.4 11.4 0 0 1 2-4.2 15.5 15.5 0 0 1 5.1-4.5l1-.2c.4-.4 1-.6 1.7-.6.8 0 1.5.1 2 .5.6.4 1 1 1.4 1.7a17 17 0 0 1 .6 1.3 6.4 6.4 0 0 1 .2 1.7c0 .9-.1 1.7-.4 2.5a14.1 14.1 0 0 1-5.1 6.8 6.9 6.9 0 0 1-4.1 1.4 6 6 0 0 1-2.1-.3c-.6-.2-1-.5-1.5-.9-.4-.4-.6-.8-.8-1.4-.2-.5-.3-1.1-.3-1.8 0-.6 0-1.3.3-2Zm2.5.1a5.2 5.2 0 0 0-.1 1.3v1a1.8 1.8 0 0 0 1.3 1.2l1 .1a4 4 0 0 0 2.2-.6c.7-.4 1.3-1 1.9-1.5a9.8 9.8 0 0 0 2.4-5.8c0-.2 0-.5-.2-.7a9.7 9.7 0 0 0-.6-1.3l-.3-.6-.2.4-.5.3a11.1 11.1 0 0 1-2 .5c-.3 0-.7.2-1 .5a8.2 8.2 0 0 0-2 1.9 11.5 11.5 0 0 0-1.9 3.3Zm16.4.7c0-.9 0-1.8.3-2.7.1-1 .4-1.9.6-2.7a4 4 0 0 1-1.6-.4l-.6-.5a1 1 0 0 1-.2-.6v-.3l.3-.5.3-.3.4-.2h2c.3 0 .4-.1.5-.3l.1-.5a38 38 0 0 1 1-3.9v-1a2.9 2.9 0 0 1 .1-.9c0-.2.2-.4.4-.6l.7-.2.7.1.5.5.3.6a2.8 2.8 0 0 1 0 1.4l-1.1 4.3 1.4-.2 1.4-.3a31.1 31.1 0 0 0 3.1-.7h.5l.5.1.3.3.1.4-.1.7-.4.5a2 2 0 0 1-.5.3 3 3 0 0 1-.6.2 15.9 15.9 0 0 0-1.5.4 101 101 0 0 0-5 1.2 25 25 0 0 0-1.2 5.5v.8l.3.7.5.4.8.2c.6 0 1.1-.2 1.7-.5l1.5-1.2a58.5 58.5 0 0 0 3-3.4 1 1 0 0 1 .5.2l.2.2v.4a4 4 0 0 1-.7 2 141.6 141.6 0 0 1-1.5 2.6 8 8 0 0 1-1.5 1.2l-.7.5a3 3 0 0 1-1.3.5 7 7 0 0 1-1.3.2c-.7 0-1.3-.1-1.8-.3-.5-.3-1-.6-1.3-1-.4-.4-.7-.9-.9-1.4l-.2-1.8Zm30.1-1.8a15 15 0 0 1 2.3-5 15 15 0 0 1 1.9-2.2c.7-.7 1.5-1.3 2.3-1.7l.9-.4a4.4 4.4 0 0 1 2 0c.2 0 .5.1.7.3l.5.5.2.9a2.7 2.7 0 0 1-.5 1.4l-.5.5-.8.2-.6-.1a5 5 0 0 1-.8-.4l-.3-.2-1.2.8a8.4 8.4 0 0 0-1.9 2.2 15.9 15.9 0 0 0-1.6 3.7 8.4 8.4 0 0 0-.3 1.7v.6c0 .2.2.4.3.5l.3.3.6.2 1-.2a7.7 7.7 0 0 0 2.1-.9 35.7 35.7 0 0 0 2.6-1.6l.4-.1.5.1.2.4-.1.4a4 4 0 0 1-.6 1.1 5.6 5.6 0 0 1-1.8 1.6 18.4 18.4 0 0 1-3 1.3l-1.7.3a3.5 3.5 0 0 1-1-.2c-.8-.3-1.5-.8-1.8-1.4a4 4 0 0 1-.6-2.1 8 8 0 0 1 .3-2.4Zm18.1-14.2a31.3 31.3 0 0 1 .4-2.3l.5-.8c.2-.3.4-.4.7-.4h.6l.5.3.5.4.2.5v.3l-.2.3-3.8 15.6a29.4 29.4 0 0 0-.7 3.1v1.4c0 .4-.1.7-.3 1 0 .3-.2.6-.4.8a1 1 0 0 1-.8.3l-.7-.1c-.3-.1-.4-.3-.6-.5l-.3-.6V456a16.6 16.6 0 0 1 .4-2.2l4-15.9Zm3.4 17.2.6-2.1.7-2.5a453.3 453.3 0 0 0 1.8-6 1.6 1.6 0 0 1 1-.4h.5l.5.2.3.3.1.4v.2l-.4 1.7a851.1 851.1 0 0 1-3.5 11.8l-.4.1-.7-.1a1.8 1.8 0 0 1-.9-1v-.8l.4-1.8Zm4-16 .3-.9c.2-.3.4-.6.8-.8a3.5 3.5 0 0 1 1-.4l.4.1.3.2.3.4c.2 0 .4 0 .5.2l.1.6v.5l-.1.3c0 .2-.2.4-.4.6l-.6.5a3.4 3.4 0 0 1-1.4.4 1 1 0 0 1-.5-.1l-.5-.5a1 1 0 0 1-.2-.4v-.8Zm4.1 12.6a15 15 0 0 1 2.3-5 15 15 0 0 1 1.9-2.3l2.3-1.7.9-.3a4.5 4.5 0 0 1 2 0c.2 0 .5.1.7.3a1.5 1.5 0 0 1 .7 1.3l-.1.8-.4.7-.5.5-.8.2c-.2 0-.4 0-.6-.2a4.7 4.7 0 0 1-.8-.4l-.3-.1-1.2.7a8.5 8.5 0 0 0-1.9 2.3 16 16 0 0 0-1.6 3.6 8.5 8.5 0 0 0-.3 1.8v.6l.3.5.3.3.6.1 1-.1a7.7 7.7 0 0 0 2.1-1 33.3 33.3 0 0 0 2.6-1.5l.4-.2c.2 0 .3 0 .5.2l.2.3-.1.5a4 4 0 0 1-.6 1 5.6 5.6 0 0 1-1.8 1.6 18.4 18.4 0 0 1-3 1.4l-1.7.3a3.4 3.4 0 0 1-1-.2c-.8-.3-1.4-.8-1.8-1.4a4 4 0 0 1-.6-2.2 8 8 0 0 1 .3-2.4Zm20-1.6a2 2 0 0 0-.7 0 7.7 7.7 0 0 0-1.5.9l-.6.3-1.4 5.6c0 .2-.2.4-.4.5l-.6.2c-.5 0-1-.1-1.1-.4-.2-.2-.3-.5-.3-.8v-.5l.1-.5v-.3a34.3 34.3 0 0 1 1-3.8 123.8 123.8 0 0 1 1-3l.7-2.7a729.8 729.8 0 0 0 2.8-10.2l.5-.3.7-.2h.5l.6.3.4.4.1.5v.5a228.6 228.6 0 0 0-3.6 11.4 16.3 16.3 0 0 0 2-1.4 47 47 0 0 0 5.1-5l.7-.2a1.7 1.7 0 0 1 1.1.4l.4.4v.9a4 4 0 0 1-1 1.3 44.6 44.6 0 0 1-4.3 3.5c.7.4 1.2.8 1.6 1.4.4.6.8 1.3 1 2 .3.7.4 1.5.5 2.3a20.9 20.9 0 0 1 0 3v.6a1.3 1.3 0 0 1-.8.6 1.9 1.9 0 0 1-1.3 0 1.2 1.2 0 0 1-.6-.7v-.5a28.5 28.5 0 0 0-.3-3.2l-.4-1.5a4 4 0 0 0-1.1-1.7.9.9 0 0 0-.6-.2h-.2Zm14.6-14.4c0-.3.1-.5.4-.7a2 2 0 0 1 1.2-.3c.6 0 1.3.4 2.1 1.3a14.1 14.1 0 0 1 3 8.5 19 19 0 0 1-2.5 9.3c-1.6 3-3.7 5.5-6.2 7.6-2.6 2-4.7 3.1-6.4 3.1-.3 0-.6 0-.8-.2a.8.8 0 0 1-.3-.7c0-.3.2-.6.4-.8a3 3 0 0 1 1-.6c1.3-.4 2.8-1.4 4.7-3a22.2 22.2 0 0 0 7-14.6 11.3 11.3 0 0 0-2.6-7.2c-.7-.7-1-1.2-1-1.7Z"/>
</svg>
