<svg xmlns="http://www.w3.org/2000/svg" xml:space="preserve" fill-rule="evenodd" stroke-linejoin="round" stroke-miterlimit="2" clip-rule="evenodd" viewBox="0 0 1000 1945">
  <path fill="#0a0f17" d="M340.6 1722.2a1 1 0 0 1-.5 0l-.5-.4a2.4 2.4 0 0 1-.5-1.2 2 2 0 0 1 .2-1.2l.2-.3.3-.3a37.2 37.2 0 0 1 2.5-1 14.4 14.4 0 0 0 3-2.3 27.3 27.3 0 0 0 3.4-4.3 19.7 19.7 0 0 0 2.2-7 107.5 107.5 0 0 1-2.7 3.5 14.6 14.6 0 0 1-2.2 2l-1 .3c-1 .1-1.7 0-2.4-.3s-1.4-1-2-1.8l-.5-1-.3-1.3a22 22 0 0 1-.2-4.3 60.8 60.8 0 0 1 .4-5.9 5.4 5.4 0 0 0 0-.9l.1-.6a2.2 2.2 0 0 1 1-1l.6-.2h.8l.7.1a3.8 3.8 0 0 1 1 1.9l-.1.8-.3 1.2a129.4 129.4 0 0 0-.7 7.4c.1.8.3 1.3.6 1.7.3.4.7.6 1 .5.2 0 .4 0 .7-.2.2 0 .5-.3.8-.5a15.7 15.7 0 0 0 4.3-5.7 41 41 0 0 0 1.9-7.9l.3-.3.4-.2.5-.1c.7-.1 1.3 0 1.7.3.4.4.7.9.8 1.5v1.2a44.1 44.1 0 0 1-.8 4.8l-.5 2.9a256.4 256.4 0 0 0-1.5 6.8 21.3 21.3 0 0 1-2.5 5.4 36.8 36.8 0 0 1-7.7 7.1c-.8.4-1.6.7-2.5.8ZM284 1719a227.3 227.3 0 0 1 1.7-12.4 126.3 126.3 0 0 0 .5-5v-1.4l.2-.5a2.4 2.4 0 0 1 1-.7l.5-.2h1l.6.3.4.5.2.7v1.4l-.4 1.6a30.6 30.6 0 0 1 3.7-3.1 13 13 0 0 1 2-1.1c.8-.3 1.5-.5 2.3-.6h1.1a2.9 2.9 0 0 1 2 1.3c.2.3.3.8.4 1.4a94.6 94.6 0 0 1 3.4-2.8l1.8-1a4 4 0 0 1 1.8-.5 6 6 0 0 1 2.3 0c.6.2 1.1.4 1.5.8.4.3.7.8 1 1.3l.4 1.6v2a33.4 33.4 0 0 1-.8 6.6 106.8 106.8 0 0 1-1.7 6.7 3 3 0 0 1-.6.8c-.2.3-.5.4-.8.5-.8 0-1.4 0-1.7-.2-.3-.2-.5-.6-.6-1v-1.1a237.6 237.6 0 0 1 1.5-5 446.3 446.3 0 0 1 1-6.6v-1.7l-.2-.6c0-.2-.2-.4-.3-.5a.5.5 0 0 0-.5-.3h-.7a4 4 0 0 0-1.4.5l-1.6 1a16.2 16.2 0 0 0-3.5 4l-.7.6-.2.6-.2 1-.3 1.5-.5 2.6v.5a15.8 15.8 0 0 0-.2 2.3v2.4c-.2.3-.3.7-.6 1a2 2 0 0 1-1.2.4h-.7l-.7-.5-.5-.7-.2-.7a74.1 74.1 0 0 1 1.5-9 57.3 57.3 0 0 0 .4-4.6c0-.3-.1-.6-.3-.8l-.7-.2c-.6.1-1.1.3-1.6.6l-1.7 1.3a121.1 121.1 0 0 0-4.2 5l-.2 1.2a80.9 80.9 0 0 0-1 9.1c0 .4-.2.8-.5 1.1-.2.3-.5.5-.9.6-.6 0-1.1 0-1.6-.3a1.6 1.6 0 0 1-.8-1.5v-.2Zm45.2-5.6v-1.4c0-.6 0-1.2-.2-2l-1.3 1.3a26 26 0 0 1-3 2.7c-.6.4-1.1.6-1.6.7h-1.2a3 3 0 0 1-1-.4 6 6 0 0 1-1.8-1.5 4 4 0 0 1-.7-2v-2.3a17.7 17.7 0 0 1 5.9-11.4c.6-.6 1.3-1 2-1.3a11 11 0 0 1 4.2-.6 10.7 10.7 0 0 1 1.3-.3h1c.3 0 .6.2.8.3l.4.6.2.7v1l-.2 1-1.3 11a165 165 0 0 0 0 3 113.4 113.4 0 0 1-.3 1c0 .2-.2.4-.4.5-.2.2-.4.3-.8.3a5 5 0 0 1-1 0h-.6a.7.7 0 0 1-.3-.4l-.1-.5Zm-7.5-5.2a8.2 8.2 0 0 0 0 2l.3.9c.1.2.4.3.7.3.6 0 1.1-.3 1.6-.6l1.2-1a26.3 26.3 0 0 0 4.2-6.1 8.3 8.3 0 0 0 .7-3.5v-1.4l-.3-.5c0-.2-.2-.2-.5-.2-.6 0-1.3.3-2 .6l-1.7 1.3c-.6.5-1 1.1-1.6 1.8a15.1 15.1 0 0 0-2.6 6.4Zm39.8-5a155.3 155.3 0 0 1 1.6-11.8 253.3 253.3 0 0 0 1-9.5v-1.6a28.9 28.9 0 0 0 .3-.9l.3-.4.6-.2 1 .1c.4.1.6.3.8.5l.5.8.2 1a7.1 7.1 0 0 1 0 2 54 54 0 0 1-.8 5.8l-.8 5.9a18.7 18.7 0 0 1 3.3-3.1l2-1.1c.6-.3 1.3-.5 2-.6h2l1.4.8c.4.3.7.7 1 1.2l.4 1.6a7.7 7.7 0 0 1 0 1.8 14.5 14.5 0 0 1-2.7 7.2 29.3 29.3 0 0 1-6.7 5.8c-.6.3-1.1.4-1.7.5H366c-.3 0-.6-.2-.8-.4l-.2.4c0 .2-.2.4-.3.5a1.8 1.8 0 0 1-1.1.6c-.8 0-1.4 0-1.7-.4-.4-.3-.6-.8-.7-1.4a5 5 0 0 1 0-1.5l.4-3.5Zm11.7-9.8c-.6 0-1.3.3-2 .7l-2 1.5a27.6 27.6 0 0 0-3.7 3.6 82.2 82.2 0 0 1-.7 4.9l-.1 1.8v.8l.1.3.7-.4a11.3 11.3 0 0 1 1.4-.6l.7-.4c2-1.1 3.6-2.5 4.9-4.1a11.2 11.2 0 0 0 2.2-7.1c0-.4-.2-.7-.4-.9-.2-.1-.6-.2-1-.1Zm8.8 6c-.1-.6 0-1.1.2-1.6l1.1-1a16.8 16.8 0 0 1 1.5-3 20.6 20.6 0 0 1 3-3.9c.7-.6 1.4-1 2.2-1.5a7.3 7.3 0 0 1 4.5-.8 4 4 0 0 1 1.6.6l1 1 .5 1.5v1.4a4 4 0 0 1-.8 2c-.5.7-1 1.3-1.6 1.8l-2.1 1.4a23.9 23.9 0 0 1-6.6 2.2l-.2 1v1c.1.9.5 1.4 1.2 1.8.7.3 1.6.4 2.6.3l1.8-.5a10.4 10.4 0 0 0 3-1.7l1.1-.9 1.3-1 1-.5c.4 0 .6 0 .8.2l.2.5a5.2 5.2 0 0 1 0 .6 3.4 3.4 0 0 1-.9 2 13.8 13.8 0 0 1-11.1 4.4 7 7 0 0 1-1.5-.4 4.4 4.4 0 0 1-2.4-2c-.3-.5-.5-1.2-.6-2v-2l-.5-.3c-.2-.1-.3-.3-.3-.6Zm76.7 7.1c-.5 0-1 0-1.3-.3-.3-.2-.5-.6-.5-.9a2 2 0 0 1 .3-1.5l1-1.3 1.3-1 1-.9a12.4 12.4 0 0 0 2.2-4 29.5 29.5 0 0 0 1.5-6.5 65.2 65.2 0 0 0 .5-10.6c.1-.5.2-.8.4-1 .1-.3.3-.5.6-.6l1-.2c.7-.1 1.3 0 1.6.3.3.3.6.8.7 1.6v1.7a43.6 43.6 0 0 1-.5 6.3 63.9 63.9 0 0 1-2.7 11.3 8.4 8.4 0 0 1-.8 1.6 33.8 33.8 0 0 1-3.5 4.7 6 6 0 0 1-1.3.9l-1.5.4Zm-25.3-7v-1.4l-.1-2-1.4 1.3a26 26 0 0 1-3 2.7c-.6.4-1 .6-1.6.7h-1.2a3 3 0 0 1-1-.4 6 6 0 0 1-1.7-1.5 4 4 0 0 1-.7-2l-.1-1 .1-1.3a17.7 17.7 0 0 1 5.9-11.4c.6-.6 1.3-1 2-1.3a11 11 0 0 1 4.1-.6 10.7 10.7 0 0 1 1.4-.3h1c.3 0 .5.2.7.4l.5.5.2.8v1l-.3 1-1.2 11a164.7 164.7 0 0 0 0 3v.4l-.3.6-.5.5-.7.2h-1.6a.7.7 0 0 1-.3-.4l-.2-.5Zm-7.5-5.2a8.2 8.2 0 0 0 0 2l.3.9c.2.3.4.4.8.3.5 0 1-.3 1.5-.6l1.3-1a26.3 26.3 0 0 0 4.1-6 8.2 8.2 0 0 0 .7-3.6v-1.4l-.2-.5c-.1-.2-.3-.2-.5-.2-.7.1-1.3.3-2 .7-.6.3-1.2.7-1.7 1.2a15.2 15.2 0 0 0-4.2 8.2Zm-32-2.2v-.4a1 1 0 0 0-.6-.7c-.3-.2-.6-.2-1-.2-.6.1-1.2.3-1.7.7l-1.4 1.4a10.5 10.5 0 0 0-1.9 3.2 19.7 19.7 0 0 0 4.6-1.7c.6-.3 1-.7 1.3-1.1.4-.4.6-.8.6-1.2Zm79.7-4.9a14.9 14.9 0 0 1 1.8-5.7 19.9 19.9 0 0 1 6-6.6 5 5 0 0 1 1.3-.4c.4-.6 1-1 2-1.1 1-.2 2 0 2.7.4.8.4 1.5 1 2 2a24 24 0 0 1 1 1.6 8.6 8.6 0 0 1 .6 2.2c.2 1 .2 2.2 0 3.3a18.2 18.2 0 0 1-5.4 9.7 8.8 8.8 0 0 1-5.2 2.4 8 8 0 0 1-2.7 0 4.9 4.9 0 0 1-3.4-2.6c-.4-.8-.6-1.5-.7-2.4-.2-.9-.2-1.8 0-2.8Zm29.7-6-.8.3a10 10 0 0 0-1.9 1.3l-.7.5-.9 7.5c0 .3-.2.5-.4.7l-.7.3c-.8.1-1.3 0-1.6-.2a2 2 0 0 1-.5-1v-1.7a44 44 0 0 1 .7-5.2 153.6 153.6 0 0 1 1-7.6 963.3 963.3 0 0 0 2-13.7c0-.2.2-.4.5-.6l.9-.3h.7l.8.2.5.4c.2.2.3.4.3.7v.6a299.4 299.4 0 0 0-2.6 15.5 20.6 20.6 0 0 0 2.3-2.2 60.3 60.3 0 0 0 4.7-5.8l.4-.5c.2-.4.5-.6.8-.9.2-.2.5-.4.8-.4a2.2 2.2 0 0 1 1.5.3l.5.4.2.5v.7a5.1 5.1 0 0 1-1 1.8 59.6 59.6 0 0 1-5 5.3 7.9 7.9 0 0 1 4 4.1 27.6 27.6 0 0 1 1.7 6.9l-.2.6a1.6 1.6 0 0 1-.8 1 2.4 2.4 0 0 1-1.7.2l-.5-.4-.4-.5-.2-.6a38.1 38.1 0 0 0-.9-4.2l-.7-1.8a5.4 5.4 0 0 0-1.8-2 .8.8 0 0 0-.8-.2h-.2ZM477 1687a6.8 6.8 0 0 0 0 1.7l.4 1.3a2.5 2.5 0 0 0 1.7 1.4h1.4c1-.1 2-.5 2.8-1.1a12.6 12.6 0 0 0 4.2-10.1c0-.4-.1-.7-.3-1a12.4 12.4 0 0 0-1.1-1.6l-.4-.7-.3.5-.5.5a14 14 0 0 1-2.5.9c-.5.2-.9.5-1.3.9l-1.2 1.2a15.3 15.3 0 0 0-2.9 6.1Zm37.8-5.3c0-.6 0-1.1.3-1.6.3-.4.6-.7 1.1-1a17.1 17.1 0 0 1 2.8-5 13.5 13.5 0 0 1 3.8-3.4 7.3 7.3 0 0 1 4.6-.8 4 4 0 0 1 1.6.6l1 1.1c.2.4.4 1 .4 1.5v1.3c0 .8-.3 1.5-.8 2.1-.4.6-1 1.2-1.6 1.7l-2 1.4a23.9 23.9 0 0 1-6.6 2.3l-.2 1v1c.1.8.5 1.3 1.2 1.7.6.3 1.5.4 2.6.3a4 4 0 0 0 1.8-.5 10.5 10.5 0 0 0 3-1.6l1-1 1.3-1a3 3 0 0 1 1.2-.5c.3 0 .5 0 .6.2l.2.5a5.2 5.2 0 0 1 0 .6 3.4 3.4 0 0 1-.8 2 13.8 13.8 0 0 1-11.2 4.4 7 7 0 0 1-1.4-.4 4.4 4.4 0 0 1-2.4-2c-.3-.5-.5-1.1-.6-2v-2a.5.5 0 0 1-.5-.3c-.2-.1-.3-.3-.4-.6Zm55.9 1.6c-.9.1-1.4 0-1.8-.3-.4-.3-.6-.8-.7-1.4v-2.4a35.2 35.2 0 0 1 .9-4.4 128.8 128.8 0 0 0 .7-4.8l-.2-.4h-.5c-.3 0-.6 0-1 .2l-.7.5a23.9 23.9 0 0 0-3.8 4.2l-1.3 2.3a18.8 18.8 0 0 0-2 5l-.4 1.6-.6.9a2 2 0 0 1-1 .4c-.6 0-1 0-1.2-.4a2 2 0 0 1-.5-1.1v-1.3l3-27.5.2-.6a2 2 0 0 1 1.6-1.3 8.6 8.6 0 0 1 1.3 0c.2 0 .4 0 .6.2l.2.5v.9a795.7 795.7 0 0 1-2.4 19.3 29.2 29.2 0 0 1 4.7-5.6 12.7 12.7 0 0 1 5.7-2.8 2 2 0 0 1 1.7.5c.4.4.7 1 .8 1.6v1a27.3 27.3 0 0 1-.7 3.7 214.6 214.6 0 0 0-.7 4 17.3 17.3 0 0 0 0 4.2l-.1 1.2c0 .3-.1.7-.3 1-.1.3-.3.5-.6.7-.2.2-.5.4-1 .4Zm7.3-10c0-.6 0-1.1.3-1.6.2-.4.6-.7 1-1a17.3 17.3 0 0 1 2.9-5 13.5 13.5 0 0 1 3.8-3.4 7.3 7.3 0 0 1 4.6-.8 4 4 0 0 1 1.5.6l1 1c.3.5.4 1 .5 1.6v1.3c-.1.8-.4 1.5-.8 2.1a11 11 0 0 1-3.7 3.1 23.9 23.9 0 0 1-6.6 2.2l-.2 1v1c.2.9.6 1.4 1.2 1.8.7.3 1.6.4 2.7.3.6-.1 1.2-.2 1.8-.5a10.5 10.5 0 0 0 2.9-1.6l1.1-1 1.3-1c.4-.3.8-.4 1.1-.5.3 0 .6 0 .7.2l.2.5a5.2 5.2 0 0 1 0 .6 3.4 3.4 0 0 1-.9 2 13.8 13.8 0 0 1-11.1 4.4 7 7 0 0 1-1.5-.4 4.3 4.3 0 0 1-2.3-2c-.3-.5-.5-1.2-.6-2v-2a1 1 0 0 1-.6-.3c-.2-.1-.3-.3-.3-.6Zm21.8 2.9a195.6 195.6 0 0 1 .7-10.2 106.5 106.5 0 0 0 0-3.8 9.8 9.8 0 0 1 0-2.5c.1-.5.2-.9.4-1 .1-.3.4-.4.8-.5l1 .1c.3.2.5.3.6.6l.4.8.2 1 .1 1.2a52.4 52.4 0 0 1 2.3-2.6c.4-.4.9-.8 1.4-1 .5-.3 1-.5 1.6-.6h1.4l.8.2c.3 0 .6.2 1 .4s.8.6 1.2 1c.4.5.6 1 .7 1.5v.7l-.3.7a2 2 0 0 1-.4.6l-.6.2h-.9l-.9-.4-.3-.3-.4-.4-.2-.4-.3-.2a1.9 1.9 0 0 0-.4 0 4 4 0 0 0-1.9.8c-.6.4-1 1-1.5 1.5-.5.6-1 1.2-1.3 1.8l-1 1.7a183.8 183.8 0 0 1-.9 7.6v.5l.2 1.2v1.2l-.6.6a2 2 0 0 1-1 .3c-.5 0-1 0-1.3-.4-.3-.3-.5-.7-.6-1.2v-.7Zm-73.1-1.8v-.3c0-.4-.2-.7-.5-.8-.3-.1-.7-.2-1-.1-.6 0-1.2.3-1.7.6a10.4 10.4 0 0 0-3.3 4.6 19.7 19.7 0 0 0 4.6-1.7c.6-.3 1-.7 1.3-1l.6-1.3Zm89.2-6.2c0-.6 0-1 .3-1.5a2 2 0 0 1 1-1 17 17 0 0 1 1.5-3 20.8 20.8 0 0 1 3-4l2.2-1.4a7.3 7.3 0 0 1 4.6-.8 4 4 0 0 1 1.5.6c.4.2.8.6 1 1a4.7 4.7 0 0 1 .5 2.8c0 .8-.3 1.5-.8 2.2-.4.6-1 1.2-1.6 1.7a23.9 23.9 0 0 1-8.7 3.6l-.1 1v1a2 2 0 0 0 1.1 1.7 4 4 0 0 0 2.7.3c.6 0 1.2-.2 1.8-.4a10.6 10.6 0 0 0 2.9-1.7l1.1-1 1.3-1c.4-.2.8-.4 1.1-.4l.7.1.2.6a4.5 4.5 0 0 1 0 .5 3.4 3.4 0 0 1-.9 2.1 13.8 13.8 0 0 1-11 4.3 7 7 0 0 1-1.5-.3 4.4 4.4 0 0 1-2.4-2c-.3-.6-.5-1.2-.6-2v-2.1l-.6-.2a1 1 0 0 1-.3-.7Zm-151 4c0-.5 0-1 .2-1.4l.8-1 .8-.6.7-.2h1c.2 0 .4.2.6.4l.4.6.2.7-.1 1.4c-.1.5-.4 1-.9 1.4a3 3 0 0 1-.5.4l-.5.2c-.7.1-1.3 0-1.8-.4-.5-.3-.8-.8-.9-1.5Zm192.3-5.3a210.6 210.6 0 0 1 1.3-9.9 203 203 0 0 0 .5-4l.3-.4a2 2 0 0 1 1.3-.6h.7l.6.1c.2 0 .3.2.5.3l.2.5v.3l-.3 2.2a1109.6 1109.6 0 0 1-2.1 15.6l-.4.4a1 1 0 0 1-.4.2 2 2 0 0 1-1-.1 2.4 2.4 0 0 1-1.2-1.1 2.1 2.1 0 0 1-.3-.9v-.2l.3-2.4Zm-67.4-.9v-.4c0-.3-.2-.6-.5-.7-.3-.2-.6-.2-1-.2-.6.1-1.1.4-1.7.7a10.4 10.4 0 0 0-3.3 4.6 19.7 19.7 0 0 0 4.6-1.7c.6-.3 1-.7 1.4-1 .3-.5.5-.9.5-1.3Zm90.4-15.3a4 4 0 0 0-1.4.6l-1.6 1.1a23 23 0 0 0-3.1 3.2 21 21 0 0 1-1.5 1.4 26.8 26.8 0 0 0-1.4 7.6 28.6 28.6 0 0 1-.5 3.7 1.7 1.7 0 0 1-1.2.7c-.5.1-1 0-1.3-.2-.4-.2-.6-.6-.7-1.3v-1.3a102.4 102.4 0 0 1 3.3-17c0-.3.2-.5.5-.7l1-.4c.6 0 1 0 1.4.2.3.2.6.5.6 1v.5l-.7 2.2a58.9 58.9 0 0 1 3.3-3 12 12 0 0 1 1.8-1.1 6 6 0 0 1 2-.6c1.2-.2 2.3 0 3 .6.9.6 1.4 1.6 1.6 3v3a46.4 46.4 0 0 1-1.6 7.6 74.3 74.3 0 0 0-1 5.2l-.5.7-.5.4-.9.2-1.1-.1c-.2-.2-.4-.5-.4-1v-1.3a18.6 18.6 0 0 1 .7-4 57.2 57.2 0 0 1 1.5-6.3l.2-1.7v-1.5c0-.4-.2-.7-.4-1-.2-.3-.6-.4-1-.4Zm10.7 11.8h.6l.4.1h.5l2-.5a17.2 17.2 0 0 0 3.9-1.8c.4-.3.7-.6.7-1v-.4c0-.2-.2-.4-.4-.6l-1-.5-1.1-.4c-.4 0-.8-.2-1.1-.3l-.8-.1a7.2 7.2 0 0 1-2-1l-1-.7c-.2-.4-.5-.7-.6-1.2a5.6 5.6 0 0 1-.4-1.1c0-.3 0-.8.2-1.2l.8-1.5a11.2 11.2 0 0 1 2.6-2.7 21.5 21.5 0 0 1 2.2-1.6l1-.6 1.3-.3h2.7c.4.1.7.3 1 .6.3.2.5.6.6 1a3.7 3.7 0 0 1-.4 2c0 .3-.2.4-.4.4h-.8l-.6-.4-.6-.3c-.2-.1-.4-.2-.6-.1a2 2 0 0 0-1 .3 8.7 8.7 0 0 0-2.5 1.5l-1 .9a5 5 0 0 0-.6.9l-.3.7c0 .3.2.5.3.6l.7.3 1 .3a293.3 293.3 0 0 0 4.5 1.4l.8.5a2.3 2.3 0 0 1 .9 1.6v.5a7.9 7.9 0 0 1-.9 3.4 8 8 0 0 1-1.6 1.6 17 17 0 0 1-4.3 2.5l-2.1.6h-1.1l-1.1-.4-1-.6c-.2-.3-.4-.5-.4-.8v-.5a2.1 2.1 0 0 1 .6-.9l.4-.2Zm-63.1-1.5v-.4a1 1 0 0 0-.6-.8c-.3-.1-.6-.2-1-.1-.6 0-1.1.3-1.6.7a10.4 10.4 0 0 0-3.3 4.6 19.7 19.7 0 0 0 4.6-1.7c.5-.4 1-.7 1.3-1.1l.6-1.2Zm82.2-3.8a89.1 89.1 0 0 1 .3-7.2 5 5 0 0 1-2.2-.2l-.8-.5-.4-.8v-.5l.2-.5.3-.6.6-.2 2.6-.4c.3 0 .5-.1.5-.4l.2-.7.2-2 .2-1.5a41.1 41.1 0 0 0 0-2.2v-.6l-.1-.2v-1.2l.4-.8c.2-.3.5-.4 1-.5l.9.1.7.5.4.8a3.7 3.7 0 0 1 .3 1.8l-.7 5.9a88 88 0 0 0 1.9-.6l1.6-.6a41.2 41.2 0 0 0 4-1.4h1.2l.5.4.2.5v.9l-.5.7-.6.5-.7.4a20.4 20.4 0 0 0-2 .7 108 108 0 0 0-5.8 2.2h-.5a32 32 0 0 0-.5 7.5l.2 1 .5.8.7.5h1c.8 0 1.5-.3 2.1-.8l1.8-1.7 1.5-2.2 1.2-2.2c.2-.3.4-.5.6-.5h.3l.4.1.3.2.1.4v.2c0 .9-.3 1.8-.6 2.7a193.7 193.7 0 0 1-1.6 3.6 10 10 0 0 1-1.6 1.8l-.8.8a5 5 0 0 1-1.6.9 9 9 0 0 1-1.8.4c-.8.1-1.6 0-2.3-.2a5 5 0 0 1-2-1c-.5-.5-.9-1-1.2-1.8-.4-.7-.6-1.4-.7-2.3Zm18.4-4c0-.5 0-1 .3-1.5.2-.4.6-.8 1-1a17.2 17.2 0 0 1 2.9-5 13.5 13.5 0 0 1 3.8-3.4 7.3 7.3 0 0 1 4.6-.8 4 4 0 0 1 1.5.6c.4.3.8.6 1 1 .3.5.4 1 .5 1.5v1.4a6.9 6.9 0 0 1-2.4 3.8c-.6.5-1.3 1-2.1 1.4a24 24 0 0 1-6.6 2.2l-.2 1v1a3 3 0 0 0 1.2 1.8c.7.3 1.6.4 2.7.3l1.8-.5a10.6 10.6 0 0 0 2.9-1.7l1.1-1 1.3-1c.4-.2.8-.4 1.1-.4.3 0 .6 0 .7.2l.2.5a4.5 4.5 0 0 1 0 .6 3.4 3.4 0 0 1-.9 2 13.8 13.8 0 0 1-11.1 4.3 7 7 0 0 1-1.5-.3 4.4 4.4 0 0 1-2.3-2c-.3-.5-.5-1.2-.6-2v-2.1c-.2 0-.4 0-.6-.2-.2-.1-.3-.4-.3-.7Zm31.3 2.9v-1.4l-.1-2-1.4 1.3a26.8 26.8 0 0 1-3 2.7c-.6.4-1 .6-1.6.6a3.6 3.6 0 0 1-2.1-.3 6 6 0 0 1-1.8-1.5 4 4 0 0 1-.7-2l-.1-1 .1-1.3a17.7 17.7 0 0 1 5.9-11.5 6 6 0 0 1 2-1.2 11 11 0 0 1 4.1-.6 10.2 10.2 0 0 1 1.4-.3h1c.3 0 .5.2.7.3l.5.6.2.7v1l-.3 1-1.2 11a206 206 0 0 0 0 3v.5l-.3.5-.5.5c-.1.2-.4.3-.7.3a5 5 0 0 1-1 0h-.6a.7.7 0 0 1-.3-.4l-.2-.5Zm9.2-7.4a16.2 16.2 0 0 1 2.5-6.8 15 15 0 0 1 3.3-3.7 14.8 14.8 0 0 1 3.5-2.1 7.1 7.1 0 0 1 3-.6l1 .2.6-4 1-8.8c0-.4.2-.7.5-1 .2-.3.5-.4.9-.5h.8c.2 0 .5 0 .7.2l.6.5.3 1-2 16.6v1.9a81.7 81.7 0 0 0 .4 9.5l-.2.9c0 .2-.1.4-.3.5 0 .2-.3.3-.5.4l-.8.2h-1a1 1 0 0 1-.4-.2 1 1 0 0 1-.3-.5l-.1-.6-.1-.6a2 2 0 0 0-.3-.6 22.5 22.5 0 0 1-2.1 1.7 17.2 17.2 0 0 1-4 2.5 7 7 0 0 1-1.5.3h-1.8a4.4 4.4 0 0 1-3-2.2c-.3-.6-.6-1.3-.7-2.2a8.2 8.2 0 0 1 0-2Zm-16.7 2.2a8.2 8.2 0 0 0 0 1.9c0 .4.2.7.3 1 .2.2.4.3.8.3.5 0 1-.3 1.5-.6l1.3-1a26 26 0 0 0 4.1-6.1 8.3 8.3 0 0 0 .7-3.6v-1.3l-.2-.5c-.1-.2-.3-.3-.5-.2-.7 0-1.3.3-2 .6a11.7 11.7 0 0 0-3.3 3 15.2 15.2 0 0 0-2.7 6.5Zm50.2-2.4v1.4a3.6 3.6 0 0 1-1.7 2c-.4.3-.8.5-1.3.5a2.6 2.6 0 0 1-1.9-.5 2.5 2.5 0 0 1-1-1.6c0-.5 0-1 .2-1.4a4 4 0 0 1 1.7-2.2c.4-.2.8-.4 1.3-.4h1l.8.5c.3.2.5.4.6.7.2.3.3.7.3 1Zm-30-.4v1.2l.2 1 .5 1 .8.4c.3.2.7.2 1.2.1l.9-.2a7 7 0 0 0 1.6-1 22.5 22.5 0 0 0 3-3 6.7 6.7 0 0 0 1.1-3 71.8 71.8 0 0 0 .3-5.7l-.3-.2a1 1 0 0 0-.5 0 4 4 0 0 0-1.7.5 11.6 11.6 0 0 0-3.7 2.5 13.5 13.5 0 0 0-2.8 4l-.6 2.4ZM740 1646v-.4a1 1 0 0 0-.5-.7c-.3-.2-.6-.2-1-.2-.6.1-1.1.3-1.7.7a10.4 10.4 0 0 0-3.3 4.6 19.7 19.7 0 0 0 4.6-1.7l1.4-1.1c.3-.4.5-.8.5-1.2Zm-80.5-.6c0-.3 0-.7.2-1.1.1-.4.4-.9.8-1.2a4.4 4.4 0 0 1 1.4-.7h.4c.1.2.3.2.4.3l.4.4c.4 0 .6.1.7.3.2.2.3.4.3.7v1.1c0 .3-.2.5-.4.8l-.7.7a4.3 4.3 0 0 1-1.7.8h-.7l-.8-.7-.3-.4a1.8 1.8 0 0 1 0-.7v-.3Zm140.3-2.6a1 1 0 0 1-.8-.3c-.3-.2-.5-.4-.7-.8l-.5-1a7 7 0 0 1-.2-1.2v-1.5c.2-.4.5-.8 1-1.2l.6-.5 1-.7 1.1-1 1.2-1 1.9-1.5a31.1 31.1 0 0 0 2.4-2.5l1-1.6c.2-.5.3-1 .2-1.5l-.2-.7-.4-.6-.6-.4a1 1 0 0 0-.5-.1c-1 .1-1.9.3-2.8.6a19.1 19.1 0 0 0-5.3 2.8 32 32 0 0 0-2.5 2l-.3.3a5 5 0 0 1-1.6 1 2.4 2.4 0 0 1-1.2-.2l-.5-.5a1 1 0 0 1-.3-.6c0-.3 0-.5.2-.9l.7-1a13.4 13.4 0 0 1 2.3-1.9 27 27 0 0 1 6.2-3.4c1.4-.6 2.9-1 4.4-1.2.6 0 1.3 0 2 .2a6.5 6.5 0 0 1 3.4 2.6c.4.6.7 1.2.8 2a4 4 0 0 1-.2 1.7 8 8 0 0 1-.9 1.8l-1.2 1.7a30.2 30.2 0 0 1-4.4 4.2 35.8 35.8 0 0 1-2.4 2l-1 1c-.3.2-.5.5-.5.7v.7a34.2 34.2 0 0 0 0 1.7c0 .2-.2.4-.4.5l-1 .3Zm-307.8-168-1.1-1.6a6.8 6.8 0 0 0-4.2-2.7c-.9 0-1.6.1-2.3.5-.6.4-1.4 1.1-1.7 2.6v1.3l-.7-.5-.1-1.1c0-.8.2-1.7.6-2.6 1.3-3.8 4.3-7.8 5.6-9.7 9.3-13.3 21.3-25.2 28.6-39.7 1.5-3 3.2-7.3 3.4-11.2.3-5-1.4-9.4-6.8-11.8a27 27 0 0 0-15-.8 155 155 0 0 0-34.9 11.9c-26.2 12-50.7 27.4-76.6 39.8-11.5 5.6-25.3 14-38.6 14-4.7 0-7.9-1-9.8-3-3-3.2-2.6-8.4-1.6-14 2.2-11.7 8.3-25.3 9-32.9.4-4.6 0-10-1.9-14.3-2-5-6-8.7-12.3-9.2a29.8 29.8 0 0 0-16.8 4.6c-7.6 4.2-15 10.5-20.2 14.3-19.1 13.8-37 29.2-55.6 43.7-8.1 6.4-17.8 16.3-28.3 18.5-.8.1-1.4.3-1.8 0l-.1-.5v-1c0-3 1.3-6.8 2.1-9 5.4-13.7 12.5-26.8 17.7-40.6.7-1.9 2.4-6.2 2.4-9.7 0-3.7-1.5-6.7-5.3-7.7a27 27 0 0 0-14.7 1c-7 2.2-14.2 6.1-19.2 8.4-27.6 13-51.3 32.5-77.4 48-4.1 2.4-15.1 9.4-24.2 11.3-4.2.9-8 .8-9.2-3.5-2.8-10.4 2-21.8 7.3-33.2 5.8-12.7 12.2-25.5 12.2-37.2a3.5 3.5 0 0 0-7 0c0 10.8-6.2 22.5-11.6 34.3-6 13-10.8 26-7.7 38 1 3.5 2.8 5.8 5.2 7.2 3.2 2 7.5 2.3 12.3 1.3 9.8-2.1 21.8-9.6 26.2-12.2 26-15.4 49.5-34.8 76.9-47.6 4.7-2.2 11.6-6 18.3-8a20 20 0 0 1 10.8-1c.2 0 .1.2.1.4v1.6c-.4 2.3-1.5 4.9-2 6.1-5.1 13.8-12.2 26.9-17.6 40.6-1 2.7-2.6 7.5-2.7 11.3 0 2.8.8 5.2 2.3 6.7 1.6 1.6 4 2.7 8.1 1.8 11.5-2.3 22.3-12.8 31.2-19.8 18.5-14.5 36.4-29.7 55.4-43.5 5-3.7 12.2-9.8 19.5-14 4.3-2.3 8.7-4 12.8-3.7 3.4.3 5.4 2.4 6.5 5a24 24 0 0 1 1.3 11c-.4 4.3-2.7 10.7-5 17.5a82 82 0 0 0-4.6 21.9 18 18 0 0 0 4 12.8c3 3.2 7.7 5.3 15 5.3 14.3 0 29.2-8.7 41.6-14.7 26-12.4 50.4-27.8 76.5-39.8a185 185 0 0 1 28-10.3c6.4-1.5 12.4-2.4 16.2-.7 2.2 1 2.7 3 2.6 5-.2 3-1.5 6.1-2.7 8.4-7.1 14.2-19 25.9-28 38.8-2 2.8-6.4 9.3-7.3 14.5a9.5 9.5 0 0 0 1 6.5c1 1.9 3 3.5 6.3 4.1l2.1.3c1 3.3 1.7 6.5 2.4 9.8 2.6 11.8 5 23.6 8 35.3a453 453 0 0 0-31.7 2.3c-1.3.1-6.1 1.2-10 1.4h-.6l.2-.4c2-2.8 4.7-5.8 5.6-7.1 8.2-12.1 14.5-24.3 25.8-33.9a3.5 3.5 0 0 0-4.5-5.3c-11.9 10-18.6 22.6-27.1 35.3-1 1.5-4.7 5.5-6.6 8.6-1.4 2.5-1.7 4.8-1.2 6.2.5 1.5 2 2.9 4.4 3.4 4 .8 12.9-1 14.7-1.2 10.9-1.1 22-2 33-2.3 5.5 20 12 40 17.3 60.1.5 1.7 3 14.5 4.7 19.8a13 13 0 0 0 1.4 3.2c.5.7 1 1 1.4 1.3a3.5 3.5 0 0 0 4.3-5.3c-1.5-3.7-4.5-19-5-20.8-5.2-19.5-11.4-38.8-17-58.3 2.8.3 6.8.9 9.9.7 2.5 0 4.6-.7 6-1.8 1.5-1.2 2-3 1.5-5.3a19 19 0 0 0-3.1-5.3c-4-5.3-7-11.4-10-17.2-4.2-8.1-7.9-16.6-12.6-24.4 2-.5 4-1.3 6.1-2.1 9.1-3.8 18.1-10 24.6-13.6 32.7-18.2 63.3-40 96.1-58 11-6 23.2-13 35.5-15.6 1.9-.4 4.7-1.2 7.3-1.5 1-.1 2.1-.2 2.9.2.4.2.6.6.7 1l-.3 2.5c-1.1 4.5-4.6 9.5-5.8 11.6-7.5 12.9-16.3 25.6-21.4 39.7a42.6 42.6 0 0 0-2.7 10.2 14 14 0 0 0 3.7 11.5c5 5.2 13.2 6 22 4.2 11.8-2.3 24.7-9 30.9-12.2 25.6-13.3 49.8-29 75-42.9 12.2-6.7 26.7-15.6 41-16.3l1.4.1v.6c0 .5-.2 1-.4 1.6-1.1 3.5-3.8 7.4-4.8 9-6.5 10.2-14.2 19.8-19.4 30.7-2.2 4.6-3.3 9-2.1 12.7a12 12 0 0 0 6.5 7.3c5.8 3 13 3.4 20.6 2.6 10.4-1.2 21.4-5 29.3-7.3 38-11 74-36.2 113.8-40.3a38 38 0 0 1 16.2 1.2c2.2.8 4 2 5 3.7 1.9 3.1.8 7.5-3.4 13.7-9.3 14-24.3 25.9-39 33.8a3.5 3.5 0 0 0 3.3 6.2 118.6 118.6 0 0 0 41.5-36c6.3-9.4 6.5-16.5 3.7-21.2-1.7-3-4.8-5.3-8.7-6.8-5.2-1.8-12-2.3-19.3-1.6-40.2 4.1-76.7 29.4-115 40.6-7.6 2.2-18.2 5.9-28.2 7-6 .7-12 .5-16.6-1.9a6.2 6.2 0 0 1-2.7-2.3c-.6-1-.6-2-.4-3.1.2-1.7 1-3.4 1.8-5.2 5-10.7 12.6-20.1 19-30a41 41 0 0 0 6.3-13.5c.3-2.6-.3-4.7-1.7-6.3-1.3-1.4-3.5-2.5-7.1-2.3-15.3.7-31 10-44 17.2-25.1 13.9-49.3 29.5-74.8 42.8-5.8 3-18 9.3-29 11.6-6.3 1.2-12.2 1.4-15.7-2.2-1.6-1.7-1.9-3.9-1.7-6 .3-3 1.3-6 2.3-8.6 5-13.7 13.5-26 20.9-38.5 1.6-2.8 6.6-10.6 7-16.4.2-3.7-1.1-6.7-4.5-8.5-1.8-.9-4.2-1.1-6.8-.9-2.9.3-6 1.2-8 1.7-13 2.8-26 10-37.5 16.3-32.8 17.9-63.3 39.8-96 58-6.4 3.5-15.1 9.5-24 13.2-2.4 1-4.7 1.8-7 2.4Zm2.3 18.3c2.3 11 4.6 22 7.5 33l.3 1.2h.2c2.2 0 6.2.8 9.8.9h1.4l-.8-1.3c-4.2-5.5-7.4-12-10.6-18.2-2.7-5.1-5.1-10.4-7.8-15.6Zm17.8-209.8 4.6-2.2c14.6-3.8 29-9 41.6-16.4 22.1-12.7 39-31.7 43.5-59.7 4.6-28.8-9.6-50-31.2-63.5l-3.4-2a83.7 83.7 0 0 0-21.8-18.3 45.3 45.3 0 0 0-30-3 69 69 0 0 0-18.7 6.9c-63.5 6.5-94.5 64-82.3 123.8 2.7 13.1 8 23 15.2 30a75.1 75.1 0 0 1-12.7-5c-16-7.9-30.5-25.7-40.3-45.8-3.2-6.6-6-13.4-8-20.1a152 152 0 0 0 20.8-32.8c2.6-5.5 8.2-16.5 10.5-26.5 1.8-7.7 1.5-15-2.4-19.6-2.3-2.8-5.5-3.5-9-2.8-3.5.8-7.4 3.3-9.7 4.9a54.3 54.3 0 0 0-21 35.6 91.2 91.2 0 0 0 3 39.5 143 143 0 0 1-73.4 44.1 82 82 0 0 1-24.3 3c-5.8-.3-10.3-2-13.1-5.5-4-5.2-4.5-13.7-1.4-26.6 3-13 7.7-24.6 7.8-29.2 0-3.3-1.6-4.9-3.6-5.4a7 7 0 0 0-2.5 0c-1 .3-2.5 1-4.1 2-7.2 4.6-20.6 17.5-22.6 19.3-9.9 9-25 25.5-41 36.9-10 7-20.1 12.3-29.4 11.7-4.6-.3-8.3-1.7-11-4-4-3.5-6-8.9-6.4-14.9a52 52 0 0 1 8.7-30.2 31.5 31.5 0 0 1 13.7-12.4 3.5 3.5 0 0 0-2.6-6.5 39 39 0 0 0-17 15 59.4 59.4 0 0 0-9.7 34.5c.5 8.1 3.3 15.2 8.8 19.8 3.7 3.2 8.7 5.2 15 5.7 10.7.7 22.6-4.9 34-13 16.1-11.6 31.6-28.3 41.6-37.4 1.7-1.5 11.8-11.3 19-16.7.4-.4 1-.7 1.5-1l-.1.3c-1.5 5.6-4.7 14.3-7 23.8-3.7 15.8-2.2 26.3 2.8 32.6a22 22 0 0 0 13.8 7.7 77 77 0 0 0 30.7-2.7 150 150 0 0 0 74.2-43.2c2 5.8 4.4 11.6 7.1 17.1 10.6 21.6 26.4 40.6 43.5 49.1 9.9 5 20.3 7.5 30.9 8.5 15.9 6.6 36 5.4 56.1-1.1l3.8-1.3c18.9 15.7 42.5 26 68.5 28.1 63.8 5.4 122.7-37.3 158.7-86.3a105 105 0 0 0 18.9-51c1-13-1.2-25.5-8.1-35.5a66.4 66.4 0 0 0-30.6-22.4 87.3 87.3 0 0 0-51.9-1.2 46.8 46.8 0 0 0-28.3 19.8c-9 15.4-9 40.2-7.8 57.4a116 116 0 0 0 9.2 38.8c4.2 9 10.1 16.5 18 20 2.5 1 6 1.2 10 .7 4.7-.5 10-2 13.1-2.6a3.5 3.5 0 0 0-1.3-6.9c-3 .6-8 2-12.7 2.6a13 13 0 0 1-6.3-.3c-6.4-2.8-11-9-14.5-16.4a108.3 108.3 0 0 1-8.5-36.4c-1.1-16-1.5-39.1 6.9-53.4a39.9 39.9 0 0 1 24.2-16.6c16-4.7 35.1-3.8 47.3 1 10.4 4 21 10.5 27.4 19.9a48 48 0 0 1 6.9 31 97.6 97.6 0 0 1-17.5 47.4c-34.7 47-91.1 88.6-152.5 83.4-23.2-2-44.4-10.6-61.6-24.1Zm-28.8-148.8c-49.4 12.6-72.4 62-62 113a46 46 0 0 0 25.2 34.4c12.7 1.2 25.8 0 38.5-1.8 3.7-.5 7.4-1 11-1.7a120.8 120.8 0 0 1-35-84.5c0-17.3 5-38.4 15.8-52.4a71 71 0 0 1 6.5-7ZM563 1145a116.6 116.6 0 0 0-64-13 56 56 0 0 0-16.4 13.8 82.3 82.3 0 0 0-14.4 48 114 114 0 0 0 36.5 83l9.8-2.3c21.5-10.6 42-28.4 54.3-49.1 15-25 17.6-54.5-5.8-80.4Zm17.4 13c12 23.7 7.6 48.9-5.5 71-8.1 13.5-19.6 26-32.5 36 4.3-1.8 8.6-4 12.6-6.3 20.3-11.7 36-29 40-54.8a51.2 51.2 0 0 0-14.6-46Zm-213.9 41.6c6.5-8.3 12.2-17.5 16.8-27.4 2.4-5.2 7.8-15.6 10-25 1.2-5.4 1.7-10.5-1-13.7-.8-1-2-.4-3.2 0-2.3.8-4.6 2.4-6 3.4a47.3 47.3 0 0 0-18.2 31.1 80 80 0 0 0 1.6 31.6ZM548 1131a43.3 43.3 0 0 0-5.7-3.6 38 38 0 0 0-24.7-2.5 129 129 0 0 1 30.4 6Zm-503.3-31c80.2 0 160.9.4 241.2-1.1a3.5 3.5 0 0 0-.2-7c-80.2 1.5-160.8 1.1-241 1.1a3.5 3.5 0 0 0 0 7Zm3.3-51.9c193.2 0 386.3-4.4 579.5-4.4 69.4 0 138.5 3.2 207.8 4.9 36.4.8 73.3-1.2 109.6 2.5a3.5 3.5 0 0 0 .7-7c-36.5-3.6-73.5-1.7-110.2-2.5-69.3-1.7-138.4-4.9-207.9-4.9-193.2 0-386.3 4.4-579.5 4.4a3.5 3.5 0 0 0 0 7Zm26.7-151.9.2-.6c.4-.9 1-1.7 1.7-2.6a159.1 159.1 0 0 1 64.5-42c4-1.3 9.8-3.6 15.2-3.9 2.8-.1 5.4.2 7.1 2.1.2.2 0 .5 0 .9 0 .7-.3 1.5-.7 2.3-1.5 3.9-4.7 8-5.9 9.7-10.3 15-25.3 26.8-39 38.5-1.4 1.2-8.8 6.9-12.5 11.4a13 13 0 0 0-2.4 4.4 5 5 0 0 0 .4 4.2c.6 1.2 1.7 2 3.3 2.3 1 .2 2.5 0 4.2-.5 7.2-2.3 22.8-13.4 26.4-16a297.6 297.6 0 0 1 58.7-35.5c4.2-1.8 8.7-3.8 13.2-4.9 4-1 8-1.2 11.8.7 5.4 2.5 5.5 8.5 4.1 15.1-2.4 12.3-10.6 26.8-13.7 33a29 29 0 0 0-3.3 13 12 12 0 0 0 8.8 11.9c6.8 2.3 16 .5 25.3-3.3 12.8-5.3 26.2-14.2 33.7-18.7 33.4-20 67.9-38 107.4-40.8a75.3 75.3 0 0 1 20.5 1c2.9.6 4.7 1.4 5.5 2.7.5.8.5 1.8.4 2.8a22 22 0 0 1-1.4 5.1c-1.7 4.4-4 9-4.8 13.4-.7 3.7-.5 7.1 1.3 10 3.3 5.5 9.6 8.6 17 10a104 104 0 0 0 28.5 0c37.2-3.9 73.1-14.8 110.9-15.6 11.5-.2 22.6 2.2 33.8 4.4a120 120 0 0 0 35.4 3c35.6-3.7 70-13.7 106-14.1 29.9-.4 58.2 11.7 88.6 10.6 39-1.5 77.8-6.6 116.8-7.6 6.8-.1 14.8-1.2 22.8-1.5 7.3-.2 14.5.3 20.2 3.3a3.5 3.5 0 0 0 3.2-6.3 42.9 42.9 0 0 0-18.7-4c-9.4-.2-19.5 1.3-27.7 1.5-39 1-77.8 6.1-116.9 7.6-30.3 1-58.6-11-88.5-10.6-36.2.4-70.7 10.4-106.5 14.1-11.3 1.2-22.3-.8-33.4-3-11.6-2.2-23.3-4.6-35.3-4.4-38 .8-74 11.7-111.5 15.7a97 97 0 0 1-26.4 0c-5.2-1-10-2.8-12.3-6.7-1.2-2-.7-4.3 0-6.8 1-3.5 2.7-7 4-10.5 2-5.4 2.8-10.4.5-14-1.6-2.6-4.6-4.8-10.2-6-2.7-.5-5.5-.8-8.2-1.1-4.7-.5-9.4-.3-14 0-40.8 3-76.3 21.2-110.6 41.8-7.3 4.4-20.3 13-32.8 18.2-7.5 3.1-14.8 5-20.3 3.2-3.7-1.3-4.4-4.3-4-7.3a25 25 0 0 1 2.5-8c3.2-6.5 11.7-21.7 14.3-34.6 2-10.2.3-19-8-22.9a24.2 24.2 0 0 0-16.4-1.1c-5 1.2-9.8 3.3-14.3 5.2-21.7 9.1-41 22.5-60 36.3-2.8 2-12.5 9-19.8 12.9 3.5-3.5 8-6.8 9-7.7 14.1-12 29.5-24.3 40.2-39.8 1.6-2.3 6.2-8.6 7.4-13.5.9-3.3.4-6.2-1.5-8.2-3.2-3.4-7.6-4.5-12.5-4.3-6 .3-12.7 2.8-17.1 4.2-21.5 7-41.1 19.4-58 34.2a67.5 67.5 0 0 0-11.5 12.6c-2.1 3.4-2.2 6.7-.8 8.8 1.4 2.1 4.3 3.6 8.1 4.2 6.3 1 15.4-.3 19.4-.3a3.5 3.5 0 0 0 0-7c-3.3 0-10.2 1-15.9.6-1.6 0-3.1-.3-4.3-.7-.5-.1-1-.2-1.2-.5Zm318-59.5v-1.4l-.1-2-1.4 1.2a26.6 26.6 0 0 1-3.2 2.6 3 3 0 0 1-1.6.5h-1.1a3 3 0 0 1-1-.5 6 6 0 0 1-1.7-1.5 4 4 0 0 1-.6-2v-1l.1-1.3a17.7 17.7 0 0 1 6.4-11.2c.7-.5 1.4-1 2-1.1a11 11 0 0 1 4.3-.4 10.6 10.6 0 0 1 1.4-.3h1l.7.5.4.5.1.8v1l-.3 1-1.8 10.9a154.4 154.4 0 0 0 0 3l-.2.4-.2.6-.5.5-.8.2h-1c-.3 0-.5 0-.6-.2a.7.7 0 0 1-.3-.3v-.5Zm23.2-17.8a4 4 0 0 0-1.5.4l-1.6 1a23.1 23.1 0 0 0-3.3 3.1 20.4 20.4 0 0 1-1.6 1.4l-.4 1.2a26.5 26.5 0 0 0-1.3 6.3 31 31 0 0 1-.4 3c0 .3-.1.5-.3.7a1.7 1.7 0 0 1-.9.6h-.3c-.5 0-1 0-1.3-.2-.3-.3-.5-.7-.6-1.4v-1.3a99.3 99.3 0 0 1 4.1-16.9c0-.2.3-.4.6-.6a2 2 0 0 1 1.1-.3c.5 0 1 0 1.3.2.3.2.5.5.6 1v.2l-.1.3-.8 2.2a56.8 56.8 0 0 1 3.5-2.8 7 7 0 0 1 1.9-1 6 6 0 0 1 1.9-.6c1.3 0 2.3.2 3.1.8.8.7 1.2 1.7 1.4 3.2 0 .8 0 1.8-.2 2.9a46 46 0 0 1-2 7.4 73.6 73.6 0 0 0-1.3 5.2 2 2 0 0 1-.4.7l-.6.4-.8.2c-.6 0-1 0-1.1-.2-.3-.2-.4-.5-.4-1v-1.4a18.5 18.5 0 0 1 1-4 58 58 0 0 1 1.7-6l.4-1.8v-1.5c0-.4-.1-.7-.3-1a1 1 0 0 0-1-.4Zm9.1 9a16 16 0 0 1 2.8-6.8 15 15 0 0 1 3.5-3.5 14.7 14.7 0 0 1 3.6-2 7.2 7.2 0 0 1 3-.4c.4 0 .7.2 1 .3l.8-4 1.4-8.7c.1-.4.3-.7.6-1 .2-.2.5-.4.9-.4h.8c.2 0 .5 0 .7.2l.5.5c.2.3.3.6.3 1l-2.7 16.6-.2 1.8a84.6 84.6 0 0 0 0 9.6l-.3.8-.3.6-.5.3-.8.2h-1a1 1 0 0 1-.5-.4 1 1 0 0 1-.2-.4v-.6l-.2-.7c0-.2 0-.4-.2-.6a23.5 23.5 0 0 1-2.2 1.7 18 18 0 0 1-4.2 2.2 7 7 0 0 1-1.4.3c-.6 0-1.2 0-1.8-.2a4.4 4.4 0 0 1-2.9-2.3c-.3-.6-.5-1.3-.6-2.2a8.4 8.4 0 0 1 .1-2Zm-39.6 3.2a8.3 8.3 0 0 0-.1 2c0 .3 0 .6.2.9.1.3.4.4.8.4.5 0 1-.3 1.5-.5l1.3-1a26.3 26.3 0 0 0 4.5-5.9 8.2 8.2 0 0 0 .8-3.5v-1.4l-.1-.5-.5-.2c-.7 0-1.3.2-2 .6a11.7 11.7 0 0 0-3.5 2.9 15 15 0 0 0-3 6.2Zm43.1-3.7v1.2l.1 1 .5 1c.2.2.4.4.8.5.3.1.7.2 1.2.1.2 0 .5 0 .8-.2a7.2 7.2 0 0 0 1.7-1 21.6 21.6 0 0 0 3.1-2.7 6.7 6.7 0 0 0 1.3-3 64.9 64.9 0 0 0 .6-5.6l-.3-.2a1 1 0 0 0-.5-.1c-.5 0-1.1.2-1.8.4a11.6 11.6 0 0 0-3.8 2.4 13.5 13.5 0 0 0-3 3.9c-.3.7-.6 1.5-.7 2.3Zm60-1.6c0-.8.2-1.7.4-2.8l.6-3.4a526.5 526.5 0 0 0 1.4-7.5l.3-.4a2 2 0 0 1 1.4-.6h.6l.6.1.5.4.2.5v.3l-.4 2.2a1169 1169 0 0 1-3 15.5l-.2.3a1 1 0 0 1-.5.2 2 2 0 0 1-1-.2 2.4 2.4 0 0 1-1.2-1.1 2.1 2.1 0 0 1-.2-1v-.1l.4-2.4Zm-10 3.7V826l-1.5 1.2a26.2 26.2 0 0 1-3.2 2.6 3 3 0 0 1-1.5.5 3.6 3.6 0 0 1-2.2-.5 6 6 0 0 1-1.7-1.5 4 4 0 0 1-.6-2v-1c0-.4 0-.8.2-1.3a17.7 17.7 0 0 1 6.3-11.2c.7-.6 1.4-1 2.1-1.1a11 11 0 0 1 4.2-.4 10.4 10.4 0 0 1 1.4-.3h1l.7.4.4.6.2.8-.1 1-.3 1-1.7 10.9a156.1 156.1 0 0 0-.2 3v.4l-.3.6-.5.4c-.2.2-.4.3-.8.3a5 5 0 0 1-1 0l-.6-.2a.7.7 0 0 1-.3-.3v-.5Zm-7.3-5.6a8.2 8.2 0 0 0-.1 2l.2.9c.2.3.4.4.8.4.6 0 1-.3 1.5-.6.5-.2 1-.6 1.4-1a26.3 26.3 0 0 0 4.4-5.8 8.3 8.3 0 0 0 .9-3.5v-1.4l-.2-.5c-.1-.2-.3-.2-.5-.2-.6 0-1.3.2-2 .5l-1.8 1.2a15.2 15.2 0 0 0-4.6 8Zm48.9-3.7a160 160 0 0 1 1.3-7.7l.8-4.1a249.7 249.7 0 0 0 1.5-9.4l.1-1.7a47.3 47.3 0 0 0 .3-.8l.3-.4.6-.2c.4 0 .8 0 1 .2.4 0 .6.3.8.5l.4.8.2 1a7.2 7.2 0 0 1 0 2l-1.1 5.8c-.5 2-.8 3.9-1.1 5.8a18.7 18.7 0 0 1 3.4-3l2-.9a6.2 6.2 0 0 1 4-.3c.6.1 1 .4 1.4.7.4.4.7.8.9 1.3l.4 1.6v1.8a14.5 14.5 0 0 1-3.2 7c-.7 1-1.5 1.8-2.4 2.6a29.6 29.6 0 0 1-4.5 3l-1.7.4-1.3-.1c-.3 0-.6-.2-.8-.4l-.3.4c0 .2-.2.3-.3.4a1.7 1.7 0 0 1-1.1.6c-.8 0-1.3-.1-1.7-.5-.4-.3-.6-.8-.6-1.5a5 5 0 0 1 0-1.4l.7-3.5Zm20.6-3c0-.5 0-1 .3-1.5.3-.4.7-.7 1.2-.9a17.3 17.3 0 0 1 3-5 13.4 13.4 0 0 1 4-3.1 7.3 7.3 0 0 1 4.6-.6 4 4 0 0 1 1.5.7l1 1.1.4 1.5v1.3c-.2.8-.5 1.5-1 2.1-.4.6-1 1.2-1.7 1.6-.6.5-1.4 1-2.1 1.3a24 24 0 0 1-6.7 2l-.2.9v1c0 .9.4 1.4 1 1.8.7.4 1.5.6 2.6.5a10.5 10.5 0 0 0 4.8-1.9 4 4 0 0 0 1.2-1l1.4-.9 1-.4c.4 0 .6 0 .8.2l.1.5a4.3 4.3 0 0 1 0 .6 3.4 3.4 0 0 1-1 2 13.8 13.8 0 0 1-11.3 3.8 7 7 0 0 1-1.4-.4 4.4 4.4 0 0 1-2.3-2.1c-.3-.6-.4-1.2-.5-2V818c-.1 0-.3 0-.4-.2-.2-.1-.3-.4-.3-.6ZM566 825a2 2 0 0 1-1.6-.6 2.5 2.5 0 0 1-.7-1.6v-.8l.2-1v-.8a26.2 26.2 0 0 0 .4-2.7 83.6 83.6 0 0 0 0-4.2c0-.2-.1-.3-.4-.3l-.9-.2c-.3 0-.6-.2-.8-.4-.3-.1-.4-.4-.5-.9 0-.4 0-.7.2-1 .1-.4.3-.6.6-.8.3-.2.6-.3 1-.3a8 8 0 0 0 1.1-.2c.2 0 .4-.2.5-.5l.1-.6.4-2.1a34.7 34.7 0 0 1 2-6.6 22.5 22.5 0 0 1 3.8-4.5 8.7 8.7 0 0 1 5.2-2.2c1.2 0 2.2 0 3 .4.7.3 1.4.9 2 1.6l.2.6.1.6v1l-.4.9a2 2 0 0 1-.6.6c-.2.2-.4.2-.7.3-.3 0-.6 0-.9-.2l-.5-.5a3 3 0 0 1-.4-.7l-.3-.7c0-.2-.2-.4-.4-.5a.8.8 0 0 0-.6-.2l-1 .2-.9.4c-.8.5-1.5 1-2.1 1.7-.7.6-1.3 1.3-1.8 2.2-.5.8-1 1.9-1.4 3.1a29.5 29.5 0 0 0-1.1 4.7h.2l1.1-.1a28.8 28.8 0 0 0 2.2-.5 9.5 9.5 0 0 1 2-.2h.8l.5.4.2.7v.6l-.2.7-.3.6a1 1 0 0 1-.6.4l-1.2.3a174.7 174.7 0 0 0-3.1.6l-2 .7a24 24 0 0 0-.5 5.5 124 124 0 0 1-.5 6l-.3.5-.5.4-.6.2Zm-33.8-14c-.6 0-1.3.2-2 .6L528 813a27.9 27.9 0 0 0-3.8 3.3 88.8 88.8 0 0 1-1 5l-.1 1.7v1.1l.8-.4a10.7 10.7 0 0 1 1.4-.6l.8-.3c2-1 3.7-2.3 5-3.9a11.2 11.2 0 0 0 2.6-7c0-.4-.2-.7-.4-.8-.2-.2-.6-.3-1-.2Zm45.8 3.3a14.8 14.8 0 0 1 2.2-5.7 19.8 19.8 0 0 1 6.3-6.2 5 5 0 0 1 1.2-.4c.5-.6 1.2-1 2.1-1 1-.1 2 0 2.7.6.8.4 1.5 1.1 2 2a25 25 0 0 1 .9 1.7 8.5 8.5 0 0 1 .5 2.2c0 1 0 2.2-.3 3.3a18.2 18.2 0 0 1-5.9 9.4 8.8 8.8 0 0 1-5.2 2.1c-1 .1-2 0-2.7-.1a4.9 4.9 0 0 1-3.3-2.8c-.3-.7-.5-1.5-.6-2.4l.1-2.7Zm22.6 3.8a200 200 0 0 1 1.2-10.2 107.8 107.8 0 0 0 .3-3.4v-.4a9.8 9.8 0 0 1 0-2.4c.2-.5.3-.9.5-1 .1-.3.4-.4.8-.4l1 .1.6.6c.2.2.3.5.3.8l.2 1v1.2a51.5 51.5 0 0 1 2.4-2.5l1.5-1a4.4 4.4 0 0 1 3-.3l.8.2c.3 0 .6.2 1 .4.4.3.8.7 1.1 1.2.4.5.6 1 .6 1.5v.7l-.3.6a2 2 0 0 1-.5.6l-.6.2-.8-.1c-.4 0-.7-.2-.9-.4l-.3-.3-.3-.4-.3-.4-.2-.3a2 2 0 0 0-.5 0 4 4 0 0 0-1.9.7c-.6.4-1.1 1-1.6 1.5s-1 1-1.4 1.7l-1 1.7a184.3 184.3 0 0 1-1.3 7.5v.5l.1 1.2-.1 1.2a1 1 0 0 1-.6.5c-.3.2-.6.3-1 .3-.5 0-1 0-1.3-.4a2 2 0 0 1-.5-1.3v-.7Zm-19.2-3.8a7 7 0 0 0 0 1.7c0 .4 0 .8.2 1.2a2.5 2.5 0 0 0 1.7 1.5c.4.1.8.2 1.4.1 1 0 2-.4 2.8-1 .8-.6 1.6-1.3 2.2-2.2a12.6 12.6 0 0 0 2.5-7.7c0-.4-.1-.7-.3-1a12.6 12.6 0 0 0-1-1.6 10 10 0 0 1-.3-.8l-.4.6c0 .1-.2.3-.5.4a14.2 14.2 0 0 1-2.6.8 10.4 10.4 0 0 0-2.6 2 15.1 15.1 0 0 0-3 6Zm35.7-3.4c0-.6 0-1 .3-1.5.3-.4.7-.7 1.2-.9a17.3 17.3 0 0 1 3-5 13.5 13.5 0 0 1 4-3.1 7.3 7.3 0 0 1 4.7-.6 4 4 0 0 1 1.5.7c.4.3.7.6.9 1.1a4.7 4.7 0 0 1 .3 2.8c0 .8-.4 1.5-.8 2-.5.7-1 1.2-1.7 1.7s-1.4 1-2.2 1.3a23.7 23.7 0 0 1-6.7 2l-.2.9v1c0 .8.4 1.4 1 1.8.7.4 1.6.5 2.7.4l1.8-.3a10.5 10.5 0 0 0 3-1.6l1.2-.9 1.3-.9c.4-.2.8-.4 1.1-.4.4 0 .6 0 .7.2l.2.5a4.3 4.3 0 0 1 0 .6 3.4 3.4 0 0 1-1 2 13.8 13.8 0 0 1-11.3 3.8 7 7 0 0 1-1.5-.4 4.4 4.4 0 0 1-2.3-2.2l-.5-2 .1-2-.5-.3a1 1 0 0 1-.3-.7Zm41.3.7.5-2.8.6-3.4a580.4 580.4 0 0 0 1.4-7.5c0-.2.2-.3.3-.4a2 2 0 0 1 1.4-.6h.6c.3 0 .5 0 .6.2.2 0 .4.2.5.3l.2.5v.2l-.4 2.3a1101.4 1101.4 0 0 1-3 15.5l-.3.3a1 1 0 0 1-.4.2 2 2 0 0 1-1-.2 2.4 2.4 0 0 1-1.2-1.1 2.1 2.1 0 0 1-.2-1l.4-2.5Zm-105.5-1v-.3c0-.3-.2-.6-.5-.8l-1-.2c-.6 0-1.2.3-1.7.7a10.4 10.4 0 0 0-3.5 4.4 19.6 19.6 0 0 0 4.7-1.5l1.3-1c.4-.4.6-.8.7-1.2Zm118.7-2.7v-3.6l.6-3.6a5 5 0 0 1-2.1-.3l-.8-.6c-.2-.2-.3-.5-.3-.8v-.4l.2-.6c0-.2.2-.4.3-.5l.6-.3 2.7-.2c.2 0 .4-.1.5-.4l.1-.6a49.4 49.4 0 0 1 .9-5.2l-.1-.5v-.7l-.1-.2v-.4l.1-.8.4-.7c.2-.3.5-.4 1-.5.3 0 .6 0 .9.2l.7.5.4.8a3.7 3.7 0 0 1 .2 1.9l-1 5.8a92 92 0 0 0 1.9-.6l1.7-.4a41.7 41.7 0 0 0 4-1.2h1.3l.4.4c.2.1.2.3.2.6v.8l-.5.7-.7.5a1 1 0 0 1-.7.3 20.2 20.2 0 0 0-2 .7 94.2 94.2 0 0 0-5.9 1.9h-.5a32.2 32.2 0 0 0-.9 7.4l.2 1 .4.9.7.5c.3.1.7.2 1.1.1.7 0 1.4-.3 2-.7l2-1.7 1.5-2.1 1.4-2.2c.1-.2.3-.4.6-.4a1.3 1.3 0 0 1 .6.1c.2 0 .3.2.3.3l.2.3v.3c-.2.8-.4 1.7-.8 2.6a204.3 204.3 0 0 1-1.7 3.6 10 10 0 0 1-1.7 1.7l-1 .7a5 5 0 0 1-1.6.8 9 9 0 0 1-1.7.3c-.9.1-1.7 0-2.4-.2a5 5 0 0 1-1.8-1.2c-.5-.5-1-1.1-1.2-1.8-.3-.7-.5-1.5-.6-2.3Zm40.8-15.3c.2-.6.5-1 .7-1.2a2 2 0 0 1 1.1-.3h1a1.7 1.7 0 0 1 1 1.2c.2.2.2.5.3.8v1.2l-.1 1.1-.3 2.8a86.4 86.4 0 0 1-.3 4.4 16 16 0 0 0 .4 3l.3.6c.2.1.3.2.5.1.1 0 .3 0 .5-.3a9.7 9.7 0 0 0 1.4-1.7 34.5 34.5 0 0 0 2.7-4.3 53.6 53.6 0 0 0 2.2-5l.4-1.2c.1-.4.3-.7.6-1 .3-.2.8-.4 1.4-.5.4 0 .7.1 1 .3.5.2.7.5.9 1a21.8 21.8 0 0 1-.1 3.1 76.6 76.6 0 0 0 0 3.2c0 .8.2 1.6.4 2.2a4 4 0 0 0 1 1.7 59.1 59.1 0 0 0 5-11v-.3c0-.4 0-.9.2-1.3a6.2 6.2 0 0 1 1.7-2.3l.8-.4c.6 0 1 0 1.4.3.3.3.5.7.6 1.2v.7l-.3.7L733 804l-.4 1a92.3 92.3 0 0 1-1.2 2.4l-.7.8a2.3 2.3 0 0 1-2.5 0l-1.1-1-1-1.4-.5-1.3-1-3.2-.4.5a69.5 69.5 0 0 0-3 4.4 111.8 111.8 0 0 1-2.3 2.9 6.4 6.4 0 0 1-1.1.8l-.5.1c-.9.1-1.6 0-2.2-.4-.7-.4-1.2-.9-1.6-1.5-.4-.7-.7-1.4-.9-2.2a15.6 15.6 0 0 1-.5-4.8 59.6 59.6 0 0 1 .4-7.1v-.6a17.8 17.8 0 0 1 0-1Zm-83.1 11.7v-.4a1 1 0 0 0-.5-.8c-.2-.2-.6-.2-1-.2-.6 0-1.1.3-1.7.6a10.4 10.4 0 0 0-3.5 4.4 19.8 19.8 0 0 0 4.7-1.4l1.4-1 .6-1.2Zm122.2 2.3v-3.4l-1.4 1.2a25.9 25.9 0 0 1-3.2 2.6c-.5.3-1 .5-1.6.6a3.6 3.6 0 0 1-2.1-.5 6 6 0 0 1-1.7-1.6 4 4 0 0 1-.6-2v-1l.1-1.3a17.7 17.7 0 0 1 6.4-11.1c.7-.6 1.4-1 2-1.2a11 11 0 0 1 4.3-.4 10.7 10.7 0 0 1 1.4-.3l1 .1c.3 0 .5.2.7.4l.4.6.1.7v1l-.3 1-1.8 10.9a154.5 154.5 0 0 0 0 3 87.8 87.8 0 0 1-.5 1c0 .2-.2.3-.4.5l-.8.2a5 5 0 0 1-1 0l-.6-.1a.7.7 0 0 1-.3-.4v-.5ZM492 804.4l.3-1c.2-.5.4-.9.8-1.2a4.5 4.5 0 0 1 1.5-.6h.4l.4.3.4.4c.4 0 .6.1.7.4l.2.7v1l-.5.9-.7.6a4.3 4.3 0 0 1-1.7.7h-.8l-.7-.7-.3-.5v-.3a2.4 2.4 0 0 1 0-.7Zm270.1-1.5h.3a53.4 53.4 0 0 0 1.2.1l2.1-.3a17 17 0 0 0 3.9-1.6c.4-.4.7-.7.7-1v-.4c0-.2 0-.4-.3-.6l-1-.5-1-.5-1.2-.3-.7-.3a7.3 7.3 0 0 1-2-1c-.4-.2-.7-.5-.9-.8-.3-.3-.5-.7-.6-1.1a5.6 5.6 0 0 1-.3-1.2c0-.4 0-.8.3-1.2.2-.5.4-1 .8-1.5a11.1 11.1 0 0 1 2.8-2.5 22 22 0 0 1 2.2-1.5l1.1-.5c.4-.2.8-.2 1.3-.3h1.3l1.3.1 1 .6c.3.3.5.7.5 1.2a3.8 3.8 0 0 1-.4 2l-.5.2h-.8l-.5-.4-.6-.4-.6-.1a8.7 8.7 0 0 0-3.5 1.6l-1 .9a5 5 0 0 0-.8.9 1 1 0 0 0-.3.7l.3.6.6.3 1 .4a290.4 290.4 0 0 0 4.5 1.6l.8.5a2.3 2.3 0 0 1 .7 1.7v.5a7.8 7.8 0 0 1-1 3.4c-.5.5-1 1-1.8 1.5a16.8 16.8 0 0 1-4.4 2.2 9 9 0 0 1-2 .5l-1.2-.1-1-.4-1-.7-.4-.8.1-.4a2.2 2.2 0 0 1 .6-1h.4Zm-17.7-2a8.2 8.2 0 0 0-.1 2c0 .3 0 .6.2 1 .1.2.4.3.8.3.5 0 1-.2 1.5-.5s1-.6 1.3-1a26.5 26.5 0 0 0 4.5-5.9 8.3 8.3 0 0 0 .8-3.5V792l-.1-.5a.5.5 0 0 0-.5-.3c-.7.1-1.3.3-2 .6L749 793a15.2 15.2 0 0 0-4.6 8Zm54.3-5.4a19.6 19.6 0 0 1 2.4-6.8l2.2-3.2c.9-1 1.8-1.8 2.8-2.4l1.1-.5a5.7 5.7 0 0 1 2.6-.3c.3 0 .7.2 1 .4.3.1.5.3.7.6.2.3.3.7.3 1.1v1l-.4 1-.6.6a2 2 0 0 1-1 .3 2 2 0 0 1-.8 0 6.7 6.7 0 0 1-1.1-.5l-.4-.2c-.6.3-1 .7-1.5 1.1a10.7 10.7 0 0 0-2.2 3.1 20.3 20.3 0 0 0-1.7 5 11 11 0 0 0-.2 2.3l.1.7.3.7.6.4h.7c.5 0 1 0 1.4-.2a10 10 0 0 0 2.6-1.4 43.4 43.4 0 0 0 3.2-2.3l.5-.2.6.1c.2 0 .3.3.3.5v.6l-.7 1.5a7.1 7.1 0 0 1-2.2 2.2 23.6 23.6 0 0 1-3.8 2 9 9 0 0 1-2 .5 4.4 4.4 0 0 1-1.4-.1c-1.2-.4-2-1-2.6-1.7-.6-.8-.9-1.7-1-2.8a10.6 10.6 0 0 1 .2-3.1Zm17.8-1.4a14.9 14.9 0 0 1 2.1-5.6 19.9 19.9 0 0 1 6.3-6.3 5 5 0 0 1 1.3-.3c.4-.6 1.1-1 2-1 1-.1 2 0 2.7.5.8.5 1.5 1.2 2 2a24.8 24.8 0 0 1 1 1.8 8.5 8.5 0 0 1 .4 2.2c0 1 0 2.2-.2 3.3a18 18 0 0 1-5.9 9.4 8.8 8.8 0 0 1-5.3 2.1c-1 .1-2 0-2.7-.2a4.9 4.9 0 0 1-3.3-2.8 7 7 0 0 1-.6-2.3c0-.8 0-1.8.2-2.8Zm21.9-1.8a14.8 14.8 0 0 1 2.1-5.6 20 20 0 0 1 6.3-6.3 5 5 0 0 1 1.3-.4c.5-.6 1.1-1 2-1 1 0 2 .1 2.8.6.7.5 1.4 1.1 2 2a24 24 0 0 1 .8 1.7 8.8 8.8 0 0 1 .5 2.2c0 1.1 0 2.2-.2 3.3a18.1 18.1 0 0 1-5.9 9.4 8.8 8.8 0 0 1-5.3 2.2c-1 0-2 0-2.7-.2a4.9 4.9 0 0 1-3.3-2.8c-.3-.7-.5-1.5-.6-2.3 0-.9 0-1.8.2-2.8Zm-18.6 1.8a6.7 6.7 0 0 0 0 1.7c0 .5 0 .9.2 1.2a2.5 2.5 0 0 0 1.7 1.6h1.4c1 0 2-.4 2.8-1 .9-.5 1.6-1.3 2.2-2a12.6 12.6 0 0 0 2.5-7.8c0-.4 0-.7-.2-1a12.5 12.5 0 0 0-1-1.7l-.4-.7-.3.5-.6.5a14.3 14.3 0 0 1-2.6.8c-.4.1-.8.4-1.2.7l-1.3 1.3a15.2 15.2 0 0 0-3.2 6Zm44.7-22.6a38 38 0 0 1 .3-3c0-.5.2-1 .5-1.3.2-.3.5-.5.9-.5h.7l.8.3.6.5c.2.2.3.4.3.7v.8l-3.4 20.7a37.7 37.7 0 0 0-.5 4.2v1.8l-.1 1.3a3 3 0 0 1-.5 1.1c-.3.3-.6.5-1 .5l-1-.1-.7-.6-.5-.7-.1-.8v-.8a21.1 21.1 0 0 1 .3-3l3.4-21.1Zm16.7 22.3-.1 1.3a3.6 3.6 0 0 1-1.8 2c-.4.2-.8.4-1.3.4a2.6 2.6 0 0 1-1.9-.6l-.6-.7-.2-1c0-.5 0-1 .2-1.4a4 4 0 0 1 1.8-2 2 2 0 0 1 1.3-.4h1l.8.6.6.8.2 1Zm-39.5-1.5a7 7 0 0 0 0 1.7l.2 1.2a2.5 2.5 0 0 0 1.7 1.5c.4.1.9.2 1.4.1 1 0 2-.4 2.8-1 .9-.6 1.6-1.3 2.2-2.1a12.6 12.6 0 0 0 2.5-7.8c0-.3 0-.7-.2-1a12.6 12.6 0 0 0-1-1.6 10 10 0 0 1-.4-.7l-.3.5-.5.4a14.2 14.2 0 0 1-2.6.8l-1.3.8-1.3 1.2a15.1 15.1 0 0 0-3.2 6ZM662 790l.3-1c.1-.5.4-.9.8-1.2a4.4 4.4 0 0 1 1.5-.6h.4c.1.2.3.2.4.3l.4.5c.3 0 .6 0 .7.3l.2.7v1l-.5.9-.7.6a4.4 4.4 0 0 1-1.7.7h-.8l-.7-.7-.3-.5a1.7 1.7 0 0 1 0-.7v-.3Zm-303-49.6a187 187 0 0 0 25.7 11.9c.9.3 6.2 2.7 9 3a5 5 0 0 0 4.2-1.3c.6-.6 2.4-3.5-.6-5.5-1-.6-6.6-3-7-3.3l-12.6-5c-5-2.1-10.3-4-15.5-6a361.5 361.5 0 0 1-12.4-7.2c8.7 1.4 19.9 4.8 24 5.7 27.4 6 59.8 13 79.4 35 2.4 2.7 6.6 7.1 9.7 11.6 1.6 2.5 3 5 3 7a3.5 3.5 0 0 0 7 0c0-3.2-1.7-7-4.2-10.9-3.3-4.8-7.8-9.5-10.2-12.3-20.6-23.1-54.4-30.9-83.2-37.2-4.4-1-16.9-4.7-25.9-6-4.6-.8-8.5-.7-10.5.2a4 4 0 0 0-1.9 1.5c-1.7-1.2-4.2-3-5.8-5.1-.7-.9-1.3-1.6-1-2.5.1-.6.7-.8 1.4-1.1 1.3-.7 3.1-1 5-1.3 7-.9 15.7 0 18.9-.2 31-1.8 61.9-7.2 93-8.7a3.5 3.5 0 0 0-.4-7c-31 1.5-62 7-93 8.7-3.9.2-15.6-1-23 1-4.6 1-7.7 3.4-8.7 6.6-.8 3 .1 6 2.2 8.7 2.3 3 6 5.6 8 7a131 131 0 0 0 25.4 12.7Zm520 47.5a1 1 0 0 1-.8-.3 3 3 0 0 1-.7-.8l-.4-1.2a7 7 0 0 1-.2-1.1c0-.6 0-1.1.2-1.5.1-.4.5-.8 1-1.2l.6-.4 1-.7 1.2-.9 1.3-1 1.8-1.4a32.2 32.2 0 0 0 2.6-2.3l1-1.5c.3-.6.4-1 .4-1.6l-.2-.7-.4-.6-.5-.4a1 1 0 0 0-.6-.2 19 19 0 0 0-8.2 3l-2.6 1.9-.3.3a5.2 5.2 0 0 1-1.6.9 2.4 2.4 0 0 1-1.2-.3l-.6-.4a1 1 0 0 1-.2-.7c0-.2 0-.5.2-.8l.8-1a13.2 13.2 0 0 1 2.4-1.8 26 26 0 0 1 10.8-4c.6-.1 1.3 0 2 .2a6.5 6.5 0 0 1 3.2 2.7c.4.7.7 1.3.7 2a4 4 0 0 1-.2 1.8 8 8 0 0 1-1 1.7l-1.3 1.7a30 30 0 0 1-4.6 4 33.8 33.8 0 0 1-2.5 1.9l-1 .8-.6.8v.7a31.2 31.2 0 0 0 0 1.7l-.5.5-1 .2ZM685.3 537.5a187.4 187.4 0 0 0 2.3-10.2l.4-2.4 1.6-7.4a22.6 22.6 0 0 0 .4-5c0-.5.1-.8.3-1 0-.4.3-.6.5-.7a2 2 0 0 1 1-.2c.6 0 1 0 1.4.2.4.2.6.4.8.7l.3 1v1l1.6-.9a13.8 13.8 0 0 1 4-1l1.9-.1c1 0 1.8.1 2.5.5a5.3 5.3 0 0 1 3 3.4 7.5 7.5 0 0 1-.1 5 12.4 12.4 0 0 1-3 4.3 17.7 17.7 0 0 1-4.7 3 35.4 35.4 0 0 1-4.1 1.7 6 6 0 0 1-3 0l-1.5-.6a38.2 38.2 0 0 0-1.3 6.1 134.2 134.2 0 0 1-1 4l-.6.2a3.8 3.8 0 0 1-1.3.2c-1 0-1.5-.4-1.5-1.2l.1-.6ZM668 523.6c0-1.1.1-2.3.4-3.5l.8-3.5a5 5 0 0 1-2-.6c-.4-.1-.6-.3-.8-.6-.2-.2-.3-.5-.3-.8l.1-.5.2-.5.4-.5.6-.2h2.7c.3 0 .4-.1.5-.3l.3-.7.5-2 .4-1.5a36.5 36.5 0 0 0 .3-2V505c0-.1 0-.4.2-.7 0-.3.2-.5.4-.8.2-.2.6-.3 1-.3.3 0 .7 0 1 .2l.5.6.4.8a3.7 3.7 0 0 1 0 1.9l-1.4 5.7a89 89 0 0 0 1.9-.4c.6 0 1.1-.2 1.7-.3a42.1 42.1 0 0 0 4.2-.9h.6l.6.3c.2 0 .3.2.4.3l.2.6c0 .3 0 .6-.2.9l-.5.6-.7.5-.8.2a19 19 0 0 0-2 .5 105 105 0 0 0-6 1.4h-.5a31.8 31.8 0 0 0-1.5 7.3v1l.4.9.7.6 1 .2c.8 0 1.5-.2 2.2-.6a10 10 0 0 0 2-1.5l1.7-2 1.6-2c.1-.3.3-.4.6-.4a1.3 1.3 0 0 1 .6.2l.3.2.1.4v.3c-.2.8-.6 1.6-1 2.5a197.7 197.7 0 0 1-2 3.4 10.1 10.1 0 0 1-1.9 1.6l-1 .6a5 5 0 0 1-1.6.7 9 9 0 0 1-1.8.2c-.9 0-1.6-.2-2.3-.5a5 5 0 0 1-1.7-1.3c-.5-.5-.9-1.2-1.1-2-.3-.6-.4-1.4-.4-2.3Zm-22 0a88.4 88.4 0 0 1 1.2-7 5 5 0 0 1-2-.6c-.3-.1-.5-.3-.7-.6-.2-.2-.3-.5-.3-.8v-.5l.3-.5.4-.5.5-.2h2.8c.2 0 .4-.1.5-.3l.2-.7.5-2 .4-1.5a40.9 40.9 0 0 0 .3-2V505l.2-.7.5-.8c.2-.2.5-.3 1-.3.3 0 .6 0 .9.2l.6.6.4.8a3.7 3.7 0 0 1 0 1.9l-1.5 5.7a89 89 0 0 0 2-.4l1.7-.3a42.1 42.1 0 0 0 4.1-.9h.7l.6.3.4.3.1.6-.1.9-.5.6-.7.5-.8.2a19 19 0 0 0-2 .5 105 105 0 0 0-6 1.4h-.5a32.4 32.4 0 0 0-1.6 7.3l.1 1 .4.9.7.6 1 .2c.7 0 1.4-.2 2.1-.6a10 10 0 0 0 2-1.5l1.8-2 1.5-2c.2-.3.4-.4.7-.4a1.3 1.3 0 0 1 .6.2l.3.2v.7a10 10 0 0 1-1 2.5 186.3 186.3 0 0 1-2 3.4 10.1 10.1 0 0 1-1.8 1.6l-1 .6a5 5 0 0 1-1.7.7 9 9 0 0 1-1.7.2c-1 0-1.7-.2-2.4-.5a5 5 0 0 1-1.7-1.3c-.5-.5-.8-1.2-1-2-.3-.6-.4-1.4-.4-2.3Zm45.6 2a15 15 0 0 1 1.9.4h1.1a8 8 0 0 0 2-.7l.7-.3a25 25 0 0 0 4.2-3c.7-.5 1.2-1.2 1.6-2a5.3 5.3 0 0 0 .5-3.6c0-.3-.2-.6-.4-.9a2 2 0 0 0-.8-.6l-1-.2a8.8 8.8 0 0 0-2.5.4 8.1 8.1 0 0 0-2.4 1.3l-1.3.8c-.5.3-1 .4-1.6.5l-2 8Zm-24.2-66.8c5.5 3 13 7.2 15.1 8 10 3.3 28 7.7 44.4 9.2 11.3 1 22 .5 28.8-2.4 12.2-5.1 15-15.4 12.5-25.5a37.8 37.8 0 0 0-17.2-23c-30.3-16.4-67-12.5-100.1-12.5a3.5 3.5 0 0 0 0 7c32 0 67.5-4.2 96.8 11.7a30.3 30.3 0 0 1 13.7 18.4c1.6 7-.1 14-8.4 17.5a58.2 58.2 0 0 1-25.5 1.8c-15.7-1.4-33-5.6-42.7-9-2.7-.8-13.4-7.1-18.4-9.5l-3-1.1c-.7-.1-1.2 0-1.6 0-1.7.3-3.3 1.6-3.2 4.5 0 2.3 2.4 7.8 2.7 8.4 1.6 5 2.9 11.2 1.5 16.3-.6 2-1.5 3.5-2.7 4.3-2.2 1.4-5.2 1.2-8.3.3-10-2.5-22-11.5-26-15.9a3.5 3.5 0 0 0-5.2 4.8 78 78 0 0 0 29.4 18c5.3 1.3 10.2 1 13.8-1.3 2.6-1.6 4.6-4.2 5.7-8.3 1.8-6.4.4-14.2-1.6-20.4l-.5-1.3Zm-156-62.7h-1.6l-1.8.6a23 23 0 0 0-4 2.2 20.3 20.3 0 0 1-1.8.8l-.8 1.1a26.7 26.7 0 0 0-2.9 5.7 33.7 33.7 0 0 1-1.6 3.4 1.7 1.7 0 0 1-1 .4h-.3a2 2 0 0 1-1.2-.6c-.3-.3-.3-.8-.2-1.5l.1-.6.2-.7a100.6 100.6 0 0 1 8.3-15.2c.2-.2.4-.4.8-.5a2.7 2.7 0 0 1 2.3.6c.3.3.4.6.3 1v.3l-.3.3-1.2 1.9a56.4 56.4 0 0 1 4-1.9l2.1-.5a6 6 0 0 1 2 0c1.3.3 2.2.8 2.8 1.6.6.8.8 2 .5 3.4a11 11 0 0 1-.9 2.7 45.7 45.7 0 0 1-3.8 6.8 72.5 72.5 0 0 0-2.6 4.6 2 2 0 0 1-.6.6l-.6.2h-1c-.4-.2-.8-.3-1-.6v-1l.3-1.3a18.2 18.2 0 0 1 2-3.6 58.4 58.4 0 0 1 3.3-5.5l.7-1.5c.3-.5.4-1 .5-1.4l-.1-1.2c-.1-.3-.4-.5-1-.6Zm46.5 10.5c-.2 1-.7 1.7-1.5 2.2-.8.6-1.7.8-2.6.6-.7-.1-1.2-.5-1.6-1-.4-.6-.6-1.2-.5-2 .2-.9.7-1.6 1.6-2.2.9-.5 1.7-.7 2.6-.6.7.1 1.2.5 1.6 1 .4.6.5 1.3.4 2Zm-88-19.4 1-1a2 2 0 0 1 1.2 0c.4 0 .7.2 1 .4a1.7 1.7 0 0 1 .7 1.3 3.6 3.6 0 0 1-.1 1.2v.2l-.3.7-.4 1-1 2.6a87 87 0 0 1-1.4 4.2 16.3 16.3 0 0 0-.3 3l.1.7c.1.2.2.2.4.3l.6-.2a9.7 9.7 0 0 0 1.8-1.3 38.6 38.6 0 0 0 7.8-8.8c.2-.3.5-.6.9-.8.3-.1.8-.2 1.5 0 .3 0 .6.2 1 .5l.5 1a21.6 21.6 0 0 1-1 3.1 75.2 75.2 0 0 0-.8 3.1c-.2.8-.2 1.6-.2 2.3 0 .7.3 1.3.6 1.8l2-2a59.6 59.6 0 0 0 5.6-7.3v-.3c.2-.4.3-.8.7-1.2a6.2 6.2 0 0 1 2.1-1.8c.4-.2.7-.2 1-.2.5.1 1 .4 1.2.7.3.4.3.8.3 1.3l-.2.6a3 3 0 0 1-.5.7l-8.8 10.6-.7 1a87 87 0 0 1-1.7 2l-1 .5a2.3 2.3 0 0 1-2.4-.6l-.8-1.3-.5-1.5-.2-1.5-.1-3.3-.5.4a60.7 60.7 0 0 0-4 3.4 99 99 0 0 1-3 2.2 6.5 6.5 0 0 1-1.3.5h-.5a3 3 0 0 1-2-1c-.6-.5-1-1.1-1.2-1.8-.2-.8-.3-1.5-.3-2.4a15.6 15.6 0 0 1 .8-4.7 58.1 58.1 0 0 1 2.1-6.8l.1-.6a15.4 15.4 0 0 1 .3-1Zm73 16.8c0 .9-.6 1.6-1.4 2.2-.8.5-1.7.7-2.6.5-.7 0-1.2-.4-1.6-1-.4-.6-.6-1.2-.4-1.9.1-1 .6-1.7 1.5-2.2.9-.6 1.7-.8 2.6-.6.7 0 1.3.4 1.6 1 .4.6.5 1.2.4 2Zm-122 2.4a1 1 0 0 1-.4-.2l-.4-.5a2.4 2.4 0 0 1-.1-1.3 2 2 0 0 1 .5-1l.4-.3.4-.2a39 39 0 0 1 2.6-.2 14.3 14.3 0 0 0 3.7-1.2 27.1 27.1 0 0 0 4.4-3.2 19.6 19.6 0 0 0 4.2-6 144.2 144.2 0 0 1-3.6 2.6 14.4 14.4 0 0 1-2.6 1.1h-1c-1 0-1.7-.4-2.2-1a5 5 0 0 1-1.4-2.3l-.1-1v-1.4a22 22 0 0 1 1.2-4.1 60 60 0 0 1 2.2-5.5 5.5 5.5 0 0 0 .2-.9c0-.2.2-.4.4-.6a2.2 2.2 0 0 1 1.8-.6c.3 0 .5 0 .8.2.3 0 .5.2.6.4l.4 1v1.1l-.4.7-.7 1a132.6 132.6 0 0 0-2.8 7v1.7c.2.5.5.8.8.8h.7c.3 0 .6 0 1-.2a15.7 15.7 0 0 0 5.8-4.1l2-3a41.1 41.1 0 0 0 2.2-4l.4-.2h.9c.7 0 1.2.4 1.5.8.4.5.5 1 .3 1.7l-.3 1a41 41 0 0 1-2.2 4.4l-1.4 2.6a262.9 262.9 0 0 0-3.5 6 21.6 21.6 0 0 1-4 4.4 36.8 36.8 0 0 1-9.5 4.5c-.9.2-1.7.2-2.6 0Zm107.2-5c-.2.8-.7 1.6-1.5 2.1-.8.6-1.7.7-2.6.6-.7-.1-1.2-.5-1.6-1-.4-.6-.6-1.3-.4-2 .1-.9.6-1.6 1.5-2.2.9-.6 1.7-.8 2.6-.6.7.1 1.3.5 1.6 1 .4.6.5 1.3.4 2Zm-73.9.5.4-1.3.5-2-1.6.9a26.5 26.5 0 0 1-3.8 1.6c-.6.2-1.2.2-1.7.2l-1-.4a3 3 0 0 1-1-.7 6 6 0 0 1-1.1-2 4 4 0 0 1-.2-2l.3-1 .5-1.2a17.7 17.7 0 0 1 9-9.1c.9-.4 1.6-.6 2.3-.6a11 11 0 0 1 4.2.7 10.4 10.4 0 0 1 1.4 0l1 .4c.2.2.4.3.5.6l.3.6v.8l-.4 1-.5.8-4.5 10.1a136.3 136.3 0 0 0-.9 2.9 150.2 150.2 0 0 0-.6.8l-.6.4h-.8a5 5 0 0 1-1-.2l-.5-.4a.7.7 0 0 1-.2-.4v-.5Zm-5.5-7.2a8.2 8.2 0 0 0-.6 1.8v1c0 .3.2.5.6.6l1.6-.1 1.6-.7a26.7 26.7 0 0 0 5.7-4.5 8.3 8.3 0 0 0 1.8-3.1l.4-1.4v-.5a.5.5 0 0 0-.5-.3h-2a11.6 11.6 0 0 0-4.1 1.9 15.2 15.2 0 0 0-4.5 5.3Zm-318-47c.2-1.2 0-2.2-.7-3-.7-1.1-2.3-2.3-5.4-2.4-3-.1-6 0-9.1.2l-9.2.4a743.2 743.2 0 0 1-44.3 1.3 3.5 3.5 0 0 0 0 7 758.1 758.1 0 0 0 44.8-1.3l9-.4 2-.1-2.9 1.1a365 365 0 0 1-18.4 6.7l-5.4 1.5c-1.3.4-5 1.2-5.4 1.5a3 3 0 0 0-1.3 1.2c-3.3 1-6.5 2.2-9.7 3.5-1.2.4-10 3.4-14.2 6.2-4.1 2.8-4.5 6.3-2.6 8.4 1.3 1.6 3.7 2.5 6.9 2.5 4.6 0 11.1-1.9 13.4-2.4 18.5-4 36.7-10 55-14.9l15.6-4 7.3-.8c33.2-3.5 66.2-8.4 99.3-12.3l9.6-1-2.3.7c-25.2 7.2-51 11.8-76.7 16.8-7.2 1.3-14.3 2.7-21.4 4.2-3 .7-6 1.3-8.8 2.2-.2 0-2.4.8-3.6 1.4-.7.3-1.2.7-1.4 1-1 .9-1 1.8-1 2.5 0 1 .3 2 1.4 2.8a7 7 0 0 0 4 1.1c2 0 4.8-.6 6-.7 8.5-1 17-2.7 25.5-4.4l20.4-4.2a3 3 0 0 0-.6 2.8c.1.7.7 2.9 3.6 2.9 14.8 0 30.9-5.2 45.3-8l20.9-4.3c-3.4.8-7.5 1.8-10.6 3.1-3 1.3-5.3 3-6.2 4.8-.5.9-.6 1.7-.4 2.6.2.7.7 1.8 2.2 2.4.3.2 1 .3 1.8.4a55.8 55.8 0 0 0 15.6-1.5 464 464 0 0 0 27.8-6.4c27.9-7 55.3-15.7 83.3-22.1 1.6-.4 8.7-2 15.3-3-3.5 1.3-7 2.4-10.4 3.5-20.7 6.7-41.8 12-62.5 18.4a144 144 0 0 0-16 5.6c-2.3 1-3.4 2.1-3.8 2.8a3.8 3.8 0 0 0-.2 3.7c.6 1.4 2.2 2.6 4.7 3 2.4.3 6.2-.3 7.1-.4 10.3-1.4 20.4-3.5 30.6-5.6l21.4-4.5c-1 .5-1.6 1-2 1.5-.5.6-.7 1.3-.8 1.9-.3 1.5.3 3.6 3 4.3 1.8.5 6.4.2 6.7.1 4.7-.4 9.5-1.1 14.3-1.8a3 3 0 0 0 .1 1.5c.2.7 1 2.4 3.2 2.5.6 0 4.4-.8 5.9-1 3-.6 6-1 8.9-1.7l10-2 3.7-.5c19.2-3.2 38.3-6.4 57.3-10a340 340 0 0 0 20.2-4.2c.4-.1 4.5-1 6-2l.6-.5c4.5-.8 9-1.7 13.4-2.7l9.3-2.7 1.1-.6c1.3-.9 1.4-2 1.5-2.5.1-1.1-.2-2.2-1.2-3-.4-.4-1-.8-2-1H532c-6 .4-19.1 3.3-21 3.7-8.3 1.5-16.4 3.2-24.6 5-24.6 3.5-49.1 8-73.7 12.1l36.6-9a1102 1102 0 0 0 24.4-6.4l4.1-2c1.2-1 1.3-2 1.4-2.5.1-1.4-.4-2.6-1.8-3.4-1-.6-2.5-.9-4.1-.8-2.2.2-5 1-6.3 1.2-8.7 1.4-17.3 3.2-25.9 5-29.3 6.2-58.5 13.1-87.8 19.2l-13.1 2.6c18.9-5.7 38-10.6 56.7-16.6 6.2-2 12.6-4 18.2-7.2.5-.3 3.8-2.4 4.7-3.9 1.1-1.7.9-3.3 0-4.5-.4-.6-1-1.2-2-1.6a11 11 0 0 0-4.1-.8c-7.2-.1-22.8 3.4-25.4 4l-12 2.9a4.7 4.7 0 0 0-4-2 1494.2 1494.2 0 0 0-66.3 9.9c.2-1.2-.2-2.3-1.4-3.2a8 8 0 0 0-4.4-1.2c-2.6-.1-5.8.6-7.4.8l-12.4 1.7c1.5-.5 2.8-1 3.9-1.6a8.4 8.4 0 0 0 3.1-2.4c.6-.8.7-1.6.7-2.3-.1-1.6-1-3.1-3.1-3.8-2.1-.7-7.3-.3-8-.2-7.5.4-15 1.3-22.4 2.2-22.4 2.6-44.8 5.7-67.3 8.5a5 5 0 0 0 1.6-2.2l2.3-.6a121 121 0 0 0 20.6-6.8 3.8 3.8 0 0 0 1.9-3.5 4 4 0 0 0-3.3-3.5c-1.5-.3-5.2 0-5.5 0-5.7.5-11.4 1.4-17 2.3a574 574 0 0 0-57 12.7ZM113 360.9l-1.2.3c-6.3 1.3-14.4 4.7-21.3 5.5-4.5 1.5-9 3-13.4 4.7-.7.3-4.6 1.6-8.2 3.2 3.2-.6 6.4-1.5 7.8-1.8 12.8-2.8 25.4-6.5 38-10.2a3.7 3.7 0 0 1-1.7-1.7Zm734.4-41.7a221.7 221.7 0 0 1 2.6-9.6 205.8 205.8 0 0 0 1-3.8l.4-.4a2 2 0 0 1 1.3-.5h.7l.6.3.4.4.2.5v.3l-.6 2.1a1195 1195 0 0 1-4.2 15.2c-.1.2-.2.3-.4.3a1 1 0 0 1-.5.2 2 2 0 0 1-.9-.2 2.4 2.4 0 0 1-1.1-1.3l-.2-.7v-.4l.7-2.4Zm41.7 4.9c-.8 0-1.4-.2-1.7-.5-.3-.4-.5-1-.5-1.5l.1-1.1.3-1.3a35.6 35.6 0 0 1 1.4-4.3 139.8 139.8 0 0 0 1.3-4.6c0-.2 0-.3-.2-.4l-.4-.2a4.1 4.1 0 0 0-1.8.6 24 24 0 0 0-4.3 3.7l-1.6 2-1.6 2.5-1 2.2-.7 1.5c-.2.4-.4.7-.7.8a2 2 0 0 1-1 .3c-.6 0-1-.2-1.2-.5a2 2 0 0 1-.3-1.2l.1-1.3L882 294l.2-.6a2 2 0 0 1 1-1h.8a8.5 8.5 0 0 1 1.3 0l.5.4.2.5v.3l-.2.6A778.1 778.1 0 0 1 881 313a29.4 29.4 0 0 1 5.3-5l3-1.4c1-.3 2-.5 3-.5a2 2 0 0 1 1.7.7c.3.4.5 1 .5 1.6v1a27.3 27.3 0 0 1-1.3 3.6 186.2 186.2 0 0 0-1.2 3.8 17.2 17.2 0 0 0-.6 4.3c0 .4 0 .7-.2 1.1 0 .4-.2.7-.4 1-.2.3-.4.5-.7.6-.3.2-.6.3-1 .3Zm-30.7-4.7h.6l.4.2h.5c.6 0 1.3 0 2.1-.2a17.2 17.2 0 0 0 4-1.3c.5-.2.8-.5.8-.8l.1-.4a1 1 0 0 0-.3-.7l-.9-.6-1-.5-1.2-.5-.7-.3a7.3 7.3 0 0 1-2-1.1l-.7-1-.5-1.1a5.8 5.8 0 0 1-.2-1.2c0-.4.1-.8.4-1.2.2-.5.5-1 1-1.4a11.1 11.1 0 0 1 2.9-2.3 21.2 21.2 0 0 1 2.3-1.3l1.2-.4 1.2-.2 1.4.1c.4 0 .9.1 1.3.3.4.1.7.4 1 .7.2.2.3.6.3 1.1a3.7 3.7 0 0 1-.6 2l-.5.2-.7-.1-.6-.4-.5-.4c-.2-.2-.4-.2-.6-.2-.3 0-.7 0-1.1.2a8.8 8.8 0 0 0-2.6 1.1l-1 .8a5 5 0 0 0-.9.8l-.3.7.2.6.6.4 1 .5a301.4 301.4 0 0 0 4.3 2l.7.5a2.3 2.3 0 0 1 .7 1.7v.5a8 8 0 0 1-1.4 3.3 16.8 16.8 0 0 1-6.4 3.2 9 9 0 0 1-2.2.3c-.3 0-.7 0-1-.2-.4 0-.8-.3-1.1-.5l-.9-.7c-.2-.3-.3-.5-.3-.8l.1-.5a2.2 2.2 0 0 1 .7-.8l.4-.1ZM847 294.5a42.6 42.6 0 0 0-3.8 10.4c-.2.9-.9 1.3-2 1.3-1.4 0-2-.5-2-1.7 0-1 .8-3 2.4-6.4 1.6-3.3 2.8-5 3.8-5s1.6.5 1.6 1.4Zm5.7 3.7.3-1c.2-.4.5-.8 1-1.1a4.3 4.3 0 0 1 1.4-.5l.4.1.4.3.4.5c.3 0 .6.1.7.4l.1.7v.6l-.1.4-.5.8c-.2.3-.5.5-.8.6a4.4 4.4 0 0 1-1.8.6c-.3 0-.5 0-.7-.2l-.7-.7-.2-.5a1.8 1.8 0 0 1 0-.6v-.4Zm-349.4-222c-3.2-.3-6.7-.3-9.5-.4-21.2-.8-38 8.7-48.6 27-9.2 16-11.3 36 6.5 46.9 12.3 7.5 24.4 3.8 35.4-3.9 6-4.2 11.4-9.4 15.8-15.2a288 288 0 0 1-3.6 21.6 95 95 0 0 1-20.4 6.4c-9.9 2-20 2.9-29.9 5-4.6.9-10.5 2.1-13.7 6a13.7 13.7 0 0 0-2.6 11.2c.8 5 3.7 10.2 6.1 13.8a105.6 105.6 0 0 0 29 27.5c5.2 3.5 11.4 6.7 18 6a9.5 9.5 0 0 0 8-7c1.7-8 1.6-16.3 3-24.3 2.6-13.3 5.8-26.5 8.6-39.7a84 84 0 0 0 31.9-28.6 3.5 3.5 0 0 0-5.8-4 79 79 0 0 1-24.3 23.6c2-10.3 3.4-20.7 4-31.2a69.3 69.3 0 0 0 5-44.7 23 23 0 0 0-3-7.2 6.3 6.3 0 0 0-4.2-2.7c-2-.2-3.5.6-4.6 2.5a11 11 0 0 0-1 3.7c-.3 2.5 0 5.4 0 6.1v1.7Zm-5.8 84.4c-5.3 2-11 3.7-17.2 4.9-9.9 2-20 2.8-29.9 4.9-1.8.3-3.9.7-5.8 1.4a8 8 0 0 0-3.8 2.3c-1.7 2-1.5 4.8-.7 7.4 1 3.4 2.9 6.8 4.5 9.2a98 98 0 0 0 27 25.6c4 2.6 8.5 5.4 13.4 5 1-.2 1.8-.8 2-1.7 1.6-7.8 1.5-16.2 3-24 2.2-11.8 5-23.4 7.5-35Zm-255.1-38.8c-4.7-1.4-9.2-3-13.3-4.3a3.5 3.5 0 0 0-2.2 6.7c4.9 1.6 10.2 3.4 15.8 5l1 15.7a3.5 3.5 0 0 0 7-.6l-.9-13.4c3 .7 6 1.2 9 1.6l4.2 16.6a54 54 0 0 0 11 24.5 3.5 3.5 0 0 0 5-5c-5.4-5.4-7.4-14.2-9.3-21.3l-3.6-14.3c3.6 0 7-.3 10.4-1a3.5 3.5 0 0 0-1.6-6.9c-3.4.8-7 1-10.5 1l-3.7-16c-1.5-7-1.8-14.3-3.3-21.3 0-.1-1-3-2.3-5.1a9.2 9.2 0 0 0-2.3-2.8c-1-.7-1.9-.9-2.7-.8-1.1 0-2.2.5-3 1.7a23 23 0 0 0-3.4 9.9c-.7 5-.7 10.6-1 14.1a133 133 0 0 0-.4 14.7v1.3Zm-55-12.7c3.6 0 6.8 1 10.2 2a28 28 0 0 0 13.2.7c15.2-3 30.1-18.8 18-34.1a47.3 47.3 0 0 0-34.7-16.6c-13.6-.5-26.9 4.8-34 17.4-13.3 24 .8 48.8 19.5 65.4 6 5.4 12.6 10.7 20.7 12.4 13.1 2.7 24.8-8.5 29.6-19.5a3.5 3.5 0 0 0-6.4-2.9 31 31 0 0 1-9 12 16 16 0 0 1-12.8 3.6c-7-1.5-12.3-6.3-17.4-10.8-16.4-14.5-29.7-35.8-18-56.8 5.7-10.2 16.5-14.2 27.5-13.8a40 40 0 0 1 29.5 14c8.4 10.6-3.3 20.7-13.9 22.9-3.7.8-7 0-10-.7-4-1-7.8-2.2-12-2.2a3.5 3.5 0 0 0 0 7Zm-75.2-30.7c0-2.1-1.3-5-3.5-8.1-4.2-5.6-11.4-12-14-14.6A61.6 61.6 0 0 0 67.4 39c-12-2.7-22.5-.4-30.5 5.5a40 40 0 0 0-15.3 26.7c-4 25.6 7.1 50.6 23.2 70.2a42.7 42.7 0 0 0 20.3 13.9 21.8 21.8 0 0 0 17.2-2c8-4.6 12.4-13.4 17-21 3.6-6 7.8-12 9.2-18.9a3.5 3.5 0 0 0-7-1.3c-1.1 6.2-5 11.3-8.2 16.5-4 6.7-7.5 14.6-14.5 18.7-4.8 2.8-10 2.2-15 .1A37.7 37.7 0 0 1 50.2 137c-14.8-18-25.4-41-21.7-64.6A33 33 0 0 1 41 50a30 30 0 0 1 25-4 54.4 54.4 0 0 1 24 14.9c2.2 2 7.5 6.8 11.5 11.5a31 31 0 0 1 3 4c.5.9 1 1.5 1 2.1a3.5 3.5 0 0 0 7 0Zm391.3 5c-3.2-.7-7-.5-10-.6-18.5-.7-33 7.6-42.3 23.6-7.3 12.7-10 28.7 4.1 37.3 9.7 5.9 19.2 2.4 27.8-3.6 9-6.2 16.3-15 21.1-24.9.1-2.7.2-5.4.1-8.2-.1-7.9-.6-15.8-.8-23.7Zm-385.4 4.2-.9-.1c-.4 0-2-.1-2.8.1-1.3.5-2 1.4-2.3 2.5a5 5 0 0 0 .4 3.3c.7 1.2 2.7 3 3.1 3.5l2.5 2.7a137 137 0 0 0 6 43.3 3.5 3.5 0 0 0 6.6-2.3c-3.7-10.4-5-21.7-5.4-33 10.4 11.6 21.4 22.8 29.7 36a3.5 3.5 0 0 0 6-3.8c-9-14.1-21-26.2-32-38.6l-4-4.3v-1.7c.9 0 1.7-.1 2.5-.3a58 58 0 0 0 26-14.3c2.1-1.8 4.4-4.2 5.6-7 1-2.2 1-4.7 0-7.3-2-4.5-5.7-7.2-10.2-8.6a39.9 39.9 0 0 0-18.1-.5c-1.9.3-5.2.5-7.4 1.5a7 7 0 0 0-3.7 3.5c-2.8 6.7-1.6 17.5-1.6 24.7v.7Zm301.5 36.8-.7-1.1a49 49 0 0 1-2.2-6.4c-3.5-11.2-5.6-22.9-9-34.2-.2-.7-2-7.3-3.5-9.6-1.7-2.7-4-2.6-5.4-1.9a6 6 0 0 0-2.7 3.5C395 78 395 85 394.7 86.6l-1.4 9.7a266.2 266.2 0 0 0-2.4 41.5 3.5 3.5 0 0 0 7 0 322.8 322.8 0 0 1 2.3-40.5l1.4-9.8.1-.6c3 10.6 5.1 21.5 8.4 32.1.5 1.5 2.3 7.5 4.5 10.6 1.9 2.8 4.4 3.7 6.5 3.1 2-.6 4-2.4 5-5.4 1.5-4 1.8-10.6 2-12.8a198 198 0 0 1 10.7-44.2 3.5 3.5 0 0 0-6.5-2.6c-6 14.9-8.8 30-11 45.8-.3 1.8-.4 6.4-1.4 10l-.2 1Zm-110-56c1.8 23.3 5.4 46.3 8.9 69.3a3.5 3.5 0 0 0 6.9-1c-3.4-22.7-7-45.5-8.8-68.5 25.6-.7 51.4 0 76.8-1.5a3.5 3.5 0 0 0-.5-7c-41.9 2.5-84.7-1-126.4 5.7a3.5 3.5 0 0 0 1.1 6.9 357 357 0 0 1 42-3.8Zm447.4 70c-.3 0-.5 0-.8-.2a2 2 0 0 1-.5-.6 3.3 3.3 0 0 1-.5-1.6 2.7 2.7 0 0 1 .4-1.6l.5-.5.4-.2a55.4 55.4 0 0 1 3.5-1 20 20 0 0 0 4.6-2.5 37.7 37.7 0 0 0 5.3-5.2 26.7 26.7 0 0 0 4.2-9.1 168.8 168.8 0 0 1-4.2 4.3 20.2 20.2 0 0 1-3.3 2.1 3 3 0 0 1-1.5.4c-1.3 0-2.3-.3-3.2-.9a8 8 0 0 1-2.4-2.8c-.2-.3-.4-.8-.5-1.4l-.1-1.8a29.7 29.7 0 0 1 .5-5.9 82.1 82.1 0 0 1 1.5-6.9 16 16 0 0 1 .5-3 3 3 0 0 1 1.5-1.2c.3-.2.5-.2.8-.2h1.2l1 .5a5.2 5.2 0 0 1 1 2.7c-.2.2-.2.6-.4 1-.1.6-.4 1-.7 1.6a179.8 179.8 0 0 0-2.1 10c0 1 .1 1.8.5 2.4.3.6.7.9 1.2.9.3 0 .6 0 1-.2l1.1-.6a21.3 21.3 0 0 0 6.9-6.9 55.7 55.7 0 0 0 4-10.4l.4-.3.7-.2.6-.1c1 0 1.7.3 2.2.8.6.5.8 1.2.8 2.1 0 .3 0 .9-.2 1.6a58.3 58.3 0 0 1-1.8 6.4l-1.3 3.8a371.2 371.2 0 0 0-3.3 9 29.4 29.4 0 0 1-4.3 6.8 50.7 50.7 0 0 1-11.7 8.3c-1.1.4-2.3.6-3.5.6Zm49.3-11.2c-1.2 0-2-.2-2.4-.7a3 3 0 0 1-.6-2l.1-1.6.4-1.7a48 48 0 0 1 1.8-5.8 188.3 188.3 0 0 0 1.8-6.3c0-.3 0-.5-.2-.6-.1-.2-.3-.3-.6-.3a5.6 5.6 0 0 0-2.5.8 32.8 32.8 0 0 0-5.8 5l-2.2 3-2.2 3.2-1.4 3c-.3 1-.6 1.6-.9 2.1a3 3 0 0 1-.9 1.1c-.3.3-.8.4-1.5.4s-1.2-.2-1.6-.6a3 3 0 0 1-.4-1.7c0-.5 0-1.1.2-1.8l9.2-36.7.3-.7a2.8 2.8 0 0 1 2.3-1.5 11.3 11.3 0 0 1 1.9.2c.2.1.5.2.6.4.2.2.3.4.3.7v.5l-.2.8a1088.6 1088.6 0 0 1-6.7 25.7 40 40 0 0 1 7.3-6.8c1.3-.8 2.6-1.5 4-2 1.4-.4 2.8-.7 4.3-.7 1 0 1.7.3 2.2 1 .5.5.7 1.3.7 2.2l-.1 1.3a37.7 37.7 0 0 1-1.6 5 260.6 260.6 0 0 0-1.7 5.2 23.6 23.6 0 0 0-.8 5.8l-.3 1.5-.5 1.3a3 3 0 0 1-1 1c-.4.2-.8.3-1.3.3ZM681 123.8a320.8 320.8 0 0 1 3-11.4l1.5-5a172.1 172.1 0 0 0 1.6-6.8l.3-1.8c0-.3.2-.5.4-.6a3.2 3.2 0 0 1 1.4-.8l.8-.1c.5 0 1 0 1.3.2.3 0 .6.2.8.5.2.2.4.4.4.7l.2 1-.3 1.8-.8 2.1a41.7 41.7 0 0 1 5.5-3.5c1-.5 2-.8 3-1.1 1-.3 2-.4 3.2-.4.5 0 1 0 1.5.2a4 4 0 0 1 2.3 2c.3.6.4 1.2.5 2a125.2 125.2 0 0 1 5-3 11.2 11.2 0 0 1 5.2-1.5 8 8 0 0 1 3 .4c.9.4 1.5.8 2 1.3.5.6.8 1.2 1 2 .2.7.3 1.4.3 2.2a44.9 44.9 0 0 1-2.6 11.5 147.8 147.8 0 0 1-3.5 8.8c-.2.4-.6.8-1 1a2 2 0 0 1-1.2.5c-1 0-1.8-.2-2.2-.6-.4-.3-.6-.9-.6-1.5v-.7l.1-.7.5-1.2a311.6 311.6 0 0 1 2.4-5.2 377.9 377.9 0 0 1 1.8-5.9 44.2 44.2 0 0 0 1-5.3v-.8a2 2 0 0 0-.3-.8l-.6-.5a2 2 0 0 0-1-.2c-.5 0-1.2.2-2 .5a16.4 16.4 0 0 0-4.7 3c-.8.6-1.5 1.2-2 1.9l-1.1 1-1.1.7-.3.7a236 236 0 0 0-1.1 3.4l-1.2 3.4-.1.6a20.6 20.6 0 0 0-.6 3.2 50 50 0 0 0-.6 3.1c-.2.5-.5 1-1 1.3-.3.3-.9.4-1.6.4a2 2 0 0 1-1-.3c-.3-.1-.6-.4-.8-.7l-.5-1-.2-1a100.3 100.3 0 0 1 3.6-12 78.8 78.8 0 0 0 1.4-6c0-.5 0-.8-.2-1.1-.2-.3-.6-.5-1-.5a6 6 0 0 0-2.3.5l-2.4 1.4a165.5 165.5 0 0 0-6.6 6l-.6 1.6a109 109 0 0 0-3 12.3c-.1.5-.4 1-.8 1.4-.3.4-.8.6-1.3.6-.9 0-1.6-.3-2.1-.7a2.2 2.2 0 0 1-.8-2.1v-.4Zm165.6 0a320.8 320.8 0 0 1 4.5-16.4 172.1 172.1 0 0 0 1.6-6.8l.3-1.8c0-.3.2-.5.4-.6a3.3 3.3 0 0 1 1.4-.8l.8-.1c.5 0 1 0 1.3.2.3 0 .6.2.8.5.2.2.4.4.4.7l.2 1-.3 1.8-.8 2.1a42 42 0 0 1 5.5-3.5c1-.5 2-.8 3-1.1 1-.3 2-.4 3.2-.4.5 0 1 0 1.5.2a4 4 0 0 1 2.3 2c.3.6.4 1.2.5 2a128.1 128.1 0 0 1 5-3 11.2 11.2 0 0 1 5.2-1.5 8 8 0 0 1 3 .4c.9.4 1.5.8 2 1.3.5.6.8 1.2 1 2 .2.7.3 1.4.3 2.2a46.5 46.5 0 0 1-2.6 11.5 144.7 144.7 0 0 1-3.5 8.8c-.2.4-.6.8-1 1a2 2 0 0 1-1.2.5c-1 0-1.8-.2-2.2-.6-.4-.3-.6-.9-.6-1.5v-.7l.1-.7.5-1.2a253 253 0 0 1 2.4-5.2 428.7 428.7 0 0 1 1.8-5.9 44.2 44.2 0 0 0 1-5.3v-.8a2 2 0 0 0-.3-.8l-.6-.5a2 2 0 0 0-1-.2c-.5 0-1.2.2-2 .5a16.4 16.4 0 0 0-4.7 3c-.8.6-1.5 1.2-2 1.9l-1.1 1-1.1.7-.3.7a335 335 0 0 0-1.1 3.4l-1.2 3.4-.1.6a21.6 21.6 0 0 0-.6 3.2 47.3 47.3 0 0 0-.6 3.1c-.2.5-.5 1-1 1.3-.3.3-.9.4-1.6.4a2 2 0 0 1-1-.3c-.3-.1-.6-.4-.8-.7l-.5-1-.2-1a100.3 100.3 0 0 1 3.6-12 78.8 78.8 0 0 0 1.4-6c0-.5 0-.8-.2-1.1-.2-.3-.6-.5-1-.5a6 6 0 0 0-2.3.5l-2.4 1.4a163.3 163.3 0 0 0-6.6 6l-.6 1.6a120.9 120.9 0 0 0-2.4 9.7 60.6 60.6 0 0 0-.5 2.6c-.2.5-.5 1-.9 1.4-.3.4-.8.6-1.3.6-.9 0-1.6-.3-2.1-.7a2.2 2.2 0 0 1-.8-2.1v-.4Zm-28.5-8.9c0-.8.2-1.4.6-2 .4-.6 1-1 1.7-1.1a23.2 23.2 0 0 1 2.5-4 28.2 28.2 0 0 1 4.8-4.6c1-.7 2-1.2 3.2-1.7a10 10 0 0 1 6.3-.2c.8.2 1.5.6 2 1 .5.5 1 1 1.2 1.7.2.6.4 1.3.4 2s-.1 1.3-.3 1.9c-.2 1-.7 2-1.4 2.7-.7.8-1.6 1.5-2.5 2-1 .6-2 1.1-3.1 1.5a32.6 32.6 0 0 1-9.3 1.9l-.4 1.2-.2 1.5c0 1.1.4 2 1.3 2.5.8.6 2 1 3.5 1 .9 0 1.7-.2 2.5-.4a14.4 14.4 0 0 0 4.3-1.7l1.7-1.1 1.9-1.1c.6-.3 1.1-.5 1.6-.5.4 0 .7.1.9.4l.2.7a6.6 6.6 0 0 1-.1.8 4.7 4.7 0 0 1-1.6 2.7 18.9 18.9 0 0 1-15.8 3.8c-.7-.2-1.3-.4-2-.8a6 6 0 0 1-2.8-3.1c-.3-.8-.5-1.7-.5-2.8 0-.8.1-1.8.4-2.9a1 1 0 0 1-.7-.3c-.2-.3-.3-.6-.3-1Zm-75 9.5.3-1.9.2-2.8-2 1.6a35.9 35.9 0 0 1-4.7 3.2c-.8.3-1.5.5-2.2.5a5 5 0 0 1-2.9-.9c-1-.8-1.7-1.5-2.1-2.3a6 6 0 0 1-.7-2.7c0-.5 0-1 .2-1.5l.3-1.7a24.2 24.2 0 0 1 10-14.5c1-.7 2-1.1 3-1.3a15 15 0 0 1 5.7 0 14.6 14.6 0 0 1 2-.3c.5 0 1 0 1.3.2l.9.6.5.9.1 1c0 .5 0 1-.2 1.4l-.4 1.3-3.7 14.6a247.9 247.9 0 0 0-.5 4l-.2.7-.4.7-.7.6a2 2 0 0 1-1.1.2h-1.4a2 2 0 0 1-.8-.4 1 1 0 0 1-.3-.5l-.1-.7Zm160-3.3c0 1.3-.5 2.4-1.5 3.4a5 5 0 0 1-3.4 1.4c-1 0-1.8-.4-2.4-1-.7-.7-1-1.6-1-2.5 0-1.3.5-2.4 1.5-3.4s2.2-1.4 3.4-1.4c1 0 1.8.3 2.4 1 .6.7 1 1.5 1 2.5Zm-646 4.2-3.1-13.7c-1.5-6.6-1.8-13.4-3.1-20l-.2 1c-.7 4.9-.6 10.3-.9 13.8a125.9 125.9 0 0 0-.2 17.4l7.5 1.5Zm476.9-9.2a11.3 11.3 0 0 0-.4 2.5l.2 1.4c.2.4.5.6 1 .6.8 0 1.5-.2 2.2-.6.7-.3 1.3-.7 1.9-1.2a35.9 35.9 0 0 0 6.7-7.4 11.3 11.3 0 0 0 1.6-4.7l.2-1.9-.2-.7c-.1-.2-.3-.3-.7-.3-.9 0-1.8.2-2.7.5a16 16 0 0 0-5 3.5 20.8 20.8 0 0 0-4.8 8.3ZM371.2 76c-2.7 13-4 26.4-6.1 39.6a3.5 3.5 0 0 0 6.9 1.1c2.2-13 3.4-26.3 6-39.4a3.5 3.5 0 0 0-6.8-1.4Zm541 10.6c0 .7-.3 2-1 3.5a512 512 0 0 0-6.5 17c-.4 1-.8 2.3-1 3.9-.3 1.2-1.1 1.8-2.6 1.8-1.8 0-2.7-1-2.7-2.7a95.8 95.8 0 0 1 8.6-22c1.2-2.1 2.4-3.1 3.5-3.1 1.2 0 1.8.5 1.8 1.6Zm-76.8 20.5v-.5c0-.5-.1-.8-.5-1-.3-.3-.8-.5-1.3-.5a5 5 0 0 0-2.4.7c-.8.4-1.5 1-2.2 1.6a14.2 14.2 0 0 0-3.1 4 27 27 0 0 0 6.6-1.5c.8-.3 1.4-.8 2-1.2.5-.5.8-1 1-1.6ZM510.5 81Zm-385.3 7.3c.4 0 .8 0 1.2-.2a50.8 50.8 0 0 0 26-16.3c.4-.8.8-1.7.4-2.6-1.5-3.3-4.7-4.7-8.3-5.3-4.2-.8-9-.4-12.4.2l-4.5.7-1.4.5c-2.4 6-1 15.4-1 21.7v1.3Z"/>
</svg>
