<svg xmlns="http://www.w3.org/2000/svg" xml:space="preserve" fill-rule="evenodd" stroke-linecap="round" stroke-linejoin="round" stroke-miterlimit="1.5" clip-rule="evenodd" viewBox="0 0 1000 1945">
  <path fill="none" d="M0 0h1000v1944.4H0z"/>
  <path fill="#d96226" fill-rule="nonzero" d="M903.8 227.5c1.8 1.5 2.8 2.6 2.8 3.2 0 .3-.1.5-.3.7a1 1 0 0 1-.8.3c-.5 0-1-.3-1.7-.9l-1.8-1.6c-.3 1.2-.6 2.3-.7 3.4-.2.9-.7 1.3-1.4 1.3-.8 0-1.2-.5-1.2-1.6 0-.6.2-1.6.6-3l-1 .6c-1 .8-1.8 1.2-2.4 1.2-.8 0-1.2-.4-1.2-1.2 0-.2.1-.5.5-.8.3-.2 1.6-1 3.8-2-.7-.5-1.3-.9-1.7-1-.7-.4-1-.8-1-1.3 0-.3 0-.6.3-.8.2-.2.5-.3.9-.3.7 0 1.7.5 3.1 1.5l1.1-2.7c.4-.6.7-.9 1-.9.4 0 .7.1.9.3l.2.8c0 .4-.2 1.3-.7 2.7 2-.6 3.2-1 3.6-1 .8 0 1.1.4 1.1 1s-.5 1-1.5 1.3l-2.5.8ZM749.4 1252.4h.4a40 40 0 0 1 1.4.4l2.6-.3a21.4 21.4 0 0 0 5-1.5c.5-.4.9-.7 1-1v-.6c0-.3-.1-.5-.4-.8l-1-.7-1.4-.7-2.2-.9a8.9 8.9 0 0 1-2.4-1.4l-1-1-.5-1.5a7.2 7.2 0 0 1-.3-1.5c0-.4.2-.9.5-1.4l1.1-1.7a13.8 13.8 0 0 1 3.7-2.8 26.4 26.4 0 0 1 2.8-1.6l1.5-.5 1.5-.2 1.6.1a6 6 0 0 1 1.6.3c.5.2.9.5 1.2.9.3.3.5.8.5 1.4a4.5 4.5 0 0 1-.7 2.3c-.2.3-.4.4-.6.4-.4 0-.7-.1-1-.3l-.6-.4-.7-.5c-.2-.2-.5-.2-.8-.2a5 5 0 0 0-1.3.2 10.8 10.8 0 0 0-3.1 1.4l-1.4 1a6 6 0 0 0-1 .9l-.3.9c0 .3 0 .5.2.7l.7.4 1.3.6a232 232 0 0 0 4 1.8l1.2.6 1 .8a2.8 2.8 0 0 1 .7 2v.7a9.8 9.8 0 0 1-1.7 4l-2.3 1.6a20.7 20.7 0 0 1-5.6 2.3l-2.6.3c-.4 0-.8 0-1.3-.2a6 6 0 0 1-1.3-.6c-.4-.3-.8-.6-1-1-.3-.2-.5-.6-.5-1 0 0 0-.3.2-.5a2.5 2.5 0 0 1 .8-1l.5-.2Zm20.7-5.1a18 18 0 0 1 3.3-6.6 24.2 24.2 0 0 1 8.3-7l1.5-.2c.7-.7 1.6-1 2.7-1 1.3 0 2.3.3 3.2 1 1 .6 1.7 1.4 2.2 2.6a31.4 31.4 0 0 1 1 2.1 10.6 10.6 0 0 1 .3 2.8c0 1.3-.2 2.6-.6 4a22.1 22.1 0 0 1-8.2 10.8 10.8 10.8 0 0 1-6.6 2c-1.3 0-2.4-.2-3.3-.5-1-.3-1.7-.8-2.4-1.5a6 6 0 0 1-1.3-2.2 7 7 0 0 1-.5-3c0-1 .1-2 .4-3.3Zm4.2.4a8.2 8.2 0 0 0-.3 2c0 .6 0 1 .2 1.5a3 3 0 0 0 1.9 2 6.2 6.2 0 0 0 5.2-.7 16 16 0 0 0 3-2.3 15.3 15.3 0 0 0 3.8-9.1c0-.5 0-.9-.2-1.2a15.3 15.3 0 0 0-1-2.2l-.5-.9a4 4 0 0 1-.4.6 2 2 0 0 1-.7.5l-1.2.4-2 .3c-.6.2-1.1.4-1.7.8-.5.4-1.1.8-1.6 1.4a18.3 18.3 0 0 0-4.5 6.9Zm26.9-12.9a2.2 2.2 0 0 1 .6-1.1l.4-.3h.9a32.4 32.4 0 0 0 1.5.3c.5 0 .8.2 1 .5.2.3.3.7.3 1.2l-.2 1a201.2 201.2 0 0 1-3.5 11.9l-.2 1.5a5.6 5.6 0 0 0 .5 2.4l.7 1c.3.2.6.3 1 .3a4 4 0 0 0 2.2-.7l2-1.5a15.8 15.8 0 0 0 3-3.9l.7-1 1-2.5a33.3 33.3 0 0 0 2-7.1l.7-3.3c.1-.7.3-1 .6-1.3.3-.3.7-.4 1.4-.4.4 0 .8 0 1.1.2a1.9 1.9 0 0 1 1.4 1.4l.2 1.5c0 .7-.2 1.5-.4 2.6a88.9 88.9 0 0 1-1.6 7 33 33 0 0 0-.4 3.7v2.5a38.8 38.8 0 0 1 0 4.5c-.2.7-.4 1.2-.7 1.5-.3.3-.8.4-1.5.4l-1.1-.1-.7-.5-.3-.6v-.6l-.4-4.7h-.2l-1.8 2.4-2.1 2.4a12 12 0 0 1-2.6 1.8c-.9.5-1.9.8-3 .8a3 3 0 0 1-.8-.2 9.5 9.5 0 0 1-2.9-1.5 9 9 0 0 1-2-2.8 9.4 9.4 0 0 1-.4-5 26.2 26.2 0 0 1 1.2-4.8l.9-3.3 1.1-4.2.4-1.4Zm24.4 19.5a232.6 232.6 0 0 1 2.4-12.2 128.3 128.3 0 0 0 .7-4.2v-.4a12 12 0 0 1 .4-3l.6-1.2c.2-.2.6-.3 1.1-.3.5 0 .9 0 1.2.2.2.2.5.5.6.8l.4 1v2.7a64.7 64.7 0 0 1 3.1-2.8l1.9-1a5.4 5.4 0 0 1 3.7-.1l1 .3 1 .6c.6.4 1 1 1.5 1.6.3.6.5 1.2.5 1.8l-.1.8a3 3 0 0 1-.4.8l-.6.6c-.3.2-.5.3-.8.3l-1-.2a3 3 0 0 1-1-.6l-.4-.4a9.5 9.5 0 0 1-.7-1l-.2-.4a2.5 2.5 0 0 0-.5 0c-.9 0-1.7.2-2.4.6-.8.4-1.5 1-2.2 1.6l-1.8 2-1.5 1.8a229.5 229.5 0 0 1-2.3 9v2.2c0 .5-.2 1-.3 1.3-.2.3-.5.5-.8.6-.3.2-.7.3-1.2.3-.7 0-1.2-.2-1.6-.7-.3-.4-.5-1-.5-1.6 0-.2 0-.5.2-.8Zm21.2-7.1a23.7 23.7 0 0 1 3.7-8c.8-1.3 1.8-2.5 3-3.6 1-1.1 2.3-2 3.6-2.7l1.5-.5a7.2 7.2 0 0 1 3 0c.5 0 1 .2 1.3.5l.8.8c.2.4.3.9.3 1.4 0 .4 0 .8-.2 1.2l-.5 1c-.3.4-.5.6-.9.8-.3.2-.7.3-1.2.3-.4 0-.7 0-1-.2a8 8 0 0 1-1.3-.7l-.5-.2c-.7.3-1.3.7-1.9 1.2a13 13 0 0 0-3 3.5 25.1 25.1 0 0 0-2.6 5.8 13.1 13.1 0 0 0-.5 2.8l.1 1c0 .3.2.5.3.8l.6.5 1 .2c.5 0 1.1 0 1.7-.2a12.4 12.4 0 0 0 3.3-1.4 52.5 52.5 0 0 0 4.1-2.5l.7-.2.7.2c.2.1.3.4.3.7 0 .2 0 .4-.2.7-.2.6-.5 1.2-1 1.7a8.7 8.7 0 0 1-2.8 2.4 29.2 29.2 0 0 1-4.8 2.1c-1 .3-2 .4-2.6.4a5.3 5.3 0 0 1-1.7-.3 6.2 6.2 0 0 1-3-2.3c-.5-1-.8-2.1-.8-3.4a12.8 12.8 0 0 1 .5-3.8Zm21.2.1c0-.7.2-1.3.6-1.8a3 3 0 0 1 1.5-1 20.5 20.5 0 0 1 2.3-3.5 25.2 25.2 0 0 1 4.3-4.2c.9-.6 1.8-1 2.8-1.5a9 9 0 0 1 5.7-.2 5 5 0 0 1 1.8 1c.4.4.8.9 1 1.5.3.5.4 1.1.4 1.8 0 .6-.1 1-.3 1.6a5 5 0 0 1-1.2 2.4 10 10 0 0 1-2.3 1.8 9 9 0 0 1-2.8 1.3 29.5 29.5 0 0 1-8.3 1.7l-.4 1.1-.1 1.4c0 1 .4 1.7 1.1 2.2.8.5 1.8.8 3.2.8a13 13 0 0 0 6-1.8l1.6-1 1.7-1c.5-.3 1-.4 1.4-.4.4 0 .7.1.8.3l.2.7a6 6 0 0 1 0 .7 4.1 4.1 0 0 1-1.5 2.4 17 17 0 0 1-14.2 3.3 5 5 0 0 1-1.7-.6 5.3 5.3 0 0 1-2.6-2.8c-.3-.7-.4-1.5-.4-2.5l.3-2.6-.6-.3c-.2-.2-.3-.5-.3-.8Zm15.6-6.9v-.4c0-.5-.1-.8-.5-1a2 2 0 0 0-1.1-.3c-.8 0-1.5.1-2.2.5l-2 1.4a12.7 12.7 0 0 0-2.8 3.6 24.4 24.4 0 0 0 6-1.3c.7-.3 1.3-.7 1.7-1.1.5-.4.8-.9.9-1.4Zm20.5 5.8c-.3 0-.6-.2-1-.5l-.6-1a8.4 8.4 0 0 1-.5-2.9c0-.7.1-1.3.3-1.8.3-.4.7-.9 1.4-1.3l.8-.4 2.8-1.7 1.7-1 2.4-1.6a39 39 0 0 0 3.4-2.6l1.4-1.7c.4-.6.6-1.3.6-1.9 0-.3 0-.6-.2-.9a3 3 0 0 0-.4-.8l-.6-.5c-.2-.2-.5-.2-.7-.2-1.1 0-2.3 0-3.4.3a23.4 23.4 0 0 0-7 2.5l-3.2 2-.4.3a6.3 6.3 0 0 1-2.1.9l-.7-.1a3 3 0 0 1-.7-.3l-.7-.6-.2-.8c0-.3.1-.7.4-1a16.3 16.3 0 0 1 4-3 33.7 33.7 0 0 1 8.2-3.2c1.8-.5 3.6-.7 5.5-.7.8 0 1.6.2 2.4.5a8 8 0 0 1 3.7 3.7c.4.8.6 1.6.6 2.5 0 .7-.1 1.4-.5 2-.3.8-.7 1.4-1.3 2l-1.8 2a36.3 36.3 0 0 1-6 4.3 45.2 45.2 0 0 1-3.3 2l-1.3 1c-.4.3-.6.6-.7.8l-.2 1a41.2 41.2 0 0 0-.2 2 1 1 0 0 1-.6.5l-1.3.2Zm2.1 7.3a3 3 0 0 1-.4 1.6 4.4 4.4 0 0 1-2.3 2.3 4 4 0 0 1-1.6.3 3.2 3.2 0 0 1-2.2-.9 3 3 0 0 1-1-2.2c0-.5.2-1 .4-1.6a4.8 4.8 0 0 1 4-2.7c.5 0 1 .1 1.3.3.4.1.7.4 1 .6l.6 1 .2 1.3ZM193.4 519.6c0-.5.1-1.1.4-1.7l1.2-1.8 1.8-2a393.7 393.7 0 0 0 13.1-14 3.2 3.2 0 0 0 .5-1.4c-1-1.3-1.9-2.7-2.7-4.1a42 42 0 0 1-3.6-9.5 223.5 223.5 0 0 1-2.6-9.2c-.3-1.4-.8-2.7-1.4-3.7l-1.1-2.5a8 8 0 0 1 .2-6.1c.3-.5.6-1 1-1.3.5-.4 1-.6 1.7-.6a3 3 0 0 1 1.9.7 10 10 0 0 1 2.8 4.1l.8 2.3a681 681 0 0 1 3.8 16.3 38.3 38.3 0 0 0 2 5.3l1 1.6c.4.4.7.6 1 .6.3 0 .6-.3 1.1-1a381.1 381.1 0 0 0 17-24.7l1-2.3 1-3.7c0-.3.2-.7.4-1.1.2-.4.5-.8.8-1 .3-.4.6-.6 1-.8a3.3 3.3 0 0 1 2.9 0c.4.3.8.6 1 1 .4.4.6.9.7 1.4a6.3 6.3 0 0 1-.1 3.8 19.3 19.3 0 0 1-2.4 5.1l-1.4 2.3a8791 8791 0 0 1-10.3 14.5 314.5 314.5 0 0 1-28.4 34.3l-1.8 1.5c-.7.5-1.4.7-2.2.7a1.8 1.8 0 0 1-1.6-1c-.2-.2-.3-.5-.4-.9l-.1-1Zm47.2-23.3c.5-1.7 1-3.5 1.9-5.4a52.4 52.4 0 0 1 6.5-11 74.4 74.4 0 0 1 13.6-14 6.8 6.8 0 0 1 6.2-1c.6.2 1.2.6 1.7 1.2l.6.6c.3.2.5.2.7.2l.1-.1.6-.8c0-.2.2-.3.4-.4.4-.1.9-.3 1.4-.3l1.7-.1a8.4 8.4 0 0 1 5.7 2.2c1.8 1.7 3.2 3.7 4.1 6a20 20 0 0 1 1.4 7.5 35.2 35.2 0 0 1-7.7 21.3 38.4 38.4 0 0 1-11.3 9.8 31.7 31.7 0 0 1-6.7 2.8c-2.4.7-4.7 1-7.1 1-2.3 0-4.3-.3-6-1a12.4 12.4 0 0 1-7.4-7.3 16 16 0 0 1-1-5.7 23 23 0 0 1 .6-5.5Zm6 2.4c-.2 1.2-.4 2.2-.4 3.2a9 9 0 0 0 .7 3.4c.5 1 1.1 1.9 2 2.5a7 7 0 0 0 3 1.5 16.8 16.8 0 0 0 8.8-.2c1.8-.5 3.5-1.3 5.1-2.3a29.9 29.9 0 0 0 9-8.3 37.3 37.3 0 0 0 6.3-15l.1-2.6c0-1.3-.1-2.6-.4-3.9a9.3 9.3 0 0 0-1.5-3.3c-.7-1-1.7-1.7-2.8-2.3a9.5 9.5 0 0 0-4.3-.8c-.2 0-.4 0-.5.3l-.4.7-.5.8a2.8 2.8 0 0 1-1.5 1.3c-.3.2-.8.2-1.3.2-.4 0-.8 0-1.1-.2l-1-.7c0-.2-.2-.3-.3-.4a.5.5 0 0 0-.3-.1l-.8.3a11.4 11.4 0 0 0-2.2 1.5l-.8.7a84.6 84.6 0 0 0-9.2 11.4 54.5 54.5 0 0 0-5.7 12.2Zm48.9-1.4a69 69 0 0 1 3.5-11.5 1309.2 1309.2 0 0 0 3-9.2l.5-1.7.3-1.6a259.6 259.6 0 0 1 .5-4l.6-1.9 1-1.3c.5-.3 1-.5 1.7-.5a4 4 0 0 1 1.9.4c.5.3.9.6 1.2 1 .3.4.5 1 .7 1.5l.2 1.7a12.4 12.4 0 0 1-.4 2.8c-.2 1-.7 2.3-1.2 3.7a2090.8 2090.8 0 0 0-4.2 10.2 64.6 64.6 0 0 0-2.8 10.4 24.5 24.5 0 0 0-.1 6.7c.2.9.5 1.6.9 2.3a5 5 0 0 0 1.7 1.5 6 6 0 0 0 2.8.6l2.6-.2c.9-.2 2-.5 3.2-1a32 32 0 0 0 9.8-7.6 45.5 45.5 0 0 0 7.2-11.5 67.8 67.8 0 0 0 5.2-17.3 75 75 0 0 0 .3-5.7c.1-.9.4-1.7.8-2.4.5-.7 1.2-1 2.1-1a2 2 0 0 1 1.6.7c.4.4.8 1 1 1.7a11 11 0 0 1 1 4.3c0 1.2-.2 2.4-.4 3.8l-.9 3.9a94.9 94.9 0 0 1-5.9 16.1 58.2 58.2 0 0 1-10.7 14.5 52.2 52.2 0 0 1-7.8 5.9c-1.4.8-3 1.4-4.4 2a15.8 15.8 0 0 1-10.1-.1 10.3 10.3 0 0 1-6.3-6.4c-.6-1.6-.8-3.2-.8-5a41.4 41.4 0 0 1 .7-5.8Zm68.5-32.5c0 1-.5 2.5-1.5 4.5a648 648 0 0 0-8.3 21.5c-.5 1.4-.9 3-1.3 5-.3 1.5-1.3 2.3-3.2 2.3-2.3 0-3.5-1.2-3.5-3.5a121.1 121.1 0 0 1 11-28c1.6-2.5 3.1-3.8 4.6-3.8 1.4 0 2.1.7 2.1 2Zm-11.8 43.7c0 1.7-.6 3-1.9 4.2a6 6 0 0 1-4.3 1.8 4 4 0 0 1-3.1-1.3 4.2 4.2 0 0 1-1.3-3c0-1.7.6-3.1 2-4.4a6.2 6.2 0 0 1 4.3-1.8 4 4 0 0 1 3 1.3c.9.9 1.3 2 1.3 3.2Zm17.8 12.2a19.8 19.8 0 0 1 3.1-6.9 24.8 24.8 0 0 1 7-6.8 6 6 0 0 1 2.7-.8c.6-.7 1.4-1 2.5-1a5 5 0 0 1 3.2 1c.9.6 1.6 1.5 2.2 2.7a30.4 30.4 0 0 1 .8 2.3 11.7 11.7 0 0 1 .4 2.9 15 15 0 0 1-.6 4.1 19.8 19.8 0 0 1-4.4 8 23 23 0 0 1-3.6 3.4 10.3 10.3 0 0 1-9.7 1.6 6 6 0 0 1-3.6-4c-.3-.8-.4-1.8-.4-3 0-1 .1-2.2.4-3.5Zm4 .4a9 9 0 0 0-.3 2.1c0 .6.1 1.1.3 1.6 0 .5.3 1 .6 1.3a4 4 0 0 0 2.9 1.1c1.2 0 2.3-.3 3.4-1 1-.6 2-1.5 2.8-2.5a16.2 16.2 0 0 0 3.6-8l.2-1.6c0-.4 0-.8-.2-1.2a16.8 16.8 0 0 0-1-2.2l-.5-1a4 4 0 0 1-.4.7 2 2 0 0 1-.6.4l-1.2.4-2 .4c-.5.1-1 .4-1.6.8l-1.6 1.4a18.7 18.7 0 0 0-4.4 7.3Zm22.5 6.9a277.8 277.8 0 0 1 2.4-12.8 142.3 142.3 0 0 0 .7-4.4v-.4a13.3 13.3 0 0 1 .4-3c.1-.7.3-1.2.6-1.4.2-.2.5-.3 1-.3s.9 0 1.1.3c.3.1.5.4.7.7.2.4.3.7.3 1.2v2.8a60.6 60.6 0 0 1 3.1-3c.6-.4 1.2-.8 1.8-1a5 5 0 0 1 3.7-.2l1 .4 1 .6c.5.4 1 1 1.3 1.6.4.7.6 1.3.6 2 0 .2 0 .5-.2.8 0 .3-.2.6-.4.9l-.6.6-.7.2a3 3 0 0 1-1-.2c-.4-.1-.8-.3-1-.6l-.4-.4a11 11 0 0 1-.6-1.1c0-.2-.2-.3-.2-.3a2.2 2.2 0 0 0-.5 0 4 4 0 0 0-2.4.6c-.7.4-1.4 1-2 1.6l-1.9 2.1-1.4 2a255.8 255.8 0 0 1-2.2 9.4v2.2l-.4 1.4-.7.7-1.2.3c-.7 0-1.2-.3-1.5-.7-.4-.5-.5-1-.5-1.7v-1Zm44.9 1a315.6 315.6 0 0 1 2.7-10.7l1.3-4.6a170 170 0 0 0 1.4-6.4l.2-1.7.4-.6a3 3 0 0 1 1.9-.8c.5 0 .8 0 1.1.2.3 0 .6.2.8.4.1.2.3.4.3.7l.2.9-.3 1.8-.7 2a37.3 37.3 0 0 1 4.8-3.4 15 15 0 0 1 2.7-1 8 8 0 0 1 2.7-.4c.5 0 .9 0 1.3.2a3.4 3.4 0 0 1 2 2c.3.4.4 1 .5 1.8a107.2 107.2 0 0 1 4.4-3l2.3-1 2.2-.3c1.1 0 2 .2 2.7.5a4.3 4.3 0 0 1 2.6 3l.2 2.1c0 .8 0 1.7-.2 2.6a44.7 44.7 0 0 1-2 8.2 142 142 0 0 1-3 8 3 3 0 0 1-.9 1c-.3.4-.7.5-1.1.5-1 0-1.6-.2-2-.5-.3-.4-.5-.9-.5-1.5v-.6l.1-.6.5-1.2a235.9 235.9 0 0 1 2-4.8 408.7 408.7 0 0 1 1.6-5.5 43.8 43.8 0 0 0 1-5l-.1-.8-.3-.7-.5-.4-.8-.2a5 5 0 0 0-1.8.4l-2 1.2a19.5 19.5 0 0 0-4.9 4.4 4 4 0 0 1-.9.6l-.2.7a370 370 0 0 0-1 3.1l-1 3.1-.2.7a20 20 0 0 0-.5 3 49 49 0 0 0-.5 2.9c-.2.4-.4.8-.8 1.1-.3.3-.8.4-1.5.4-.3 0-.6 0-.8-.2l-.7-.7a2 2 0 0 1-.5-.9l-.2-1a97.8 97.8 0 0 1 3.2-11.2 76.9 76.9 0 0 0 1.2-5.6c0-.4 0-.8-.2-1-.2-.3-.4-.4-.8-.4a5 5 0 0 0-2 .4 8 8 0 0 0-2.1 1.3l-2.6 2.3-3.2 3.4-.5 1.4a113 113 0 0 0-2.6 11.5c-.2.4-.4.9-.7 1.2-.3.4-.7.6-1.2.6-.8 0-1.4-.2-1.9-.6-.4-.5-.7-1-.7-1.7a2.2 2.2 0 0 1 .1-.7Zm42.3-8.3c0-.8.2-1.4.6-2a3 3 0 0 1 1.4-1 21.7 21.7 0 0 1 2.3-3.6 26 26 0 0 1 4.2-4.4c.8-.6 1.7-1.1 2.7-1.5a8.2 8.2 0 0 1 5.6-.3l1.7 1c.4.5.8 1 1 1.6a6.4 6.4 0 0 1 .1 3.6 6 6 0 0 1-1.2 2.5 10 10 0 0 1-2.2 2 27 27 0 0 1-10.8 3.1l-.4 1.1-.2 1.4c0 1 .4 1.8 1.1 2.3a5 5 0 0 0 3.1.9 12 12 0 0 0 6-1.9l1.4-1 1.7-1a3 3 0 0 1 1.4-.5c.4 0 .7.1.8.3l.1.7a6.5 6.5 0 0 1 0 .7 4.5 4.5 0 0 1-1.4 2.5 16.2 16.2 0 0 1-12.2 3.9 9.8 9.8 0 0 1-3.3-1 5.3 5.3 0 0 1-2.5-3 6 6 0 0 1-.4-2.5c0-.8 0-1.7.3-2.7a1 1 0 0 1-.6-.4c-.2-.2-.3-.5-.3-.8Zm15.2-7.2v-.5c0-.4-.1-.8-.5-1a2 2 0 0 0-1.1-.4c-.7 0-1.4.2-2.1.6l-2 1.5a13 13 0 0 0-2.7 3.8 22 22 0 0 0 3.2-.5c1-.3 1.9-.5 2.6-.9l1.7-1.2c.5-.4.8-.9.9-1.4Zm20 6c-.4 0-.6-.1-1-.5l-.6-1c-.1-.5-.3-1-.3-1.6l-.2-1.5c0-.8.1-1.4.4-1.9.2-.4.6-.9 1.3-1.3l.7-.4 2.8-1.9 1.6-1 2.4-1.6a38.3 38.3 0 0 0 3.3-2.8c.5-.5 1-1.1 1.4-1.8.3-.6.5-1.3.5-2l-.1-.9-.4-.8-.6-.6-.7-.2a21.7 21.7 0 0 0-10.1 3l-3.2 2-.4.4a6 6 0 0 1-2 1l-.7-.2-.7-.3-.6-.6-.3-.9c0-.3.2-.7.4-1a15.9 15.9 0 0 1 4-3.2 31 31 0 0 1 8-3.3c1.7-.5 3.5-.7 5.3-.7.8 0 1.5.1 2.3.5a7.8 7.8 0 0 1 3.7 3.8c.4.9.6 1.8.6 2.7 0 .7-.2 1.4-.5 2.2a17.1 17.1 0 0 1-3 4 36.7 36.7 0 0 1-6 4.6 41.6 41.6 0 0 1-3.1 2.1l-1.3 1c-.4.3-.6.6-.7.9l-.2 1a58 58 0 0 0-.2 2.1c0 .2-.3.4-.6.5l-1.2.2Zm2 7.7c0 .6 0 1.1-.3 1.7a4.6 4.6 0 0 1-2.3 2.3 3 3 0 0 1-1.6.4 3 3 0 0 1-2.2-1l-.6-1-.2-1.2c0-.6.1-1.2.4-1.7a5 5 0 0 1 2.3-2.5c.5-.2 1-.3 1.6-.3.4 0 .8 0 1.2.2a3 3 0 0 1 1.5 1.8c.2.4.2.8.2 1.3Z"/>
  <path fill="none" stroke="#d96226" stroke-width="7.6" d="M187.8 464.7c30.8 4.7 60.8 15.2 91.6 20.6 31.2 5.5 63 3 94 8.6m-9.4 19.3c41.8 0 83.5 1 125.3 2 16.1.5 33.4-1.2 49.3 2.5"/>
  <path fill="#d96226" fill-rule="nonzero" d="M601 453.1c0 .8-.7 2.8-2.2 5.9a118 118 0 0 0-8.4 23.2c-.6 2.4-2.4 3.6-5.6 3.6-3.7 0-5.6-1.6-5.6-4.8 0-2.6 2.3-8.5 6.7-17.7 4.5-9.2 8-13.8 10.7-13.8 3 0 4.5 1.2 4.5 3.6Zm25.7 0c0 1-.8 3-2.2 5.9-3.2 6.3-6 14-8.4 23.2-.6 2.4-2.5 3.6-5.6 3.6-3.8 0-5.6-1.6-5.6-4.8 0-2.6 2.2-8.5 6.7-17.7 4.4-9.2 8-13.8 10.7-13.8 3 0 4.4 1.2 4.4 3.6Zm6.8 53.9c.8-3.4 1.9-7 3.2-10.7a686.7 686.7 0 0 1 8.7-23.3 134.3 134.3 0 0 0 5-17.4c.4-1 1-1.7 1.8-2.2a4 4 0 0 1 2.5-.8 7 7 0 0 1 2.4.4 6 6 0 0 1 2 1.2c.5.6.9 1.4 1.2 2.3.3.9.5 2 .5 3.2a20 20 0 0 1-.6 4.6 519 519 0 0 1-9 21.8 241.2 241.2 0 0 0-7 20.3 82.7 82.7 0 0 0-1.9 9 31 31 0 0 0 0 6.6 5.6 5.6 0 0 0 1.5 3.6c.5.3 1.1.5 1.8.5 1.4 0 3.2-.8 5.3-2.3a65 65 0 0 0 6.8-6 154 154 0 0 0 27-44.4c.4-.8.8-1.2 1.3-1.5a5 5 0 0 1 2-.3c1.4 0 2.6.5 3.6 1.4a4.4 4.4 0 0 1 1.4 4.4l-.3 1-.8 2.3a224.4 224.4 0 0 1-3 9.2 83 83 0 0 0-2.3 13.6 93.1 93.1 0 0 0 0 6.3 56.3 56.3 0 0 0 1.2 7.1 26 26 0 0 0 1.2 3.5c.4 1 1 2 1.5 2.6.6.6 1.3 1 2 1 1.2 0 2.5-.5 3.8-1.5a25 25 0 0 0 4-4l4-5.8a100.4 100.4 0 0 0 7.5-15.4 167.6 167.6 0 0 0 7.6-23.2l1-5.9 1-5.6a210.1 210.1 0 0 1 2.3-11.6 11.5 11.5 0 0 1 2.2-4.2 8 8 0 0 1 1.8-1.6 5 5 0 0 1 2-.5c1.7 0 2.9.4 3.5 1.3a9 9 0 0 1 1 4.6 128.3 128.3 0 0 1-3 19.2l-1.6 6.8a159 159 0 0 1-16.9 39.3 77.5 77.5 0 0 1-10.3 13 27.8 27.8 0 0 1-7.6 4.9 10.4 10.4 0 0 1-10.5-1.5 17 17 0 0 1-4.3-6.1c-1.1-2.5-2-5.4-2.6-8.7-.6-3.3-1-6.6-1.3-10.1-2.1 3.1-4 6-5.8 8.4a90 90 0 0 1-15.4 16.7c-2 1.6-4 2.8-6 3.8a13.2 13.2 0 0 1-11.5.4 9.5 9.5 0 0 1-3.6-3.2c-1-1.4-1.6-3-2-4.8a29 29 0 0 1-.6-6 97.4 97.4 0 0 1 2.2-15.6Zm102.7 3.6c0-1.7.5-3 1.3-4.2.9-1.1 2-1.9 3.5-2.2a47.5 47.5 0 0 1 5.2-8 57.4 57.4 0 0 1 9.9-9.6c2-1.4 4.1-2.5 6.4-3.4a20.5 20.5 0 0 1 13-.5c1.7.6 3 1.3 4.1 2.2a10 10 0 0 1 3.2 7.6 13 13 0 0 1-.5 3.7c-.5 2.1-1.5 4-3 5.5a23 23 0 0 1-5 4.2c-2 1.2-4.1 2.2-6.4 3a67.6 67.6 0 0 1-19.1 3.8 13 13 0 0 0-1.3 5.6 6 6 0 0 0 2.7 5.1c1.7 1.2 4.1 1.8 7.2 1.8a21 21 0 0 0 5.1-.6 29.7 29.7 0 0 0 8.8-3.5l3.5-2.2a24 24 0 0 1 4-2.3c1.2-.6 2.3-1 3.2-1 1 0 1.6.3 1.8.8.3.4.4 1 .4 1.5a13 13 0 0 1 0 1.5 9.4 9.4 0 0 1-3.4 5.5 38.8 38.8 0 0 1-32.5 7.8c-1.3-.4-2.6-.8-4-1.5a12.3 12.3 0 0 1-5.8-6.4 14 14 0 0 1-1-5.6c0-1.8.3-3.8.8-6-.5 0-1-.3-1.4-.7-.5-.5-.7-1.1-.7-2Zm35.7-15.7v-1c0-1-.3-1.8-1-2.3-.8-.5-1.7-.8-2.8-.8-1.7 0-3.3.4-5 1.3a29 29 0 0 0-11 11.5c3-.2 5.4-.6 7.7-1.1 2.3-.5 4.3-1.2 6-2 1.6-.7 3-1.6 4-2.5 1.1-1 1.8-2 2-3.1Zm47.5-41.8c0 .8-.7 2.8-2.2 5.9a118 118 0 0 0-8.4 23.2c-.6 2.4-2.4 3.6-5.6 3.6-3.7 0-5.6-1.6-5.6-4.8 0-2.6 2.3-8.5 6.7-17.7 4.5-9.2 8-13.8 10.7-13.8 3 0 4.4 1.2 4.4 3.6Zm25.7 0c0 1-.8 3-2.3 5.9-3.1 6.3-6 14-8.3 23.2-.6 2.4-2.5 3.6-5.6 3.6-3.8 0-5.6-1.6-5.6-4.8 0-2.6 2.2-8.5 6.6-17.7 4.5-9.2 8-13.8 10.8-13.8 2.9 0 4.4 1.2 4.4 3.6ZM681.5 123.2a335.8 335.8 0 0 1 4.7-17A177.4 177.4 0 0 0 688 99l.3-2c0-.2.2-.4.4-.6a3.5 3.5 0 0 1 1.5-.8l.8-.1c.6 0 1 0 1.4.2l.8.5c.3.2.4.5.5.8l.1 1c0 .6 0 1.3-.3 2l-.8 2.1a43.7 43.7 0 0 1 5.8-3.7 16.3 16.3 0 0 1 6.4-1.6l1.6.3a4 4 0 0 1 2.4 2c.3.7.5 1.3.5 2.1a128.5 128.5 0 0 1 5.3-3.2c1-.4 1.9-.8 2.8-1a8.7 8.7 0 0 1 5.9 0 6 6 0 0 1 2 1.4 5 5 0 0 1 1 2c.2.7.3 1.5.3 2.3 0 1 0 2-.2 2.9a47.2 47.2 0 0 1-2.5 9.1 151.3 151.3 0 0 1-3.6 9c-.3.5-.6 1-1 1.2a2 2 0 0 1-1.3.5c-1.2 0-2-.2-2.4-.6-.4-.4-.6-1-.6-1.7v-.6c0-.3 0-.5.2-.7a241.9 241.9 0 0 1 3-6.6 389.4 389.4 0 0 1 1.9-6.2 46 46 0 0 0 1-5.6v-.9a2 2 0 0 0-.3-.7l-.7-.5c-.2-.2-.6-.2-1-.2-.5 0-1.2.1-2 .5a17.2 17.2 0 0 0-5 3c-.9.7-1.6 1.4-2.1 2l-1.2 1.1-1.1.7-.3.8a291.3 291.3 0 0 0-1.2 3.5l-1.2 3.5-.2.6a21.7 21.7 0 0 0-.6 3.3 52.4 52.4 0 0 0-.6 3.3 3 3 0 0 1-1 1.3c-.4.3-1 .5-1.7.5a2 2 0 0 1-1-.3 3 3 0 0 1-.9-.7l-.5-1a4 4 0 0 1-.3-1.2 105.9 105.9 0 0 1 3.9-12.5 81.7 81.7 0 0 0 1.4-6.2 2 2 0 0 0-.2-1.1c-.2-.3-.6-.5-1-.5-.9 0-1.6.2-2.4.5-.8.3-1.7.8-2.6 1.5a173.7 173.7 0 0 0-6.9 6.3l-.6 1.6a123.3 123.3 0 0 0-2.5 10 78.6 78.6 0 0 0-.6 2.7c-.2.6-.5 1-.8 1.4-.4.5-.9.7-1.5.7-.9 0-1.6-.3-2.2-.8a2.3 2.3 0 0 1-.8-2.1v-.4Zm65.1.6.2-2c.2-.7.3-1.7.3-2.9l-2.2 1.7a36.8 36.8 0 0 1-4.9 3.3c-.8.3-1.6.5-2.3.5a5.2 5.2 0 0 1-3-.9c-1-.8-1.7-1.6-2.2-2.4-.4-.8-.7-1.8-.7-2.9a21.4 21.4 0 0 1 .5-3.3 25 25 0 0 1 10.5-15c1-.7 2-1.2 3-1.4a15.8 15.8 0 0 1 6.1 0 15 15 0 0 1 2-.3c.6 0 1 .1 1.5.3.3.1.7.3.9.6.2.2.4.5.5.9l.2 1-.3 1.5-.4 1.3-3.9 15.2a247.5 247.5 0 0 0-.5 4.2l-.2.7-.5.7-.7.7-1.1.2-1.5-.1c-.3 0-.6-.2-.8-.3a1 1 0 0 1-.4-.6v-.7Zm-9.6-8.7a12 12 0 0 0-.4 2.7c0 .5.1 1 .3 1.4.1.4.5.6 1 .6a5 5 0 0 0 2.3-.5l2-1.3a37.7 37.7 0 0 0 7-7.8 11.7 11.7 0 0 0 1.6-4.8l.2-2c0-.2 0-.4-.2-.7 0-.2-.3-.3-.6-.3a8 8 0 0 0-2.9.5 16.7 16.7 0 0 0-5.3 3.6 21.7 21.7 0 0 0-5 8.6Zm24.2 23.3c-.3 0-.6 0-.8-.2l-.6-.6a3.4 3.4 0 0 1-.5-1.7 2.8 2.8 0 0 1 .5-1.7l.5-.5.4-.2a60.3 60.3 0 0 1 3.6-1 20.8 20.8 0 0 0 5-2.6 39.3 39.3 0 0 0 5.4-5.5 27.7 27.7 0 0 0 4.4-9.5 188 188 0 0 1-4.4 4.5 21 21 0 0 1-3.5 2.2 4 4 0 0 1-1.5.4 6 6 0 0 1-3.3-.9c-1-.6-1.8-1.5-2.6-2.9a5 5 0 0 1-.5-1.5 30.8 30.8 0 0 1 .4-8 85 85 0 0 1 1.6-7.1 15.7 15.7 0 0 1 .2-1.8v-.5c0-.3.2-.6.4-1a3.1 3.1 0 0 1 1.5-1.2l.9-.1h1.2l1 .5.7 1.4.2 1.5-.2 1-.7 1.6a181.8 181.8 0 0 0-2.3 10.4c0 1 .2 1.9.5 2.5.4.6.8.9 1.3.9.3 0 .6 0 1-.2a22.4 22.4 0 0 0 8.4-7.8c.9-1.4 1.6-3 2.2-4.7a57.6 57.6 0 0 0 2-6c0-.2.3-.3.5-.4l.6-.2.7-.1c1 0 1.8.3 2.4.8.5.6.8 1.3.8 2.2l-.3 1.7a59.9 59.9 0 0 1-1.9 6.6l-1.4 4a373.6 373.6 0 0 0-3.3 9.3 30.3 30.3 0 0 1-4.6 7.1 53 53 0 0 1-12.2 8.6c-1.2.5-2.4.7-3.7.7Zm51.6-11.7c-1.2 0-2-.2-2.5-.8-.4-.5-.6-1.2-.6-2l.1-1.6.4-1.8a49.5 49.5 0 0 1 2-6 193.5 193.5 0 0 0 1.8-6.6c0-.3 0-.5-.2-.7l-.6-.2c-.4 0-.9 0-1.4.3a6 6 0 0 0-1.2.5 34.5 34.5 0 0 0-6.1 5.3 103.9 103.9 0 0 0-4.6 6.4 21 21 0 0 0-1.5 3.1l-1 2.2a2 2 0 0 1-.9 1.1c-.3.3-.9.4-1.6.4-.7 0-1.3-.2-1.6-.7-.3-.4-.5-1-.5-1.7l.3-1.9 9.6-38.1.3-.8a2.9 2.9 0 0 1 2.4-1.5 11.9 11.9 0 0 1 2 .2l.7.4.2.8v.4l-.2.9a1114.2 1114.2 0 0 1-7 26.7 41.7 41.7 0 0 1 7.7-7 19 19 0 0 1 4.1-2c1.5-.6 3-.8 4.5-.8 1 0 1.8.3 2.3 1 .6.5.8 1.3.8 2.3l-.1 1.3a38.8 38.8 0 0 1-1.7 5.2 300.4 300.4 0 0 0-1.8 5.4 24.4 24.4 0 0 0-.8 6c0 .6-.2 1.1-.3 1.6a3 3 0 0 1-.6 1.4l-1 1c-.4.2-.9.3-1.4.3ZM825 114c0-.9.3-1.6.7-2.2.5-.5 1-1 1.8-1.1a24 24 0 0 1 2.6-4 29.6 29.6 0 0 1 5-5c1.1-.7 2.2-1.2 3.4-1.7a10.5 10.5 0 0 1 6.6-.2 4.6 4.6 0 0 1 3.3 2.8c.3.7.4 1.4.4 2.1 0 .7 0 1.3-.2 2-.3 1-.8 2-1.6 2.7-.7.9-1.6 1.6-2.6 2.2-1 .6-2 1-3.2 1.5a34.4 34.4 0 0 1-9.7 2l-.5 1.3-.2 1.5c0 1.1.5 2 1.4 2.6.9.6 2.1 1 3.7 1 .9 0 1.7-.2 2.6-.4a15.2 15.2 0 0 0 4.5-1.8l1.8-1.1c.6-.5 1.3-.9 2-1.2.6-.3 1.1-.5 1.6-.5s.8.2 1 .4l.1.8a6.5 6.5 0 0 1 0 .8 4.8 4.8 0 0 1-1.7 2.8 19.8 19.8 0 0 1-16.6 4l-2-.8a6.2 6.2 0 0 1-3-3.3c-.3-.8-.5-1.8-.5-2.9 0-.9.2-1.9.4-3l-.7-.4c-.2-.2-.3-.5-.3-1Zm18.2-8 .1-.3v-.3c0-.5-.2-.9-.6-1.1-.4-.3-.8-.4-1.4-.4-.8 0-1.7.2-2.5.6a14.8 14.8 0 0 0-5.6 5.9 28.4 28.4 0 0 0 7-1.5 8 8 0 0 0 2-1.4c.5-.5.9-1 1-1.5Zm11.7 17.2a328.3 328.3 0 0 1 4.8-17 180.7 180.7 0 0 0 1.6-7.1l.3-2 .4-.6a3.4 3.4 0 0 1 1.5-.8l.8-.1c.6 0 1 0 1.4.2l.8.5c.3.2.4.5.5.8l.1 1c0 .6 0 1.3-.3 2l-.8 2.1a43.7 43.7 0 0 1 5.8-3.7 16.3 16.3 0 0 1 6.4-1.6c.6 0 1 .1 1.6.3a4 4 0 0 1 2.5 2c.2.7.4 1.3.4 2.1a131.3 131.3 0 0 1 5.3-3.2c1-.4 1.9-.8 2.8-1a8.7 8.7 0 0 1 5.9 0 6 6 0 0 1 2 1.4 5 5 0 0 1 1 2c.2.7.3 1.5.3 2.3 0 1 0 2-.2 2.9a48 48 0 0 1-2.5 9.1 151.3 151.3 0 0 1-3.6 9c-.3.5-.6 1-1 1.2a2 2 0 0 1-1.3.5c-1.1 0-2-.2-2.4-.6-.4-.4-.6-1-.6-1.7v-.6l.2-.7a241.9 241.9 0 0 1 3-6.6 439 439 0 0 1 1.9-6.2 45.4 45.4 0 0 0 1-5.6v-.9a2 2 0 0 0-.3-.7l-.6-.5c-.3-.2-.6-.2-1-.2-.6 0-1.3.1-2.1.5a17.2 17.2 0 0 0-5 3 18 18 0 0 0-2.1 2l-1.2 1.1-1 .7-.4.8a291.3 291.3 0 0 0-1.2 3.5l-1.2 3.5c0 .4-.2.6-.2.6a21.7 21.7 0 0 0-.6 3.3 52.4 52.4 0 0 0-.6 3.3 3 3 0 0 1-1 1.3c-.3.3-1 .5-1.7.5a2 2 0 0 1-1-.3 3 3 0 0 1-.9-.7l-.5-1a4 4 0 0 1-.3-1.2 105.9 105.9 0 0 1 3.9-12.5 81.7 81.7 0 0 0 1.5-6.2 2 2 0 0 0-.3-1.1c-.2-.3-.6-.5-1-.5-.8 0-1.6.2-2.4.5-.8.3-1.6.8-2.6 1.5a173.7 173.7 0 0 0-6.9 6.3l-.5 1.6a123.3 123.3 0 0 0-2.6 10 57.6 57.6 0 0 0-.6 2.7c-.2.6-.5 1-.8 1.4-.4.5-.9.7-1.5.7-.9 0-1.6-.3-2.2-.8a2.3 2.3 0 0 1-.8-2.1v-.4Zm68.8-38.6c0 .8-.4 2-1.2 3.6a525.8 525.8 0 0 0-6.8 17.7c-.4 1-.7 2.5-1 4-.3 1.3-1.2 2-2.7 2-1.9 0-2.8-1-2.8-2.9a99.2 99.2 0 0 1 9-23c1.3-2 2.5-3 3.7-3 1.2 0 1.8.5 1.8 1.6Zm-9.7 35.8c0 1.3-.5 2.5-1.5 3.5a5 5 0 0 1-3.5 1.4c-1 0-1.9-.3-2.6-1-.7-.7-1-1.6-1-2.6 0-1.3.5-2.5 1.6-3.5a5 5 0 0 1 3.5-1.5c1 0 1.9.3 2.5 1a4 4 0 0 1 1 2.7Zm-82.5 174.4c0 .3-.3.9-.7 1.8-1 2-2 4.3-2.7 7-.1.8-.7 1.2-1.7 1.2-1.1 0-1.7-.5-1.7-1.5 0-.8.7-2.6 2-5.4 1.4-2.8 2.5-4.2 3.4-4.2.9 0 1.3.4 1.3 1.1Zm.3 21 .6-2.3.8-2.8a484 484 0 0 0 2-6.6 1.8 1.8 0 0 1 1.3-.4h.6l.5.2.3.3.2.5v.2l-.5 1.8a892.8 892.8 0 0 1-3.7 12.9l-.3.3h-.4l-.8-.1a2 2 0 0 1-1-1l-.1-.7v-.3l.5-2Zm4.6-17.8.3-.9.9-1a4 4 0 0 1 1.2-.3h.4l.3.3.4.4c.3 0 .4.2.5.3l.2.7v.5l-.2.3c0 .3-.2.5-.4.7a3 3 0 0 1-.7.5 3.9 3.9 0 0 1-1.5.5c-.3 0-.5 0-.7-.2l-.5-.5-.2-.4a1.4 1.4 0 0 1 0-.6v-.3Zm5 17.9h.3l.2.1h.4l.4.1c.6 0 1.2 0 1.9-.2a15.5 15.5 0 0 0 3.4-1c.5-.3.7-.5.8-.8v-.3c0-.2 0-.4-.3-.6l-.7-.5-1-.4-1.5-.7a6.3 6.3 0 0 1-1.7-1l-.7-.7-.4-1a5 5 0 0 1-.2-1c0-.3.1-.7.3-1l.8-1.2a9.7 9.7 0 0 1 2.6-2 18.7 18.7 0 0 1 2-1l1-.4a5 5 0 0 1 1.2-.1h1.1l1.2.3c.3 0 .6.3.8.5.2.3.4.6.4 1a3.1 3.1 0 0 1-.6 1.7l-.4.2c-.3 0-.5 0-.7-.2l-.4-.3a5 5 0 0 0-.5-.3 1 1 0 0 0-.6-.2l-.9.1a7.9 7.9 0 0 0-2.2 1l-1 .7-.7.7-.3.6.2.5c.2 0 .3.2.5.3l1 .4a301.7 301.7 0 0 0 3.6 1.7l.7.5a2 2 0 0 1 .5 1.4v.5a7 7 0 0 1-.9 2.4l-.2.3-1.7 1.2a14.7 14.7 0 0 1-5.8 1.8c-.3 0-.6 0-1-.2-.3 0-.6-.2-1-.4a3 3 0 0 1-.6-.6 1 1 0 0 1-.3-.7v-.4a1.8 1.8 0 0 1 .7-.7l.3-.1Zm26.8 4.1c-.7 0-1.2-.2-1.5-.6-.3-.3-.4-.7-.4-1.2v-1l.3-1a29.5 29.5 0 0 1 1.2-3.6 112.6 112.6 0 0 0 1.1-4v-.3l-.5-.2-.8.2-.8.3a21 21 0 0 0-3.7 3.2l-1.4 1.7a60.1 60.1 0 0 0-2.3 4l-.5 1.2c-.2.4-.4.6-.6.7-.2.2-.6.3-1 .3s-.8-.2-1-.4a2 2 0 0 1-.3-1c0-.4 0-.8.2-1.2l5.8-22.7.2-.5a1.7 1.7 0 0 1 .8-.8l.7-.1a7.6 7.6 0 0 1 1.2.1c.2 0 .3.2.4.3l.2.4v.3l-.2.5a683.4 683.4 0 0 1-4.2 16 25 25 0 0 1 4.6-4.3 15 15 0 0 1 2.6-1.2c.9-.3 1.8-.4 2.7-.4.6 0 1 .2 1.4.5.3.4.5.9.5 1.5v.7a22.4 22.4 0 0 1-1.1 3.1 139.1 139.1 0 0 0-1 3.2 14.3 14.3 0 0 0-.6 3.6c0 .4 0 .7-.2 1 0 .3-.2.6-.3.8l-.6.6-.9.2ZM74 1912.4c1 .7 1.4 1.2 1.4 1.5 0 .2 0 .3-.2.4l-.3.1c-.3 0-.5-.1-.8-.4l-.9-.8-.3 1.6c-.1.4-.3.6-.6.6-.4 0-.6-.2-.6-.7 0-.3 0-.8.3-1.4-.2 0-.3.1-.5.3l-1.1.5c-.4 0-.6-.2-.6-.5 0-.2 0-.3.2-.4l1.8-1-.8-.5c-.3-.1-.5-.3-.5-.6 0-.1 0-.2.2-.3l.4-.1c.3 0 .8.2 1.5.6l.5-1.2c.2-.3.3-.4.5-.4h.4v.5l-.2 1.2 1.6-.4c.4 0 .6.1.6.4 0 .3-.3.5-.8.7l-1.1.3Zm8 2.4-.6.2-.6.3a9.6 9.6 0 0 0-1.5 1.1 9.2 9.2 0 0 1-.7.5l-.2.5a11 11 0 0 0-.8 2.8 12.8 12.8 0 0 1-.2.8l-.1.3a.7.7 0 0 1-.6.2c-.2 0-.3 0-.5-.2l-.2-.5v-.5a37.9 37.9 0 0 1 2.3-6.6l.3-.2a1.1 1.1 0 0 1 1 0l.2.4v.1l-.1.2-.4.8a25.8 25.8 0 0 1 1.5-1l.8-.4h.8c.5 0 1 0 1.3.3.3.3.4.7.4 1.3 0 .3 0 .7-.2 1.1a17.8 17.8 0 0 1-1 3 28.8 28.8 0 0 0-1 2.2l-.2.1H81l-.1-.4v-.6a7.4 7.4 0 0 1 .6-1.5l.3-1 .4-.7a13.5 13.5 0 0 0 .4-1.3v-1.1l-.4-.2Zm3.6 3.6a5.8 5.8 0 0 1 1.1-2.2 8 8 0 0 1 2.8-2.2l.5-.1c.2-.3.5-.4.9-.4s.8.1 1 .3c.4.2.6.5.8.9a10 10 0 0 1 .3.7 3.3 3.3 0 0 1 .1.9c0 .4 0 .9-.2 1.3a7.2 7.2 0 0 1-2.7 3.5 3.6 3.6 0 0 1-2.2.7c-.4 0-.8 0-1.1-.2a2 2 0 0 1-1.2-1.2c-.2-.3-.2-.6-.2-1l.1-1Zm1.4 0a2.5 2.5 0 0 0 0 .8v.4a1 1 0 0 0 .6.7h.6c.4 0 .8 0 1.2-.2l1-.8a5 5 0 0 0 1.2-3v-.4a4.6 4.6 0 0 0-.4-.7l-.1-.3-.2.2-.2.2a5.9 5.9 0 0 1-1 .2c-.3 0-.5.2-.6.3a4.3 4.3 0 0 0-1.1 1 5.8 5.8 0 0 0-1 1.7Zm8.7.6c0-.5 0-1 .2-1.4 0-.5.2-1 .3-1.4a2.1 2.1 0 0 1-.8-.3 1 1 0 0 1-.3-.2l-.2-.3v-.2l.2-.2.1-.2h1.3c.2 0 .2-.1.3-.2v-.3a18.5 18.5 0 0 1 .6-2v-1l.2-.3.4-.1h.4l.3.3.1.3a1.4 1.4 0 0 1 0 .7l-.6 2.3.8-.1.7-.2a18.4 18.4 0 0 0 1.1-.2h.4a1.2 1.2 0 0 1 .5 0h.2l.2.1v.6a1 1 0 0 1-.5.4l-.3.1a10.5 10.5 0 0 0-1.4.3 42.2 42.2 0 0 0-2.1.5 13 13 0 0 0-.6 2.9v.4c0 .1 0 .2.2.3l.2.2.5.1c.2 0 .5 0 .8-.2l.8-.6.8-.8a28.5 28.5 0 0 0 .8-1 .5.5 0 0 1 .3.1l.1.1v.2a81.3 81.3 0 0 1-1.6 2.7 5.6 5.6 0 0 1-.7.6 2 2 0 0 1-.7.3H98l-1-.1a2 2 0 0 1-.7-.5l-.4-.8-.2-1Zm16.1 1 .3-1.1.3-1.3a241.1 241.1 0 0 0 1-3.1.8.8 0 0 1 .6-.2h.2l.3.1.1.2.1.2-.2 1a403.2 403.2 0 0 1-1.9 6.1h-.6a1 1 0 0 1-.5-.8v-.2l.3-1Zm2.1-8.3.2-.5.4-.4a1.8 1.8 0 0 1 .6-.2h.1l.2.2.1.2.3.1v.7c0 .1 0 .2-.2.3l-.3.3a1.8 1.8 0 0 1-.7.2h-.3l-.3-.4-.1-.1a.7.7 0 0 1 0-.3v-.1Zm8.1 3.1c-.2 0-.4 0-.7.2l-.6.3a9.4 9.4 0 0 0-1.5 1.1 9.2 9.2 0 0 1-.7.5l-.2.5a10.4 10.4 0 0 0-.8 2.4 15.5 15.5 0 0 1-.2 1.2l-.1.3a.7.7 0 0 1-.6.2c-.2 0-.3 0-.5-.2l-.2-.5v-.5a37.8 37.8 0 0 1 2.3-6.6l.3-.2a1.1 1.1 0 0 1 1 0l.1.4v.3l-.4.8a25.8 25.8 0 0 1 1.5-1l.8-.4h.8c.5 0 1 0 1.3.3.3.3.4.7.4 1.3 0 .3 0 .7-.2 1.1a17.8 17.8 0 0 1-1 3 27.3 27.3 0 0 0-.7 2l-.2.2-.3.1h-.8l-.1-.4v-.6l.3-.7a19.1 19.1 0 0 1 1-2.5 13.5 13.5 0 0 0 .4-1.3v-1.1l-.4-.2Zm4.6 4.2c0-.5 0-1 .2-1.4l.3-1.4a2.1 2.1 0 0 1-.8-.3 1 1 0 0 1-.3-.2l-.1-.3v-.2l.1-.2c0-.1 0-.2.2-.2h1.2c.2 0 .3-.1.3-.2l.1-.3a17.2 17.2 0 0 1 .5-2v-1l.3-.3.4-.1h.3l.3.3.1.3a1.4 1.4 0 0 1 0 .7l-.6 2.3.8-.1.7-.2.7-.1.5-.1h.3a1.2 1.2 0 0 1 .5 0h.2l.2.1v.6l-.2.2-.3.2-.3.1-.3.1-.5.1a35.5 35.5 0 0 0-2.7.6 13 13 0 0 0-.6 2.9v.4l.2.3.2.2.5.1c.3 0 .6 0 .8-.2l.8-.6.8-.8a30.5 30.5 0 0 0 .9-1 .5.5 0 0 1 .2.1l.1.1v.2c0 .4-.2.8-.3 1a96.7 96.7 0 0 1-1.2 1.8 5.2 5.2 0 0 1-.8.5 2 2 0 0 1-.7.3h-.7l-1-.1a2 2 0 0 1-.7-.5l-.4-.8-.2-1Zm7.7-.6c0-.3 0-.5.2-.6l.5-.4a7 7 0 0 1 3.1-3 3 3 0 0 1 2 0c.2 0 .4.2.5.3l.4.5v1.1c0 .3-.2.6-.4.8l-.8.6-.9.4a10 10 0 0 1-2.8.6l-.1.3v.5c0 .3 0 .5.3.7.3.2.6.2 1 .2h.8a4.4 4.4 0 0 0 1.3-.5l.5-.4.6-.3.5-.1h.2v.3a1.7 1.7 0 0 1 0 .2l-.1.4c0 .2-.2.3-.3.4a5.7 5.7 0 0 1-4.7 1.1 3 3 0 0 1-.6-.2c-.2 0-.4-.2-.5-.4l-.4-.5a2 2 0 0 1-.1-.8l.1-.9h-.2l-.1-.3Zm5.2-2.3v-.1c0-.2 0-.3-.2-.3a.7.7 0 0 0-.4-.2l-.7.2-.6.5a4.2 4.2 0 0 0-1 1.2 8.3 8.3 0 0 0 2-.5l.6-.3.3-.5Zm3.5 4.5a90.4 90.4 0 0 1 1-5.3v-.1a3.8 3.8 0 0 1 .2-1c0-.2 0-.3.2-.4l.3-.1h.4l.2.3.1.4v.9a21 21 0 0 1 1.1-1l.6-.3a1.8 1.8 0 0 1 1.3 0h.3l.3.3.5.5.2.6v.2l-.2.3-.2.2h-.6a1 1 0 0 1-.3-.2l-.2-.1a3.6 3.6 0 0 1-.2-.4 1 1 0 0 0-.2 0l-.8.1-.7.5-.6.7-.5.6a80.3 80.3 0 0 1-.8 3v.6l-.1.5-.3.2h-.4c-.2 0-.4 0-.5-.2a.8.8 0 0 1-.2-.5v-.3Zm13-5.8c-.3 0-.5 0-.7.2l-.7.3a9.4 9.4 0 0 0-1.4 1.1 10 10 0 0 1-.7.5l-.3.5a10.4 10.4 0 0 0-.7 2.4 15.5 15.5 0 0 1-.3 1.2v.3a.7.7 0 0 1-.6.2c-.2 0-.4 0-.5-.2-.2 0-.2-.3-.2-.5v-.5a37.8 37.8 0 0 1 2.3-6.6l.2-.2a1.1 1.1 0 0 1 1 0l.2.4v.3l-.4.8a25.9 25.9 0 0 1 1.5-1l.8-.4h.8c.5 0 1 0 1.2.3.3.3.5.7.5 1.3l-.2 1.1a17.8 17.8 0 0 1-1 3 28 28 0 0 0-.8 2l-.2.2-.2.1h-.8l-.1-.4v-.6l.2-.7a17.9 17.9 0 0 1 1-2.5 14.5 14.5 0 0 0 .5-1.3v-1.1l-.5-.2Zm3.3 3.6c0-.3 0-.5.2-.6l.5-.4a6.3 6.3 0 0 1 .7-1 8.4 8.4 0 0 1 1.5-1.5l1-.4a3 3 0 0 1 1.8-.1c.3 0 .5.2.6.3l.4.5v1.1c0 .3-.2.6-.4.8l-.8.6-.9.4a9.8 9.8 0 0 1-2.8.6l-.1.3v.5c0 .3 0 .5.3.7.3.2.6.2 1 .2h.8a4.4 4.4 0 0 0 1.3-.5l.5-.4.6-.3.5-.1h.2v.3a1.7 1.7 0 0 1 0 .2 1.3 1.3 0 0 1-.4.8 5.7 5.7 0 0 1-4.8 1.1 3 3 0 0 1-.5-.2c-.2 0-.4-.2-.5-.4l-.4-.5a2 2 0 0 1-.1-.8v-.9h-.1l-.1-.3Zm5.2-2.3v-.1c0-.2 0-.3-.2-.3a.7.7 0 0 0-.4-.2l-.7.2-.6.5a4.2 4.2 0 0 0-1 1.2 8.3 8.3 0 0 0 2-.5l.6-.3.3-.5Zm4.5 2.9.1-1.4.4-1.4a2.1 2.1 0 0 1-.9-.3 1 1 0 0 1-.3-.2v-.7l.2-.2h1.3l.3-.2v-.3a17.2 17.2 0 0 1 .5-2v-.7l.1-.3.2-.3.4-.1h.4l.2.3.2.3a1.4 1.4 0 0 1 0 .7l-.6 2.3.8-.1.7-.2.6-.1.5-.1h.3a1.2 1.2 0 0 1 .5 0h.3l.2.1v.6l-.3.2-.2.2-.4.1-.3.1-.5.1a35.5 35.5 0 0 0-2.6.6 13 13 0 0 0-.7 2.9v.4l.2.3.3.2.4.1c.3 0 .6 0 .9-.2l.8-.6.7-.8a30.5 30.5 0 0 0 1-1 .5.5 0 0 1 .2.1v.1l.1.2a96.7 96.7 0 0 1-1.6 2.7 5.2 5.2 0 0 1-.8.6 2 2 0 0 1-.7.3h-.7l-1-.1a2 2 0 0 1-.6-.5l-.5-.8-.1-1Zm16-.6.1-.6.5-.4a7 7 0 0 1 3.2-3 3 3 0 0 1 1.9 0c.2 0 .4.2.5.3l.4.5.1.6v.5l-.5.8-.7.6-1 .4a9.8 9.8 0 0 1-2.7.6l-.2.3v.5c0 .3.1.5.4.7.2.2.6.2 1 .2h.8a4.4 4.4 0 0 0 1.2-.5l.6-.4c.2 0 .3-.2.5-.3l.5-.1h.3v.3a2.5 2.5 0 0 1 0 .2c0 .2 0 .3-.2.4 0 .2-.2.3-.3.4a5.7 5.7 0 0 1-4.7 1.1 3 3 0 0 1-.6-.2c-.2 0-.3-.2-.5-.4l-.3-.5a2 2 0 0 1-.2-.8l.1-.9h-.2v-.3Zm5.1-2.3v-.1l-.1-.3a.7.7 0 0 0-.4-.2l-.7.2-.7.5a4.2 4.2 0 0 0-1 1.2 8.3 8.3 0 0 0 2-.5c.3 0 .5-.2.6-.3.2-.2.3-.3.3-.5Zm3.1 5a.8.8 0 0 1-.8.1l-.2-.1a.7.7 0 0 1-.1-.5v-.3l.2-.2.3-.1h.2a12.6 12.6 0 0 0 1.6-1.3 51.5 51.5 0 0 0 1.7-1.4l.3-.3a7.1 7.1 0 0 0-.7-1.7l-.5-.7v-.4a.8.8 0 0 1 .3-.5h.8l.4.4.3.3a8 8 0 0 1 .3.7v.3l.2.3v.3a12.8 12.8 0 0 0 1.8-1.9l.3-.3.4-.2.3-.1.5.1.1.5-.1.5-.3.3a8.8 8.8 0 0 0-1 1 151.2 151.2 0 0 1-1.4 1.5v.2l.1.3a35.8 35.8 0 0 1 1.4 3 1 1 0 0 1-.4.8h-.3a1 1 0 0 1-.3 0l-.2-.1-.2-.3a11 11 0 0 1-.4-1 24.4 24.4 0 0 0-1-2l-1 1-1 .7-1.6 1.1Zm7.8 3.4a64.5 64.5 0 0 0 .7-3.2l.2-.9.2-1 .6-2.9a8.5 8.5 0 0 0 .2-2l.1-.4.2-.2.4-.1h.6l.3.3.1.4v.5l.7-.4a5.7 5.7 0 0 1 1.6-.4h.8l1 .1a2.2 2.2 0 0 1 1.2 1.4l.2 1c0 .3 0 .6-.2 1l-.5.9a7.2 7.2 0 0 1-2.6 2 14.8 14.8 0 0 1-1.7.7 2.5 2.5 0 0 1-1.2 0l-.6-.3a14.7 14.7 0 0 0-.6 2.5 34.8 34.8 0 0 1-.4 1.5l-.2.1a1.6 1.6 0 0 1-.6 0c-.4 0-.6 0-.6-.4v-.3Zm2.5-4.7a5.6 5.6 0 0 1 .8.1h.5a3.6 3.6 0 0 0 .8-.3l.3-.1a10.4 10.4 0 0 0 1.7-1.1l.7-.9.2-1v-.4a1 1 0 0 0-.2-.3l-.3-.3a1 1 0 0 0-.5 0 3.7 3.7 0 0 0-1 0 3.4 3.4 0 0 0-1 .6l-.5.3a2 2 0 0 1-.6.2l-.9 3.2Zm10.2-8.8a16.3 16.3 0 0 1 .2-1.2l.3-.4.4-.2h.3l.3.2.2.2a.4.4 0 0 1 .1.4v.2l-2.1 8a14.2 14.2 0 0 0-.3 1.7v.7l-.2.5c0 .2-.2.3-.3.4l-.4.2a.8.8 0 0 1-.6-.3 1 1 0 0 1-.2-.6v-.4a7.4 7.4 0 0 1 .2-1.1l2.1-8.3Zm1.9 7.4a5.8 5.8 0 0 1 1.1-2.2 7.9 7.9 0 0 1 2.8-2.2l.5-.1c.2-.3.5-.4.9-.4s.8.1 1 .3c.4.2.6.5.8.9a12.1 12.1 0 0 1 .3.7 3.3 3.3 0 0 1 .1.9c0 .4 0 .9-.2 1.3a7.3 7.3 0 0 1-2.7 3.5 3.6 3.6 0 0 1-2.2.7c-.4 0-.8 0-1.1-.2a2 2 0 0 1-1.2-1.2c-.2-.3-.2-.6-.2-1l.1-1Zm1.4 0a2.7 2.7 0 0 0 0 .8v.4a1 1 0 0 0 .6.7h.6c.4 0 .8 0 1.2-.2l1-.8a5 5 0 0 0 1.2-3v-.4a4.6 4.6 0 0 0-.4-.7l-.1-.3-.2.2-.2.2a5.9 5.9 0 0 1-1 .2c-.3 0-.5.2-.6.3a4.3 4.3 0 0 0-1.1 1 5.8 5.8 0 0 0-1 1.7Zm7.7 2.2a78.2 78.2 0 0 1 1-5.3v-.1a3.8 3.8 0 0 1 .2-1l.2-.4.3-.1h.4l.3.3v1.3a21 21 0 0 1 1.1-1l.6-.3a1.9 1.9 0 0 1 1.3 0h.3l.4.3.4.5c.2.2.2.4.2.6v.2l-.2.3-.2.2h-.6a1 1 0 0 1-.3-.2l-.1-.1-.1-.2-.1-.2h-.1a1 1 0 0 0-.2 0l-.8.1-.7.5-.6.7-.5.6a65.5 65.5 0 0 1-.8 3v1.1l-.4.2h-.3c-.3 0-.5 0-.6-.2a.8.8 0 0 1-.1-.5v-.3Zm6.9-2.2.2-.6.5-.4a6.6 6.6 0 0 1 .8-1 8.4 8.4 0 0 1 1.4-1.5l1-.4a3 3 0 0 1 1.9-.1l.6.3.3.5.1.6v.5l-.5.8-.7.6-1 .4a9.9 9.9 0 0 1-2.7.6l-.2.3v.5c0 .3.1.5.4.7.2.2.6.2 1 .2h.8a4.4 4.4 0 0 0 1.3-.5l.5-.4c.2 0 .4-.2.5-.3l.5-.1h.3v.3a1.7 1.7 0 0 1 0 .2 1.3 1.3 0 0 1-.5.8 5.7 5.7 0 0 1-4.7 1.1 3 3 0 0 1-.6-.2c-.2 0-.3-.2-.5-.4l-.3-.5a2 2 0 0 1-.2-.8l.1-.9h-.2v-.3Zm5.2-2.3v-.1l-.1-.3a.7.7 0 0 0-.4-.2l-.7.2-.7.5a4.2 4.2 0 0 0-1 1.2 8.3 8.3 0 0 0 2-.5c.3 0 .5-.2.6-.3.2-.2.3-.3.3-.5Zm3.5 4.5a78.2 78.2 0 0 1 1-5.3v-.1a3.6 3.6 0 0 1 .2-1l.2-.4.4-.1h.4l.2.3v.4l.1.4v.5a21 21 0 0 1 1-1l.7-.3a1.9 1.9 0 0 1 1.2 0h.3l.4.3.5.5.1.6v.2l-.1.3-.3.2h-.6a1 1 0 0 1-.3-.2l-.1-.1-.1-.2-.1-.2a1 1 0 0 0-.3 0l-.8.1-.7.5-.6.7-.5.6a65.5 65.5 0 0 1-.8 3v1.1l-.3.2h-.4c-.3 0-.4 0-.6-.2a.8.8 0 0 1-.1-.5v-.3Z"/>
</svg>
